<svg width="111" height="109" viewBox="0 0 111 109" fill="none" xmlns="http://www.w3.org/2000/svg">
<path d="M25.7904 28.1363L23.3953 16.868L24.53 16.6268L30.4721 24.4585L32.6916 14.892L33.8419 14.6475L36.2354 25.9079L35.0851 26.1524L33.2156 17.3569L31.2965 25.6819L30.2166 25.9114L25.0774 19.0868L26.9486 27.8901L25.7904 28.1363ZM39.8781 16.0635C42.1213 15.5866 43.4919 16.5194 43.9897 18.8617L45.0892 24.0342L43.9467 24.277L43.644 22.8528C43.4567 23.4597 43.1348 23.9589 42.6782 24.3504C42.2216 24.7418 41.6386 25.013 40.9291 25.1638C40.4753 25.2603 40.0562 25.2894 39.6718 25.2511C39.2886 25.2181 38.9496 25.1238 38.6548 24.9684C38.3589 24.8077 38.111 24.5905 37.9111 24.3168C37.7111 24.043 37.5707 23.7157 37.4897 23.3349C37.3955 22.8915 37.3959 22.4961 37.4911 22.1487C37.5904 21.795 37.7666 21.4822 38.0196 21.2103C38.2767 20.9321 38.6032 20.6855 38.9992 20.4705C39.4003 20.2544 39.8525 20.0601 40.3556 19.8877L42.8306 19.0263C42.6543 18.1969 42.3463 17.6326 41.9065 17.3335C41.4656 17.0292 40.8591 16.9591 40.087 17.1232C38.8141 17.3937 38.1467 18.089 38.0849 19.209L36.9423 19.182C36.9764 18.3678 37.245 17.6945 37.748 17.1623C38.2551 16.6238 38.9652 16.2575 39.8781 16.0635ZM40.6631 20.7956C40.2464 20.9387 39.8942 21.09 39.6063 21.2493C39.3237 21.4075 39.0983 21.5781 38.93 21.7611C38.7658 21.9377 38.6599 22.132 38.6122 22.3439C38.5634 22.5505 38.5657 22.7791 38.6189 23.0295C38.8296 24.0207 39.5948 24.376 40.9147 24.0955C41.2799 24.0178 41.6058 23.8968 41.8925 23.7322C42.1781 23.5625 42.4184 23.3587 42.6132 23.121C42.8122 22.877 42.961 22.6027 43.0599 22.2982C43.1587 21.9936 43.2066 21.6672 43.2034 21.3189C43.2101 21.0939 43.1938 20.863 43.1543 20.626C43.1137 20.3838 43.0735 20.1688 43.0335 19.981L40.6631 20.7956ZM45.3221 15.1517L46.4724 14.9072L48.0359 22.2628L51.7529 21.4728L50.1894 14.1171L51.3397 13.8726L52.9032 21.2283L56.6201 20.4382L55.0566 13.0825L56.2069 12.838L58.0033 21.2892L47.1185 23.6029L45.3221 15.1517ZM61.6419 11.4374C63.8851 10.9606 65.2556 11.8934 65.7535 14.2357L66.853 19.4082L65.7105 19.651L65.4078 18.2268C65.2205 18.8337 64.8986 19.3328 64.442 19.7243C63.9854 20.1158 63.4024 20.387 62.6929 20.5378C62.239 20.6342 61.8199 20.6633 61.4356 20.6251C61.0523 20.592 60.7133 20.4978 60.4186 20.3424C60.1227 20.1817 59.8748 19.9645 59.6749 19.6907C59.4749 19.417 59.3345 19.0897 59.2535 18.7089C59.1593 18.2655 59.1597 17.8701 59.2549 17.5227C59.3542 17.169 59.5304 16.8562 59.7834 16.5843C60.0405 16.3061 60.367 16.0595 60.7629 15.8445C61.1641 15.6283 61.6163 15.4341 62.1194 15.2617L64.5944 14.4003C64.4181 13.5708 64.11 13.0065 63.6703 12.7074C63.2293 12.4031 62.6229 12.333 61.8508 12.4971C60.5779 12.7677 59.9105 13.463 59.8487 14.583L58.7061 14.5559C58.7402 13.7417 59.0088 13.0685 59.5118 12.5363C60.0189 11.9978 60.7289 11.6315 61.6419 11.4374ZM62.4269 16.1696C62.0102 16.3127 61.658 16.4639 61.3701 16.6232C61.0875 16.7815 60.8621 16.9521 60.6938 17.1351C60.5296 17.3117 60.4236 17.506 60.376 17.7179C60.3272 17.9245 60.3295 18.153 60.3827 18.4034C60.5934 19.3946 61.3586 19.75 62.6785 19.4694C63.0436 19.3918 63.3696 19.2707 63.6563 19.1062C63.9419 18.9364 64.1822 18.7327 64.377 18.495C64.5759 18.251 64.7248 17.9767 64.8237 17.6721C64.9225 17.3676 64.9704 17.0412 64.9672 16.6929C64.9739 16.4679 64.9575 16.2369 64.9181 16C64.8775 15.7578 64.8373 15.5428 64.7973 15.355L62.4269 16.1696ZM69.0302 20.0577C69.0511 20.0532 69.0719 20.0488 69.0928 20.0444C69.2337 20.0144 69.3412 19.9561 69.4155 19.8695C69.4961 19.7869 69.5393 19.6823 69.5451 19.5557C69.5572 19.4331 69.5455 19.2884 69.51 19.1215C69.5056 19.1006 69.5006 19.0771 69.4951 19.051C69.4821 19.0156 69.4723 18.9823 69.4656 18.951C69.459 18.9197 69.4523 18.8884 69.4457 18.8571L68.7336 19.0084L68.3826 17.3573L69.7207 17.0729L70.1382 19.037C70.2059 19.3552 70.2076 19.6329 70.1435 19.8701C70.0806 20.1125 69.9734 20.2879 69.8219 20.3965C69.6716 20.5102 69.5208 20.5831 69.3696 20.6153C69.2809 20.6342 69.1848 20.6437 69.0812 20.6439L69.0302 20.0577ZM18.3267 46.0802L16.5303 37.629L23.1739 36.2169L24.9702 44.6681L23.8199 44.9126L22.2564 37.5569L17.9135 38.48L19.477 45.8357L18.3267 46.0802ZM30.724 43.6904C30.1032 43.8224 29.5254 43.8361 28.9907 43.7317C28.4548 43.622 27.9737 43.4108 27.5474 43.0979C27.1251 42.7787 26.7645 42.3647 26.4654 41.8557C26.1653 41.3416 25.9437 40.748 25.8007 40.075C25.6554 39.3916 25.6159 38.7566 25.682 38.1701C25.7482 37.5835 25.9124 37.0606 26.1746 36.6014C26.4358 36.1369 26.7894 35.7482 27.2354 35.4353C27.6866 35.1213 28.22 34.8989 28.8356 34.7681C29.2634 34.6771 29.6767 34.6465 30.0756 34.6762C30.4797 34.7048 30.8547 34.7887 31.2005 34.9279C31.5505 35.0607 31.8686 35.2493 32.155 35.4938C32.4404 35.733 32.6787 36.0204 32.8699 36.356L31.8196 36.9554C31.6673 36.7261 31.4892 36.5295 31.2853 36.3656C31.0815 36.2018 30.8608 36.0742 30.6233 35.9829C30.391 35.8905 30.1419 35.8344 29.876 35.8146C29.61 35.7948 29.3388 35.8143 29.0623 35.8731C28.6189 35.9673 28.2417 36.1293 27.9306 36.359C27.6196 36.5887 27.3777 36.8745 27.2051 37.2166C27.0365 37.5523 26.9366 37.9416 26.9053 38.3844C26.8729 38.822 26.9116 39.2991 27.0214 39.8155C27.129 40.3216 27.2839 40.7685 27.4863 41.1562C27.6939 41.5428 27.9441 41.8604 28.2368 42.109C28.5284 42.3523 28.8636 42.5183 29.2423 42.6068C29.6199 42.6901 30.0356 42.6835 30.4894 42.5871C31.0737 42.4629 31.5364 42.2282 31.8774 41.8831C32.2173 41.5328 32.4405 41.0819 32.5468 40.5304L33.7781 40.6285C33.6207 41.4526 33.2809 42.1246 32.759 42.6445C32.2422 43.1632 31.5639 43.5119 30.724 43.6904ZM40.7518 32.4806L42.5482 40.9317L41.3979 41.1763L39.989 34.5483L36.9766 42.116L35.8263 42.3605L34.03 33.9093L35.1803 33.6648L36.5891 40.2927L39.6015 32.7251L40.7518 32.4806ZM43.8054 40.6645L46.1995 35.69L42.0795 32.1983L43.4567 31.9056L46.6845 34.6628L48.4883 30.8361L49.8656 30.5434L47.522 35.4089L51.7402 38.9779L50.3551 39.2723L47.0604 36.4312L45.1905 40.3701L43.8054 40.6645ZM56.271 38.2602C55.645 38.3933 55.0609 38.403 54.5187 38.2892C53.9765 38.1754 53.4917 37.9595 53.0642 37.6414C52.6357 37.3181 52.2719 36.902 51.9728 36.3931C51.679 35.883 51.4623 35.2993 51.3226 34.642C51.1817 33.9795 51.1444 33.3549 51.2106 32.7683C51.2819 32.1807 51.4482 31.6546 51.7093 31.1902C51.9705 30.7257 52.3261 30.3339 52.7762 30.0146C53.2264 29.6954 53.7592 29.4704 54.3748 29.3395C55.006 29.2054 55.5927 29.1952 56.1349 29.3089C56.6771 29.4227 57.1619 29.6386 57.5894 29.9567C58.0168 30.2747 58.3775 30.6888 58.6713 31.1989C58.9692 31.7026 59.188 32.2831 59.3277 32.9405C59.4685 33.603 59.5064 34.2301 59.4414 34.8219C59.3752 35.4085 59.2116 35.934 58.9504 36.3985C58.6893 36.8629 58.3342 37.2573 57.8852 37.5818C57.4351 37.901 56.897 38.1272 56.271 38.2602ZM56.0364 37.1569C56.5007 37.0582 56.8879 36.8914 57.1978 36.6565C57.5129 36.4205 57.7542 36.132 57.9217 35.7911C58.0943 35.449 58.1943 35.0598 58.2214 34.6232C58.2527 34.1804 58.2146 33.706 58.107 33.1999C57.9972 32.6835 57.8385 32.2319 57.631 31.8453C57.4286 31.4576 57.1795 31.1452 56.8838 30.9082C56.5869 30.6659 56.2471 30.5037 55.8643 30.4215C55.4867 30.3382 55.0684 30.3453 54.6093 30.4429C54.145 30.5416 53.7553 30.7089 53.4402 30.9449C53.1291 31.1746 52.8878 31.4631 52.7163 31.8104C52.5488 32.1513 52.4515 32.54 52.4244 32.9765C52.3972 33.413 52.4368 33.8817 52.5433 34.3825C52.6531 34.899 52.8123 35.3531 53.021 35.745C53.2286 36.1316 53.4782 36.4466 53.7698 36.6899C54.0667 36.9322 54.4039 37.095 54.7815 37.1783C55.1643 37.2605 55.5826 37.2534 56.0364 37.1569ZM60.98 36.0734C61.1245 36.0863 61.2463 36.0822 61.3454 36.0611C61.5645 36.0146 61.7293 35.8923 61.8399 35.6943C61.9557 35.4952 62.0247 35.2297 62.0469 34.8979C62.0742 34.5649 62.0585 34.1702 61.9997 33.7138C61.9397 33.2522 61.8493 32.7371 61.7284 32.1684L60.8851 28.2011L66.9418 26.9137L68.7382 35.3649L67.5879 35.6094L66.0244 28.2537L62.2057 29.0654L62.871 32.1955C63.197 33.7292 63.28 34.8893 63.12 35.6758C62.9601 36.4622 62.5592 36.9236 61.9176 37.06C61.7037 37.1055 61.4632 37.1157 61.1962 37.0907L60.98 36.0734ZM74.5043 34.3846C73.8782 34.5177 73.2942 34.5273 72.752 34.4136C72.2098 34.2998 71.725 34.0839 71.2975 33.7658C70.8689 33.4425 70.5051 33.0264 70.2061 32.5175C69.9123 32.0074 69.6956 31.4237 69.5559 30.7664C69.415 30.1039 69.3777 29.4793 69.4438 28.8927C69.5152 28.3051 69.6815 27.779 69.9426 27.3146C70.2038 26.8501 70.5594 26.4583 71.0095 26.139C71.4597 25.8198 71.9925 25.5948 72.6081 25.4639C73.2393 25.3298 73.826 25.3195 74.3682 25.4333C74.9104 25.5471 75.3952 25.763 75.8227 26.0811C76.2501 26.3991 76.6108 26.8132 76.9046 27.3233C77.2025 27.827 77.4213 28.4075 77.561 29.0648C77.7018 29.7274 77.7397 30.3545 77.6747 30.9463C77.6085 31.5329 77.4449 32.0584 77.1837 32.5229C76.9226 32.9873 76.5675 33.3817 76.1185 33.7062C75.6683 34.0254 75.1303 34.2516 74.5043 34.3846ZM74.2697 33.2813C74.734 33.1826 75.1211 33.0158 75.4311 32.7809C75.7462 32.5449 75.9875 32.2564 76.155 31.9155C76.3276 31.5734 76.4275 31.1842 76.4547 30.7476C76.486 30.3048 76.4478 29.8303 76.3403 29.3243C76.2305 28.8079 76.0718 28.3563 75.8642 27.9697C75.6619 27.582 75.4128 27.2696 75.1171 27.0326C74.8202 26.7903 74.4804 26.6281 74.0976 26.5459C73.72 26.4626 73.3017 26.4697 72.8426 26.5673C72.3783 26.666 71.9886 26.8333 71.6735 27.0693C71.3624 27.299 71.1211 27.5875 70.9496 27.9347C70.7821 28.2757 70.6848 28.6644 70.6577 29.1009C70.6305 29.5374 70.6701 30.0061 70.7766 30.5069C70.8864 31.0234 71.0456 31.4775 71.2543 31.8694C71.4619 32.256 71.7115 32.571 72.0031 32.8143C72.3 33.0566 72.6372 33.2194 73.0148 33.3027C73.3975 33.3849 73.8159 33.3778 74.2697 33.2813ZM80.187 32.9314L78.3907 24.4802L83.8683 23.3159L84.1012 24.4114L79.7738 25.3312L81.3373 32.6869L80.187 32.9314Z" fill="black"/>
<path d="M54 49C62.5585 72.937 85.566 92.3071 96 99" stroke="black"/>
<path d="M107.977 104.824L91.1672 99.6923L95.1197 92.8411L107.977 104.824Z" fill="black"/>
</svg>
