<svg width="154" height="131" viewBox="0 0 154 131" fill="none" xmlns="http://www.w3.org/2000/svg">
<path d="M5.43277 49.3711L2.43884 35.2858L3.85716 34.9843L11.2848 44.774L14.0592 32.8158L15.4971 32.5102L18.489 46.5857L17.0511 46.8914L14.7142 35.897L12.3153 46.3031L10.9655 46.5901L4.54142 38.0593L6.88043 49.0634L5.43277 49.3711ZM23.0423 34.2801C25.8464 33.6841 27.5595 34.8501 28.1819 37.778L29.5562 44.2435L28.1281 44.5471L27.7497 42.7669C27.5156 43.5254 27.1132 44.1494 26.5425 44.6388C25.9718 45.1281 25.243 45.4671 24.3561 45.6556C23.7888 45.7761 23.2649 45.8125 22.7845 45.7647C22.3054 45.7234 21.8817 45.6056 21.5132 45.4113C21.1434 45.2105 20.8335 44.939 20.5836 44.5968C20.3336 44.2546 20.1581 43.8455 20.0569 43.3695C19.9391 42.8152 19.9396 42.3209 20.0586 41.8867C20.1827 41.4446 20.4029 41.0536 20.7192 40.7137C21.0406 40.366 21.4487 40.0577 21.9437 39.7889C22.4451 39.5188 23.0103 39.276 23.6393 39.0605L26.733 37.9837C26.5126 36.9469 26.1275 36.2415 25.5778 35.8677C25.0267 35.4873 24.2686 35.3996 23.3034 35.6048C21.7123 35.943 20.8781 36.8121 20.8008 38.2121L19.3726 38.1783C19.4153 37.1605 19.751 36.319 20.3797 35.6537C21.0136 34.9806 21.9012 34.5227 23.0423 34.2801ZM24.0236 40.1954C23.5028 40.3742 23.0624 40.5633 22.7026 40.7624C22.3494 40.9602 22.0676 41.1734 21.8572 41.4022C21.6519 41.623 21.5195 41.8658 21.46 42.1307C21.399 42.389 21.4018 42.6747 21.4683 42.9877C21.7317 44.2267 22.6883 44.6708 24.3381 44.3201C24.7945 44.2231 25.202 44.0718 25.5604 43.8661C25.9174 43.6539 26.2177 43.3992 26.4612 43.1021C26.7099 42.797 26.896 42.4542 27.0196 42.0735C27.1431 41.6928 27.2029 41.2848 27.199 40.8495C27.2074 40.5682 27.1869 40.2795 27.1376 39.9833C27.0869 39.6806 27.0366 39.4118 26.9867 39.1771L24.0236 40.1954ZM29.8474 33.1404L31.2852 32.8348L33.2396 42.0293L37.8858 41.0418L35.9314 31.8472L37.3693 31.5415L39.3237 40.7361L43.9699 39.7485L42.0155 30.554L43.4534 30.2483L45.6988 40.8123L32.0928 43.7044L29.8474 33.1404ZM50.2471 28.4976C53.0511 27.9016 54.7643 29.0675 55.3866 31.9954L56.7609 38.461L55.3328 38.7646L54.9544 36.9843C54.7204 37.7429 54.318 38.3669 53.7472 38.8562C53.1765 39.3456 52.4477 39.6845 51.5609 39.873C50.9935 39.9936 50.4696 40.03 49.9892 39.9822C49.5101 39.9409 49.0864 39.8231 48.7179 39.6288C48.3481 39.4279 48.0382 39.1564 47.7883 38.8142C47.5383 38.4721 47.3628 38.063 47.2616 37.5869C47.1438 37.0326 47.1444 36.5384 47.2634 36.1042C47.3875 35.662 47.6077 35.271 47.9239 34.9312C48.2453 34.5834 48.6535 34.2752 49.1484 34.0064C49.6499 33.7362 50.2151 33.4934 50.844 33.2779L53.9377 32.2012C53.7173 31.1643 53.3323 30.459 52.7825 30.0851C52.2314 29.7047 51.4733 29.6171 50.5082 29.8222C48.9171 30.1604 48.0829 31.0295 48.0056 32.4295L46.5773 32.3957C46.62 31.378 46.9557 30.5365 47.5845 29.8712C48.2184 29.198 49.1059 28.7402 50.2471 28.4976ZM51.2284 34.4128C50.7075 34.5917 50.2672 34.7807 49.9074 34.9799C49.5541 35.1776 49.2723 35.3909 49.0619 35.6196C48.8567 35.8405 48.7243 36.0833 48.6647 36.3481C48.6037 36.6065 48.6065 36.8921 48.6731 37.2051C48.9364 38.4441 49.893 38.8883 51.5428 38.5376C51.9993 38.4406 52.4067 38.2892 52.7651 38.0835C53.1221 37.8713 53.4224 37.6167 53.666 37.3195C53.9146 37.0145 54.1008 36.6716 54.2243 36.291C54.3479 35.9103 54.4077 35.5023 54.4037 35.0669C54.4121 34.7857 54.3916 34.497 54.3423 34.2008C54.2916 33.898 54.2413 33.6293 54.1914 33.3945L51.2284 34.4128ZM59.4825 39.2729C59.5086 39.2674 59.5346 39.2618 59.5607 39.2563C59.7368 39.2188 59.8712 39.146 59.9641 39.0376C60.0648 38.9344 60.1188 38.8037 60.1261 38.6454C60.1412 38.4922 60.1266 38.3113 60.0823 38.1026C60.0767 38.0765 60.0705 38.0472 60.0636 38.0146C60.0473 37.9703 60.0351 37.9286 60.0267 37.8895C60.0184 37.8504 60.0101 37.8113 60.0018 37.7721L59.1117 37.9613L58.673 35.8974L60.3456 35.5419L60.8675 37.9971C60.952 38.3948 60.9542 38.742 60.8741 39.0384C60.7954 39.3414 60.6614 39.5607 60.4721 39.6964C60.2843 39.8386 60.0958 39.9297 59.9067 39.9699C59.7958 39.9935 59.6757 40.0054 59.5462 40.0057L59.4825 39.2729ZM68.4103 35.9848L66.1649 25.4208L74.4694 23.6557L76.7148 34.2197L75.2769 34.5253L73.3226 25.3307L67.8939 26.4846L69.8482 35.6792L68.4103 35.9848ZM83.907 32.9976C83.131 33.1626 82.4088 33.1798 81.7404 33.0492C81.0706 32.9122 80.4692 32.6481 79.9362 32.257C79.4084 31.858 78.9576 31.3405 78.5838 30.7043C78.2087 30.0616 77.9317 29.3196 77.7529 28.4784C77.5713 27.6241 77.5219 26.8304 77.6046 26.0972C77.6873 25.364 77.8925 24.7103 78.2203 24.1363C78.5468 23.5558 78.9887 23.0699 79.5463 22.6788C80.1103 22.2863 80.7771 22.0082 81.5466 21.8447C82.0813 21.731 82.598 21.6928 83.0966 21.7299C83.6017 21.7657 84.0704 21.8705 84.5027 22.0444C84.9401 22.2104 85.3378 22.4462 85.6958 22.7518C86.0525 23.0509 86.3503 23.4101 86.5894 23.8296L85.2766 24.5789C85.0861 24.2922 84.8635 24.0465 84.6087 23.8417C84.3539 23.6368 84.078 23.4774 83.7811 23.3633C83.4908 23.2478 83.1794 23.1777 82.847 23.1529C82.5146 23.1281 82.1755 23.1525 81.8299 23.2259C81.2757 23.3438 80.8041 23.5462 80.4153 23.8333C80.0265 24.1204 79.7242 24.4778 79.5084 24.9053C79.2977 25.325 79.1728 25.8116 79.1337 26.3651C79.0932 26.9122 79.1416 27.5085 79.2788 28.154C79.4132 28.7866 79.607 29.3452 79.8599 29.8298C80.1194 30.3131 80.4321 30.7101 80.798 31.0208C81.1626 31.325 81.5815 31.5324 82.0549 31.6431C82.5268 31.7473 83.0465 31.739 83.6138 31.6184C84.3442 31.4632 84.9225 31.1699 85.3488 30.7385C85.7737 30.3006 86.0526 29.7369 86.1855 29.0476L87.7246 29.1703C87.5278 30.2004 87.1032 31.0403 86.4507 31.6902C85.8048 32.3387 84.9569 32.7745 83.907 32.9976ZM96.4418 18.9853L98.6872 29.5493L97.2493 29.8549L95.4883 21.57L91.7228 31.0296L90.2849 31.3353L88.0395 20.7713L89.4774 20.4656L91.2384 28.7505L95.0039 19.2909L96.4418 18.9853ZM100.259 29.2152L103.251 22.9972L98.1014 18.6325L99.823 18.2666L103.858 21.7131L106.112 16.9297L107.834 16.5638L104.904 22.6458L110.177 27.107L108.446 27.475L104.328 23.9237L101.99 28.8472L100.259 29.2152ZM115.841 26.2099C115.058 26.3762 114.328 26.3883 113.65 26.2461C112.973 26.1039 112.367 25.834 111.832 25.4364C111.297 25.0323 110.842 24.5121 110.468 23.8759C110.101 23.2384 109.83 22.5088 109.655 21.6871C109.479 20.8589 109.433 20.0783 109.515 19.345C109.604 18.6104 109.812 17.9529 110.139 17.3723C110.465 16.7917 110.91 16.302 111.472 15.9029C112.035 15.5039 112.701 15.2226 113.471 15.059C114.26 14.8913 114.993 14.8785 115.671 15.0208C116.348 15.163 116.954 15.4329 117.489 15.8304C118.023 16.228 118.474 16.7456 118.841 17.3832C119.214 18.0129 119.487 18.7385 119.662 19.5602C119.838 20.3883 119.885 21.1723 119.804 21.912C119.721 22.6452 119.517 23.3021 119.19 23.8827C118.864 24.4632 118.42 24.9563 117.859 25.3619C117.296 25.7609 116.623 26.0436 115.841 26.2099ZM115.548 24.8307C116.128 24.7074 116.612 24.4989 116.999 24.2052C117.393 23.9102 117.695 23.5496 117.904 23.1235C118.12 22.6959 118.245 22.2093 118.279 21.6637C118.318 21.1101 118.27 20.5171 118.136 19.8845C117.999 19.2389 117.8 18.6745 117.541 18.1912C117.288 17.7066 116.976 17.3161 116.607 17.0198C116.236 16.717 115.811 16.5142 115.332 16.4115C114.86 16.3073 114.338 16.3162 113.764 16.4382C113.183 16.5616 112.696 16.7708 112.302 17.0658C111.913 17.3529 111.612 17.7135 111.397 18.1475C111.188 18.5737 111.066 19.0596 111.032 19.6053C110.999 20.1509 111.048 20.7368 111.181 21.3628C111.318 22.0083 111.517 22.576 111.778 23.0658C112.038 23.5491 112.35 23.9428 112.714 24.247C113.085 24.5498 113.507 24.7533 113.979 24.8575C114.457 24.9602 114.98 24.9513 115.548 24.8307ZM121.727 23.4764C121.908 23.4925 122.06 23.4874 122.184 23.461C122.458 23.4028 122.664 23.25 122.802 23.0025C122.947 22.7536 123.033 22.4218 123.061 22.007C123.095 21.5908 123.075 21.0974 123.002 20.5269C122.927 19.9499 122.814 19.306 122.663 18.5952L121.608 13.636L129.179 12.0267L131.425 22.5907L129.987 22.8963L128.033 13.7018L123.259 14.7164L124.091 18.629C124.498 20.5461 124.602 21.9962 124.402 22.9793C124.202 23.9624 123.701 24.5391 122.899 24.7096C122.632 24.7665 122.331 24.7792 121.997 24.7479L121.727 23.4764ZM138.632 21.3654C137.85 21.5317 137.12 21.5438 136.442 21.4016C135.764 21.2594 135.158 20.9895 134.624 20.5919C134.088 20.1878 133.633 19.6676 133.26 19.0314C132.892 18.3939 132.621 17.6642 132.447 16.8426C132.271 16.0144 132.224 15.2337 132.307 14.5005C132.396 13.7659 132.604 13.1084 132.93 12.5278C133.257 11.9472 133.701 11.4574 134.264 11.0584C134.827 10.6594 135.493 10.3781 136.262 10.2145C137.051 10.0468 137.785 10.034 138.462 10.1762C139.14 10.3185 139.746 10.5884 140.28 10.9859C140.815 11.3835 141.265 11.9011 141.633 12.5387C142.005 13.1684 142.279 13.894 142.453 14.7157C142.629 15.5438 142.677 16.3278 142.595 17.0675C142.513 17.8007 142.308 18.4576 141.982 19.0382C141.655 19.6187 141.211 20.1118 140.65 20.5173C140.087 20.9164 139.415 21.1991 138.632 21.3654ZM138.339 19.9862C138.92 19.8628 139.403 19.6544 139.791 19.3607C140.185 19.0657 140.486 18.7051 140.696 18.279C140.912 17.8514 141.036 17.3648 141.07 16.8192C141.11 16.2656 141.062 15.6725 140.927 15.04C140.79 14.3944 140.592 13.83 140.332 13.3467C140.079 12.8621 139.768 12.4716 139.398 12.1753C139.027 11.8725 138.603 11.6697 138.124 11.567C137.652 11.4628 137.129 11.4717 136.555 11.5937C135.975 11.7171 135.488 11.9263 135.094 12.2213C134.705 12.5084 134.403 12.869 134.189 13.303C133.98 13.7292 133.858 14.2151 133.824 14.7608C133.79 15.3064 133.84 15.8922 133.973 16.5183C134.11 17.1638 134.309 17.7315 134.57 18.2213C134.829 18.7046 135.141 19.0983 135.506 19.4025C135.877 19.7053 136.299 19.9088 136.77 20.013C137.249 20.1157 137.772 20.1068 138.339 19.9862ZM145.736 19.5488L143.49 8.98481L150.337 7.52943L150.628 8.89884L145.219 10.0486L147.174 19.2432L145.736 19.5488Z" fill="black"/>
<path d="M77 52C87.8 82.4 116.833 107 130 115.5" stroke="black"/>
<path d="M146.984 125.188L124.898 118.446L130.091 109.444L146.984 125.188Z" fill="black"/>
</svg>
