<svg width="77" height="65" viewBox="0 0 77 65" fill="none" xmlns="http://www.w3.org/2000/svg">
<path fill-rule="evenodd" clip-rule="evenodd" d="M12.3817 44.8284C11.3929 45.4733 10.5332 46.4192 10.4041 47.8384C10.2751 49.2573 10.877 51.1492 11.7368 52.3963C12.5967 53.6432 13.7146 54.2452 15.4343 54.8042C17.1542 55.3631 19.4759 55.8792 22.0555 56.0943C24.6353 56.3091 27.4729 56.2231 29.9665 56.1801C32.4603 56.1371 34.61 56.1371 36.9746 56.4812C39.3393 56.8251 41.9191 57.5131 44.1117 58.4591C46.3044 59.405 48.1103 60.6091 50.131 61.6411C52.1517 62.673 54.3875 63.533 56.5372 63.6191C58.6869 63.7051 60.7506 63.0171 62.0834 61.9852C63.4162 60.9532 64.0183 59.577 64.1901 58.4591C64.3622 57.341 64.1043 56.4812 63.4592 55.6642C62.8143 54.8472 61.7826 54.0732 60.6646 52.9123C59.5468 51.7512 58.3429 50.2034 57.655 48.1394C56.967 46.0755 56.7952 43.4954 57.0101 41.0876C57.2251 38.6796 57.827 36.4436 58.1278 34.1216C58.4289 31.7996 58.4289 29.3917 58.1278 27.2418C57.827 25.0918 57.2251 23.1997 56.4942 21.7808C55.7633 20.3618 54.9033 19.416 53.6993 18.4699C52.4956 17.5239 50.9479 16.578 48.7982 15.761C46.6485 14.944 43.8967 14.256 41.4889 13.9551C39.0813 13.654 37.0176 13.7399 35.2977 14.213C33.5781 14.6859 32.2023 15.5459 30.9983 16.9649C29.7945 18.3839 28.7627 20.362 27.9028 22.4259C27.0429 24.4899 26.355 26.6398 25.7101 28.6608C25.0652 30.6817 24.4633 32.5738 23.4743 34.6807C22.4856 36.7877 21.1096 39.1095 19.7338 40.6145C18.3579 42.1195 16.9821 42.8074 15.7354 43.3234C14.4886 43.8393 13.3706 44.1834 12.3817 44.8284Z" stroke="#2B2A29" stroke-width="0.755906" stroke-miterlimit="22.9256"/>
<path d="M40.9261 13.8908C40.602 12.4703 40.2779 11.0498 40.165 9.38085C40.0521 7.71168 40.1506 5.79387 40.593 4.34342C41.0355 2.89296 41.8223 1.90946 42.8546 1.41791C43.8872 0.926168 45.1654 0.926161 46.0258 1.12297C46.8863 1.31959 47.3286 1.71285 47.5989 2.27833C47.8695 2.8438 47.9678 3.58131 47.9186 4.36798C47.8695 5.15465 47.6727 5.99068 47.3776 7.14621C47.0827 8.30155 46.6895 9.77678 46.2579 11.0688C45.8263 12.3607 45.3567 13.4696 44.8869 14.5784" stroke="#2B2A29" stroke-width="0.755906" stroke-miterlimit="22.9256"/>
<path d="M33.4772 56.1843C33.0212 57.6208 32.5652 59.057 32.3371 60.2377C32.1092 61.4182 32.1092 62.3427 32.4243 63.0153C32.7395 63.6878 33.37 64.1081 34.0424 64.1712C34.7148 64.2342 35.4291 63.9399 35.8915 63.3936C36.3538 62.8471 36.5638 62.0486 36.5847 61.145C36.6059 60.2413 36.4379 59.2325 36.3296 58.4195C36.2213 57.6063 36.1731 56.9886 36.1247 56.3711" stroke="#2B2A29" stroke-width="0.755906" stroke-miterlimit="22.9256"/>
<path fill-rule="evenodd" clip-rule="evenodd" d="M33.4772 56.1843C33.0212 57.6208 32.5652 59.057 32.3371 60.2377C32.1092 61.4182 32.1092 62.3427 32.4243 63.0153C32.7395 63.6878 33.37 64.1081 34.0424 64.1712C34.7148 64.2342 35.4291 63.9399 35.8915 63.3936C36.3538 62.8471 36.5638 62.0486 36.5847 61.145C36.6059 60.2413 36.4379 59.2325 36.3296 58.4195C36.2213 57.6063 36.1731 56.9886 36.1247 56.3711C35.231 56.269 34.3592 56.2124 33.4772 56.1843Z" fill="#4E5CF8"/>
<path fill-rule="evenodd" clip-rule="evenodd" d="M29.9665 56.1801C31.1983 56.1588 32.3463 56.1481 33.4777 56.1842C34.3597 56.2122 35.2315 56.2688 36.1252 56.371C36.4059 56.403 36.6887 56.4395 36.9746 56.4812C39.3393 56.8251 41.9191 57.5131 44.1117 58.4591C46.3044 59.405 48.1103 60.6091 50.131 61.6411C52.1517 62.673 54.3875 63.533 56.5372 63.6191C58.6869 63.7051 60.7506 63.0171 62.0834 61.9852C63.4162 60.9532 64.0183 59.577 64.1901 58.4591C64.3622 57.341 64.1043 56.4812 63.4592 55.6642C62.8143 54.8472 61.7826 54.0732 60.6646 52.9123C59.5468 51.7512 58.3429 50.2034 57.6549 48.1394C56.967 46.0755 56.7952 43.4954 57.0101 41.0876C57.2251 38.6796 57.827 36.4436 58.1278 34.1216C58.4289 31.7996 58.4289 29.3918 58.1278 27.2418C57.827 25.0918 57.2251 23.1997 56.4942 21.7808C55.7633 20.3618 54.9033 19.416 53.6993 18.4699C52.4956 17.5239 50.9479 16.578 48.7982 15.761C46.6485 14.944 43.8967 14.256 41.4889 13.9551C39.0813 13.654 37.0176 13.7399 35.2977 14.213C33.5781 14.6859 32.2023 15.5459 30.9983 16.9649C29.7945 18.3839 28.7627 20.362 27.9028 22.4259C27.0429 24.4899 26.355 26.6398 25.7101 28.6608C25.0652 30.6817 24.4633 32.5738 23.4743 34.6807C22.4856 36.7877 21.1096 39.1095 19.7338 40.6145C18.3579 42.1195 16.9821 42.8074 15.7354 43.3234C14.4886 43.8393 13.3706 44.1834 12.3817 44.8284C11.3929 45.4733 10.5332 46.4192 10.4041 47.8384C10.2751 49.2573 10.877 51.1492 11.7368 52.3963C12.5967 53.6432 13.7146 54.2452 15.4343 54.8042C17.1542 55.3631 19.4759 55.8792 22.0555 56.0943C24.6353 56.3091 27.4729 56.2231 29.9665 56.1801Z" fill="#6F7BFF"/>
<path fill-rule="evenodd" clip-rule="evenodd" d="M41.4888 13.9548C42.5801 14.0911 43.7422 14.3071 44.8869 14.5784C45.3567 13.4696 45.8263 12.3607 46.2579 11.0688C46.6895 9.77678 47.0827 8.30155 47.3776 7.14621C47.6727 5.99068 47.8695 5.15465 47.9186 4.36798C47.9678 3.58131 47.8695 2.8438 47.5989 2.27833C47.3286 1.71285 46.8863 1.31959 46.0258 1.12297C45.1654 0.926161 43.8872 0.926168 42.8546 1.41791C41.8223 1.90946 41.0355 2.89296 40.593 4.34342C40.1506 5.79387 40.0521 7.71168 40.165 9.38085C40.2779 11.0498 40.602 12.4703 40.9261 13.8908C41.1115 13.9096 41.2991 13.931 41.4888 13.9548Z" fill="#6F7BFF"/>
<path fill-rule="evenodd" clip-rule="evenodd" d="M7.86839 53.9864C6.86524 53.904 4.22517 54.3217 2.63471 54.9482C1.04445 55.5744 0.504364 56.4094 1.50733 56.4916C2.51048 56.574 5.05707 55.9035 6.64715 55.2771C8.23741 54.6508 8.87174 54.0686 7.86839 53.9864Z" fill="#6F7BFF" stroke="#6F7BFF" stroke-width="0.755906" stroke-miterlimit="22.9256"/>
<path fill-rule="evenodd" clip-rule="evenodd" d="M10.1352 60.636C9.50106 60.7099 8.12507 61.454 7.46942 62.227C6.81396 62.9998 6.87903 63.8013 7.51318 63.7274C8.14733 63.6535 9.35074 62.7038 10.0062 61.9309C10.6617 61.1581 10.7696 60.5619 10.1352 60.636Z" fill="#6F7BFF" stroke="#6F7BFF" stroke-width="0.755906" stroke-miterlimit="22.9256"/>
<path fill-rule="evenodd" clip-rule="evenodd" d="M67.5725 61.488C67.8553 62.0603 69.0184 63.1064 69.9666 63.4643C70.9149 63.8221 71.6477 63.4914 71.3651 62.9188C71.0823 62.3464 69.7835 61.5319 68.8354 61.1742C67.8874 60.8165 67.2895 60.9152 67.5725 61.488Z" fill="#6F7BFF"/>
<path fill-rule="evenodd" clip-rule="evenodd" d="M69.7838 57.1196C70.2465 57.5593 71.6989 58.1402 72.7124 58.1488C73.7257 58.1577 74.2998 57.5945 73.8369 57.1546C73.3742 56.7149 71.8742 56.3982 70.8611 56.3896C69.8477 56.3808 69.3207 56.6795 69.7838 57.1196Z" fill="#6F7BFF"/>
<path fill-rule="evenodd" clip-rule="evenodd" d="M69.1718 52.8287C70.2456 53.074 73.0947 53.0971 74.8247 52.7428C76.5544 52.3887 77.1642 51.6576 76.9633 51.3359C76.7619 51.0145 75.75 51.1028 74.3709 51.2232C72.992 51.3434 71.2466 51.4959 70.0232 51.8058C68.7995 52.1159 68.0974 52.5833 69.1718 52.8287Z" fill="#6F7BFF"/>
<path fill-rule="evenodd" clip-rule="evenodd" d="M5.32366 44.4698C4.93354 43.9645 3.5869 43.1686 2.58662 43.005C1.58654 42.8414 0.933193 43.3103 1.32351 43.8156C1.71364 44.3212 3.14762 44.8633 4.14751 45.0267C5.14759 45.1901 5.71417 44.9754 5.32366 44.4698Z" fill="#6F7BFF" stroke="#6F7BFF" stroke-width="0.755906" stroke-miterlimit="22.9256"/>
</svg>
