<svg width="59" height="54" viewBox="0 0 59 54" fill="none" xmlns="http://www.w3.org/2000/svg">
<path d="M37.0661 9.8321C37.0661 9.8321 36.1762 33.0821 58.0757 32.0575" stroke="#6F7BFF" stroke-miterlimit="22.9256"/>
<path d="M37.0665 9.83206C37.0665 9.83206 39.7677 32.9619 18.0005 31.9373" stroke="#6F7BFF" stroke-miterlimit="22.9256"/>
<path d="M37.4139 53.2715C37.4139 53.2715 35.8481 31.0768 57.7476 32.0893" stroke="#6F7BFF" stroke-miterlimit="22.9256"/>
<path d="M37.4136 53.2715C37.0359 51.2502 40.0105 30.8003 18.2679 31.9506" stroke="#6F7BFF" stroke-miterlimit="22.9256"/>
<path d="M12.199 0.999993C12.199 0.999993 11.6763 14.6565 24.5396 14.0547" stroke="#6F7BFF" stroke-miterlimit="22.9256"/>
<path d="M12.199 1.0005C12.199 1.0005 13.7856 14.5865 1.00002 13.9847" stroke="#6F7BFF" stroke-miterlimit="22.9256"/>
<path d="M12.4029 26.5157C12.4029 26.5157 11.4831 13.479 24.3464 14.0737" stroke="#6F7BFF" stroke-miterlimit="22.9256"/>
<path d="M12.4023 26.5157C12.1805 25.3284 13.9277 13.3166 1.15659 13.9922" stroke="#6F7BFF" stroke-miterlimit="22.9256"/>
</svg>
