<svg width="68" height="49" viewBox="0 0 68 49" fill="none" xmlns="http://www.w3.org/2000/svg">
<path fill-rule="evenodd" clip-rule="evenodd" d="M2.6863 8.15918L57.9029 9.99724L64.7665 47.6147L1 48.0699L2.6863 8.15918Z" fill="#525FFF" stroke="#525FFF" stroke-width="0.755906" stroke-miterlimit="22.9256"/>
<path fill-rule="evenodd" clip-rule="evenodd" d="M8.79647 4.77197L60.382 5.18731L67.0001 42.6344L7.68872 43.8606L8.79647 4.77197Z" fill="#8D96FF" stroke="#8D96FF" stroke-width="0.755906" stroke-miterlimit="22.9256"/>
<path d="M38.6298 10.5393C39.3372 10.5393 39.9106 10.0094 39.9106 9.3556C39.9106 8.70185 39.3372 8.17188 38.6298 8.17188C37.9224 8.17188 37.3489 8.70185 37.3489 9.3556C37.3489 10.0094 37.9224 10.5393 38.6298 10.5393Z" fill="#525FFF" stroke="#525FFF" stroke-width="0.755906" stroke-miterlimit="22.9256"/>
<path d="M50.556 10.1814C51.2634 10.1814 51.8369 9.65145 51.8369 8.99769C51.8369 8.34394 51.2634 7.81396 50.556 7.81396C49.8486 7.81396 49.2751 8.34394 49.2751 8.99769C49.2751 9.65145 49.8486 10.1814 50.556 10.1814Z" fill="#525FFF" stroke="#525FFF" stroke-width="0.755906" stroke-miterlimit="22.9256"/>
<path d="M26.8217 10.3201C27.5291 10.3201 28.1025 9.79012 28.1025 9.13636C28.1025 8.48261 27.5291 7.95264 26.8217 7.95264C26.1143 7.95264 25.5408 8.48261 25.5408 9.13636C25.5408 9.79012 26.1143 10.3201 26.8217 10.3201Z" fill="#525FFF" stroke="#525FFF" stroke-width="0.755906" stroke-miterlimit="22.9256"/>
<path d="M15.2828 10.8919C15.9903 10.8919 16.5637 10.3619 16.5637 9.70814C16.5637 9.05439 15.9903 8.52441 15.2828 8.52441C14.5754 8.52441 14.002 9.05439 14.002 9.70814C14.002 10.3619 14.5754 10.8919 15.2828 10.8919Z" fill="#525FFF" stroke="#525FFF" stroke-width="0.755906" stroke-miterlimit="22.9256"/>
<path d="M14.8084 9.56895C15.0445 7.7695 15.2806 5.96987 14.6468 4.78667C14.0132 3.60347 12.5095 3.03652 11.3237 2.92597C10.138 2.81543 9.27012 3.16111 8.67896 3.64172C8.08797 4.12234 7.77382 4.73788 7.64385 5.54066C7.51388 6.34327 7.56808 7.33345 7.62228 8.32345" stroke="#525FFF" stroke-width="0.755906" stroke-miterlimit="22.9256"/>
<path d="M16.1845 9.79891C16.3178 8.2416 16.451 6.68413 16.2993 5.46952C16.1478 4.25491 15.7114 3.38317 14.9993 2.72919C14.2871 2.07521 13.2993 1.63934 12.1965 1.50318C11.094 1.36683 9.87647 1.5302 8.93458 1.86885C7.9927 2.20751 7.32663 2.72129 6.84024 3.40212C6.35385 4.08294 6.04728 4.93064 5.90799 5.76887C5.7687 6.60709 5.79666 7.43584 5.82462 8.26441" stroke="#525FFF" stroke-width="0.755906" stroke-miterlimit="22.9256"/>
<path fill-rule="evenodd" clip-rule="evenodd" d="M7.64368 5.54146C7.77365 4.73868 8.08779 4.12313 8.67878 3.64252C9.26994 3.1619 10.1378 2.81622 11.3236 2.92677C12.5093 3.03732 14.013 3.60426 14.6466 4.78746C14.6523 4.79799 14.6578 4.80852 14.6632 4.81904L16.1864 4.83133C15.9774 3.94064 15.5801 3.26245 14.9993 2.72919C14.2871 2.07521 13.2993 1.63934 12.1965 1.50318C11.094 1.36683 9.87647 1.5302 8.93458 1.86885C7.9927 2.20751 7.32663 2.72129 6.84024 3.40212C6.35385 4.08294 6.04728 4.93064 5.90799 5.76887C5.7687 6.60709 5.79666 7.43584 5.82462 8.26424L7.6221 8.32425C7.56791 7.33424 7.51371 6.34406 7.64368 5.54146Z" fill="#525FFF" stroke="#525FFF" stroke-width="0.755906" stroke-miterlimit="22.9256"/>
<path fill-rule="evenodd" clip-rule="evenodd" d="M14.6633 4.81787C15.1611 5.77893 15.1004 7.13549 14.9347 8.56645C14.9347 8.56716 14.9345 8.56803 14.9345 8.5689C14.9374 8.5682 14.9404 8.5675 14.9433 8.56663C15.0514 8.53925 15.1651 8.52469 15.2826 8.52469C15.4325 8.52469 15.5764 8.54855 15.7102 8.59224C15.924 8.66208 16.112 8.78316 16.2565 8.9395C16.2653 8.82966 16.2737 8.72016 16.282 8.6112C16.3673 7.46783 16.4125 6.37308 16.2994 5.46835C16.2715 5.24427 16.2338 5.03177 16.1865 4.83016L14.6633 4.81787Z" fill="#525FFF" stroke="#525FFF" stroke-width="0.755906" stroke-miterlimit="22.9256"/>
<path fill-rule="evenodd" clip-rule="evenodd" d="M14.6633 4.81787C15.1611 5.77893 15.1004 7.13549 14.9347 8.56645C14.9347 8.56716 14.9345 8.56803 14.9345 8.5689C14.9374 8.5682 14.9404 8.5675 14.9433 8.56663C15.0514 8.53925 15.1651 8.52469 15.2826 8.52469C15.4325 8.52469 15.5764 8.54855 15.7102 8.59224C15.924 8.66208 16.112 8.78316 16.2565 8.9395C16.2653 8.82966 16.2737 8.72016 16.282 8.6112C16.3673 7.46783 16.4125 6.37308 16.2994 5.46835C16.2715 5.24427 16.2338 5.03177 16.1865 4.83016L14.6633 4.81787Z" fill="#525FFF" stroke="#525FFF" stroke-width="0.755906" stroke-miterlimit="22.9256"/>
<path fill-rule="evenodd" clip-rule="evenodd" d="M19.977 3.2089C20.5674 2.72881 21.4359 2.38261 22.6217 2.49315C23.8075 2.6037 25.3112 3.17065 25.9448 4.35385C25.9505 4.36437 25.956 4.3749 25.9614 4.38543L27.4846 4.39771C27.2756 3.50702 26.8782 2.82881 26.2974 2.29556C25.5853 1.64158 24.5975 1.20572 23.4947 1.06956C22.3921 0.933218 21.1745 1.09675 20.2328 1.43524C19.0686 1.85374 17.1373 3.23469 17.1812 4.53739L18.884 4.55106C18.8635 4.17503 19.7329 3.40753 19.977 3.2089Z" fill="#525FFF" stroke="#525FFF" stroke-width="0.755906" stroke-miterlimit="22.9256"/>
<path fill-rule="evenodd" clip-rule="evenodd" d="M25.9614 4.38623C26.5427 5.50854 26.1492 7.74948 26.1492 8.4812C26.1522 8.4805 26.2385 8.13586 26.2414 8.13498C26.3494 8.10761 26.4632 8.09305 26.5807 8.09305C26.7306 8.09305 26.8745 8.11691 27.0083 8.1606C27.2221 8.23044 27.4101 8.35152 27.5545 8.50786C27.5634 8.39802 27.5718 8.28852 27.5801 8.17956C27.6654 7.03619 27.7106 5.94143 27.5975 5.03671C27.5696 4.81263 27.5319 4.60013 27.4846 4.39852L25.9614 4.38623Z" fill="#525FFF" stroke="#525FFF" stroke-width="0.755906" stroke-miterlimit="22.9256"/>
<path fill-rule="evenodd" clip-rule="evenodd" d="M26.8239 8.12012C27.2059 8.12012 27.5154 8.4386 27.5154 8.83148C27.5154 9.22436 27.2059 9.54284 26.8239 9.54284C26.4418 9.54284 26.1323 9.22436 26.1323 8.83148C26.1323 8.4386 26.4418 8.12012 26.8239 8.12012Z" fill="#525FFF" stroke="#525FFF" stroke-width="0.755906" stroke-miterlimit="22.9256"/>
<path fill-rule="evenodd" clip-rule="evenodd" d="M31.7872 3.18741C32.3778 2.70697 33.2462 2.36112 34.4319 2.47167C35.6177 2.58221 37.1214 3.14916 37.755 4.33236C37.7607 4.34289 37.7662 4.35343 37.7716 4.36396L39.2948 4.37623C39.0858 3.48554 38.6885 2.80735 38.1077 2.27409C37.3955 1.62011 36.4077 1.18424 35.3049 1.04807C34.2024 0.911733 32.9847 1.07527 32.0429 1.41375C30.8787 1.83225 28.8113 3.33184 28.8552 4.63453L30.6461 4.64891C30.619 4.15303 30.8021 3.98826 31.7872 3.18741Z" fill="#525FFF" stroke="#525FFF" stroke-width="0.755906" stroke-miterlimit="22.9256"/>
<path fill-rule="evenodd" clip-rule="evenodd" d="M37.7715 4.36475C38.3528 5.48706 37.9593 7.72798 37.9593 8.4597C37.9622 8.45899 38.0485 8.11438 38.0515 8.1135C38.1595 8.08613 38.2733 8.07157 38.3908 8.07157C38.5406 8.07157 38.6846 8.09543 38.8183 8.13912C39.0322 8.20896 39.2201 8.33003 39.3646 8.48638C39.3734 8.37653 39.3819 8.26704 39.3902 8.15807C39.4754 7.0147 39.5206 5.91993 39.4076 5.01521C39.3796 4.79113 39.342 4.57863 39.2947 4.37702L37.7715 4.36475Z" fill="#525FFF" stroke="#525FFF" stroke-width="0.755906" stroke-miterlimit="22.9256"/>
<path d="M38.6341 9.52134C39.0159 9.52134 39.3255 9.20285 39.3255 8.80998C39.3255 8.4171 39.0159 8.09863 38.6341 8.09863C38.2522 8.09863 37.9426 8.4171 37.9426 8.80998C37.9426 9.20285 38.2522 9.52134 38.6341 9.52134Z" fill="#525FFF" stroke="#525FFF" stroke-width="0.755906" stroke-miterlimit="22.9256"/>
<path fill-rule="evenodd" clip-rule="evenodd" d="M43.7746 3.21915C44.3652 2.73889 45.2336 2.39286 46.4194 2.50341C47.6051 2.61395 49.1088 3.1809 49.7425 4.3641C49.7481 4.37463 49.7537 4.38515 49.759 4.39568L51.2822 4.40797C51.0732 3.51728 50.6759 2.83909 50.0951 2.30583C49.3829 1.65185 48.3951 1.21598 47.2924 1.07981C46.1898 0.943472 44.9719 1.10701 44.0304 1.44549C42.8662 1.86381 40.9557 3.40936 40.9995 4.71206L42.7904 4.72645C42.7633 4.23057 42.7897 4.02 43.7746 3.21915Z" fill="#525FFF" stroke="#525FFF" stroke-width="0.755906" stroke-miterlimit="22.9256"/>
<path fill-rule="evenodd" clip-rule="evenodd" d="M49.759 4.39648C50.3404 5.5188 49.9468 7.75974 49.9468 8.49145C49.9497 8.49075 50.036 8.14613 50.039 8.14526C50.147 8.11788 50.2608 8.10331 50.3783 8.10331C50.5281 8.10331 50.6721 8.12718 50.8058 8.17087C51.0197 8.24071 51.2077 8.36179 51.3521 8.51813C51.3609 8.40829 51.3694 8.29879 51.3777 8.18983C51.4629 7.04646 51.5082 5.95169 51.3951 5.04696C51.3671 4.82288 51.3295 4.61039 51.2822 4.40877L49.759 4.39648Z" fill="#525FFF" stroke="#525FFF" stroke-width="0.755906" stroke-miterlimit="22.9256"/>
<path d="M50.6216 9.55309C51.0035 9.55309 51.3131 9.2346 51.3131 8.84173C51.3131 8.44886 51.0035 8.13037 50.6216 8.13037C50.2398 8.13037 49.9302 8.44886 49.9302 8.84173C49.9302 9.2346 50.2398 9.55309 50.6216 9.55309Z" fill="#525FFF" stroke="#525FFF" stroke-width="0.755906" stroke-miterlimit="22.9256"/>
<path fill-rule="evenodd" clip-rule="evenodd" d="M14.2108 14.479L58.149 14.5339L62.8412 37.0647L13.5283 38.561L14.2108 14.479Z" fill="#6F7BFF" stroke="#6F7BFF" stroke-width="0.755906" stroke-miterlimit="22.9256"/>
</svg>
