<svg width="57" height="61" viewBox="0 0 57 61" fill="none" xmlns="http://www.w3.org/2000/svg">
<path fill-rule="evenodd" clip-rule="evenodd" d="M3.24414 9.17671C16.3436 9.42566 29.4429 9.67444 42.5426 9.92338L41.6595 1.34071L4.10428 0L3.24414 9.17671Z" fill="#6F7BFF"/>
<path fill-rule="evenodd" clip-rule="evenodd" d="M42.5975 9.76431C29.4684 9.51559 16.3398 9.26703 3.2111 9.01831L0 53.8527L51.7152 51.2248L42.5975 9.76431Z" fill="#9EA6FF"/>
<path d="M16.6562 18.3258C16.9629 25.4606 17.2694 32.5955 17.5761 39.7303" stroke="#2B2A29" stroke-width="2.66683" stroke-miterlimit="22.9256"/>
<path fill-rule="evenodd" clip-rule="evenodd" d="M21.17 17.6753C8.87185 19.3901 -0.673103 41.7918 21.9712 44.0976C32.063 45.1251 34.8352 38.9168 36.3915 30.8238C37.5837 24.6244 35.637 24.6785 33.8861 20.8732C37.6118 22.1202 38.4788 28.087 38.1567 31.003C37.1017 40.5587 33.3959 47.6069 21.6229 46.8618C-4.79454 45.1895 2.39942 16.4432 20.8537 13.4655C22.1611 13.3879 23.2916 14.2673 23.3789 15.4298C23.4661 16.5924 22.4772 17.5977 21.17 17.6753Z" fill="#ECECEC"/>
<path fill-rule="evenodd" clip-rule="evenodd" d="M23.4488 18.8128C23.9732 17.8115 25.0336 17.3794 26.1639 17.4374C27.2942 17.4954 28.4943 18.0438 29.1453 18.7269C29.7964 19.41 29.8987 20.228 29.6431 21.137C29.3876 22.0458 28.7742 23.0456 27.7776 24.2045C26.7812 25.3633 25.4014 26.6811 24.456 27.8856C23.5105 29.0898 22.9997 30.1804 22.5827 31.3642C22.1659 32.5478 21.8434 33.8246 21.9141 34.9935C21.9847 36.1623 22.4485 37.2232 23.3253 37.9937C24.2022 38.7641 25.4916 39.2439 26.8519 39.3931C28.2122 39.542 29.6431 39.3603 30.563 38.656C31.4828 37.9515 31.8916 36.7245 31.9172 35.2475C31.9428 33.7705 31.585 32.0437 30.3584 30.3849C29.132 28.7261 27.0368 27.1356 25.657 25.9086C24.2772 24.6816 23.6128 23.8181 23.2747 22.6013C22.9366 21.3844 22.9245 19.814 23.4488 18.8128Z" stroke="#2B2A29" stroke-width="2.66683" stroke-miterlimit="22.9256"/>
<path d="M10.5151 7.1914C12.0519 7.1914 13.2977 6.12978 13.2977 4.82019C13.2977 3.5106 12.0519 2.44897 10.5151 2.44897C8.97825 2.44897 7.73242 3.5106 7.73242 4.82019C7.73242 6.12978 8.97825 7.1914 10.5151 7.1914Z" fill="#ACB2FF"/>
<path d="M19.2113 7.604C20.7481 7.604 21.994 6.54237 21.994 5.23279C21.994 3.9232 20.7481 2.86157 19.2113 2.86157C17.6745 2.86157 16.4287 3.9232 16.4287 5.23279C16.4287 6.54237 17.6745 7.604 19.2113 7.604Z" fill="#ACB2FF"/>
<path d="M27.6743 7.8103C29.2111 7.8103 30.4569 6.74867 30.4569 5.43909C30.4569 4.1295 29.2111 3.06787 27.6743 3.06787C26.1374 3.06787 24.8916 4.1295 24.8916 5.43909C24.8916 6.74867 26.1374 7.8103 27.6743 7.8103Z" fill="#ACB2FF"/>
<path d="M35.558 7.91347C37.0949 7.91347 38.3407 6.85182 38.3407 5.54223C38.3407 4.23265 37.0949 3.17102 35.558 3.17102C34.0212 3.17102 32.7754 4.23265 32.7754 5.54223C32.7754 6.85182 34.0212 7.91347 35.558 7.91347Z" fill="#ACB2FF"/>
<path fill-rule="evenodd" clip-rule="evenodd" d="M4.28418 53.6903C4.66451 56.1892 5.18132 58.4446 5.4255 59.7394C5.66968 61.0342 5.77652 61.094 8.29041 60.9407C17.1526 60.4003 23.881 59.5557 32.5123 58.392C37.216 57.7577 52.3997 55.3653 56.4953 53.1026C57.4955 52.5501 56.8231 52.3754 56.0787 50.9645C55.3342 49.5536 53.8453 46.7316 52.4718 43.9122C51.0985 41.0927 49.8411 38.2756 48.9691 35.9796C48.0973 33.6836 47.6111 31.9087 47.1254 30.136L51.6765 51.0976L4.28418 53.6903Z" fill="#6F7BFF"/>
</svg>
