<svg width="71" height="65" viewBox="0 0 71 65" fill="none" xmlns="http://www.w3.org/2000/svg">
<path fill-rule="evenodd" clip-rule="evenodd" d="M33.5757 1.40468L67.9518 0.708496L70.44 49.9109L32.8633 50.6575L33.1899 28.0762L33.5757 1.40468Z" fill="#D4D8FF" stroke="#D4D8FF" stroke-width="0.755906" stroke-miterlimit="22.9256"/>
<path d="M49.6601 30.1443C53.711 30.7535 57.5065 27.8451 58.1376 23.6481C58.7686 19.4511 55.9962 15.5549 51.9453 14.9457C47.8943 14.3365 44.0988 17.245 43.4678 21.4419C42.8367 25.6389 45.6091 29.5351 49.6601 30.1443Z" fill="#ACB2FF"/>
<path d="M51.2357 26.2361C53.1855 26.0073 54.5722 24.1691 54.333 22.1304C54.0938 20.0918 52.3192 18.6246 50.3694 18.8535C48.4195 19.0823 47.0328 20.9205 47.272 22.9592C47.5112 24.9978 49.2858 26.465 51.2357 26.2361Z" fill="#5F5D5C"/>
<path d="M46.5869 28.913C47.3196 27.5245 48.0524 26.1359 48.4188 25.4417C48.7851 24.7474 48.7851 24.7474 48.7851 24.7474" stroke="#2B2A29" stroke-width="0.755906" stroke-miterlimit="22.9256"/>
<path fill-rule="evenodd" clip-rule="evenodd" d="M54.5525 29.2124C53.8939 27.566 53.2998 26.1981 52.74 24.7122C52.2816 25.2529 51.637 25.6245 50.8927 25.7119C49.9895 25.8178 49.1318 25.4825 48.5185 24.8702C48.5185 24.8702 48.5185 24.8702 48.1522 25.5645C47.7858 26.2587 47.053 27.6473 46.3203 29.0358C47.2112 29.6626 48.2512 30.0954 49.3929 30.2671C51.2067 30.5398 53.1023 30.1499 54.5525 29.2124Z" fill="#5F5D5C"/>
<path fill-rule="evenodd" clip-rule="evenodd" d="M35.7917 33.0849C41.7098 32.1232 38.6555 36.5697 44.2193 33.723C48.7406 31.4097 49.2911 36.4157 52.7719 34.7468C60.4049 31.0869 58.204 36.6981 63.4935 34.7842C65.2253 34.1575 66.0931 34.0251 67.2879 35.5072C63.1427 33.4897 63.7495 37.8112 59.2726 35.5106C53.9646 32.7831 53.8426 38.293 49.7753 36.2401C44.0857 33.3684 46.6698 35.8701 42.4418 36.3934C37.1342 37.0504 40.3407 34.357 36.3019 35.1654C35.7275 35.3062 35.1476 34.9548 35.0067 34.3803C34.8658 33.8058 35.2172 33.2259 35.7917 33.0849Z" fill="#BEC3FF"/>
<path fill-rule="evenodd" clip-rule="evenodd" d="M35.1693 38.8698C38.2762 36.6781 40.8361 39.461 42.0016 39.0518C49.7229 36.3417 49.9153 41.7516 54.7018 39.8951C59.925 37.8691 59.7867 41.0752 63.5457 40.2856C64.2235 40.1431 66.589 39.4343 66.7801 40.6525C65.983 40.0445 65.4359 40.3014 64.4623 40.588C59.0479 42.182 60.053 38.7208 55.1314 40.8827C49.9238 43.1703 48.8456 37.7701 42.7221 40.4176C40.54 41.361 38.3585 38.6423 36.3123 40.1838C35.9495 40.4994 35.3995 40.4612 35.0838 40.0984C34.7683 39.7356 34.8066 39.1854 35.1693 38.8698Z" fill="#BEC3FF"/>
<path fill-rule="evenodd" clip-rule="evenodd" d="M7.98678 0L50.3801 4.10719L46.3382 65L0 60.4926L3.66175 32.7581L7.98678 0Z" fill="#A7AEFF"/>
<path d="M23.6268 37.6808C28.5228 39.0152 33.6122 35.985 34.9945 30.9126C36.3767 25.8402 33.5283 20.6464 28.6324 19.312C23.7365 17.9775 18.647 21.0077 17.2648 26.0801C15.8825 31.1525 18.7309 36.3463 23.6268 37.6808Z" fill="#6F7BFF"/>
<path d="M26.129 33.1003C28.5609 33.1003 30.5323 31.039 30.5323 28.4963C30.5323 25.9536 28.5609 23.8923 26.129 23.8923C23.697 23.8923 21.7256 25.9536 21.7256 28.4963C21.7256 31.039 23.697 33.1003 26.129 33.1003Z" fill="#2B2A29"/>
<path d="M20.0234 35.7225C21.1254 34.1201 22.2274 32.5176 22.7784 31.7164C23.3293 30.9152 23.3293 30.9152 23.3293 30.9152" stroke="#2B2A29" stroke-width="0.755906" stroke-miterlimit="22.9256"/>
<path d="M28.5459 31.3297C29.0201 33.2387 29.4944 35.1476 29.9686 37.0566" stroke="#2B2A29" stroke-width="0.755906" stroke-miterlimit="22.9256"/>
<path fill-rule="evenodd" clip-rule="evenodd" d="M29.9685 37.0572C29.4943 35.1482 29.02 33.2392 28.5458 31.3303C27.9038 31.9293 27.057 32.2935 26.1288 32.2935C25.0021 32.2935 23.9954 31.757 23.3293 30.9152C23.3293 30.9152 23.3293 30.9152 22.7784 31.7164C22.2274 32.5176 21.1254 34.1201 20.0234 35.7225C21.0291 36.6225 22.2462 37.305 23.626 37.6811C25.8181 38.2786 28.0489 38.0011 29.9685 37.0572Z" fill="#2B2A29"/>
<path fill-rule="evenodd" clip-rule="evenodd" d="M6.13956 39.2975C13.5595 38.9688 9.15998 43.9984 16.416 41.2995C22.3125 39.1063 22.2671 45.3446 26.7903 43.794C36.7097 40.3935 33.1919 46.9791 39.9757 45.3881C42.1968 44.8672 43.2836 44.8296 44.5397 46.8254C39.731 43.7449 39.8537 49.1492 34.6779 45.6724C28.5412 41.5503 27.5958 48.3114 22.8882 45.1985C16.3029 40.8439 19.121 44.2949 13.8437 44.3282C7.21885 44.3701 11.5527 41.5194 6.46703 41.9307C5.73996 42.0211 5.07727 41.505 4.98684 40.7779C4.89642 40.0507 5.41249 39.3879 6.13956 39.2975Z" fill="#6F7BFF"/>
<path fill-rule="evenodd" clip-rule="evenodd" d="M4.53884 46.3209C8.67761 44.073 11.4253 47.8664 12.9183 47.5313C22.8089 45.312 22.2647 51.9957 28.4215 50.4026C35.1399 48.6642 34.507 52.5886 39.2456 52.16C40.1002 52.0827 43.1126 51.5523 43.1719 53.0786C42.2791 52.2155 41.569 52.4524 40.3297 52.6645C33.4383 53.8438 35.1744 49.7307 28.8075 51.6798C22.0702 53.7421 21.5233 46.9427 13.6076 49.3157C10.7866 50.1613 8.49534 46.5015 5.75536 48.1026C5.26345 48.4385 4.59221 48.3119 4.25629 47.82C3.92038 47.328 4.04693 46.6568 4.53884 46.3209Z" fill="#6F7BFF"/>
<path fill-rule="evenodd" clip-rule="evenodd" d="M17.7898 9.43707C17.7898 9.43883 17.4003 20.1131 16.5791 17.6134C16.508 17.3969 16.5303 17.2594 16.6744 17.0939L16.6833 17.1065C16.5725 15.5725 16.3667 10.2826 16.3115 9.51003C16.2913 9.10182 16.606 8.75449 17.0141 8.73432C17.4223 8.71414 17.7696 9.02886 17.7898 9.43707ZM16.878 17.4659C16.892 17.4816 16.9071 17.4939 16.9232 17.5014C16.9085 17.4836 16.8932 17.4722 16.878 17.4659Z" fill="#2B2A29"/>
<path fill-rule="evenodd" clip-rule="evenodd" d="M17.2629 13.1311C20.0946 11.8656 20.8542 11.4638 22.9132 10.6592C23.2814 10.4945 23.6054 10.3718 23.7612 10.368L24.1182 10.7419C24.081 10.8446 23.9466 10.9841 23.7424 11.1487L23.7566 11.1486L23.7383 11.1521C22.4008 12.2274 18.0729 14.3731 17.9441 14.4453C17.5812 14.6335 17.1346 14.4918 16.9465 14.1288C16.7584 13.7659 16.9 13.3192 17.2629 13.1311ZM23.7566 11.1486C23.7727 11.148 23.7865 11.1456 23.8104 11.1384L23.7566 11.1486Z" fill="#2B2A29"/>
<path fill-rule="evenodd" clip-rule="evenodd" d="M17.6251 14.1149C19.7753 16.2785 21.5799 17.2723 23.4266 14.8301C23.4632 14.6252 23.5332 14.4414 23.6383 14.2963C24.4256 12.5728 26.6301 12.9065 27.274 14.0749C27.6327 13.7256 27.9622 13.7172 27.87 14.3271C27.7534 15.0991 27.3926 15.6782 26.9236 16.0749C26.9032 16.2247 26.888 16.3543 26.8777 16.4482C27.7318 16.4242 27.9645 16.3711 28.8296 15.9855C28.4472 16.2883 26.7861 17.1216 26.6211 16.6547C26.5953 16.5817 26.5743 16.5082 26.5574 16.4348C26.4918 16.4961 26.4233 16.5576 26.3495 16.6194C24.9564 17.7848 23.9857 17.1209 23.592 16.1657C21.7874 18.1839 19.0976 16.933 16.977 14.8715C16.7989 14.6618 16.7993 14.3224 16.9783 14.1135C17.1572 13.9046 17.4468 13.9052 17.6251 14.1149ZM24.5115 14.6518C24.518 14.6434 24.5244 14.6343 24.5307 14.6245C24.5225 14.6369 24.5155 14.6486 24.5077 14.661C24.4076 14.8961 24.3018 15.1132 24.1909 15.3122C24.1083 15.5873 24.1285 15.795 24.219 15.9425C24.3486 16.0473 24.5234 16.1421 24.7486 16.2233C25.3324 16.2821 26.1808 15.9329 26.5781 15.3397C26.63 15.1316 26.7052 14.9346 26.7936 14.7561C26.8071 14.6163 26.7957 14.4691 26.7543 14.3156C26.5151 13.4295 25.3617 13.6822 24.5987 14.2701L24.6295 14.3595C24.5913 14.4604 24.5517 14.557 24.5115 14.6518ZM27.4279 14.5001C27.4603 14.4234 27.4832 14.3511 27.4951 14.285C27.4604 14.3013 27.4272 14.3292 27.3956 14.3667C27.4085 14.4103 27.4192 14.4547 27.4279 14.5001Z" fill="#2B2A29"/>
<path fill-rule="evenodd" clip-rule="evenodd" d="M31.2142 14.4316C30.4013 15.535 29.5736 16.613 28.7364 17.7043L28.726 17.7031C28.7247 17.6805 28.7189 17.6603 28.7094 17.642C28.5232 17.9575 28.2215 18.1375 28.3247 17.5738L28.3646 17.5465C28.3501 17.5526 28.337 17.56 28.3256 17.5689C28.4171 17.0769 28.8134 16.026 29.853 14.0207C30.0135 13.755 30.4483 13.6315 30.8242 13.7451C31.2001 13.8586 31.3748 14.166 31.2142 14.4316ZM28.3256 17.5689L28.3151 17.578L28.3179 17.5785L28.3247 17.5738L28.3256 17.5689Z" fill="#2B2A29"/>
<path fill-rule="evenodd" clip-rule="evenodd" d="M29.4008 10.7991C29.4013 10.7995 36.3253 14.1055 34.5168 14.4161C34.1446 14.4801 33.6952 14.1015 33.4527 13.9374L33.4595 13.9368C31.9101 13.3015 30.2841 12.7346 28.7242 12.1157C28.3606 11.929 28.2174 11.4826 28.4043 11.1191C28.591 10.7556 29.0373 10.6124 29.4008 10.7991ZM34.3847 13.8676L34.4157 13.8654C34.405 13.8652 34.3948 13.8658 34.3847 13.8676Z" fill="#2B2A29"/>
<path fill-rule="evenodd" clip-rule="evenodd" d="M32.1131 18.4831C33.8521 17.7004 33.2686 17.9625 34.4987 17.4104C34.6516 15.6359 36.6982 14.4608 37.001 15.4204C37.333 16.4726 36.1283 17.4295 34.8592 18.1402C34.732 18.6589 34.6361 19.1308 34.5318 19.3949C34.5046 19.464 34.4842 19.5144 34.4688 19.5516C35.058 19.2751 36.4224 18.3653 36.9464 18.0612C36.7386 18.3567 36.8457 18.2473 36.5605 18.4776C33.2869 21.1212 33.9749 19.9427 34.3443 18.415C33.5446 18.8221 32.7991 19.1217 32.4844 19.2751C32.2657 19.3776 32.0053 19.2836 31.9028 19.0648C31.8003 18.8462 31.8945 18.5856 32.1131 18.4831ZM35.1641 17.0956C35.7367 16.7581 36.0901 16.4219 36.2996 15.7539C35.7583 15.8468 35.4106 16.4188 35.1641 17.0956Z" fill="#2B2A29"/>
<path fill-rule="evenodd" clip-rule="evenodd" d="M4.919 50.1141C9.85767 49.4291 7.27638 54.6574 11.9354 51.6163C15.7215 49.145 16.1388 55.3693 19.0526 53.6051C25.4424 49.7358 23.5624 56.4739 27.9852 54.5604C29.4333 53.9339 30.1574 53.8441 31.1407 55.7744C27.7036 52.9332 28.1735 58.3177 24.4625 55.099C20.0625 51.2828 19.9154 58.0721 16.5437 55.1937C11.827 51.1674 13.9594 54.4737 10.4324 54.761C6.00486 55.1216 8.69863 52.0698 5.32693 52.7248C4.84722 52.8499 4.36692 52.367 4.25432 51.6461C4.14161 50.9251 4.43917 50.2393 4.919 50.1141Z" fill="#6F7BFF"/>
</svg>
