<svg width="90" height="62" viewBox="0 0 90 62" fill="none" xmlns="http://www.w3.org/2000/svg">
<path d="M64.234 54.636C78.1638 54.636 89.4562 42.6292 89.4562 27.818C89.4562 13.0068 78.1638 1 64.234 1C50.3041 1 39.0117 13.0068 39.0117 27.818C39.0117 42.6292 50.3041 54.636 64.234 54.636Z" fill="#A0A8FF" stroke="#A9B0FB" stroke-width="0.755906" stroke-miterlimit="22.9256"/>
<path fill-rule="evenodd" clip-rule="evenodd" d="M71.371 16.2237C65.5489 16.0237 57.0933 14.0058 53.5691 20.5069C52.0256 23.3543 54.7117 26.3578 58.063 26.6182C64.174 27.0933 79.91 20.5107 79.124 34.8686C78.7564 41.5809 63.3377 46.3177 56.1097 43.6836C53.971 42.9042 55.1595 43.8417 52.8461 41.7236C54.7621 42.1073 55.3463 42.1377 57.0381 42.3714C62.2492 43.0911 74.5219 38.6689 75.1094 34.802L75.0973 34.7954C74.2274 25.7347 67.3836 32.5664 57.2091 30.9902C50.9237 30.0163 47.3638 23.2877 50.6443 18.5589C55.7321 11.2249 64.4517 13.3425 71.371 16.2237Z" fill="#8B94FF"/>
<path fill-rule="evenodd" clip-rule="evenodd" d="M55.2637 9.61438C62.222 21.1537 64.7935 33.3322 67.6417 46.3434C67.6928 46.5772 67.6767 46.5018 67.6795 46.7774C67.241 46.9478 67.0399 46.806 66.6577 46.4632C60.0184 40.5089 55.9919 17.6461 55.2637 9.61438Z" fill="#8B94FF"/>
<path fill-rule="evenodd" clip-rule="evenodd" d="M59.9809 7.32725C59.8007 7.14579 60.9373 6.63079 64.8542 15.6372C69.2553 25.7571 71.8905 34.6233 73.0415 45.6119C66.7027 36.0476 64.1269 27.792 61.5955 16.7037C61.5955 16.7037 60.0916 7.39178 59.9809 7.32725Z" fill="#8B94FF"/>
<path d="M28.4803 62.0005C44.2096 62.0005 56.9607 49.3866 56.9607 33.8267C56.9607 18.2667 44.2096 5.65283 28.4803 5.65283C12.7511 5.65283 0 18.2667 0 33.8267C0 49.3866 12.7511 62.0005 28.4803 62.0005Z" fill="#6F7BFF"/>
<path fill-rule="evenodd" clip-rule="evenodd" d="M37.6316 24.6145C32.0187 23.0556 24.2713 19.1122 19.3219 24.6062C17.1541 27.0125 19.0616 30.562 22.2587 31.6006C28.0881 33.4947 44.9284 30.7835 40.8 44.5572C38.8697 50.9965 22.7705 51.9877 16.3609 47.733C14.4645 46.4742 15.4003 47.664 13.6475 45.0627C15.4202 45.8847 15.9811 46.0511 17.5711 46.675C22.4683 48.5959 35.4354 47.1733 36.9128 43.5517L36.9025 43.5425C38.1799 34.5303 29.9259 39.5676 20.4041 35.6507C14.5219 33.2308 12.6378 25.8552 16.9349 22.0269C23.5996 16.0896 31.5802 20.1919 37.6316 24.6145Z" fill="#3D49DA"/>
<path fill-rule="evenodd" clip-rule="evenodd" d="M23.5215 14.4146C27.5822 27.2633 27.2283 39.7054 26.9484 53.0217C26.9433 53.2611 26.9454 53.184 26.8834 53.4525C26.4173 53.5154 26.2549 53.3304 25.9636 52.9076C20.9045 45.563 22.3474 22.3932 23.5215 14.4146Z" fill="#3D49DA"/>
<path fill-rule="evenodd" clip-rule="evenodd" d="M28.6436 13.2968C28.511 13.0781 29.7365 12.8438 31.434 22.5176C33.3412 33.3871 33.8256 42.624 32.3696 53.5764C28.4484 42.7927 27.8788 34.1634 28.0161 22.7906C28.0161 22.7906 28.736 13.3854 28.6436 13.2968Z" fill="#3D49DA"/>
</svg>
