<svg width="135" height="11" viewBox="0 0 135 11" fill="none" xmlns="http://www.w3.org/2000/svg">
<path d="M1.99011 4.98392C4.90882 2.73526 10.5807 3.93129 14.2315 4.01711C19.2455 4.13498 23.0087 8.61444 28.4337 8.74197C30.6379 8.79378 32.7659 6.29627 34.7951 5.44144C38.0835 4.0562 40.9717 4.01843 44.5627 4.10284C49.0718 4.20884 52.9359 4.17274 57.0867 5.96547C59.0856 6.82879 62.1358 8.27966 64.401 8.33291C68.1909 8.422 70.0281 8.17432 73.3264 6.52147C75.3143 5.52528 78.7114 4.27832 81.0581 4.33348C89.4293 4.53027 97.7539 4.56163 106.009 5.58215C111.871 6.30677 114.564 5.07087 120.037 2.88003C123.834 1.35996 129.202 2.3288 133.313 2.42546" stroke="#6F7BFF" stroke-width="3" stroke-linecap="round"/>
</svg>
