<svg width="108" height="57" viewBox="0 0 108 57" fill="none" xmlns="http://www.w3.org/2000/svg">
<path fill-rule="evenodd" clip-rule="evenodd" d="M45.6845 10.568C44.4004 11.9563 43.0094 13.7131 41.859 16.2065C40.7087 18.6997 39.7992 21.9298 39.3711 24.7347C38.943 27.5396 38.9967 29.9198 39.3176 32.3847C39.6386 34.8497 40.2273 37.3997 41.1368 39.5531C42.0463 41.7063 43.2769 43.4631 44.6413 45.1063C46.0055 46.7497 47.5035 48.2798 49.5901 49.5264C51.6768 50.773 54.3519 51.7364 57.0129 52.13C59.6738 52.5237 62.3208 52.3476 64.8276 52.0367C67.3343 51.726 69.7011 51.2803 71.6674 50.7271C73.6337 50.1738 75.1996 49.513 77.5479 48.7166C79.896 47.9202 83.0262 46.9883 86.3677 47.7731C89.7093 48.5579 93.2619 51.0595 96.3437 52.8835C99.4253 54.7075 102.036 55.8539 103.883 56.4609C105.729 57.0679 106.812 57.1353 107.417 56.798C108.022 56.4609 108.149 55.7192 107.831 54.64C107.512 53.5609 106.748 52.1448 106.048 50.0203C105.347 47.8961 104.71 45.0634 104.328 42.5343C103.946 40.0054 103.819 37.7798 104.074 35.7229C104.328 33.666 104.965 31.7777 105.475 29.4847C105.984 27.1916 106.366 24.4941 106.111 21.965C105.857 19.4359 104.965 17.0756 103.851 15.0524C102.736 13.0291 101.399 11.3432 99.298 9.52225C97.1967 7.7013 94.3312 5.74547 91.6888 4.36292C89.0462 2.98037 86.6265 2.17109 83.6688 1.42614C80.7111 0.681181 77.2156 0.000357434 73.1405 1.40698e-07C69.0652 -0.000357152 64.4103 0.679781 60.3441 1.98319C56.278 3.28641 52.8003 5.21311 50.4729 6.68641C48.1456 8.15971 46.9684 9.17976 45.6845 10.568Z" fill="#C0C0C0"/>
<path fill-rule="evenodd" clip-rule="evenodd" d="M1.86551 40.839C3.06797 40.2023 5.59063 38.6467 7.69279 38.2878C9.79479 37.9287 11.4766 38.7665 13.1175 39.6642C14.7581 40.5619 16.358 41.5198 18.2709 42.0724C20.1838 42.6249 22.4096 42.7721 24.4617 42.2933C26.5137 41.8144 28.3917 40.7093 30.1307 39.0886C31.8698 37.4678 33.4696 35.3311 34.0957 33.0843C34.7217 30.8373 34.3739 28.4797 33.3755 26.0694C32.3771 23.6589 30.7282 21.1955 28.4005 19.8435C26.0727 18.4915 23.0661 18.2507 21.0734 18.23C19.0807 18.2093 18.1021 18.4083 17.0433 18.6917C15.9845 18.9748 14.846 19.3423 13.107 20.7421C11.368 22.1418 9.02868 24.5739 6.89379 28.1075C4.75891 31.6412 2.82863 36.2762 1.80462 38.7349C0.780608 41.1934 0.663044 41.4757 1.86551 40.839Z" fill="#898989" stroke="#898989" stroke-width="0.755906" stroke-miterlimit="22.9256"/>
<path d="M60.5637 32.8303C62.5723 32.8303 64.2006 31.1919 64.2006 29.1709C64.2006 27.1498 62.5723 25.5115 60.5637 25.5115C58.5551 25.5115 56.9268 27.1498 56.9268 29.1709C56.9268 31.1919 58.5551 32.8303 60.5637 32.8303Z" fill="#939BFF"/>
<path d="M73.5314 32.1592C75.54 32.1592 77.1683 30.5209 77.1683 28.4998C77.1683 26.4788 75.54 24.8405 73.5314 24.8405C71.5228 24.8405 69.8945 26.4788 69.8945 28.4998C69.8945 30.5209 71.5228 32.1592 73.5314 32.1592Z" fill="#717CFF"/>
<path d="M85.2951 31.4822C87.3037 31.4822 88.932 29.8439 88.932 27.8228C88.932 25.8018 87.3037 24.1635 85.2951 24.1635C83.2865 24.1635 81.6582 25.8018 81.6582 27.8228C81.6582 29.8439 83.2865 31.4822 85.2951 31.4822Z" fill="#4B59FF"/>
</svg>
