<svg width="67" height="54" viewBox="0 0 67 54" fill="none" xmlns="http://www.w3.org/2000/svg">
<path fill-rule="evenodd" clip-rule="evenodd" d="M31.0078 4.72156C31.4469 6.00694 32.3553 7.13661 33.3989 7.77401C34.4424 8.4114 35.6212 8.55663 36.5786 8.4977C37.5361 8.43876 38.2721 8.17573 38.936 7.84995C39.5999 7.52423 40.1917 7.13569 40.7437 6.72073C41.2958 6.30582 41.8082 5.86437 42.1801 5.48035C40.9023 6.01341 39.6246 6.54642 38.4258 6.74375C37.2271 6.94108 36.1074 6.80262 35.1827 6.31126C34.258 5.81989 33.5284 4.97557 33.1577 4.11273C32.7871 3.24996 32.7754 2.36867 32.72 1.89697C32.6646 1.42528 32.5338 1.25553 31.9802 0.953638C31.4266 0.651741 30.2404 0.158523 30.214 0.694766C30.4964 0.842244 30.4921 0.595696 30.5386 1.2044C30.5851 1.81311 30.5688 3.43625 31.0078 4.72156Z" fill="#6F7BFF"/>
<path fill-rule="evenodd" clip-rule="evenodd" d="M36.76 34.4891C36.76 27.9699 39.7036 26.0439 43.8228 23.2803C45.5389 22.3436 46.2006 22.1576 50.2448 22.1576C54.289 22.1576 59.1918 25.7231 60.4965 31.8501C62.1005 39.3819 56.906 47.3905 47.9444 47.3905C40.9174 47.3905 36.76 41.0083 36.76 34.4891ZM36.0256 50.5268C36.5754 51.231 36.5979 51.2571 36.9569 51.0484C37.316 50.8398 38.0116 50.3964 38.9317 50.3703C39.8519 50.3443 40.9964 50.7355 41.6135 51.3093C42.2307 51.883 42.3204 52.6394 42.3653 53.0176C42.4102 53.3957 42.4102 53.3957 43.2405 53.487C44.0708 53.5783 45.7315 53.7609 46.5955 53.8652C47.4595 53.9695 47.5269 53.9956 47.7961 53.6305C48.0654 53.2653 48.5367 52.509 49.3894 51.9873C50.2422 51.4658 51.4765 51.1789 52.4303 51.244C53.384 51.3093 54.0573 51.7265 54.5397 52.0526C55.0222 52.3786 55.314 52.6133 55.4599 52.7307C55.6057 52.8481 55.6057 52.8481 56.4361 52.3003C57.2664 51.7526 58.9271 50.6572 59.7798 50.1095C60.6326 49.5619 60.6775 49.5618 60.5653 49.3271C60.453 49.0924 60.1838 48.623 60.195 47.9318C60.2062 47.2406 60.498 46.3278 61.1039 45.6106C61.7098 44.8934 62.6299 44.3717 63.3255 44.2022C64.0213 44.0327 64.4925 44.2153 64.7281 44.3065C64.9638 44.3978 64.9638 44.3978 65.3116 43.2893C65.6595 42.1809 66.3551 39.9641 66.6918 38.5296C67.0284 37.0951 67.006 36.4432 66.9948 36.091C66.9835 35.7389 66.9835 35.6868 66.5347 35.5433C66.0859 35.3999 65.8548 35.1651 65.204 34.2784C64.5532 33.3916 64.2072 31.8528 64.095 30.4706C63.9828 29.0883 64.4002 27.5714 64.6557 27.1874C64.9113 26.8035 65.3437 25.826 65.8935 25.5652C66.4433 25.3044 66.9137 25.0143 66.6462 24.2729C66.3786 23.5315 65.8412 21.9912 65.2914 20.9089C64.7415 19.8265 64.1794 19.2021 63.646 18.6537C63.1127 18.1052 62.6081 17.6327 62.2698 17.5176C61.9316 17.4026 61.7599 17.6448 61.4839 17.9297C61.2079 18.2147 60.8277 18.5423 60.418 18.8502C60.0084 19.1581 59.5693 19.4464 59.0766 19.6881C58.584 19.9298 58.0379 20.125 57.3274 20.1688C56.617 20.2125 55.7423 20.1047 54.9679 19.6318C54.1935 19.1588 53.5194 18.3205 53.1936 17.3667C52.8679 16.413 52.8903 15.3437 52.8455 14.7569C52.8006 14.17 52.6884 14.0657 51.5775 13.9744C50.4667 13.8831 48.3571 13.8049 46.7189 13.9222C45.0807 14.0396 43.9138 14.3526 43.319 14.5221C42.7244 14.6916 42.7019 14.7177 42.7468 15.3567C42.7917 15.9957 42.9039 17.2476 42.6234 18.2256C42.3429 19.2037 41.6696 19.9078 40.6822 20.6121C38.4471 22.206 36.9113 22.57 34.7353 20.7033C34.2639 20.299 34.2639 20.2991 33.8375 20.8337C33.4112 21.3684 32.5584 22.4377 31.9974 23.4548C31.4363 24.472 31.1671 25.437 30.9314 26.415C30.6958 27.393 30.4938 28.3841 30.4153 28.9579C30.3367 29.5317 30.3816 29.6881 30.8417 29.9751C31.3017 30.2619 32.1769 30.6792 32.6931 31.253C33.2092 31.8268 33.3663 32.5571 33.1868 33.2613C33.0072 33.9655 32.4911 34.6435 31.9301 35.1782C31.369 35.7128 30.7631 36.1041 30.4601 36.3258C30.1572 36.5474 30.1572 36.5996 30.2133 37.1734C30.2694 37.7472 30.3816 38.8426 30.5612 39.7684C30.7406 40.6943 30.9875 41.4507 31.1446 41.8288C31.3017 42.207 31.369 42.207 31.7505 42.1809C32.132 42.1549 32.8277 42.1027 33.3663 42.3765C33.9049 42.6504 34.2864 43.2503 34.4772 43.9284C34.6679 44.6065 34.6679 45.3628 34.4435 45.8974C34.219 46.4321 33.7702 46.7451 34.0844 47.5927C34.3986 48.4404 35.4758 49.8226 36.0256 50.5268Z" fill="#BAC0FF"/>
<path fill-rule="evenodd" clip-rule="evenodd" d="M6.13257 9.21793C6.76767 9.76273 8.03782 10.8523 9.54999 10.9225C11.0621 10.9929 12.8162 10.0439 14.1469 9.0949C15.4776 8.1459 16.3849 7.19696 16.763 5.87891C15.6278 6.89645 14.255 7.84741 13.2622 8.17823C10.8744 8.97403 11.0701 7.45923 9.69285 7.72493C8.83462 7.89051 7.24568 8.37417 5.65674 8.85778C5.77354 8.90995 5.9162 9.03234 6.13257 9.21793Z" fill="#6F7BFF"/>
<path fill-rule="evenodd" clip-rule="evenodd" d="M18.6818 41.0922C17.1246 40.1121 15.2971 38.7862 14.3639 37.4714C13.4307 36.1566 12.7647 34.5823 12.138 32.0758C11.5112 29.5692 10.9236 26.1304 11.7317 22.5606C12.5385 18.9967 14.7364 15.3022 16.9367 11.6074C11.3278 14.6694 7.46943 17.7189 7.47902 28.2606C7.48862 38.8023 14.6831 46.2504 24.6258 46.887C34.5684 47.5237 42.507 36.6678 41.7725 28.2606C41.0381 19.8534 41.2479 23.9308 40.9595 22.5765C40.6773 28.7271 39.275 31.5861 37.9016 34.3286C36.5283 37.0711 34.81 38.7863 32.6798 40C30.5497 41.2137 27.9111 42.4668 25.3455 42.5327C22.7799 42.5987 20.239 42.0723 18.6818 41.0922Z" fill="#6F7BFF"/>
<path fill-rule="evenodd" clip-rule="evenodd" d="M8.86122 27.7966C8.86122 19.0111 12.8282 16.4155 18.3793 12.6911C20.6919 11.4287 21.5838 11.178 27.0339 11.178C32.484 11.178 39.0913 15.9831 40.8495 24.2401C43.0111 34.3902 36.0108 45.1829 23.9338 45.1829C14.4639 45.1829 8.86122 36.582 8.86122 27.7966ZM7.87153 49.4096C8.6125 50.3586 8.64278 50.3938 9.12666 50.1126C9.61055 49.8314 10.548 49.2339 11.7879 49.1987C13.028 49.1636 14.5704 49.6908 15.402 50.4641C16.2337 51.2373 16.3546 52.2566 16.4152 52.7662C16.4757 53.2759 16.4757 53.2759 17.5947 53.3989C18.7136 53.5219 20.9516 53.7679 22.116 53.9085C23.2803 54.0491 23.3711 54.0843 23.734 53.5922C24.0969 53.1002 24.732 52.0808 25.8812 51.3779C27.0304 50.6749 28.6938 50.2883 29.9792 50.3762C31.2644 50.4641 32.1717 51.0264 32.822 51.4658C33.4722 51.9051 33.8654 52.2214 34.062 52.3796C34.2585 52.5378 34.2585 52.5378 35.3775 51.7997C36.4965 51.0616 38.7345 49.5854 39.8837 48.8473C41.033 48.1092 41.0934 48.1092 40.9422 47.7928C40.791 47.4765 40.4281 46.8439 40.4432 45.9124C40.4583 44.981 40.8515 43.7509 41.668 42.7843C42.4846 41.8178 43.7246 41.1148 44.6621 40.8863C45.5997 40.6579 46.2347 40.9039 46.5523 41.0269C46.8698 41.1499 46.8698 41.1499 47.3386 39.6561C47.8073 38.1624 49.1985 33.2417 49.1985 33.2417C49.1985 33.2417 49.9262 31.0197 50.6033 30.0039C50.9561 29.4749 49.8282 29.8001 48.4057 27.8195C47.291 26.2675 46.5071 24.0706 46.3945 22.1645C46.282 20.2583 47.2305 18.7689 47.5424 18.2264C48.3755 16.7773 50.7895 15.545 50.6847 15.2544C50.3243 14.2555 48.0522 10.9539 47.3112 9.49527C46.5703 8.03662 45.8127 7.19519 45.094 6.45606C44.3752 5.71693 43.6951 5.08018 43.2393 4.92507C42.7835 4.77002 42.552 5.09638 42.1801 5.48035C41.8082 5.86437 41.2958 6.30582 40.7437 6.72073C40.1917 7.13569 39.5999 7.52423 38.936 7.84995C38.2721 8.17573 37.5361 8.43876 36.5786 8.4977C35.6212 8.55663 34.4424 8.4114 33.3989 7.77401C32.3553 7.13661 31.4469 6.00694 31.0078 4.72156C30.5688 3.43625 30.5991 1.99523 30.5386 1.2044C30.4781 0.413574 30.327 0.273144 28.83 0.15013C27.3329 0.0271154 24.49 -0.0783758 22.2823 0.0798018C20.0746 0.237979 18.502 0.659769 17.7005 0.888215C16.8991 1.11672 16.8688 1.15182 16.9294 2.01292C16.9898 2.87408 17.141 4.56086 16.763 5.87891C16.3849 7.19696 15.4776 8.1459 14.1469 9.0949C12.8162 10.0439 11.0621 10.9929 9.54999 10.9225C8.03782 10.8523 6.76767 9.76273 6.13257 9.21793C5.49742 8.67313 5.49746 8.67344 4.92282 9.39394C4.34824 10.1145 3.19902 11.5555 2.44294 12.9262C1.68685 14.297 1.32395 15.5975 1.0064 16.9156C0.688799 18.2336 0.416651 19.5692 0.310835 20.3424C0.204916 21.1157 0.265435 21.3266 0.885419 21.7132C1.5054 22.0999 2.68485 22.6622 3.38047 23.4354C4.07604 24.2087 4.28772 25.1929 4.0458 26.1419C3.80384 27.0909 3.10827 28.0047 2.35224 28.7252C1.5961 29.4457 0.779552 29.9729 0.371302 30.2717C-0.0369473 30.5705 -0.0369472 30.6408 0.0386355 31.414C0.11427 32.1873 0.265434 33.6635 0.507402 34.9112C0.749318 36.1589 1.08199 37.1783 1.29372 37.6879C1.5054 38.1975 1.5961 38.1975 2.11027 38.1624C2.62439 38.1272 3.56192 38.0569 4.28772 38.426C5.01357 38.795 5.52769 39.6034 5.78483 40.5173C6.04186 41.4311 6.04186 42.4504 5.73943 43.1709C5.43694 43.8915 4.83212 44.3132 5.25554 45.4555C5.67891 46.5978 7.13061 48.4606 7.87153 49.4096Z" fill="#969FFF"/>
</svg>
