<svg id="Слой_1" data-name="Слой 1" xmlns="http://www.w3.org/2000/svg" xmlns:xlink="http://www.w3.org/1999/xlink" viewBox="0 0 240 320"><defs><style>.cls-1,.cls-12,.cls-19,.cls-2,.cls-27,.cls-32{fill:none;}.cls-13,.cls-14,.cls-15,.cls-16,.cls-17,.cls-2,.cls-20,.cls-26,.cls-29,.cls-3,.cls-5,.cls-6{stroke:#2b2a29;}.cls-12,.cls-13,.cls-14,.cls-15,.cls-16,.cls-17,.cls-18,.cls-19,.cls-2,.cls-20,.cls-23,.cls-24,.cls-26,.cls-27,.cls-28,.cls-29,.cls-3,.cls-30,.cls-31,.cls-32,.cls-33,.cls-5,.cls-6{stroke-miterlimit:10;}.cls-12,.cls-13,.cls-14,.cls-15,.cls-16,.cls-17,.cls-19,.cls-2,.cls-20,.cls-23,.cls-24,.cls-26,.cls-28,.cls-29,.cls-3,.cls-30,.cls-31,.cls-32,.cls-33,.cls-5,.cls-6{stroke-width:0.57px;}.cls-22,.cls-3{fill:#fdefe5;}.cls-11,.cls-13,.cls-14,.cls-15,.cls-16,.cls-17,.cls-20,.cls-21,.cls-22,.cls-23,.cls-24,.cls-25,.cls-28,.cls-29,.cls-3,.cls-30,.cls-4,.cls-5,.cls-6,.cls-7,.cls-9{fill-rule:evenodd;}.cls-4{fill:#ffdd6f;}.cls-5{fill:#ef7f1a;}.cls-26,.cls-6{fill:#2b2a29;}.cls-14,.cls-28,.cls-7{fill:#f196ab;}.cls-8{clip-path:url(#clip-path);}.cls-17,.cls-9{fill:#dccf73;}.cls-10{clip-path:url(#clip-path-2);}.cls-11,.cls-15,.cls-31{fill:#fff7b2;}.cls-12{stroke:#dccf73;}.cls-13{fill:#fffbdb;}.cls-16,.cls-21{fill:#f08143;}.cls-18,.cls-24{fill:#e27334;}.cls-18,.cls-24,.cls-27,.cls-31{stroke:#e27334;}.cls-18{stroke-width:0.75px;}.cls-19{stroke:#f08143;}.cls-20,.cls-23,.cls-33{fill:#434242;}.cls-23,.cls-32,.cls-33{stroke:#434242;}.cls-25{fill:#ee7691;}.cls-28{stroke:#f196ab;}.cls-29{fill:#7688a1;}.cls-30{fill:#ea556f;stroke:#ea556f;}</style><clipPath id="clip-path"><path class="cls-1" d="M149.33,170.23c2.45-.45,2.45-.45,4-.13s4.6.94,6,2,1,2.67.22,3.76a6.78,6.78,0,0,1-2.71,2,12.13,12.13,0,0,1-2.76.71c-2.06.44-6.11,1.36-8.22,1.88a7.29,7.29,0,0,0-3.27,1.34c-1,.68-2.87,1.91-3.8,2.58s-.92.77.4.68,4-.38,5.31-.57,1.4-.26,6.07-1.53,14-3.73,18.61-5,4.65-1.23,5.55-1.28a12,12,0,0,1,4.11.3,3.43,3.43,0,0,1,2.51,2.51,4.21,4.21,0,0,1-1.37,2.92c-.74.84-1.44,1.47-6.52,3.23s-14.53,4.68-19.25,6.13l18.52-5.69c4.65-1.44,4.68-1.47,5.86-1.63a15.17,15.17,0,0,1,5.09,0c.07-3.41.14-6.82.21-10.15,0-2.61.1-5.17.15-7.66.06-2.83.12-5.56.17-8.14,0-.66,0-1.32,0-2,.06-2.74.11-5.27.16-7.55s.09-4.43.12-6.15c0-1.15.05-2.14,0-3,0-3-.47-4.16-2.52-4.29-1.63-.11-4.27.46-8.54,1.38l-3,.65c-11.83,2.56-31.52,6.81-41.76,9.07-11.16,2.45-11.09,2.52-11.06,2.66s0,.34.25,5.94.64,16.59,1.07,27.58l2.65-.18c5.15-3.43,10.29-6.87,12.88-8.57s2.61-1.68,5.07-2.11l9.8-1.77Z"/></clipPath><clipPath id="clip-path-2"><path class="cls-1" d="M154.65,165.53a13,13,0,0,1,13.22,12.73v.08c-4.9,1.3-13.07,3.46-17.35,4.62-4.67,1.27-4.72,1.35-6.07,1.53l-1.23.16a12.08,12.08,0,0,1-1.16-2.53l.48-.32a7.29,7.29,0,0,1,3.27-1.34c2.11-.52,6.16-1.44,8.22-1.88a12.13,12.13,0,0,0,2.76-.71,6.78,6.78,0,0,0,2.71-2c.8-1.09,1.14-2.66-.22-3.76s-4.43-1.73-6-2-1.53-.32-4,.13l-5.74,1a13.35,13.35,0,0,1,11.06-5.74Z"/></clipPath></defs><g id="Слой_1-2" data-name="Слой_1"><path class="cls-2" d="M98.32,273.7c.68,1.54,2,3.68,5.53,6s9.39,4.8,16.08,7a89.1,89.1,0,0,0,22,4.54c7.8.47,15.86-.47,20.62-2s6.22-3.56,6.69-5.45a5.46,5.46,0,0,0-1.5-5.21,21,21,0,0,0-6.24-4.26,37.81,37.81,0,0,0-9.2-2.84,118.46,118.46,0,0,0-15.47-2.14,56.63,56.63,0,0,0-10.09.38,6.8,6.8,0,0,0-2.27.35,19.77,19.77,0,0,1-4.37,1.29,42.34,42.34,0,0,1-9.65.47c-3.94-.21-8.48-.9-10.71-.77s-2.15,1.07-1.46,2.62Z"/><path class="cls-2" d="M176.6,289c3.05,3.18,5.7,4.09,9.5,3.76s8.72-1.88,11.41-4.5,3.14-6.33,1.78-10-4.54-7.19-7.42-10.05-5.48-5-7.69-8.88a64.73,64.73,0,0,1-5.12-13.59c-1.1-4-1.49-6.51-5.09-7.13s-10.41.62-14,2-3.89,2.75-3.73,5.41a75.48,75.48,0,0,0,1.62,10.28,46.3,46.3,0,0,0,3.28,10.37c1.49,3.08,3.5,5.68,6.22,9.7s6.16,9.46,9.21,12.64Z"/><path class="cls-2" d="M98,271.78l-.52-.07c-.51-.06-1.54-.2-3.65-.43A47.82,47.82,0,0,1,86.25,270,12.58,12.58,0,0,1,82,267.8c-.66-.51-.66-.51-.78,0a49.16,49.16,0,0,0-.84,4.87c-.47,3.25-1.14,8.7-.84,12s1.57,4.51,3.95,6.11a81.71,81.71,0,0,0,10.67,5.85A136.94,136.94,0,0,0,111,303.24a115.35,115.35,0,0,0,18.68,4.06,156.29,156.29,0,0,0,20.25,1.53c6.07,0,10.77-.6,14-1.83a11.55,11.55,0,0,0,6.3-5.48,20.59,20.59,0,0,0,2.68-8,16.74,16.74,0,0,0-1-7.3,27,27,0,0,0-2.68-5.18"/><path class="cls-2" d="M170.18,301.52a23.48,23.48,0,0,0,8,4.88,32.72,32.72,0,0,0,13.21,1.45A21,21,0,0,0,202.77,303a29,29,0,0,0,7.55-10c1.67-3.64,2.36-7.29,1.43-10.89s-3.5-7.15-6.66-10.7-6.9-7.1-9.17-9.82a11.3,11.3,0,0,1-3.16-8.08,110,110,0,0,1,.74-11.34c.25-2.72.15-3-.74-2.52a20.34,20.34,0,0,1-4.53,2.37,15.05,15.05,0,0,1-6.06.25,30.44,30.44,0,0,1-4.53-1"/><path class="cls-2" d="M147.8,270.66a65.55,65.55,0,0,1-2.21-6.49,122.3,122.3,0,0,1-2.9-12.24,86.82,86.82,0,0,1-1.05-9.58c-.1-1.8-.1-1.8.58-1.36a15,15,0,0,0,3.83,1.87,17.33,17.33,0,0,0,5.8.62,22.32,22.32,0,0,0,4.29-.75l.8-.21h0"/><path class="cls-2" d="M144.07,242.06q.39-4.74.8-9.49"/><path class="cls-2" d="M188.23,242.07c.73-2.93,1.47-5.86,2.2-8.78"/><path class="cls-2" d="M61.67,207c3.62,14.44,7.25,28.87,9.93,38.47s4.44,14.34,5.26,16.62.73,2.08,1.43,2.62,2.21,1.8,3.71,3.07"/><path class="cls-2" d="M124.51,270.09c1.78-1.07,3.56-2.14,3.76-9.6s-1.17-21.32-2.55-35.18"/><path class="cls-2" d="M137.85,225.81c0,1.58,0,3.16,0,4s-.09,1,1.63,1.49a64.09,64.09,0,0,0,10.26,2,166.65,166.65,0,0,0,17.57,1c6,0,11.31-.22,16-.51s8.7-.6,10.83-.73,2.39-.06,3.43-2.51,2.86-7.41,4.69-12.37"/><path class="cls-2" d="M43.37,92.21c-6,7.5-11.94,15-16.42,22.07a80.59,80.59,0,0,0-9.28,19.81,99.22,99.22,0,0,0-3.2,17.24"/><path class="cls-2" d="M202.15,218.31c4.42-6.33,8.83-12.65,13.17-19.64S223.94,184,226,177.31s2-12.39.11-15.89-5.48-4.83-9.09-6.14"/><path class="cls-2" d="M183.83,174.32c7.43,1.16,14.87,2.32,18.5,2.4s3.44-.91,5.55-4.55,6.52-9.94,9.66-16.77c2.74-6,3.79-8.39,5.36-17.31"/><path class="cls-2" d="M224.82,144.94c.2-1.13,1.39-13.41,1.59-14.63,1.75-11.13,2.66-24,2.11-33.72-.42-7.48.82-7.45-4-8.1s-14.42-2-29-3.75-34.23-4.07-53.84-6.34"/><path class="cls-2" d="M121.58,182.68A105.24,105.24,0,0,0,117,199.41a57.4,57.4,0,0,0-.18,15.55,52.5,52.5,0,0,0,2,9.24c.5,1.61.5,1.61-3.65.49s-12.46-3.34-20.82-5.82-16.8-5.21-24.23-8.12-13.88-6-19.83-11.53A63.08,63.08,0,0,1,35.7,178c-3.22-7.81-4.22-15.49-5.21-23.17"/><path class="cls-2" d="M43.34,92.14a21.46,21.46,0,0,0,5.71,2.6,98.71,98.71,0,0,0,12.65,2.7c5.22.83,11.18,1.52,17.14,2.22"/><path class="cls-2" d="M41.13,61a30.35,30.35,0,0,0-2.79,12.53,31.15,31.15,0,0,0,1,7.45,58.73,58.73,0,0,0,2,6.48c.7,1.85,1.36,3.28,2,4.71"/><path class="cls-2" d="M115.27,99.33a27.51,27.51,0,0,0,7.06-2.43,48,48,0,0,0,7.25-5.51c2.71-2.3,5.92-5,8.11-7.21a16.78,16.78,0,0,0,4-5.78,12,12,0,0,0,.63-3.76c0-.74.1-.81-2.23-3.73S133,62.2,129.89,58.62s-4.56-5-6.09-5.89a10.41,10.41,0,0,0-5-1.41,36.13,36.13,0,0,0-5.39.34L110,52"/><path class="cls-2" d="M107.15,51a10.42,10.42,0,0,1,3.73,1.57,14.91,14.91,0,0,1,4.7,5.25,27.59,27.59,0,0,1,2.5,8.92,60.49,60.49,0,0,1,.39,10,105.15,105.15,0,0,1-1.12,13.13,96,96,0,0,1-3.27,13.58c-1.36,4.36-2.89,8.47-4.28,12.09s-2.65,6.75-4,10.31A90.66,90.66,0,0,0,102,138.33,104,104,0,0,0,99.77,155a56.13,56.13,0,0,0,1,15.26,69.16,69.16,0,0,0,4.71,12.82"/><path class="cls-2" d="M86.67,85.88c-2.75,4.59-5.5,9.18-7.52,13.15a105.12,105.12,0,0,0-5,11.86c-1.69,4.53-3.78,10.24-5.21,15.57a118.28,118.28,0,0,0-2.92,16,111.31,111.31,0,0,0-1.22,17.41,46.63,46.63,0,0,0,2.3,12.63,55.64,55.64,0,0,0,2.66,6.74"/><path class="cls-2" d="M66.83,56.85A46.48,46.48,0,0,0,76,59.74a39,39,0,0,0,11.63.43,31.71,31.71,0,0,0,9.75-3.1,74.82,74.82,0,0,0,7.24-4,21.6,21.6,0,0,0,2.85-2"/><path class="cls-2" d="M118.59,223.32a51.24,51.24,0,0,0,9,2.31,58.33,58.33,0,0,0,8.53.35c1.77,0,1.77,0,7-2.34s15.64-6.95,20.69-9.16,4.7-2,5.58-2.52,3-1.8,3.35-2.94-.93-2.15-2.69-2.31a13.79,13.79,0,0,0-5.07.92c-1.12.38-1.17.43-4.4,1.37s-9.61,2.75-12.38,3.3-1.89-.16,3.46-1.86,15.2-4.38,20.2-5.72,5.16-1.34,6.13-1.79,2.77-1.34,3.35-2.45a2.22,2.22,0,0,0-1.45-3,11.4,11.4,0,0,0-4.63-.34,40.5,40.5,0,0,0-4.85.73l-15.12,2.59c-3.81.65-3.89.65,1.2-1l20.46-6.45c5.12-1.62,5.1-1.65,5.89-2.37s2.42-2.13,2.82-3.4-.45-2.39-2-2.81a15.17,15.17,0,0,0-5.09,0c-1.18.16-1.21.19-5.86,1.63l-18.6,5.71c-4.64,1.43-4.64,1.43.08,0s14.17-4.36,19.25-6.13,5.78-2.39,6.52-3.23a4.21,4.21,0,0,0,1.37-2.92,3.43,3.43,0,0,0-2.51-2.51,12,12,0,0,0-4.11-.3c-.9.05-.9.05-5.55,1.28s-13.94,3.69-18.61,5-4.72,1.35-6.07,1.53-4,.47-5.31.57-1.32,0-.4-.68,2.79-1.9,3.8-2.58a7.29,7.29,0,0,1,3.27-1.34c2.11-.52,6.16-1.44,8.22-1.88a12.13,12.13,0,0,0,2.76-.71,6.78,6.78,0,0,0,2.71-2c.8-1.09,1.14-2.66-.22-3.76s-4.43-1.73-6-2-1.53-.32-4,.13l-9.8,1.77c-2.46.43-2.48.4-5.07,2.11s-7.73,5.14-12.88,8.57"/><path class="cls-2" d="M62.83,178.25c13.71,1.88,27.41,3.76,37.2,4.5a132,132,0,0,0,21.55-.07"/><path class="cls-2" d="M118.93,182.86c-.43-11-.86-22-1.07-27.58s-.21-5.8-.25-5.94-.1-.21,11.06-2.66,33.57-7.3,44.77-9.72,11.2-2.42,11,5.9l-.85,41.61"/><path class="cls-2" d="M151.22,220l32.39-9.86"/><path class="cls-2" d="M183.91,189.68l-.3,20.6"/><path class="cls-2" d="M173.44,137c.16-3.63.32-7.25,1-9.48A5.72,5.72,0,0,1,176.8,124c.59-.4.64-.35,2.49-.69s5.51-1,9.17-1.75"/><path class="cls-2" d="M184.5,139.87a72,72,0,0,0,10.53-2c2.27-.79,2.69-1.77,3.6-3.14s2.32-3.16,3.73-4.94"/><path class="cls-2" d="M184.35,149l11-1c2.24-.2,2.33-.2,3.17-.33l3.14-.51c.72-.11.59-.07,2.13-1.83s4.74-5.36,7.95-8.94"/><path class="cls-2" d="M184.19,156.56l13.37,1c2.72.22,2.85.26,4.44-.16s4.61-1.29,6.06-1.73,1.32-.44.68,0-1.79,1.48-2.38,2a5.11,5.11,0,0,1-1.63,1.11c-1,.5-2.9,1.39-3.84,1.86s-.89.51-3.52.08-7.92-1.34-13.22-2.25"/><path class="cls-2" d="M184,166.66c3.94.51,7.88,1,10.91,1.38s5.16.55,6.21.64,1,0,2.15-.78,3.43-2.45,5.72-4.07"/><path class="cls-2" d="M192.37,132.89l5.76,2.24"/><path class="cls-2" d="M183.63,131.94c-.76,0-1.51,0-1.79.6a6.76,6.76,0,0,0,.14,3"/><path class="cls-2" d="M182,135.58c1.76-3.89,3.52-7.78,5.33-11.6s3.66-7.57,5.26-10.45,2.94-4.87,4.17-5.8a2.49,2.49,0,0,1,3-.3,2.81,2.81,0,0,1,.93,2.34,14,14,0,0,1-.82,4.36c-.65,2.14-1.76,5.2-3,8.28s-2.64,6.19-3.84,9-2.21,5.23-3.22,7.67"/><path class="cls-2" d="M196.86,122.41A120.54,120.54,0,0,1,210,127.83a42.45,42.45,0,0,1,9.78,6.8c2.56,2.41,4.4,4.88,5,7.18a7.13,7.13,0,0,1-1.24,6,14.07,14.07,0,0,1-4.27,3.49"/><path class="cls-2" d="M117,183.08c-1.41-4.45-2.83-8.89-5-12.22a21.41,21.41,0,0,0-7.37-6.71,11.49,11.49,0,0,0-4.8-1.5"/><path class="cls-2" d="M176.8,124c.5-2.24,1-4.47,2-7.81s2.54-7.78,4.08-12.22"/><path class="cls-2" d="M151.65,93a128.18,128.18,0,0,1,10,13.47,50.11,50.11,0,0,1,5.85,14.16,159,159,0,0,1,3,17"/><path class="cls-2" d="M38.67,58.67a57.6,57.6,0,0,0-8.1,10.11,72,72,0,0,0-7.35,17.46,161.94,161.94,0,0,0-4.88,25.32c-1.06,9.06-1.51,18.29-2,27.52"/><path class="cls-3" d="M154.15,191.81l-.08,0C149.43,193.26,149.43,193.26,154.15,191.81Zm-32.57-9.13A105.24,105.24,0,0,0,117,199.41a57.4,57.4,0,0,0-.18,15.55,51.53,51.53,0,0,0,1.78,8.36,62.3,62.3,0,0,0,7.13,2c.62.13,1.25.23,1.88.32a58.33,58.33,0,0,0,8.53.35c1.77,0,1.77,0,7-2.34s15.64-6.95,20.69-9.16,4.7-2,5.58-2.52,3-1.8,3.35-2.94-.93-2.15-2.69-2.31a13.79,13.79,0,0,0-5.07.92c-1.12.38-1.17.43-4.4,1.37s-9.61,2.75-12.38,3.3-1.89-.16,3.46-1.86,15.2-4.38,20.2-5.72,5.16-1.34,6.13-1.79,2.77-1.34,3.35-2.45a2.22,2.22,0,0,0-1.45-3,11.4,11.4,0,0,0-4.63-.34,40.5,40.5,0,0,0-4.85.73l-15.12,2.59c-3.81.65-3.89.65,1.2-1l20.46-6.45c5.12-1.62,5.1-1.65,5.89-2.37.29-.25.68-.6,1.08-1a6.53,6.53,0,0,0,1.74-2.4c.39-1.27-.45-2.39-2-2.81a15.17,15.17,0,0,0-5.09,0c-1.18.16-1.21.19-5.86,1.63l-18.52,5.69c4.72-1.45,14.17-4.36,19.25-6.13s5.78-2.39,6.52-3.23a4.21,4.21,0,0,0,1.37-2.92,3.43,3.43,0,0,0-2.51-2.51,12,12,0,0,0-4.11-.3c-.9.05-.9.05-5.55,1.28s-13.94,3.69-18.61,5-4.72,1.35-6.07,1.53-4,.47-5.31.57-1.32,0-.4-.68,2.79-1.9,3.8-2.58a7.29,7.29,0,0,1,3.27-1.34c2.11-.52,6.16-1.44,8.22-1.88a12.13,12.13,0,0,0,2.76-.71,6.78,6.78,0,0,0,2.71-2c.8-1.09,1.14-2.66-.22-3.76s-4.43-1.73-6-2-1.53-.32-4,.13l-9.8,1.77c-2.46.43-2.48.4-5.07,2.11S126.73,179.25,121.58,182.68Z"/><path class="cls-3" d="M184.27,156.56l1.22.09c4.9.35,9.63.69,12.15.89,2.72.22,2.85.26,4.44-.16s4.61-1.29,6.06-1.73,1.32-.44.68,0-1.79,1.48-2.38,2a5.11,5.11,0,0,1-1.63,1.11c-1,.5-2.9,1.39-3.84,1.86s-.89.51-3.52.08-7.92-1.34-13.22-2.25c0,2.58-.11,5.31-.17,8.14-.05,2.49-.1,5.05-.15,7.66,7.43,1.16,14.87,2.32,18.5,2.4s3.44-.91,5.55-4.55,6.5-9.91,9.64-16.72l0,0c.74-1.59,1.35-2.94,1.88-4.22,1.46-3.51,2.33-6.56,3.48-13.09a24.78,24.78,0,0,0-3.1-3.46,42.45,42.45,0,0,0-9.78-6.8,120.54,120.54,0,0,0-13.16-5.42c-1.25,3.09-2.65,6.19-3.84,9-.23.51-.44,1-.65,1.51-.93,2.17-1.75,4.17-2.57,6.16-1.66.28-3.48.55-5.3.82,0,.85,0,1.84,0,3,0,1.72-.08,3.8-.12,6.15s-.1,4.81-.16,7.55Z"/><path class="cls-4" d="M179.06,245.79a27.29,27.29,0,0,0-1.42-4.49,4.5,4.5,0,0,0-3.67-2.64c-3.6-.61-10.4.62-14,2a6.54,6.54,0,0,0-3.06,1.91,4.91,4.91,0,0,0-.67,3.5,75.48,75.48,0,0,0,1.62,10.28,46.3,46.3,0,0,0,3.28,10.37c1.49,3.08,3.5,5.68,6.22,9.7s6.16,9.46,9.21,12.64,5.7,4.09,9.5,3.76,8.72-1.88,11.41-4.5,3.14-6.33,1.78-10-4.54-7.19-7.42-10.05-5.48-5-7.69-8.88a64.73,64.73,0,0,1-5.12-13.59Z"/><path class="cls-5" d="M177.64,241.3a27.29,27.29,0,0,1,1.42,4.49,64.73,64.73,0,0,0,5.12,13.59c2.21,3.89,4.8,6,7.69,8.88s6.06,6.42,7.42,10.05.91,7.33-1.78,10-7.62,4.18-11.41,4.5-6.45-.58-9.5-3.76-6.49-8.62-9.21-12.64-4.73-6.62-6.22-9.7a46.3,46.3,0,0,1-3.28-10.37A75.48,75.48,0,0,1,156.27,246a4.91,4.91,0,0,1,.67-3.5l-.8.21a22.32,22.32,0,0,1-4.29.75,17.33,17.33,0,0,1-5.8-.62,13.15,13.15,0,0,1-2-.8,17.72,17.72,0,0,1-1.85-1.07c-.68-.44-.68-.44-.58,1.36a86.82,86.82,0,0,0,1.05,9.58,122.3,122.3,0,0,0,2.9,12.24,65.55,65.55,0,0,0,2.21,6.49c1.63.28,3.18.57,4.54.84a37.81,37.81,0,0,1,9.2,2.84,21,21,0,0,1,6.24,4.26,6.48,6.48,0,0,1,1.49,2.55,26.78,26.78,0,0,1,2.59,5.05,16.74,16.74,0,0,1,1,7.3,20.59,20.59,0,0,1-2.68,8,23.48,23.48,0,0,0,8,4.88,32.72,32.72,0,0,0,13.21,1.45A21,21,0,0,0,202.77,303a29,29,0,0,0,7.55-10c1.67-3.64,2.36-7.29,1.43-10.89s-3.5-7.15-6.66-10.7-6.9-7.1-9.17-9.82a11.3,11.3,0,0,1-3.16-8.08,110,110,0,0,1,.74-11.34c.25-2.72.15-3-.74-2.52a20.11,20.11,0,0,1-4.53,2.37,15.05,15.05,0,0,1-6.06.25,30.44,30.44,0,0,1-4.53-1Z"/><path class="cls-6" d="M160,240.61c3.57-1.33,10.37-2.56,14-2a4.5,4.5,0,0,1,3.67,2.64,30.44,30.44,0,0,0,4.53,1,15.05,15.05,0,0,0,6.06-.25c.73-2.93,1.47-5.86,2.2-8.78-2,.14-4.45.31-7.11.47-4.69.29-10,.55-16,.51a166.65,166.65,0,0,1-17.57-1c-1.83-.22-3.47-.48-4.88-.75q-.41,4.76-.8,9.49a13.15,13.15,0,0,0,2,.8,17.33,17.33,0,0,0,5.8.62,22.32,22.32,0,0,0,4.29-.75l.8-.21a6.54,6.54,0,0,1,3.06-1.91Z"/><path class="cls-5" d="M142,291.23a89.1,89.1,0,0,1-22-4.54c-6.69-2.19-12.52-4.68-16.08-7s-4.85-4.46-5.53-6c-.37-.82-.56-1.47-.33-1.92l-.52-.07c-.51-.06-1.54-.2-3.65-.43A47.82,47.82,0,0,1,86.25,270,12.58,12.58,0,0,1,82,267.8c-.66-.51-.66-.51-.78,0-.09.37-.24,1-.47,2.43-.11.63-.23,1.43-.37,2.44-.47,3.25-1.14,8.7-.84,12s1.57,4.51,3.95,6.11a81.71,81.71,0,0,0,10.67,5.85A136.94,136.94,0,0,0,111,303.24a115.35,115.35,0,0,0,18.68,4.06,156.29,156.29,0,0,0,20.25,1.53c6.07,0,10.77-.6,14-1.83a11.55,11.55,0,0,0,6.3-5.48,20.59,20.59,0,0,0,2.68-8,16.74,16.74,0,0,0-1-7.3,26.78,26.78,0,0,0-2.59-5.05,5.21,5.21,0,0,1,0,2.66c-.47,1.89-1.93,3.95-6.69,5.45s-12.82,2.44-20.62,2Z"/><path class="cls-3" d="M188.46,121.58c-3.66.71-7.32,1.42-9.17,1.75s-1.9.29-2.49.69a5.72,5.72,0,0,0-2.39,3.46c-.65,2.23-.81,5.85-1,9.48,4.27-.92,6.91-1.49,8.54-1.38a6.76,6.76,0,0,1-.14-3c.28-.61,1-.6,1.79-.6,1.21-2.67,2.43-5.33,3.68-8,.38-.8.76-1.61,1.15-2.4Z"/><path class="cls-4" d="M129.45,269.47c-1.13.09-2,.2-2.67.27a6.8,6.8,0,0,0-2.27.35,19.77,19.77,0,0,1-4.37,1.29,42.34,42.34,0,0,1-9.65.47c-3.94-.21-8.48-.9-10.71-.77-1,.06-1.59.3-1.79.7s0,1.1.33,1.92c.68,1.54,2,3.68,5.53,6s9.39,4.8,16.08,7a89.1,89.1,0,0,0,22,4.54c7.8.47,15.86-.47,20.62-2s6.22-3.56,6.69-5.45a5.21,5.21,0,0,0,0-2.66,6.48,6.48,0,0,0-1.49-2.55,21,21,0,0,0-6.24-4.26,37.81,37.81,0,0,0-9.2-2.84c-1.36-.27-2.91-.56-4.54-.84a106.32,106.32,0,0,0-10.93-1.3,53.77,53.77,0,0,0-7.42.11Z"/><path class="cls-7" d="M149.33,170.23c2.45-.45,2.45-.45,4-.13s4.6.94,6,2,1,2.67.22,3.76a6.78,6.78,0,0,1-2.71,2,12.13,12.13,0,0,1-2.76.71c-2.06.44-6.11,1.36-8.22,1.88a7.29,7.29,0,0,0-3.27,1.34c-1,.68-2.87,1.91-3.8,2.58s-.92.77.4.68,4-.38,5.31-.57,1.4-.26,6.07-1.53,14-3.73,18.61-5,4.65-1.23,5.55-1.28a12,12,0,0,1,4.11.3,3.43,3.43,0,0,1,2.51,2.51,4.21,4.21,0,0,1-1.37,2.92c-.74.84-1.44,1.47-6.52,3.23s-14.53,4.68-19.25,6.13l18.52-5.69c4.65-1.44,4.68-1.47,5.86-1.63a15.17,15.17,0,0,1,5.09,0c.07-3.41.14-6.82.21-10.15,0-2.61.1-5.17.15-7.66.06-2.83.12-5.56.17-8.14,0-.66,0-1.32,0-2,.06-2.74.11-5.27.16-7.55s.09-4.43.12-6.15c0-1.15.05-2.14,0-3,0-3-.47-4.16-2.52-4.29-1.63-.11-4.27.46-8.54,1.38l-3,.65c-11.83,2.56-31.52,6.81-41.76,9.07-11.16,2.45-11.09,2.52-11.06,2.66s0,.34.25,5.94.64,16.59,1.07,27.58l2.65-.18c5.15-3.43,10.29-6.87,12.88-8.57s2.61-1.68,5.07-2.11l9.8-1.77Z"/><g class="cls-8"><g id="_2932190275056" data-name=" 2932190275056"><path id="_1" data-name=" 1" class="cls-9" d="M154.65,165.53a12.74,12.74,0,1,1-13.23,12.73A13,13,0,0,1,154.65,165.53Z"/></g><g class="cls-10"><path id="_2" data-name=" 2" class="cls-11" d="M137.81,173.87c3.34-1.43,24.07-9.94,26.37-7.05,2,2.48-5.28,5.38-7.55,7.1-3.22,2.44-6.57,5.35-10,8.16,9.47-3.52,24.73-8.84,29.39-9.69l.09,0-.06,0a2.42,2.42,0,0,1,1.33,0c1.72,1.34-1.56,2.45-2.33,2.94-6.42,4-14.43,9.8-20.37,14.27-1.46,1.09-1.93,1.5-2.18,1.72,8.32-.9,14.33-4.08,23.08-5.19a.58.58,0,0,1,.25-.05c-.75.77-3.09.87-3.34.93-2.74.73-21.92,7.91-22.74,5.2,2.05-2.61,12.38-10.61,19.84-15.74-3.62,1.23-7.3,2.58-10.59,3.71-3,1-14.5,6.11-19.14,7.29l-.13.1,0-.06a3,3,0,0,1-1.7.13c-2-1.34,1.49-3.34,2.13-3.84,3.79-3,10.72-9.15,16.12-13.18-5.87,1.81-13.54,4.77-16.78,6.19a1.86,1.86,0,0,1-2.42-.66,1.59,1.59,0,0,1,.71-2.24Z"/><path class="cls-1" d="M138.66,175.32c3.07-1.57,26-9.81,24.14-7.24-.07.1-6.29,3.94-7.25,4.79-5.81,5.13-10.56,8.93-16.68,13.65.08,0,16.75-6.55,18.68-7.12.27-.08,23.23-7.85,18.61-5.93-2,.84-25.71,17.86-25.64,18.65,7.74,0,16.76-4.84,25.11-6l.24-.11"/></g><g class="cls-8"><path class="cls-12" d="M154.65,165.53a12.74,12.74,0,1,1-13.23,12.73A13,13,0,0,1,154.65,165.53Z"/></g></g><path class="cls-2" d="M149.33,170.23c2.45-.45,2.45-.45,4-.13s4.6.94,6,2,1,2.67.22,3.76a6.78,6.78,0,0,1-2.71,2,12.13,12.13,0,0,1-2.76.71c-2.06.44-6.11,1.36-8.22,1.88a7.29,7.29,0,0,0-3.27,1.34c-1,.68-2.87,1.91-3.8,2.58s-.92.77.4.68,4-.38,5.31-.57,1.4-.26,6.07-1.53,14-3.73,18.61-5,4.65-1.23,5.55-1.28a12,12,0,0,1,4.11.3,3.43,3.43,0,0,1,2.51,2.51,4.21,4.21,0,0,1-1.37,2.92c-.74.84-1.44,1.47-6.52,3.23s-14.53,4.68-19.25,6.13l18.52-5.69c4.65-1.44,4.68-1.47,5.86-1.63a15.17,15.17,0,0,1,5.09,0c.07-3.41.14-6.82.21-10.15,0-2.61.1-5.17.15-7.66.06-2.83.12-5.56.17-8.14,0-.66,0-1.32,0-2,.06-2.74.11-5.27.16-7.55s.09-4.43.12-6.15c0-1.15.05-2.14,0-3,0-3-.47-4.16-2.52-4.29-1.63-.11-4.27.46-8.54,1.38l-3,.65c-11.83,2.56-31.52,6.81-41.76,9.07-11.16,2.45-11.09,2.52-11.06,2.66s0,.34.25,5.94.64,16.59,1.07,27.58l2.65-.18c5.15-3.43,10.29-6.87,12.88-8.57s2.61-1.68,5.07-2.11l9.8-1.77Z"/><path class="cls-13" d="M183.61,210.18,151.22,220l-8.11,3.6a43,43,0,0,1-5.26,2.17c0,1.58,0,3.16,0,4s-.09,1,1.63,1.49a55.1,55.1,0,0,0,5.38,1.26c1.41.27,3,.53,4.88.75a166.65,166.65,0,0,0,17.57,1c6,0,11.31-.22,16-.51,2.66-.16,5.1-.33,7.11-.47l3.72-.26c2.14-.13,2.39-.06,3.43-2.51s2.86-7.41,4.69-12.37c4.37-6.27,8.75-12.55,13-19.48S223.94,184,226,177.31s2-12.39.11-15.89c-1.77-3.33-5.11-4.69-8.54-5.94-3.14,6.79-7.52,13.05-9.63,16.69s-1.93,4.57-5.2,4.56h-.43c-3.63-.08-11.07-1.24-18.5-2.4-.07,3.33-.14,6.74-.21,10.15,1.58.42,2.42,1.54,2,2.81a6.53,6.53,0,0,1-1.74,2.4l-.3,20.5Z"/><path class="cls-2" d="M55.8,262.47c-3.8-4.76-7.59-9.51-10.21-16.75a70,70,0,0,1-3.76-24.59,39,39,0,0,1,4.09-16.4,14.85,14.85,0,0,1,4.4-5.51"/><path class="cls-2" d="M111.94,170.86a21.88,21.88,0,0,1,3.29-1.34,15.24,15.24,0,0,1,3.16-.45"/><path class="cls-14" d="M171.85,204.72c-5,1.34-14.84,4-20.2,5.72s-6.22,2.41-3.46,1.86,9.16-2.37,12.38-3.3,3.28-1,4.4-1.37a13.79,13.79,0,0,1,5.07-.92c1.76.16,3.07,1.17,2.69,2.31s-2.48,2.41-3.35,2.94-.54.31-5.58,2.52L151.22,220l32.39-9.86.3-20.5c-.4.4-.79.75-1.08,1-.79.72-.77.75-5.89,2.37l-20.46,6.45c-5.09,1.61-5,1.61-1.2,1l15.12-2.59a40.5,40.5,0,0,1,4.85-.73,11.4,11.4,0,0,1,4.63.34,2.22,2.22,0,0,1,1.45,3c-.58,1.11-2.37,2-3.35,2.45s-1.13.45-6.13,1.79Z"/><path class="cls-11" d="M128.27,260.49c.2-7.46-1.17-21.32-2.55-35.18a62.3,62.3,0,0,1-7.13-2c.09.33.18.62.26.88.5,1.61.5,1.61-3.65.49s-12.46-3.34-20.82-5.82-16.8-5.21-24.23-8.12c-3-1.17-5.79-2.36-8.48-3.73,3.62,14.44,7.25,28.87,9.93,38.47s4.44,14.34,5.26,16.62.73,2.08,1.43,2.62,2.21,1.8,3.71,3.07A12.58,12.58,0,0,0,86.25,270a47.82,47.82,0,0,0,7.57,1.26c2.11.23,3.14.37,3.65.43l.52.07c.2-.4.74-.64,1.79-.7,2.23-.13,6.77.56,10.71.77a42.34,42.34,0,0,0,9.65-.47,19.77,19.77,0,0,0,4.37-1.29c1.78-1.07,3.56-2.14,3.76-9.6Z"/><path class="cls-9" d="M71.44,245.29c-2.69-9.6-6.31-24-9.94-38.47A48.89,48.89,0,0,1,50.16,199a14.7,14.7,0,0,0-4.41,5.5,39,39,0,0,0-4.09,16.4,70.42,70.42,0,0,0,3.76,24.59c2.62,7.24,6.42,12,10.21,16.75,1,.41-1.13-.39,2.94,1.18s14.8,3.45,22.22,5.38a4.2,4.2,0,0,1,.26-1.21c.11-.45.13-.53.79,0-1.51-1.27-3-2.53-3.72-3.07s-.6-.34-1.43-2.62-2.57-7-5.25-16.62Z"/><path class="cls-9" d="M125.68,225.53c1.38,13.86,2.75,27.72,2.55,35.18-.13,4.72-.89,6.88-1.88,8.11a66.39,66.39,0,0,0,11.17-2.35,28.13,28.13,0,0,0,7.43-4.22c-.82-3-1.72-6.75-2.3-10.1a86.82,86.82,0,0,1-1.05-9.58c-.1-1.8-.1-1.8.58-1.35a20.11,20.11,0,0,0,1.85,1.06q.39-4.74.8-9.49a55.1,55.1,0,0,1-5.38-1.26c-1.72-.51-1.66-.64-1.63-1.49s0-2.43,0-4a6.2,6.2,0,0,1-1.72.17,58.33,58.33,0,0,1-8.53-.35c-.63-.09-1.26-.19-1.88-.32Z"/><path class="cls-15" d="M105.53,183.06c4.51.18,8.11.09,11.42-.09-1.41-4.41-2.82-8.81-5-12.11a21.41,21.41,0,0,0-7.37-6.71,11.49,11.49,0,0,0-4.8-1.5,46.44,46.44,0,0,0,1,7.59A69.16,69.16,0,0,0,105.53,183.06Z"/><path class="cls-16" d="M117.61,149.34c0-.14-.1-.21,11.06-2.66,10.24-2.26,29.93-6.51,41.76-9.07l3-.65c.16-3.63.32-7.25,1-9.48A5.72,5.72,0,0,1,176.8,124c.59-.4.64-.35,2.49-.69s5.51-1,9.17-1.75c1.43-3,2.85-5.78,4.11-8,1.6-2.87,2.94-4.87,4.17-5.8a2.49,2.49,0,0,1,3-.3,2.81,2.81,0,0,1,.93,2.34,14,14,0,0,1-.82,4.36c-.65,2.14-1.76,5.2-3,8.28l.07,0v0a120.54,120.54,0,0,1,13.16,5.42,42.45,42.45,0,0,1,9.78,6.8,24.78,24.78,0,0,1,3.1,3.46v.09a10.87,10.87,0,0,1,1.8,3.63,6.62,6.62,0,0,1,.2,1.9c.39-3.4,1.27-12.37,1.44-13.4,1.75-11.13,2.66-24,2.11-33.72-.42-7.48.82-7.45-4-8.1s-14.42-2-29-3.75-34.23-4.07-53.84-6.34a16.78,16.78,0,0,1-4,5.78c-2.19,2.26-5.4,4.91-8.11,7.21a48,48,0,0,1-7.25,5.51,27.51,27.51,0,0,1-7.06,2.43c-.37,1.38-.77,2.74-1.19,4.07-1.36,4.36-2.89,8.47-4.28,12.09s-2.65,6.75-4,10.31A90.66,90.66,0,0,0,102,138.33,104,104,0,0,0,99.77,155a70.05,70.05,0,0,0,0,7.67,11.49,11.49,0,0,1,4.8,1.5,21.41,21.41,0,0,1,7.37,6.71,21.88,21.88,0,0,1,3.29-1.34,15.24,15.24,0,0,1,3.16-.45c-.22-5.68-.41-10.61-.53-13.79-.21-5.6-.21-5.8-.25-5.94Z"/><path class="cls-17" d="M118.36,168.18c-.39,0-5.66,2.33-6.42,2.68,2.19,3.3,3.6,7.7,5,12.11l2-.11c-.19-4.74-.41-10.38-.57-14.68Z"/><path class="cls-6" d="M129.58,91.39c2.71-2.3,5.92-5,8.11-7.21a16.78,16.78,0,0,0,4-5.78,12,12,0,0,0,.63-3.76c0-.74.1-.81-2.23-3.73S133,62.2,129.89,58.62s-4.56-5-6.09-5.89a10.41,10.41,0,0,0-5-1.41,22.29,22.29,0,0,0-2.7.07c-1,.07-1.9.18-2.69.27L110,52a9.62,9.62,0,0,1,.86.53,14.91,14.91,0,0,1,4.7,5.25,27.59,27.59,0,0,1,2.5,8.92,60.49,60.49,0,0,1,.39,10,105.15,105.15,0,0,1-1.12,13.13,87,87,0,0,1-2.08,9.51,27.51,27.51,0,0,0,7.06-2.43,48,48,0,0,0,7.25-5.51Z"/><path class="cls-6" d="M39.36,81a31.15,31.15,0,0,1-1-7.45,31.57,31.57,0,0,1,1-7.47,30.8,30.8,0,0,1,1.81-5c-1-.94-1.67-1.63-2-2s-.28-.34-.9.07a55.19,55.19,0,0,0-7.66,9.64,72,72,0,0,0-7.35,17.46,161.94,161.94,0,0,0-4.88,25.32c-1.06,9.06-1.51,18.29-2,27.52.36-1.63.78-3.29,1.29-5A80.59,80.59,0,0,1,27,114.28c4.48-7.07,10.45-14.57,16.42-22.07l0-.07c-.66-1.4-1.31-2.81-2-4.64a58.73,58.73,0,0,1-2-6.48Z"/><g id="_2932190302176" data-name=" 2932190302176"><ellipse class="cls-18" cx="113.19" cy="110.33" rx="4.32" ry="3.94" transform="translate(-23.14 30.34) rotate(-13.86)"/><path class="cls-19" d="M111.51,109.62,115,111.5"/><path class="cls-19" d="M114.11,108.75l-1.68,3.63"/></g><path class="cls-20" d="M38.34,73.57a31.15,31.15,0,0,0,1,7.45,58.73,58.73,0,0,0,2,6.48c.69,1.83,1.34,3.24,2,4.64a21.46,21.46,0,0,0,5.71,2.6,98.71,98.71,0,0,0,12.65,2.7c5.22.83,11.18,1.52,17.14,2.22a106.88,106.88,0,0,0-4.69,11.23c-1.69,4.53-3.78,10.24-5.21,15.57a118.28,118.28,0,0,0-2.92,16,111.31,111.31,0,0,0-1.22,17.41,46.63,46.63,0,0,0,2.3,12.63,55.64,55.64,0,0,0,2.66,6.74c11.3,1.54,22.14,2.94,30.27,3.56,2,.15,3.81.25,5.5.31a69.16,69.16,0,0,1-4.71-12.82,46.44,46.44,0,0,1-1-7.59,70.05,70.05,0,0,1,0-7.67A104,104,0,0,1,102,138.33a90.66,90.66,0,0,1,3.84-12.53c1.32-3.56,2.57-6.69,4-10.31s2.92-7.73,4.28-12.09c.42-1.33.82-2.69,1.19-4.07a87,87,0,0,0,2.08-9.51,105.15,105.15,0,0,0,1.12-13.13,60.49,60.49,0,0,0-.39-10,27.59,27.59,0,0,0-2.5-8.92,14.91,14.91,0,0,0-4.7-5.25A9.62,9.62,0,0,0,110,52a10.35,10.35,0,0,0-2.59-1,21.6,21.6,0,0,1-2.85,2,74.82,74.82,0,0,1-7.24,4,31.71,31.71,0,0,1-9.75,3.1A39,39,0,0,1,76,59.74a46.48,46.48,0,0,1-9.13-2.89,23.8,23.8,0,0,1-1.31,2.35A10,10,0,0,1,61.15,63a22.58,22.58,0,0,1-6.94,2.19,18.18,18.18,0,0,1-8-.53,12.8,12.8,0,0,1-4.81-3.28l-.31-.3a30.8,30.8,0,0,0-1.81,5,31.57,31.57,0,0,0-1,7.47Z"/><path class="cls-21" d="M43.37,92.21c-6,7.5-11.94,15-16.42,22.07a80.59,80.59,0,0,0-9.28,19.81c-.51,1.7-.93,3.36-1.29,5-.93,4.21-1.42,8.23-1.91,12.25h0A218.74,218.74,0,0,0,13,181.13,183.17,183.17,0,0,0,17.29,215,73.48,73.48,0,0,0,26,236.93a58.7,58.7,0,0,0,13.15,15.89,63.45,63.45,0,0,0,16.49,9.44c-3.74-4.68-7.46-9.4-10-16.54a70,70,0,0,1-3.76-24.59,39,39,0,0,1,4.09-16.4,14.85,14.85,0,0,1,4.4-5.51A48.9,48.9,0,0,0,61.67,207c2.69,1.37,5.5,2.56,8.48,3.73,7.43,2.91,15.86,5.64,24.23,8.12s16.66,4.71,20.82,5.82,4.15,1.12,3.65-.49c-.08-.26-.17-.55-.26-.88a51.53,51.53,0,0,1-1.78-8.36,57.4,57.4,0,0,1,.18-15.55,105.24,105.24,0,0,1,4.59-16.73l-2.65.18-2,.11c-3.31.18-6.91.27-11.42.09-1.69-.06-3.52-.16-5.5-.31-8.13-.62-19-2-30.27-3.56a55.64,55.64,0,0,1-2.66-6.74,46.63,46.63,0,0,1-2.3-12.63A111.31,111.31,0,0,1,66,142.41a118.28,118.28,0,0,1,2.92-16c1.43-5.33,3.52-11,5.21-15.57a106.88,106.88,0,0,1,4.69-11.23c-6-.7-11.92-1.39-17.14-2.22a98.71,98.71,0,0,1-12.65-2.7,21.46,21.46,0,0,1-5.71-2.6l0,.07Z"/><path class="cls-22" d="M75.78,43.89c0,8.65,5.92,15.67,13.22,15.67s13.22-7,13.22-15.67S96.3,28.21,89,28.21s-13.22,7-13.22,15.68Z"/><path class="cls-23" d="M187.31,124c-1.25,2.63-2.47,5.29-3.68,8L182,135.58c2.05.13,2.48,1.34,2.52,4.29,1.82-.27,3.64-.54,5.3-.82.82-2,1.64-4,2.57-6.16.21-.49.42-1,.65-1.51,1.2-2.78,2.59-5.88,3.84-9s2.36-6.14,3-8.28a14,14,0,0,0,.82-4.36,2.81,2.81,0,0,0-.93-2.34,2.49,2.49,0,0,0-3,.3c-1.23.93-2.57,2.93-4.17,5.8-1.26,2.27-2.68,5.08-4.11,8-.39.79-.77,1.6-1.15,2.4Z"/><path class="cls-2" d="M184,166.66c3.64.46,7.28.92,10.13,1.25s4.92.56,6,.66,1,.11,2.53-1l7.5-5.36"/><path class="cls-2" d="M184.41,148.36l13.07,1.17c2.62.24,2.62.24,4.52-.42l9.5-3.3"/><path class="cls-2" d="M154.13,97.87l18,4.81c3.92,1,4.75,1.27,4.77,4.94s-.76,10.77-1.54,17.88"/><path class="cls-2" d="M26.11,156c1.22,7,2.45,14,5.08,20.21a55.84,55.84,0,0,0,10.1,15.48,46.75,46.75,0,0,0,9,7.56"/><path class="cls-24" d="M26.11,156C21.6,168.1,21.79,202.9,17.29,215c.52,3-.63-2.65,0,0A73.48,73.48,0,0,0,26,236.93a58.7,58.7,0,0,0,13.15,15.89,63.45,63.45,0,0,0,16.49,9.44c-3.74-4.68-7.46-9.4-10-16.54a70,70,0,0,1-3.76-24.59,39,39,0,0,1,4.09-16.4,14.85,14.85,0,0,1,4.4-5.51,46.75,46.75,0,0,1-9-7.56,70,70,0,0,1-10.1-15.48c-1.73-4.11-4.49-18.11-5.08-20.21Z"/><path class="cls-24" d="M162.78,109.69q.3,14.58.58,29.17l6.58-1.4,3-.64c.16-3.58.33-7.15,1-9.35a6.85,6.85,0,0,1,.89-2c.78-7,1.57-14,1.54-17.62s-.84-3.82-4.77-4.86l-9-2.37c.06,3,.11,6,.17,9Z"/><path class="cls-7" d="M75.64,43.8c0-8.66,5.92-15.68,13.22-15.68s13.22,7,13.22,15.68c0,7.25-4,13.27-9.55,15.12a10,10,0,0,1-3.24.86c-7.3,0-13.65-7.33-13.65-16ZM65.46,59.1a21.92,21.92,0,0,0,1.31-2.35,47.14,47.14,0,0,0,9.13,2.9,39,39,0,0,0,11.63.42A31.61,31.61,0,0,0,97.28,57a75.54,75.54,0,0,0,7.24-4,21.6,21.6,0,0,0,2.85-2,10.21,10.21,0,0,1,2.59,1c1-.1,1.92-.19,3.43-.37.78-.09,1.71-.2,2.69-.27,11.76-5.45-3.54-13.81-1.68-12.61S117.72,43,117,45,107,53.08,107.2,38.9a31.57,31.57,0,0,0-.75-7.51,33.1,33.1,0,0,0-3.19-8.59,20.31,20.31,0,0,0-6.38-7.49,19.11,19.11,0,0,0-8.53-2.5,20.21,20.21,0,0,0-7.37.35,21.49,21.49,0,0,0-7.31,3.7,83.48,83.48,0,0,0-7.31,6.71c-2.56,2.51-5.36,5.13-8.23,6.6a13.43,13.43,0,0,1-8.41,1.31c-2.62-.45-4.95-1.64-6.86-2a6,6,0,0,0-5.1,1.25c-1.7,1.22-3.47,4.88-6.11,4.3-4.11-.91-4.82,4.09-4.68,7.19-2.57,3.64-5.13,7.28-4.82,11.11s3.47,7.85,6.74,8.77,6.65-1.26,8.29-2.36l1-.67c.63-.41.64-.35.9-.06s1,1,2,2l.32.3a12.68,12.68,0,0,0,4.8,3.28,18.2,18.2,0,0,0,8,.54,22.49,22.49,0,0,0,6.94-2.2,10,10,0,0,0,4.37-3.77Z"/><path class="cls-25" d="M71.39,51.3a16.76,16.76,0,0,1-4.81,5.38,48,48,0,0,0,9.12,2.89A39,39,0,0,0,87.33,60c.6-.08,1.19-.18,1.76-.29A12,12,0,0,1,82,57.27a17,17,0,0,1-6.57-13.56,18.42,18.42,0,0,1,.2-2.69,5.82,5.82,0,0,0-2.24,3.17C73,45.62,72.65,47.75,72,49.7A11.33,11.33,0,0,1,71.39,51.3Z"/><path class="cls-25" d="M38.85,58.69a13,13,0,0,1-1.58-5.12,19,19,0,0,1,1-7,12.42,12.42,0,0,1,2.27-3.9c.51-.62.51-.59-.49-.53A18,18,0,0,0,35.4,43,6.48,6.48,0,0,0,31.69,46a12.59,12.59,0,0,0-.75,4.58,12,12,0,0,1-1,4.28,5.14,5.14,0,0,1-2.65,2.63,7.81,7.81,0,0,1-3.58.13A9.73,9.73,0,0,0,29,62c3.28.92,6.65-1.26,8.29-2.36l1-.67c.35-.22.51-.31.62-.29Z"/><path class="cls-2" d="M89.86,49.27A2.42,2.42,0,0,1,89.29,48a1.38,1.38,0,0,1,1.06-1.27,14.73,14.73,0,0,1,3.52-.3,16.9,16.9,0,0,0,4.32-.51,4.17,4.17,0,0,0,2.25-1.74,2.2,2.2,0,0,0,.49-1.7,1,1,0,0,0-1.1-.59,7.4,7.4,0,0,0-1.58.83,6.43,6.43,0,0,1-2.58.72A7.26,7.26,0,0,1,92.5,43a2.35,2.35,0,0,1-1.41-1.61,5.33,5.33,0,0,1,0-1.95"/><ellipse class="cls-26" cx="85.79" cy="44.42" rx="1.02" ry="1.16"/><path class="cls-6" d="M95.33,41.5a1,1,0,1,1-.9,1A.94.94,0,0,1,95.33,41.5Z"/><path class="cls-27" d="M112.59,108.83c2.21,4.78,4.43,9.57,6.11,13.64a109.16,109.16,0,0,1,3.72,10.45c.91,3,1.58,5.71,2.13,8s1,4.32,1.42,6.31"/><g id="_2932190283120" data-name=" 2932190283120"><ellipse class="cls-18" cx="119.86" cy="124" rx="4.32" ry="3.94" transform="translate(-26.22 32.33) rotate(-13.86)"/><path class="cls-19" d="M118.18,123.29l3.53,1.88"/><path class="cls-19" d="M120.78,122.42,119.1,126"/></g><g id="_2932190282208" data-name=" 2932190282208"><ellipse class="cls-18" cx="124.3" cy="139.93" rx="4.32" ry="3.94" transform="translate(-29.91 33.86) rotate(-13.86)"/><path class="cls-19" d="M122.61,139.23l3.53,1.88"/><path class="cls-19" d="M125.22,138.35,123.54,142"/></g><path class="cls-2" d="M181.3,252.41c-1.4-.09-2.74-.5-4.45-.67a25.3,25.3,0,0,0-6.16.28c-2.37.35-5,1-6.42,1.3s-1.46.29-1.63.66a4.28,4.28,0,0,0-.37,2.18,10.8,10.8,0,0,0,.93,3.37,7.69,7.69,0,0,0,1.27,2c.33.35.5.39,1,.16a29.16,29.16,0,0,1,2.73-1.23,27.65,27.65,0,0,1,5.14-1.32,33.91,33.91,0,0,1,4.91-.26c1.39,0,2.45,0,3.39.08a10.85,10.85,0,0,1,2.18.39,2.21,2.21,0,0,0,1.16.23c.65,0,1.9-.17,2.55-.25s.71-.08.29-1.28-1.32-3.61-1.77-4.81-.46-1.2-1.18-1.09a16.45,16.45,0,0,1-3.57.25Z"/><path class="cls-2" d="M185.5,260.68c-1.39.13-2.79-.07-4.5,0a25.16,25.16,0,0,0-6,1.23c-2.29.72-4.83,1.76-6.14,2.28s-1.4.51-1.51.9a4.42,4.42,0,0,0,0,2.21,11.09,11.09,0,0,0,1.45,3.2,7.64,7.64,0,0,0,1.57,1.78c.38.29.55.31,1,0s1.22-.91,2.51-1.64a26.69,26.69,0,0,1,4.87-2.09,33.07,33.07,0,0,1,4.81-1c1.37-.21,2.42-.38,3.36-.44a10.67,10.67,0,0,1,2.21,0,2.34,2.34,0,0,0,1.18.06c.65-.12,1.85-.47,2.48-.65s.7-.19.09-1.32-1.86-3.35-2.5-4.47-.63-1.12-1.33-.89a16.1,16.1,0,0,1-3.49.8Z"/><path class="cls-28" d="M178.25,258.89c1.39,0,2.45,0,3.39.08a10.85,10.85,0,0,1,2.18.39l.45.16-.09-.14a45.94,45.94,0,0,1-3.06-7c-1.33-.11-2.64-.5-4.27-.66a25.3,25.3,0,0,0-6.16.28c-2.37.35-5,1-6.42,1.3s-1.46.29-1.63.66a4.28,4.28,0,0,0-.37,2.18,10.8,10.8,0,0,0,.93,3.37,7.69,7.69,0,0,0,1.27,2c.33.35.5.39,1,.16a29.16,29.16,0,0,1,2.73-1.23,27.65,27.65,0,0,1,5.14-1.32,33.91,33.91,0,0,1,4.91-.26Z"/><path class="cls-29" d="M181.12,252.4a45.94,45.94,0,0,0,3.06,7l.09.14a1.77,1.77,0,0,0,.71.08c.65,0,1.9-.18,2.55-.26s.71-.08.29-1.28-1.32-3.61-1.77-4.81-.46-1.2-1.18-1.09a16.45,16.45,0,0,1-3.57.25Z"/><path class="cls-30" d="M181.12,252.4a45.94,45.94,0,0,0,3.06,7l.09.14a1.77,1.77,0,0,0,.71.08c.65,0,1.9-.18,2.55-.26s.71-.08.29-1.28-1.32-3.61-1.77-4.81-.46-1.2-1.18-1.09a16.45,16.45,0,0,1-3.57.25Z"/><path class="cls-30" d="M189,259.88a16.1,16.1,0,0,1-3.49.8,4.19,4.19,0,0,1-.5,0,35.93,35.93,0,0,0,5.69,6.4c.66-.16,1.53-.41,2-.55s.7-.19.09-1.32-1.86-3.35-2.5-4.47S189.69,259.65,189,259.88Z"/><path class="cls-28" d="M190.69,267.11a35.93,35.93,0,0,1-5.69-6.4c-1.23.05-2.49-.09-4,0a25.16,25.16,0,0,0-6,1.23c-2.29.72-4.83,1.76-6.14,2.28s-1.4.51-1.51.9a4.42,4.42,0,0,0,0,2.21,11.09,11.09,0,0,0,1.45,3.2,7.64,7.64,0,0,0,1.57,1.78c.38.29.55.31,1,0s1.22-.91,2.51-1.64a26.69,26.69,0,0,1,4.87-2.09,33.07,33.07,0,0,1,4.81-1c1.37-.21,2.42-.38,3.36-.44a10.67,10.67,0,0,1,2.21,0,2.34,2.34,0,0,0,1.18.06l.44-.1Z"/><path class="cls-30" d="M104.55,285.22c-.2,1,.27,1.9,1.6,2.8a26,26,0,0,0,4.6,2.21c1.07.41,1,.34.86-.27a6.3,6.3,0,0,1-.35-2.64,3.13,3.13,0,0,1,1.53-1.92,2.39,2.39,0,0,1,1.74-.61,78.51,78.51,0,0,1-7.48-3.26,6.85,6.85,0,0,1-.87,1,6.6,6.6,0,0,0-1.63,2.73Z"/><path class="cls-28" d="M107.05,281.53a78.51,78.51,0,0,0,7.48,3.26h0c.34.13.17-.26.14-.69a4.14,4.14,0,0,1,.77-2.44,9.15,9.15,0,0,1,3.25-2.34,23.22,23.22,0,0,1,5.89-2.07c3.44-.87,15.44-3.27,13.48-3.83s-4.49-1.13-7.34-1.94l-14.32,3.06c-3.29.71-8.17,3.26-9.24,6.7a1.26,1.26,0,0,1-.12.29Z"/><path class="cls-30" d="M117.43,291c-.19,1,.27,1.19,1.6,2.08a18.48,18.48,0,0,0,5.24,1.81c.78.13.58.22.39-.39a4.87,4.87,0,0,1-.24-2.28,3.16,3.16,0,0,1,1.53-1.92c.72-.5,1.89-1.32,2.22-1.2-2.8-1.07-5.82-1.58-8-2.67a6.91,6.91,0,0,1-.87,1,11.54,11.54,0,0,0-1.91,3.61Z"/><path class="cls-28" d="M120,286.63c1.16.6,7.83,2.77,7.8,2.34a4.25,4.25,0,0,1,.78-2.45,9,9,0,0,1,3.24-2.34,23.79,23.79,0,0,1,5.89-2.07c3.44-.87,14.22-4.73,12.26-5.29s-3.88-1.62-6.73-2.43l-13.71,5c-3.16,1.16-8.17,3.26-9.23,6.7a5.27,5.27,0,0,1-.3.53Z"/><path class="cls-2" d="M184,131a5.58,5.58,0,0,0,1.76,2.18,7.42,7.42,0,0,0,3.21,1,14.13,14.13,0,0,0,3-.12"/><path class="cls-23" d="M189,134.15a7.42,7.42,0,0,1-3.21-1,5.56,5.56,0,0,1-1.72-2.09l-.39.87L182,135.58c2.05.13,2.48,1.34,2.52,4.29,1.82-.27,3.64-.54,5.3-.82.68-1.64,1.35-3.27,2.08-5A13.32,13.32,0,0,1,189,134.15Z"/><ellipse class="cls-31" cx="170.68" cy="167.97" rx="4.63" ry="4.31"/><path class="cls-32" d="M168.55,168.16a2.44,2.44,0,0,0,.77.85,3.65,3.65,0,0,0,1.54.51,2.61,2.61,0,0,0,1.31-.19,1.06,1.06,0,0,0,.52-.47"/><ellipse class="cls-33" cx="169.67" cy="167.36" rx="0.42" ry="0.43"/><ellipse class="cls-33" cx="171.39" cy="167.53" rx="0.42" ry="0.43"/></g></svg>