<svg id="Слой_1" data-name="Слой 1" xmlns="http://www.w3.org/2000/svg" xmlns:xlink="http://www.w3.org/1999/xlink" viewBox="0 0 289.04 351.08"><defs><style>.cls-1{fill:url(#Безымянный_градиент);}.cls-2,.cls-3,.cls-37{fill:none;}.cls-10,.cls-11,.cls-12,.cls-13,.cls-14,.cls-15,.cls-16,.cls-17,.cls-20,.cls-26,.cls-3,.cls-31,.cls-32,.cls-33,.cls-37,.cls-4,.cls-5,.cls-6,.cls-7,.cls-8,.cls-9{stroke:#2b2a29;}.cls-10,.cls-11,.cls-12,.cls-13,.cls-14,.cls-15,.cls-16,.cls-17,.cls-20,.cls-23,.cls-26,.cls-27,.cls-3,.cls-31,.cls-32,.cls-33,.cls-34,.cls-35,.cls-37,.cls-4,.cls-5,.cls-6,.cls-7,.cls-8,.cls-9{stroke-miterlimit:10;}.cls-10,.cls-11,.cls-12,.cls-13,.cls-14,.cls-15,.cls-16,.cls-17,.cls-20,.cls-23,.cls-26,.cls-3,.cls-31,.cls-32,.cls-33,.cls-34,.cls-35,.cls-4,.cls-5,.cls-6,.cls-7,.cls-8,.cls-9{stroke-width:0.57px;}.cls-25,.cls-4{fill:#5b5b5b;}.cls-10,.cls-11,.cls-12,.cls-13,.cls-14,.cls-15,.cls-16,.cls-17,.cls-18,.cls-21,.cls-23,.cls-24,.cls-25,.cls-28,.cls-29,.cls-31,.cls-32,.cls-33,.cls-38,.cls-39,.cls-4,.cls-5,.cls-6,.cls-7,.cls-8,.cls-9{fill-rule:evenodd;}.cls-23,.cls-5{fill:#ebecec;}.cls-18,.cls-6{fill:#57a7b3;}.cls-7{fill:#6f7bff;}.cls-20,.cls-8{fill:#fbcc92;}.cls-28,.cls-9{fill:#434242;}.cls-10{fill:#7688a1;}.cls-11{fill:#fdefe5;}.cls-12,.cls-24{fill:#5e6bff;}.cls-13,.cls-34,.cls-39{fill:#3c8692;}.cls-14{fill:#ebd7c3;}.cls-15{fill:#fff7b2;}.cls-16{fill:#9ca4fc;}.cls-17{fill:#fcd5a6;}.cls-19{clip-path:url(#clip-path);}.cls-21{fill:#4e565a;}.cls-22{clip-path:url(#clip-path-2);}.cls-23{stroke:#ebecec;}.cls-26,.cls-33,.cls-36{fill:#2b2a29;}.cls-27{fill:#727271;stroke:#727271;stroke-width:0.57px;}.cls-29,.cls-31{fill:#56698f;}.cls-30{mask:url(#mask);}.cls-32{fill:#132c38;}.cls-34{stroke:#3c8692;}.cls-35{fill:#2f6f79;stroke:#2f6f79;}.cls-37{stroke-width:0.3px;}.cls-38{fill:#8f98fc;}</style><linearGradient id="Безымянный_градиент" x1="5227.8" y1="2891.84" x2="6422.95" y2="3053.61" gradientTransform="matrix(0.03, 0, 0, -0.03, 70.41, 106.96)" gradientUnits="userSpaceOnUse"><stop offset="0" stop-color="#fff"/><stop offset="1" stop-color="#fff" stop-opacity="0"/></linearGradient><clipPath id="clip-path"><path class="cls-2" d="M215.88,77.65c-.34,5.14-.34,5.14-.19,5.53A4.08,4.08,0,0,0,216.9,85a11.47,11.47,0,0,0,3.65,1.68,32.88,32.88,0,0,0,6.24,1.39,57.8,57.8,0,0,0,7.91.39,11.57,11.57,0,0,0,3.51-.51,2.68,2.68,0,0,0,1.51-.85,6.78,6.78,0,0,0,.78-2,101.81,101.81,0,0,1-12.14,1.37c-3.38,0-4.3-.84-4.69-1.74s-.23-1.86,2.56-2.87,8.21-2.06,13.63-3.12c-6.22,1-12.44,1.91-16.21,1.87s-5.11-1.09-5.59-2.38a3.32,3.32,0,0,1,1-3.72c1.11-.9,3-1.18,4.81-1.45-2.85,0-4-.57-4.66-1.64a3.73,3.73,0,0,1,0-3.91c.77-.9,2.37-.87,4-.85,5.5.18,11,.36,14.21.19s4.08-.68,1.67-1.27-8.1-1.24-11-1.56-2.85-.33-3.35-.68A4.23,4.23,0,0,1,223,61.37a3.27,3.27,0,0,1,.62-2.53c.4-.56.72-.6,2.25-.5s4.26.33,8.13.89c3.24.46,7.27,1.16,10.05,1.88.37-2.31.75-4.63,1.12-7-2.51.63-8.1.72-14.55.15a65.86,65.86,0,0,1-13.08-2.25c-.55,8.3-1.1,16.59-1.46,22.16-.09,1.3-.17,2.46-.23,3.43Z"/></clipPath><clipPath id="clip-path-2"><path class="cls-2" d="M101.78,134a39.3,39.3,0,0,0,9.08,3.52,24.82,24.82,0,0,0,10.44,0c3.39-.71,6.59-2.07,9-2.26l.59,0c.71-4.95,1.41-9.91,1.76-12.38.3-2.13.34-2.43-3-2.86l-1.92-.23-6.11-.72-6.18-.72-8.35-.94-.49,0c-5.35-.58-5.64-.52-5.79,2.24v.05c-.07,1.21-.11,2.91-.14,4.91,0,1.44,0,3-.06,4.68,0,1.31,0,2.67,0,4v.19l1.13.6Z"/></clipPath><mask id="mask" x="215.16" y="-0.28" width="27.82" height="47.71" maskUnits="userSpaceOnUse"><g id="id2"><rect class="cls-1" x="215.16" y="-0.28" width="27.82" height="47.71"/></g></mask></defs><g id="Слой_1-2" data-name="Слой_1"><path class="cls-3" d="M178,299.19a52,52,0,0,1,3.75,5.8,19,19,0,0,1,1.66,4.71,14,14,0,0,0,2.1,5.29,19.2,19.2,0,0,0,6.18,5.35,20.62,20.62,0,0,0,8.46,2.41,33.64,33.64,0,0,0,9.49-.63,60.85,60.85,0,0,0,7.39-2.36,24,24,0,0,1,5.47-1.27,39.19,39.19,0,0,1,6.12-.07,65,65,0,0,1,8.4,1c3.06.57,6.24,1.46,10.06,2.1a40.14,40.14,0,0,0,12.74.32,29,29,0,0,0,12.61-5.22,31.34,31.34,0,0,0,8.85-10.64,35.09,35.09,0,0,0,4.07-12.79c.32-3.89-.57-6.95-2.54-10.7a38.06,38.06,0,0,0-8.73-11.27,34.06,34.06,0,0,0-11.91-5.92,59.35,59.35,0,0,0-10.44-2.36,31.53,31.53,0,0,0-8.47,0,30.09,30.09,0,0,0-7.26,2.16,69.7,69.7,0,0,0-7.19,3.57c-2.23,1.27-4.14,2.55-5.92,3.44a9.09,9.09,0,0,1-5.48,1.14,17,17,0,0,1-6.3-2.41,11.64,11.64,0,0,1-4.26-4.43c-8.78-15.51.62-17.44-11.53-7.49-3.76,3.08-26.59,13.66-33.26,13.47l-2.71-.08c-.65,0,6.94,9,9.25,12.64,1.82,2.82,3.35,5.5,4.87,7.85s3.06,4.4,4.53,6.43Z"/><path class="cls-3" d="M197.41,242.88a200.9,200.9,0,0,0-2.81-20.36,96.77,96.77,0,0,0-6.84-21,83.89,83.89,0,0,0-12.44-19.72,51.66,51.66,0,0,0-14.22-11.47,28.58,28.58,0,0,0-8.81-3.06,8,8,0,0,0-2.9-.17,65,65,0,0,0-6.85,1,54.28,54.28,0,0,0-15.12,5c-6,3.08-12.56,8-19.14,12.95"/><path class="cls-3" d="M84.88,315.36a28.91,28.91,0,0,0,7.06-.71,69.81,69.81,0,0,0,12.92-4.36,75.17,75.17,0,0,0,16.09-9.7,119.56,119.56,0,0,0,16.28-15.76,91,91,0,0,0,11.12-16.28,159.82,159.82,0,0,0,8.43-18.22c2.22-5.78,3.64-10.7,5.06-15.62"/><path class="cls-3" d="M152.85,259.57l3.85,6.11"/><path class="cls-3" d="M249.63,262.7a42.44,42.44,0,0,0,.56-8.17,10.28,10.28,0,0,0-2.53-6.73,12.26,12.26,0,0,0-6.51-2.88,18.77,18.77,0,0,0-6.43,0,32.59,32.59,0,0,0-6.93,1.8c-2,.81-3.24,1.79-5.07,2a8.21,8.21,0,0,1-5.74-1.45,6.05,6.05,0,0,1-2.07-5.13,15.67,15.67,0,0,1,1.51-5.66c.67-1.44,1.23-2.13,1-2.33s-1.22.1-2.87.31a39.82,39.82,0,0,1-6.45.2A71.34,71.34,0,0,1,201,234c-2-.3-3.31-.55-4.63-.81"/><path class="cls-3" d="M194.44,221.8a13.92,13.92,0,0,0,5.77,2.59,36.43,36.43,0,0,0,6.21.85c3.08.26,6.14.25,8.77.21a38.84,38.84,0,0,0,10-1.42l3.56-.81c1.79-.41-3,5.73-5.31,7.88a9.9,9.9,0,0,1-6,3.12"/><path class="cls-3" d="M221.38,224.87c4.09-5.44,8.17-10.87,10.25-13.59s2.14-2.72,5.32-9,9.45-18.88,12.29-28.21,2.25-15.39-.6-20-7.93-7.68-12.25-9.37a29,29,0,0,0-11.77-1.92,60.9,60.9,0,0,0-12.69,1.46A68,68,0,0,0,198.11,149a63.45,63.45,0,0,0-11,6.75c-3,2.3-5.52,4.5-8,6.52s-4.9,3.87-7,5.79a65.19,65.19,0,0,0-5.41,5.89"/><path class="cls-3" d="M14.35,173.41c-3.51,15.74-7,31.48-9.26,45.65S1.93,245.82,2.8,257.28a93.69,93.69,0,0,0,7.77,31.28,120.21,120.21,0,0,0,16,25.8c6,7.57,12.32,14,21,19.36a109,109,0,0,0,28.87,12A102.32,102.32,0,0,0,97,348.65c3.82.2,4,.2,2-3.21s-6.17-10.25-8.86-15.83A65,65,0,0,1,84.72,313a252.17,252.17,0,0,1-4-25.39A184,184,0,0,1,80,258.08a192,192,0,0,1,4.13-28c1.93-9.08,4.17-18,8.25-25.32s10-13,15.93-18.68"/><path class="cls-3" d="M65.63,93.07c-7.09,3-14.18,6.07-20,9.47A50,50,0,0,0,31.19,115a72.36,72.36,0,0,0-11,19.45,103.64,103.64,0,0,0-5,21.76c-1,6.92-1.57,13.17-.56,19.75s3.65,13.51,6,18.9,4.51,9.24,8.16,12.43S37.67,213,43,215a45.2,45.2,0,0,0,16.54,3.25,48.1,48.1,0,0,0,17.35-3.93,99.13,99.13,0,0,0,14.74-8.19"/><path class="cls-3" d="M59,131.24c6.22,6.58,12.43,13.17,13.43,22.17s-3.25,20.4-7.48,31.8"/><path class="cls-3" d="M57.36,181.68a28,28,0,0,0,6.17,3.18,11.2,11.2,0,0,0,7.27-.11,20.12,20.12,0,0,0,8-5.31,13.74,13.74,0,0,0,3.4-7.16,7.33,7.33,0,0,0-.94-4.48"/><path class="cls-3" d="M152.11,88.49c6.31,2.12,12.63,4.23,17.77,7.55a32,32,0,0,1,11.8,13.54c2.7,5.71,4.12,12.61,5.08,17s1.42,6.18,1.81,8,.68,3.6,1,5.39"/><path class="cls-3" d="M189.48,139.54c.22,1.15.45,2.3,4.91-1.66s13.16-13,17.26-20.51,3.58-13.32,2.18-18-3.71-8.14-3.7-9.5,2.35-.57,4.87.25a61.17,61.17,0,0,0,8.2,2.23,31.71,31.71,0,0,0,10.48.12c4.2-.62,9.33-2,10.68-1.73s-1.08,2.39-2.21,6.74-.94,11-1,16.19a64,64,0,0,1-1.55,13.85c-1.07,4.84-2.84,10.75-4.62,16.66"/><path class="cls-3" d="M65.63,93.07c2.6-1,5.2-1.92,8.7-3s7.92-2.24,11.47-3.3,6.23-2,8.92-3"/><path class="cls-3" d="M107.6,52.87a47.39,47.39,0,0,0-.64,6.37,26.89,26.89,0,0,0,.74,6.68,36.21,36.21,0,0,0,2.19,6.17,10.76,10.76,0,0,0,2.91,4.29,12.69,12.69,0,0,0,5.46,2.16,25.65,25.65,0,0,0,7.25.45,11.5,11.5,0,0,0,5.78-2.16,20.2,20.2,0,0,0,4.26-4.5A35.07,35.07,0,0,0,138.22,68a16.24,16.24,0,0,0,1.28-3,27.87,27.87,0,0,0,1-4.15,36.59,36.59,0,0,0,.26-4.41"/><path class="cls-3" d="M101.27,82.74c2.11-1.15,4.21-2.3,5.71-3.3A16.09,16.09,0,0,0,110,76.9a18,18,0,0,0,1.5-1.84"/><path class="cls-3" d="M132.81,75.55a11.55,11.55,0,0,0,.8,4,15.82,15.82,0,0,0,2.75,3.68"/><path class="cls-3" d="M101,82.5a77.27,77.27,0,0,1,8.55,8.27,23.25,23.25,0,0,1,4.31,8,36.44,36.44,0,0,1,1.55,8.82c.22,3.26.16,7,.1,10.68"/><path class="cls-3" d="M121.69,119a85.83,85.83,0,0,1-.07-9.46,27.54,27.54,0,0,1,1.65-7.94,23.37,23.37,0,0,1,3.55-6.27,44.11,44.11,0,0,1,4.62-4.65,29.48,29.48,0,0,0,4.1-4.44,4.75,4.75,0,0,0,.82-3"/><path class="cls-3" d="M135.55,72.33c4.34,2.38,8.68,4.77,11.82,6.51s5.06,2.85,6.34,3.6,1.89,1.18,1.52,2.17-1.75,2.56-3.75,4.49-4.63,4.22-7,6.71a70.35,70.35,0,0,0-6.59,8.11,72,72,0,0,0-5.41,8.82,44.63,44.63,0,0,0-2.75,7.25"/><path class="cls-3" d="M108.66,69.05C102.4,72.24,96.14,75.43,92.84,77s-3.64,1.49-2.77,2.38,3,2.74,5.15,5A41.46,41.46,0,0,1,101.28,92a34.92,34.92,0,0,1,3.43,8.55,60.07,60.07,0,0,1,1.6,8.19c.36,2.77.61,5.7.85,8.62"/><path class="cls-3" d="M107.07,58.87c-1.33-1.77-2.66-3.54-3.33-4.53a2.19,2.19,0,0,1-.54-2.08,28.78,28.78,0,0,1,.91-4,20.59,20.59,0,0,1,2.55-5.3,22.8,22.8,0,0,1,5.48-5.84,18.54,18.54,0,0,1,9.62-3.58,36.59,36.59,0,0,1,13,1.43,12.45,12.45,0,0,1,6.78,4.58A20.34,20.34,0,0,1,144.66,46a47.46,47.46,0,0,1,1.41,6.84c.27,1.84.41,2.93.47,3.48s.07.54-1,1.41L140.27,62"/><path class="cls-3" d="M211.53,89.16A6.91,6.91,0,0,1,208.34,86a23.23,23.23,0,0,1-2.1-7.92,12.44,12.44,0,0,1,2-8.45c1.9-3,5.35-6.42,7-7s1.5,1.69.69,4.32-2.28,5.63-2.36,6.9,1.21.83,2.52.38"/><path class="cls-3" d="M223.21,66.62c-1.61,0-3.21-.05-4,.85a3.73,3.73,0,0,0,0,3.91c.7,1.18,2.05,1.72,5.54,1.63s9.15-.79,14.81-1.5"/><path class="cls-3" d="M223.89,73c-1.85.27-3.7.55-4.81,1.45a3.32,3.32,0,0,0-1,3.72c.48,1.29,1.81,2.33,5.59,2.38s10-.91,16.21-1.87"/><path class="cls-3" d="M239.86,78.7c-5.42,1.06-10.85,2.11-13.63,3.12s-2.95,2-2.56,2.87,1.31,1.76,4.69,1.74,9.19-.91,15-1.8"/><path class="cls-3" d="M240.24,91.24c1-2.21,2.09-4.41,3.13-6.61"/><path class="cls-3" d="M151.22,265.57a18,18,0,0,0,8.08-.38,70.39,70.39,0,0,0,17.28-7.05,124.49,124.49,0,0,0,18-12.7c4.19-3.58,5.47-5.42,6.11-6.35s.64-.92,1.16.81a30.86,30.86,0,0,1,1.56,7.71,10,10,0,0,1-2,5.76"/><path class="cls-3" d="M151.22,265.57l6.52,7.19"/><path class="cls-3" d="M157.74,272.76l1.85-.54"/><path class="cls-3" d="M201.49,238.75a14.27,14.27,0,0,0-2.55-.5,6.39,6.39,0,0,0-2,.29"/><path class="cls-3" d="M100.65,133.23c0-5.45.08-10.9.23-13.66s.4-2.83,5.79-2.24,15.88,1.81,21.13,2.43,5.25.61,4.9,3.09-1,7.43-1.76,12.38"/><path class="cls-3" d="M90.59,167.6c-3.34-6.24-6.69-12.47-7.26-18s1.62-10.32,3.45-14.54,3.28-7.83,5.54-9.48,5.34-1.36,8.42-1"/><path class="cls-3" d="M100.68,129.21c-1.11.75-2.23,1.49-2.24,2.22s1.11,1.43,3.34,2.59a39.3,39.3,0,0,0,9.08,3.52,24.82,24.82,0,0,0,10.44,0c3.39-.71,6.59-2.07,9-2.26a6,6,0,0,1,5.19,2c1,1.2,1.3,2.62.21,3.72s-3.59,1.9-6,2.68-4.66,1.56-5.8,2-1.14.61-4,.31-8.49-1-11.33-1.41l-2.83-.38"/><path class="cls-3" d="M240.5,85.06a6.78,6.78,0,0,1-.78,2,2.68,2.68,0,0,1-1.51.85,11.57,11.57,0,0,1-3.51.51,57.8,57.8,0,0,1-7.91-.39,32.88,32.88,0,0,1-6.24-1.39A11.47,11.47,0,0,1,216.9,85a4.08,4.08,0,0,1-1.21-1.81c-.15-.39-.15-.39.19-5.53s1-15.42,1.69-25.71"/><path class="cls-3" d="M107.6,52.87a30.13,30.13,0,0,1,2.07-4.39,7.43,7.43,0,0,1,3.74-3.18,38.29,38.29,0,0,1,6.77-1.74c1.94-.37,2.95-.57,3.75-1.36a12,12,0,0,0,2-3.56"/><path class="cls-3" d="M124.18,41.93a6.57,6.57,0,0,0,2.12,2.44,13.46,13.46,0,0,0,4.28,1.7,14.78,14.78,0,0,1,3.86.92A12.09,12.09,0,0,1,139,50.84a13.2,13.2,0,0,1,1.74,5.57"/><path class="cls-3" d="M223.21,66.62c5.5.18,11,.36,14.21.19s4.08-.68,1.67-1.27-8.1-1.24-11-1.56-2.85-.33-3.35-.68A4.23,4.23,0,0,1,223,61.37a3.27,3.27,0,0,1,.62-2.53c.4-.56.72-.6,2.25-.5s4.26.33,8.13.89a84.05,84.05,0,0,1,11.5,2.3c2.65.86,2.93,1.71,3,2.58a6.65,6.65,0,0,1-.44,2.42c-.24.65-.49,1.06-.83,1.15s-.76-.15-.38.26a6,6,0,0,1,1.75,2.51c.16,1-.71,2-1.34,2.6a7.48,7.48,0,0,1-1.21,1c-.2.13-.2.13.5.52s2.08,1.17,2.09,1.76-1.36,1-2,1.31-.58.58.29,1.39,2.55,2.18,2.1,3.21-3,1.7-5.64,2.38"/><path class="cls-3" d="M216.2,51.25c.11-1.37.23-2.74.34-4.11"/><path class="cls-3" d="M245.2,54.16q-.57,3.48-1.12,7"/><path class="cls-3" d="M138.94,66.52a9.69,9.69,0,0,0,3.45.52A4,4,0,0,0,145,65.47a5.64,5.64,0,0,0,1.36-3.33,14.68,14.68,0,0,0-.81-4.44"/><path class="cls-3" d="M104.56,55.5c-1.18,1.29-2.35,2.58-2.58,4A3.78,3.78,0,0,0,103.51,63a6,6,0,0,0,3.74.58"/><path class="cls-3" d="M100.35,152.19c1.37.44,2.75.88,5,1.47s5.46,1.35,7,1.73,1.59.38,4.83,0,9.74-1.13,13.64-1.9,5.19-1.55,6.13-2.73a5.07,5.07,0,0,0,1.25-3.93,2.82,2.82,0,0,0-2.78-2c-1.39-.07-3,.58-5.2,1.23a55.84,55.84,0,0,1-7,1.62,30.24,30.24,0,0,1-4.63.32c-.82,0-.82,0-2.81-.63l-10-3.15"/><path class="cls-3" d="M112.42,155.39c2,.76,4.09,1.52,5.87,2a7.91,7.91,0,0,0,5.11,0c1.83-.65,4-2.16,5.82-2.93a6.81,6.81,0,0,1,4.46-.52,1.86,1.86,0,0,1,1.53,2.17c-.12,1.2-1,2.93-3,4.69a23.53,23.53,0,0,1-7.64,4.29c-2.47.76-4.25.49-9-.61s-12.36-3-20-5"/><path class="cls-3" d="M90.48,167.4c5,.92,9.93,1.84,14.26,2.31a95.77,95.77,0,0,0,9.84.53c1.84,0,1.84,0,3.74-1.07l9.5-5.43"/><path class="cls-3" d="M130.07,143.56c-.09.87-.17,1.74-.26,2.61"/><path class="cls-3" d="M83.69,151.81q.15,9.93.29,19.85"/><path class="cls-3" d="M107.14,177.87l5.42-7.66"/><path class="cls-3" d="M83.88,165a5.58,5.58,0,0,0-1.41-.12,2,2,0,0,0-1.51.64c-.3.45-.24,1.21.62,2.81a16.82,16.82,0,0,0,5.53,6,26.36,26.36,0,0,0,11.83,3.86A35.88,35.88,0,0,0,111.06,177c2.84-.81,3.75-1.72,3.55-2.69s-1.52-2-2.84-3"/><path class="cls-3" d="M114.24,175.5a28.37,28.37,0,0,0-5.72,5.76,31.2,31.2,0,0,0-3.29,7.73"/><path class="cls-3" d="M181.76,305c6,1.78,11.89,3.56,18.71,3.42s14.53-2.19,21.9-2.87a71.1,71.1,0,0,1,20,1.11c5.65,1.11,9.93,2.65,16.18,2.61s14.47-1.68,22.7-3.32"/><path class="cls-3" d="M165.77,281c6.65-.66,13.3-1.32,18.44-2.77a46.79,46.79,0,0,0,12.43-5.92"/><path class="cls-3" d="M202.89,243.71c2.2.36,4.4.71,5.55.81s1.25-.07,1.35-.24"/><path class="cls-3" d="M204.84,262.36a13.26,13.26,0,0,1-4.15,3.59A32.24,32.24,0,0,1,194.6,268c-1.39.35-1.39.35.32,2.41s5.14,6.16,7.2,8.3,2.74,2.31,5,2a61,61,0,0,1,11.64-1.11c5.4.08,12.25,1.11,18.5,1.54s11.9.26,16.53-.94a23.21,23.21,0,0,0,10.48-5.69,18.65,18.65,0,0,0,4.12-6.87"/><path class="cls-3" d="M215.4,239.31a14.41,14.41,0,0,1-3,1.06,7.66,7.66,0,0,1-2.29,0c-.44-.05-.44-.05-.42.94s.07,3,.2,4.41A4,4,0,0,0,211.3,249a15.45,15.45,0,0,0,5.47,2.53,21.66,21.66,0,0,0,8.4.69,27,27,0,0,0,9.19-2.88,20.76,20.76,0,0,0,5.52-4.59"/><path class="cls-3" d="M123.07,166.45c.53,2.72,1.07,5.44,1.6,8.16"/><path class="cls-3" d="M130.71,162c.37,3,.75,6.07,1.12,9.11"/><path class="cls-3" d="M116.55,170.07q0,4.94,0,9.85"/><path class="cls-3" d="M108.54,78.28c2.09,2.41,4.17,4.82,7.24,6a20.09,20.09,0,0,0,10.46.44,34.46,34.46,0,0,0,8.61-3.22"/><path class="cls-4" d="M176.58,258.14a70.39,70.39,0,0,1-17.28,7.05,17.83,17.83,0,0,1-8,.39s0,.06,0,.09q3.23,3.54,6.43,7.09a16.39,16.39,0,0,1,1.91.18l2.42-.59c6.67.19,29.5-10.39,33.26-13.47a70,70,0,0,0,6.13-5.65,9.64,9.64,0,0,0,2-5.62,18.49,18.49,0,0,0-.53-3.9c-.33-1.49-.75-2.89-1-3.81-.16-.55-.28-.93-.37-1.15l-.45-.12c-.09.11-.2.26-.34.46a23.08,23.08,0,0,1-3.29,3.79c-.75.74-1.68,1.58-2.82,2.56a124.49,124.49,0,0,1-18,12.7Z"/><path class="cls-5" d="M195.33,258.88c-3.76,3.08-26.72,12.14-33.26,13.47l-2.48.5c-.12,0,4.87,6.41,6.18,8.13,6.65-.66,13.3-1.32,18.44-2.77a46.42,46.42,0,0,0,12.32-5.86l-1.61-1.92c-1.71-2.06-1.71-2.06-.32-2.41a32.24,32.24,0,0,0,6.09-2.07,13.26,13.26,0,0,0,4.15-3.59c-3.51-8-1.58-10.87-3.38-9.13a70,70,0,0,1-6.13,5.65Z"/><path class="cls-6" d="M194.6,268c-1.39.35-1.39.35.32,2.41l1.61,1.92c1.78,2.11,4.06,4.79,5.59,6.38,2,2.14,2.74,2.31,5,2a61,61,0,0,1,11.64-1.11c5.4.08,12.25,1.11,18.5,1.54s11.9.26,16.53-.94a23.21,23.21,0,0,0,10.48-5.69,18.65,18.65,0,0,0,4.12-6.87,46.2,46.2,0,0,0-6.26-2.37,59.35,59.35,0,0,0-10.44-2.36c-.72-.09-1.42-.16-2.11-.2a29.38,29.38,0,0,0-6.36.2,30.09,30.09,0,0,0-7.26,2.16,69.7,69.7,0,0,0-7.19,3.57c-2.23,1.27-4.14,2.55-5.92,3.44a9.09,9.09,0,0,1-5.48,1.14,17,17,0,0,1-6.3-2.41,11.64,11.64,0,0,1-4.26-4.43,43.1,43.1,0,0,1-2-4,13.26,13.26,0,0,1-4.15,3.59A32.24,32.24,0,0,1,194.6,268Z"/><path class="cls-7" d="M196.53,272.35a46.42,46.42,0,0,1-12.32,5.86c-5.14,1.45-11.79,2.11-18.44,2.77,1.16,1.52,2.2,2.93,2.84,3.93,1.82,2.82,3.35,5.5,4.87,7.85s3.06,4.4,4.53,6.44a51,51,0,0,1,3.75,5.79c6,1.78,11.89,3.56,18.71,3.42s14.53-2.19,21.9-2.87a71.1,71.1,0,0,1,20,1.11c5.65,1.11,9.93,2.65,16.18,2.61s14.47-1.68,22.7-3.32a35.09,35.09,0,0,0,4.07-12.79c.32-3.89-.57-6.95-2.54-10.7a38.06,38.06,0,0,0-8.73-11.27,27.19,27.19,0,0,0-5.65-3.55,18.65,18.65,0,0,1-4.12,6.87,23.21,23.21,0,0,1-10.48,5.69c-4.63,1.2-10.28,1.37-16.53.94s-13.1-1.46-18.5-1.54a61,61,0,0,0-11.64,1.11c-2.31.34-3,.17-5-2-1.53-1.59-3.81-4.26-5.59-6.38Z"/><path class="cls-8" d="M222.37,305.54c-7.37.68-15.07,2.74-21.9,2.87s-12.76-1.64-18.71-3.42a19,19,0,0,1,1.66,4.71,14,14,0,0,0,2.1,5.29,19.2,19.2,0,0,0,6.18,5.35,20.62,20.62,0,0,0,8.46,2.41,33.64,33.64,0,0,0,9.49-.63,60.85,60.85,0,0,0,7.39-2.36,24,24,0,0,1,5.47-1.27,39.19,39.19,0,0,1,6.12-.07,65,65,0,0,1,8.4,1c3.06.57,6.24,1.46,10.06,2.1a40.14,40.14,0,0,0,12.74.32,29,29,0,0,0,12.61-5.22,31.34,31.34,0,0,0,8.85-10.64c-8.23,1.64-16.45,3.27-22.7,3.32s-10.53-1.5-16.18-2.61a71.1,71.1,0,0,0-20-1.11Z"/><path class="cls-9" d="M197.41,242.88a23.08,23.08,0,0,0,3.29-3.79c.14-.2.25-.35.34-.46a11.86,11.86,0,0,0-2.1-.38,6.39,6.39,0,0,0-2,.29l.45,4.34Z"/><path class="cls-10" d="M197.41,242.88l-.45-4.34c-.2-1.79-.4-3.59-.63-5.4-.45-3.51-1-7-1.73-10.62l-.15-.7a96.4,96.4,0,0,0-6.69-20.3,83.89,83.89,0,0,0-12.44-19.72,51.66,51.66,0,0,0-14.22-11.47,28.58,28.58,0,0,0-8.81-3.06,8,8,0,0,0-2.9-.17,65,65,0,0,0-6.85,1,57.3,57.3,0,0,0-10.71,3q-2.13.84-4.41,2c-.9.47-1.82,1-2.75,1.52-2.62,1.53-5.34,3.35-8.1,5.31s-5.51,4-8.29,6.12c-1,1-2,2-3,3-4.86,4.75-9.5,9.69-12.88,15.73C88.27,212,86,221,84.1,230a192,192,0,0,0-4.13,28,184,184,0,0,0,.78,29.52,252.17,252.17,0,0,0,4,25.39q.25,1.23.51,2.37a28.06,28.06,0,0,0,6.71-.71,69.81,69.81,0,0,0,12.92-4.36,75.17,75.17,0,0,0,16.09-9.7,119.56,119.56,0,0,0,16.28-15.76,91,91,0,0,0,11.12-16.28c1.56-2.86,3.09-5.92,4.5-9l3.85,6.11c.76-.1,1.62-.26,2.6-.49a70.39,70.39,0,0,0,17.28-7.05,124.49,124.49,0,0,0,18-12.7c1.14-1,2.07-1.82,2.82-2.56Z"/><path class="cls-11" d="M127.82,163.74a25.21,25.21,0,0,0,2.89-1.75c.55-.39,1.06-.79,1.51-1.18,2-1.76,2.87-3.49,3-4.69a2.87,2.87,0,0,0-1.22-2.7c-.66-.34-1.26-.7-3.1.07s-5.66,3.26-7.49,3.91a7.91,7.91,0,0,1-5.11,0c-1.78-.47-3.82-1.23-5.87-2,1.59.38,1.59.38,4.83,0s9.74-1.13,13.64-1.9,5.19-1.55,6.13-2.73a5.07,5.07,0,0,0,1.25-3.93,2.82,2.82,0,0,0-2.78-2c-1.39-.07-3,.58-5.2,1.23l-.48.14a54.41,54.41,0,0,1-6.56,1.48,30.24,30.24,0,0,1-4.63.32c-.82,0-.82,0-2.81-.63l-10-3.15,2.83.38c2.84.37,8.5,1.11,11.33,1.41s2.84.15,4-.31,3.42-1.24,5.8-2l.3-.09c2.29-.76,4.63-1.53,5.68-2.59s.8-2.52-.21-3.72a5.85,5.85,0,0,0-4.6-2l-.59,0c-2.46.19-5.66,1.55-9,2.26a24.82,24.82,0,0,1-10.44,0,39.3,39.3,0,0,1-9.08-3.52l-1.13-.6c-1.48-.82-2.21-1.34-2.21-2s1-1.38,2.1-2.12c0-1.66-.06-3.37,0-4.81-3.07-.3-5.91-.58-8.18,1.08s-3.72,5.27-5.54,9.48-4,9-3.45,14.54a19.18,19.18,0,0,0,.36,2.21c1.07,4.89,3.92,10.24,6.79,15.59,5,.92,9.93,1.84,14.26,2.31,3.07.34,5.83.46,7.82.5l2,0a5.74,5.74,0,0,0,2-.17,10.78,10.78,0,0,0,1.77-.9l4.75-2.72,4.75-2.71Z"/><path class="cls-7" d="M84.1,230c1.81-8.52,3.89-16.89,7.51-23.93a99.75,99.75,0,0,1-14.75,8.19,48.1,48.1,0,0,1-17.35,3.93A45.2,45.2,0,0,1,43,215c-5.3-2-10.47-4.5-14.11-7.69s-5.78-7-8.16-12.43-5-12.31-6-18.9c-.13-.85-.24-1.71-.32-2.55-3.51,15.74-7,31.48-9.26,45.65S1.93,245.82,2.8,257.28a93.69,93.69,0,0,0,7.77,31.28,120.21,120.21,0,0,0,16,25.8c6,7.57,12.32,14,21,19.36a109,109,0,0,0,28.87,12A102.32,102.32,0,0,0,97,348.65c3.82.2,4,.2,2-3.21s-6.17-10.25-8.86-15.83a60.49,60.49,0,0,1-4.84-14.25q-.26-1.14-.51-2.37a252.17,252.17,0,0,1-4-25.39A184,184,0,0,1,80,258.08a192,192,0,0,1,4.13-28Z"/><path class="cls-7" d="M81.31,167.8c-.6-1.25-.61-1.89-.35-2.29a1.75,1.75,0,0,1,1.51-.64c.51.06,1,0,1.41.12q-.09-6.59-.19-13.18a19.18,19.18,0,0,1-.36-2.21c-.58-5.52,1.62-10.32,3.45-14.54s3.28-7.83,5.54-9.48,5.34-1.36,8.42-1c0-2,.07-3.7.14-4.91.15-2.81.4-2.88,5.79-2.29l.49,0c-.24-2.92-.49-5.85-.85-8.62a60.07,60.07,0,0,0-1.6-8.19A34.92,34.92,0,0,0,101.28,92a41.46,41.46,0,0,0-6.06-7.67c-.16-.18-.33-.35-.5-.52-2.69,1-5.38,1.89-8.92,3s-8,2.24-11.47,3.3-6.1,2-8.7,3c-7.09,3-14.18,6.07-20,9.47A50,50,0,0,0,31.19,115a72.36,72.36,0,0,0-11,19.45,103.64,103.64,0,0,0-5,21.76c-.84,6-1.41,11.53-.88,17.2.08.84.19,1.7.32,2.55,1,6.59,3.65,13.51,6,18.9s4.51,9.24,8.16,12.43S37.67,213,43,215a45.2,45.2,0,0,0,16.54,3.25,48.1,48.1,0,0,0,17.35-3.93,99.13,99.13,0,0,0,14.74-8.19c.25-.47.49-.93.75-1.39,3.38-6,8-11,12.88-15.73a32,32,0,0,1,3.29-7.73,19.11,19.11,0,0,1,4.28-4.83,4.52,4.52,0,0,1-1.74.61,36.79,36.79,0,0,1-3.92.83,35.6,35.6,0,0,1-8.2.31,26.36,26.36,0,0,1-11.83-3.86,16.93,16.93,0,0,1-5.53-6l-.27-.52Z"/><path class="cls-12" d="M202.89,243.71a18.49,18.49,0,0,1,.53,3.9,9.64,9.64,0,0,1-2,5.62c1.8-1.74-.13,1.18,3.38,9.13a43.1,43.1,0,0,0,2,4,11.64,11.64,0,0,0,4.26,4.43,17,17,0,0,0,6.3,2.41,9.09,9.09,0,0,0,5.48-1.14c1.78-.89,3.69-2.17,5.92-3.44a69.7,69.7,0,0,1,7.19-3.57,30.09,30.09,0,0,1,7.26-2.16,29.38,29.38,0,0,1,6.36-.2,42.44,42.44,0,0,0,.56-8.17,10.28,10.28,0,0,0-2.53-6.73,12.26,12.26,0,0,0-6.51-2.88c-.43-.08-.86-.14-1.27-.18a20.76,20.76,0,0,1-5.52,4.59,27,27,0,0,1-9.19,2.88,21.66,21.66,0,0,1-8.4-.69A15.45,15.45,0,0,1,211.3,249a4,4,0,0,1-1.41-3.24c0-.45-.07-1-.1-1.47-.1.17-.2.33-1.35.24s-3.35-.45-5.55-.81Z"/><path class="cls-13" d="M209.89,245.75A4,4,0,0,0,211.3,249a15.45,15.45,0,0,0,5.47,2.53,21.66,21.66,0,0,0,8.4.69,27,27,0,0,0,9.19-2.88,20.76,20.76,0,0,0,5.52-4.59,20,20,0,0,0-5.16.21,32.59,32.59,0,0,0-6.93,1.8c-2,.81-3.24,1.79-5.07,2a8.21,8.21,0,0,1-5.74-1.45,6.05,6.05,0,0,1-2.07-5.13,11.9,11.9,0,0,1,.49-2.9,14.41,14.41,0,0,1-3,1.06,7.66,7.66,0,0,1-2.29,0c-.44-.05-.44-.05-.42.94,0,.68.05,1.83.1,2.94,0,.51.06,1,.1,1.47Z"/><path class="cls-5" d="M208.44,244.52c1.15.09,1.25-.07,1.35-.24,0-1.11-.08-2.26-.1-2.94,0-1,0-1,.42-.94a7.66,7.66,0,0,0,2.29,0,14.41,14.41,0,0,0,3-1.06,18.78,18.78,0,0,1,1-2.76c.67-1.44,1.23-2.13,1-2.33s-1.22.1-2.87.31a39.82,39.82,0,0,1-6.45.2A71.34,71.34,0,0,1,201,234c-2-.3-3.31-.55-4.62-.81q.34,2.72.63,5.4a6.39,6.39,0,0,1,2-.29,11.86,11.86,0,0,1,2.1.38c.2-.22.31-.21.45.12s.21.6.37,1.15c.28.92.7,2.32,1,3.81C205.09,244.07,207.29,244.42,208.44,244.52Z"/><path class="cls-4" d="M194.45,221.82l.15.7Zm1.88,11.32c-.45-3.51-1-7-1.73-10.62C195.34,226.1,195.88,229.63,196.33,233.14Zm11.78,1.59a39.82,39.82,0,0,0,6.45-.2c1.65-.21,2.65-.51,2.87-.31a9.9,9.9,0,0,0,6-3.12c2.27-2.15,7.1-8.29,5.31-7.88l-3.56.81c-1.53.35-2.71.62-3.82.84a32.56,32.56,0,0,1-6.19.58c-1.47,0-3.08,0-4.75,0-1.31,0-2.66-.1-4-.21a36.43,36.43,0,0,1-6.21-.85,14,14,0,0,1-5.76-2.57,96.4,96.4,0,0,0-6.69-20.3,83.89,83.89,0,0,0-12.44-19.72,51.66,51.66,0,0,0-14.22-11.47,28.58,28.58,0,0,0-8.81-3.06,8,8,0,0,0-2.9-.17,65,65,0,0,0-6.85,1,57.3,57.3,0,0,0-10.71,3q-2.13.84-4.41,2c-.9.47-1.82,1-2.75,1.52-2.62,1.53-5.34,3.35-8.1,5.31s-5.51,4-8.29,6.12c-1,1-2,2-3,3-4.86,4.75-9.5,9.69-12.88,15.73-.26.46-.5.92-.74,1.39-3.62,7-5.7,15.41-7.51,23.93a192,192,0,0,0-4.13,28,184,184,0,0,0,.78,29.52,252.17,252.17,0,0,0,4,25.39q.25,1.23.51,2.37a28.06,28.06,0,0,0,6.71-.71,69.81,69.81,0,0,0,12.92-4.36,75.17,75.17,0,0,0,16.09-9.7,119.56,119.56,0,0,0,16.28-15.76,91,91,0,0,0,11.12-16.28c1.56-2.86,3.09-5.92,4.5-9l3.85,6.11c.76-.1,1.62-.26,2.6-.49a70.39,70.39,0,0,0,17.28-7.05,124.49,124.49,0,0,0,18-12.7c1.14-1,2.07-1.82,2.82-2.56l-.45-4.34q-.28-2.68-.63-5.4c1.31.26,2.63.51,4.62.81a71.34,71.34,0,0,0,7.16.78Z"/><path class="cls-11" d="M125.51,79a11.5,11.5,0,0,0,5.78-2.16,15.37,15.37,0,0,0,1.52-1.28,23.5,23.5,0,0,0,2.74-3.22A35.07,35.07,0,0,0,138.22,68c.3-.56.52-1,.72-1.48s.37-1,.56-1.55a30.09,30.09,0,0,0,.77-2.94c.08-.4.16-.81.22-1.21a36.59,36.59,0,0,0,.26-4.41A13.2,13.2,0,0,0,139,50.84,12.09,12.09,0,0,0,134.44,47a14.78,14.78,0,0,0-3.86-.92,13.46,13.46,0,0,1-4.28-1.7,6.57,6.57,0,0,1-2.12-2.44,2.16,2.16,0,0,1-.25.27c-.8.79-1.81,1-3.75,1.36a38.29,38.29,0,0,0-6.77,1.74,7.43,7.43,0,0,0-3.74,3.18,30.13,30.13,0,0,0-2.07,4.39,53.58,53.58,0,0,0-.63,5.86c0,.17,0,.34,0,.51a26.92,26.92,0,0,0,.29,4.36c.12.78.27,1.55.45,2.32a30.79,30.79,0,0,0,1,3.13c.39,1.09.81,2.11,1.23,3a14.86,14.86,0,0,0,1.65,3,6.84,6.84,0,0,0,1.26,1.32,12.69,12.69,0,0,0,5.46,2.16,25.65,25.65,0,0,0,7.25.45Z"/><path class="cls-14" d="M107.25,63.6a26.92,26.92,0,0,1-.29-4.36c0-.17,0-.34,0-.51-.87-1.16-1.74-2.31-2.41-3.23-1.18,1.29-2.35,2.58-2.58,4A3.78,3.78,0,0,0,103.51,63a6,6,0,0,0,3.74.58Z"/><path class="cls-14" d="M140.27,62A30.09,30.09,0,0,1,139.5,65c-.19.58-.36,1.06-.56,1.55a9.69,9.69,0,0,0,3.45.52A4,4,0,0,0,145,65.47a5.64,5.64,0,0,0,1.36-3.33,14.68,14.68,0,0,0-.81-4.44L140.27,62Z"/><path class="cls-15" d="M140.75,56.41a36.59,36.59,0,0,1-.26,4.41c-.06.4-.14.81-.22,1.21l5.28-4.33c1.06-.87,1.06-.87,1-1.41s-.2-1.64-.47-3.48A47.46,47.46,0,0,0,144.66,46a20.34,20.34,0,0,0-3.17-6.45,12.45,12.45,0,0,0-6.78-4.58,36.59,36.59,0,0,0-13-1.43,18.54,18.54,0,0,0-9.62,3.58,22.8,22.8,0,0,0-5.48,5.84,20.59,20.59,0,0,0-2.55,5.3,28.78,28.78,0,0,0-.91,4,2.19,2.19,0,0,0,.54,2.08c.21.32.49.71.82,1.16.67.92,1.54,2.07,2.41,3.23a53.58,53.58,0,0,1,.63-5.86,30.13,30.13,0,0,1,2.07-4.39,7.43,7.43,0,0,1,3.74-3.18,38.29,38.29,0,0,1,6.77-1.74c1.94-.37,2.95-.57,3.75-1.36a2.16,2.16,0,0,0,.25-.27,6.57,6.57,0,0,0,2.12,2.44,13.46,13.46,0,0,0,4.28,1.7,14.78,14.78,0,0,1,3.86.92A12.09,12.09,0,0,1,139,50.84,13.2,13.2,0,0,1,140.75,56.41Z"/><path class="cls-14" d="M131.29,76.83A11.5,11.5,0,0,1,125.51,79a25.65,25.65,0,0,1-7.25-.45,12.69,12.69,0,0,1-5.46-2.16,6.84,6.84,0,0,1-1.26-1.32A20.85,20.85,0,0,1,110,76.9a11.5,11.5,0,0,1-1.41,1.48c.14.16.19.23.34.39,1.94,2.24,4,4.41,6.81,5.51a20.09,20.09,0,0,0,10.46.44,34.46,34.46,0,0,0,8.61-3.22,9.76,9.76,0,0,1-1.24-1.94,11.55,11.55,0,0,1-.8-4,15.37,15.37,0,0,1-1.52,1.28Z"/><path class="cls-6" d="M134.85,81.5a34.46,34.46,0,0,1-8.61,3.22,20.09,20.09,0,0,1-10.46-.44c-2.86-1.1-4.87-3.27-6.81-5.51-.15-.16-.2-.23-.34-.39l-.08-.09A19,19,0,0,1,107,79.44c-1.5,1-3.6,2.15-5.71,3.3a74.23,74.23,0,0,1,8.28,8,23.25,23.25,0,0,1,4.31,8,36.44,36.44,0,0,1,1.55,8.82c.22,3.26.16,7,.1,10.68l6.18.72a85.83,85.83,0,0,1-.07-9.46,27.54,27.54,0,0,1,1.65-7.94,23.37,23.37,0,0,1,3.55-6.27,44.11,44.11,0,0,1,4.62-4.65,29.48,29.48,0,0,0,4.1-4.44,4.75,4.75,0,0,0,.82-3C135.84,82.67,135.32,82.09,134.85,81.5Z"/><path class="cls-16" d="M135.54,86.28a29.48,29.48,0,0,1-4.1,4.44,44.11,44.11,0,0,0-4.62,4.65,23.37,23.37,0,0,0-3.55,6.27,27.54,27.54,0,0,0-1.65,7.94,85.83,85.83,0,0,0,.07,9.46l6.11.72,1.92.23a44.63,44.63,0,0,1,2.75-7.25,72,72,0,0,1,5.41-8.82,70.35,70.35,0,0,1,6.59-8.11c2.38-2.49,5-4.78,7-6.71l.43-.42a15.16,15.16,0,0,0,3.32-4.07c.37-1-.25-1.41-1.52-2.17s-3.21-1.86-6.34-3.6-7.48-4.13-11.82-6.51a23.5,23.5,0,0,1-2.74,3.22,11.55,11.55,0,0,0,.8,4,9.76,9.76,0,0,0,1.24,1.94c.47.59,1,1.17,1.51,1.74a4.75,4.75,0,0,1-.82,3Z"/><path class="cls-16" d="M101.27,82.74c2.11-1.15,4.21-2.3,5.71-3.3a19,19,0,0,0,1.57-1.15A14,14,0,0,0,110,76.9h0a22.25,22.25,0,0,0,1.49-1.84,14.86,14.86,0,0,1-1.65-3c-.42-.93-.84-2-1.23-3C102.4,72.24,96.14,75.43,92.84,77s-3.64,1.49-2.77,2.38,2.66,2.45,4.65,4.46c.17.17.34.34.5.52A41.46,41.46,0,0,1,101.28,92a34.92,34.92,0,0,1,3.43,8.55,60.07,60.07,0,0,1,1.6,8.19c.36,2.77.59,5.45.83,8.38,2.25.24,5.26.58,8.37.94.06-3.71.12-7.18-.1-10.44a36.44,36.44,0,0,0-1.55-8.82,23.25,23.25,0,0,0-4.31-8,74.23,74.23,0,0,0-8.28-8Z"/><path class="cls-14" d="M104.74,169.71c-4.33-.47-9.29-1.39-14.26-2.31-2.87-5.35-5.72-10.7-6.79-15.59q.09,6.58.19,13.18c0,2.22.06,4.27.1,6.49a11.31,11.31,0,0,0,3.13,2.84c2.13,1.41,1,14.67,4.71,15s12.84-11.06,15.32-11.43l4.63-6.55.79-1.11c-2,0-4.75-.16-7.82-.5Z"/><path class="cls-12" d="M111.77,171.32l-4.63,6.55a30.08,30.08,0,0,0,3.92-.83,9.91,9.91,0,0,0,2.65-1.09l.53-.45a1.24,1.24,0,0,0,.37-1.15C114.41,173.38,113.09,172.35,111.77,171.32Z"/><path class="cls-4" d="M166.79,173.94a54.47,54.47,0,0,1,8.53,7.86,83.89,83.89,0,0,1,12.44,19.72,96.4,96.4,0,0,1,6.69,20.3,14,14,0,0,0,5.76,2.57,36.43,36.43,0,0,0,6.21.85c3.08.26,6.14.25,8.77.21a32.56,32.56,0,0,0,6.19-.58c4.09-5.44,8.17-10.87,10.25-13.59s2.14-2.72,5.32-9,9.45-18.88,12.29-28.21,2.25-15.39-.6-20-7.93-7.68-12.25-9.37a29,29,0,0,0-11.77-1.92,60.9,60.9,0,0,0-12.69,1.46A68,68,0,0,0,198.11,149a63.45,63.45,0,0,0-11,6.75c-3,2.3-5.52,4.5-8,6.52s-4.9,3.87-7,5.79a65.19,65.19,0,0,0-5.41,5.89Z"/><path class="cls-6" d="M124.67,174.61c-.53-2.72-1.07-5.44-1.6-8.16l-4.75,2.72a10.78,10.78,0,0,1-1.77.9q0,4.94,0,9.85c2.76-2,5.48-3.78,8.1-5.31Z"/><path class="cls-16" d="M123.07,166.45c.53,2.72,1.07,5.44,1.6,8.16.93-.55,1.85-1.05,2.75-1.52q2.28-1.16,4.41-2c-.37-3-.75-6.08-1.12-9.11a25.21,25.21,0,0,1-2.89,1.75Z"/><path class="cls-16" d="M116.57,179.92q0-4.92,0-9.85a5.74,5.74,0,0,1-2,.17l-2,0-.79,1.11c1.32,1,2.64,2.06,2.84,3a1.24,1.24,0,0,1-.37,1.15,2.76,2.76,0,0,1-.53.45,26.09,26.09,0,0,0-5.19,5.31h0a32.34,32.34,0,0,0-3.28,7.72c1-1,2-2,3-3,2.78-2.09,5.56-4.17,8.29-6.12Z"/><path class="cls-17" d="M100.65,133.42c0-1.42,0-2.84,0-4.21-1.11.75-2.23,1.49-2.24,2.22S99.17,132.6,100.65,133.42Z"/><path class="cls-9" d="M129.77,143.65c-1.24.41-4.66,1.56-5.8,2s-1.14.61-4,.31-8.49-1-11.33-1.41l-2.83-.38,10,3.15c2,.63,2,.63,2.81.63a30.24,30.24,0,0,0,4.63-.32,54.41,54.41,0,0,0,6.56-1.48c.15-.86.44-1.83.53-2.7-.1,0,.68-.23-.57.18Z"/><path class="cls-9" d="M130.89,153.49c-3.9.77-10.39,1.52-13.64,1.9s-3.24.38-4.83,0c2,.76,4.09,1.52,5.87,2a7.91,7.91,0,0,0,5.11,0C125.23,156.75,129.05,154.27,130.89,153.49Z"/><path class="cls-11" d="M223.65,80.57c3.77,0,10-.91,16.21-1.87-5.42,1.06-10.85,2.11-13.63,3.12s-2.95,2-2.56,2.87,1.31,1.76,4.69,1.74a101.81,101.81,0,0,0,12.14-1.37l2.87-.43c2.59-.68,5.18-1.36,5.64-2.38s-1.23-2.4-2.1-3.21-.94-1.07-.29-1.39,2-.72,2-1.31-1.4-1.37-2.09-1.76-.7-.39-.5-.52a7.48,7.48,0,0,0,1.21-1c.63-.61,1.5-1.58,1.34-2.6a6,6,0,0,0-1.75-2.51c-.38-.41,0-.18.38-.26s.59-.5.83-1.15a6.65,6.65,0,0,0,.44-2.42c0-.87-.31-1.72-3-2.58-.42-.14-.91-.28-1.45-.42-2.78-.72-6.81-1.42-10.05-1.88-3.87-.56-6.6-.79-8.13-.89s-1.85-.06-2.25.5a3.27,3.27,0,0,0-.62,2.53,4.23,4.23,0,0,0,1.76,1.93c.5.35.5.35,3.35.68s8.55,1,11,1.56,1.53,1.11-1.67,1.27-8.71,0-14.21-.19c-1.61,0-3.21-.05-4,.85a3.73,3.73,0,0,0,0,3.91c.64,1.07,1.81,1.62,4.66,1.64-1.85.27-3.7.55-4.81,1.45a3.32,3.32,0,0,0-1,3.72c.48,1.29,1.81,2.33,5.59,2.38Z"/><path class="cls-18" d="M215.88,77.65c-.34,5.14-.34,5.14-.19,5.53A4.08,4.08,0,0,0,216.9,85a11.47,11.47,0,0,0,3.65,1.68,32.88,32.88,0,0,0,6.24,1.39,57.8,57.8,0,0,0,7.91.39,11.57,11.57,0,0,0,3.51-.51,2.68,2.68,0,0,0,1.51-.85,6.78,6.78,0,0,0,.78-2,101.81,101.81,0,0,1-12.14,1.37c-3.38,0-4.3-.84-4.69-1.74s-.23-1.86,2.56-2.87,8.21-2.06,13.63-3.12c-6.22,1-12.44,1.91-16.21,1.87s-5.11-1.09-5.59-2.38a3.32,3.32,0,0,1,1-3.72c1.11-.9,3-1.18,4.81-1.45-2.85,0-4-.57-4.66-1.64a3.73,3.73,0,0,1,0-3.91c.77-.9,2.37-.87,4-.85,5.5.18,11,.36,14.21.19s4.08-.68,1.67-1.27-8.1-1.24-11-1.56-2.85-.33-3.35-.68A4.23,4.23,0,0,1,223,61.37a3.27,3.27,0,0,1,.62-2.53c.4-.56.72-.6,2.25-.5s4.26.33,8.13.89c3.24.46,7.27,1.16,10.05,1.88.37-2.31.75-4.63,1.12-7-2.51.63-8.1.72-14.55.15a65.86,65.86,0,0,1-13.08-2.25c-.55,8.3-1.1,16.59-1.46,22.16-.09,1.3-.17,2.46-.23,3.43Z"/><g class="cls-19"><g id="_2363533470832" data-name=" 2363533470832"><ellipse class="cls-20" cx="230.37" cy="69.78" rx="8.81" ry="8.28"/></g></g><path class="cls-3" d="M215.88,77.65c-.34,5.14-.34,5.14-.19,5.53A4.08,4.08,0,0,0,216.9,85a11.47,11.47,0,0,0,3.65,1.68,32.88,32.88,0,0,0,6.24,1.39,57.8,57.8,0,0,0,7.91.39,11.57,11.57,0,0,0,3.51-.51,2.68,2.68,0,0,0,1.51-.85,6.78,6.78,0,0,0,.78-2,101.81,101.81,0,0,1-12.14,1.37c-3.38,0-4.3-.84-4.69-1.74s-.23-1.86,2.56-2.87,8.21-2.06,13.63-3.12c-6.22,1-12.44,1.91-16.21,1.87s-5.11-1.09-5.59-2.38a3.32,3.32,0,0,1,1-3.72c1.11-.9,3-1.18,4.81-1.45-2.85,0-4-.57-4.66-1.64a3.73,3.73,0,0,1,0-3.91c.77-.9,2.37-.87,4-.85,5.5.18,11,.36,14.21.19s4.08-.68,1.67-1.27-8.1-1.24-11-1.56-2.85-.33-3.35-.68A4.23,4.23,0,0,1,223,61.37a3.27,3.27,0,0,1,.62-2.53c.4-.56.72-.6,2.25-.5s4.26.33,8.13.89c3.24.46,7.27,1.16,10.05,1.88.37-2.31.75-4.63,1.12-7-2.51.63-8.1.72-14.55.15a65.86,65.86,0,0,1-13.08-2.25c-.55,8.3-1.1,16.59-1.46,22.16-.09,1.3-.17,2.46-.23,3.43Z"/><path class="cls-4" d="M218.6,52.63a64.43,64.43,0,0,0,12.91,2.25c6.35.57,11.87.48,14.35-.15.86-.21,1.35-.49,1.38-.83v0c0-1-4.29-2.31-10.32-3.17-1.63-.06-3.38-.17-5.2-.33s-3.44-.35-5-.58c-6.05-.21-10.44.28-10.53,1.31,0,.48.85,1,2.41,1.53Z"/></g><g id="Слой_1_0" data-name="Слой_1 0"><path class="cls-21" d="M101.78,134a39.3,39.3,0,0,0,9.08,3.52,24.82,24.82,0,0,0,10.44,0c3.39-.71,6.59-2.07,9-2.26l.59,0c.71-4.95,1.41-9.91,1.76-12.38.3-2.13.34-2.43-3-2.86l-1.92-.23-6.11-.72-6.18-.72-8.35-.94-.49,0c-5.35-.58-5.64-.52-5.79,2.24v.05c-.07,1.21-.11,2.91-.14,4.91,0,1.44,0,3-.06,4.68,0,1.31,0,2.67,0,4v.19l1.13.6Z"/><g class="cls-22"><g id="_2363533469824" data-name=" 2363533469824"><path id="_1_0" data-name=" 1 0" class="cls-23" d="M110.08,132.69a4.2,4.2,0,0,0-1.43,1.56,4.36,4.36,0,0,0-.45,2.19,6.07,6.07,0,0,0,.62,2.08,14.07,14.07,0,0,0,1,1.94,4.06,4.06,0,0,0,1.16,1.26,2.79,2.79,0,0,0,1.47.52c.5,0,1-.21,1.35-.17a5.1,5.1,0,0,1,1.11.46,1.78,1.78,0,0,0,1.47-.21,8.21,8.21,0,0,0,2.47-1.77,5.61,5.61,0,0,0,1.29-2.5,3.81,3.81,0,0,0,0-1.51c0-.27,0-.3-.3-.14a3.76,3.76,0,0,1-1.41.59,2,2,0,0,1-1.72-.56,1.7,1.7,0,0,1-.23-1.75,2.22,2.22,0,0,1,1.33-1.11,2.08,2.08,0,0,1,1.09,0c.21,0,.23,0,.11-.08s-.38-.38-.67-.62a3.65,3.65,0,0,0-1.11-.65,7.64,7.64,0,0,0-2.11-.47,10.62,10.62,0,0,0-2.87.09,5.72,5.72,0,0,0-2.2.9Z"/><path class="cls-23" d="M113.52,130.39a1,1,0,0,1-.12-.87,1,1,0,0,1,.52-.63,2,2,0,0,1,1-.27,2.87,2.87,0,0,1,.92.18c.18.06.19.08.09.2l-.49.59a8,8,0,0,1-.55.66,1.09,1.09,0,0,1-.62.34.8.8,0,0,1-.73-.2Z"/></g></g><path class="cls-3" d="M101.78,134a39.3,39.3,0,0,0,9.08,3.52,24.82,24.82,0,0,0,10.44,0c3.39-.71,6.59-2.07,9-2.26l.59,0c.71-4.95,1.41-9.91,1.76-12.38.3-2.13.34-2.43-3-2.86l-1.92-.23-6.11-.72-6.18-.72-8.35-.94-.49,0c-5.35-.58-5.64-.52-5.79,2.24v.05c-.07,1.21-.11,2.91-.14,4.91,0,1.44,0,3-.06,4.68,0,1.31,0,2.67,0,4v.19l1.13.6Z"/><path class="cls-24" d="M7.05,278.28l79.77-60.93a66.26,66.26,0,0,1,4.22-11,95.77,95.77,0,0,1-14.47,8.19,46.61,46.61,0,0,1-17,3.94c-5.69.09-10.9-1.51-16.23-3.26s-11.78-4.95-15.18-8.45-4.67-5.31-7-10.7-5.36-12.85-6-16.41-.67-3.61-.89-4.51c-3.45,15.74-6.43,29.87-8.88,44.1a169.62,169.62,0,0,0-2.19,38.4,78.76,78.76,0,0,0,3.88,20.59Z"/><path class="cls-7" d="M152.29,167.27a28.58,28.58,0,0,1,8.81,3.06,44.86,44.86,0,0,1,5.69,3.61,65.19,65.19,0,0,1,5.41-5.89c2.06-1.92,4.5-3.77,7-5.79s4.93-4.22,8-6.52a63.45,63.45,0,0,1,11-6.75,68,68,0,0,1,13.82-4.74,60.9,60.9,0,0,1,12.69-1.46,29.51,29.51,0,0,1,10.33,1.4c1.78-5.91,3.55-11.82,4.62-16.66a64,64,0,0,0,1.55-13.85c.09-5.21-.09-11.84,1-16.19s3.56-6.42,2.21-6.74a14.39,14.39,0,0,0-4.12.49c-2,.4-4.41.92-6.56,1.24a31.71,31.71,0,0,1-10.48-.12,61.17,61.17,0,0,1-8.2-2.23c-2.52-.82-4.85-1.6-4.87-.25s2.29,4.83,3.7,9.5,1.91,10.53-2.18,18-12.8,16.55-17.26,20.51-4.69,2.81-4.91,1.66c-.28-1.66-.56-3.32-.91-5s-.86-3.63-1.81-8-2.38-11.26-5.08-17A32,32,0,0,0,169.88,96c-5.14-3.32-11.46-5.43-17.77-7.55l-.2.19-.43.42c-2,1.93-4.63,4.22-7,6.71a70.35,70.35,0,0,0-6.59,8.11,72,72,0,0,0-5.41,8.82,42.2,42.2,0,0,0-2.59,6.72l0,.09c0,.15-.09.29-.13.44,3.32.43,3.28.73,3,2.86-.35,2.47-1,7.43-1.76,12.38a5.85,5.85,0,0,1,4.6,2c1,1.2,1.3,2.62.21,3.72s-3.15,1.75-5.33,2.47c.22-.07-.15.05-.08,0-.09.87-.38,1.84-.53,2.7l.48-.14c2.17-.65,3.81-1.3,5.2-1.23a2.82,2.82,0,0,1,2.78,2,5.07,5.07,0,0,1-1.25,3.93c-.75,1-1.74,1.64-4.13,2.28a2.61,2.61,0,0,1,1.1.38,2.75,2.75,0,0,1,1.22,2.1,2,2,0,0,1,0,.6c-.12,1.2-1,2.93-3,4.69-.45.39-1,.79-1.51,1.18.37,3,.75,6.07,1.12,9.11a57.3,57.3,0,0,1,10.71-3,65,65,0,0,1,6.85-1,8,8,0,0,1,2.9.17Z"/><path class="cls-14" d="M215.69,83.18c-.15-.39-.15-.39.19-5.53.06-1,.14-2.13.23-3.43-1.31.45-2.61.9-2.52-.38s1.55-4.27,2.36-6.9,1-4.9-.69-4.32-5.11,4-7,7a12.44,12.44,0,0,0-2,8.45,23.23,23.23,0,0,0,2.1,7.92,6.91,6.91,0,0,0,3.19,3.17,19,19,0,0,1,3.47,1c1.93.63,7.75,2.05,10.74,2.58s3.17,14.65,6.35,14.18,6.14-15.25,8.15-15.65c1-2.21,2.09-4.41,3.13-6.61l-2.87.43a6.78,6.78,0,0,1-.78,2,2.68,2.68,0,0,1-1.51.85,11.57,11.57,0,0,1-3.51.51,57.8,57.8,0,0,1-7.91-.39,32.88,32.88,0,0,1-6.24-1.39A11.47,11.47,0,0,1,216.9,85a4.08,4.08,0,0,1-1.21-1.81Z"/><path class="cls-3" d="M100.55,160.77c5.12,1.54,10.25,3.09,12.88,3.74s2.78.4,4.95-.21,6.39-1.58,9.35-2.57a30,30,0,0,0,6.4-3"/><path class="cls-3" d="M98.28,150.42l14.19,5"/><path class="cls-3" d="M159.13,217.36a154.66,154.66,0,0,1-1.32,20.11,217,217,0,0,1-5,22.1"/><path class="cls-3" d="M80.82,166.4c-1,4.66-1.92,9.32-4.19,13.24a18.43,18.43,0,0,1-10.29,8.48c-4.46,1.42-9.82,1.07-15.18.72"/><polygon class="cls-25" points="216.79 46.76 247.63 49.48 247.16 53.99 216.33 51.27 216.79 46.76"/><path class="cls-9" d="M216.57,47c.84,2.32,12.42,3.38,15.52,3.66,2.52.22,15.58.64,15.74-1.17.12-1.32-7-3-15.53-3.78s-15.16-.36-15.76.84a.42.42,0,0,0,0,.45Z"/><path class="cls-3" d="M247.1,54.17c.18-1.56.35-3.12.53-4.69"/><circle class="cls-26" cx="115.12" cy="61.23" r="1.83"/><circle class="cls-26" cx="128.05" cy="62.18" r="1.83"/><path class="cls-3" d="M119.42,53c.53,1.6,1.06,3.19,1.37,4.58a9.1,9.1,0,0,1,.2,3.61,4.09,4.09,0,0,1-1.53,2.6,6.05,6.05,0,0,1-3,1c-.88.05-1.41-.17-1.86-.14a1,1,0,0,0-.89.67,1.38,1.38,0,0,0,.39,1.12c.28.31.64.47,1.58.54a14.94,14.94,0,0,0,3.5-.16,16.29,16.29,0,0,1,2.07-.56c.43,0,.71.51,1,1"/><path class="cls-3" d="M223.89,73l16.74-.24"/><ellipse class="cls-27" cx="221.06" cy="47.34" rx="0.63" ry="1.57" transform="translate(154.5 263.39) rotate(-84.97)"/><path class="cls-3" d="M151.31,265.67a1,1,0,0,1,.36-1.24,21.52,21.52,0,0,1,3-2"/><path class="cls-9" d="M151.67,264.43a1,1,0,0,0-.38,1.15h0a16.64,16.64,0,0,0,5.4.1c-.68-1.07-1.36-2.15-2-3.23A21.52,21.52,0,0,0,151.67,264.43Z"/><path class="cls-3" d="M225.33,219.61a8.86,8.86,0,0,1,2.5,1.49,7,7,0,0,1,1.32,2.32"/><path class="cls-9" d="M227.83,221.1a8.86,8.86,0,0,0-2.5-1.49l-4,5.26c1.11-.22,2.29-.49,3.82-.84l3.56-.81c.7-.16-.57-1.75-.93-2.12Z"/><path class="cls-28" d="M162.45,235a144,144,0,0,1-3.38-14.78,129.69,129.69,0,0,1-1.26,17.27c-1,6.53-3,14.57-5,22.1l1.82,2.88c.67,1.08,1.4,2,2.13,3,.19.07.74-.06,3.15-.69a82.71,82.71,0,0,0,15.34-6.19,46.82,46.82,0,0,1-6.89-9.12A75.19,75.19,0,0,1,162.45,235Z"/><path class="cls-29" d="M107.56,88.56A40.12,40.12,0,0,0,115.23,91a57.82,57.82,0,0,0,9.88,1,22.57,22.57,0,0,0,5.65-.62l.68-.62a40.68,40.68,0,0,0,3.34-3.43A31.35,31.35,0,0,1,126.89,89a42.49,42.49,0,0,1-12.29-.88,68.26,68.26,0,0,1-12.35-4.54c1.88,1.66,3.72,3.32,5.31,5Z"/><path class="cls-29" d="M119.89,94.88c-2.61-.28-5.2-.81-8.14-1.42a25,25,0,0,1,1.86,3.84c1.71.38,2.24.44,3.76.7a37.2,37.2,0,0,0,4.54.42,22.65,22.65,0,0,0,2.59,0c.61-1.08,1.86-2.86,2-3.13a1.53,1.53,0,0,1,.29-.38,48.3,48.3,0,0,1-6.92,0Z"/><path class="cls-29" d="M118.87,109.12c-1-.09-2.08-.3-3.21-.51,0,.84.06,1.69.07,2.54a25.24,25.24,0,0,0,2.94.44,18.52,18.52,0,0,0,2.6-.06c0-.81,0-1.6.09-2.38A17.51,17.51,0,0,1,118.87,109.12Z"/><path class="cls-29" d="M115.33,104.79a23,23,0,0,0,6.7.27c.14-.77.3-1.5.49-2.22a24.77,24.77,0,0,1-4.51.2,8.84,8.84,0,0,1-3-1c.15.88.27,1.79.36,2.74Z"/><path class="cls-29" d="M119,114.4c-1-.09-2-.29-3.14-.5,0,.84,0,1.67,0,2.52a25.24,25.24,0,0,0,2.94.44,15.9,15.9,0,0,0,2.54.13c0-.8-.12-1.78-.07-2.55a14.68,14.68,0,0,1-2.27,0Z"/><g class="cls-30"><path class="cls-23" d="M217.61,42.65a12.3,12.3,0,0,1-2.16-7,19.77,19.77,0,0,1,2.44-8.14,7.91,7.91,0,0,1,3.64-3.59,13.83,13.83,0,0,0,4-2.26,11.77,11.77,0,0,0,3.27-5.74,13,13,0,0,0-.41-6.8c-.65-1.86-1.66-3-1.73-4.44a8.86,8.86,0,0,1,1.24-4c.43-.84.43-.84.34-.27a6.46,6.46,0,0,0,0,2.71,9.68,9.68,0,0,0,2,3,28.75,28.75,0,0,1,2.94,4.48A16.37,16.37,0,0,1,235,16.68a12.69,12.69,0,0,1-1.19,6.7,13.65,13.65,0,0,1-3.93,4.43,19.39,19.39,0,0,0-2.53,1.84,2.63,2.63,0,0,0-.43,2.16,2,2,0,0,0,1.24,1.64,2.81,2.81,0,0,0,2.37-.9c.73-.69,1.23-1.71,1.91-2.42a8,8,0,0,1,2.29-1.52,4.69,4.69,0,0,0,2-1.55c.48-.76.73-1.87.59-4.65s-.65-7.22-.3-7.67,1.6,3.08,2.77,5.53,2.27,3.82,2.7,5.55a7.9,7.9,0,0,1-.62,5.39,8.7,8.7,0,0,1-3.58,3.31,23.06,23.06,0,0,0-3.15,1.74,1.83,1.83,0,0,0-.66,1.75c.1.46.42.66.6,1.39a2.53,2.53,0,0,1-.74,2.69,5.2,5.2,0,0,1-4.24.39c-1.29-.49-1.87-1.61-2.55-2.39s-1.44-1.24-2.11-1-1.27,1.2-1.87,1.62-1.22.29-1.7.44a1.4,1.4,0,0,0-.9,1.17,7.48,7.48,0,0,0,.22,2.49c.21,1.12.52,2.58-.11,2.29s-2.18-2.33-3.45-4.45Z"/></g><path class="cls-3" d="M155.23,286.67a5.89,5.89,0,0,1,1.66-2.91,12.79,12.79,0,0,1,4.58-2.61,9,9,0,0,1,3.63-.25l.67.08"/><path class="cls-3" d="M157.09,290.16a7.06,7.06,0,0,1,1.1-3.16,8.23,8.23,0,0,1,3.44-2.54,14.31,14.31,0,0,1,3.92-.87c1-.1,1.53-.13,2-.15"/><path class="cls-3" d="M155.16,286.46a10.89,10.89,0,0,0,1.51,3.3c.59.63,1.29.54,2.28.22a9.32,9.32,0,0,0,3.21-1.72c.93-.84,1.5-1.95,2.63-2.37s2.83-.14,4.53.13"/><path class="cls-31" d="M155.23,286.67a9.93,9.93,0,0,0,1.44,3.09,1.42,1.42,0,0,0,.43.33,6.9,6.9,0,0,1,1.09-3.09,8.23,8.23,0,0,1,3.44-2.54,14.31,14.31,0,0,1,3.92-.87c1-.1,1.53-.13,2-.15-.54-.75-1.16-1.58-1.83-2.46l-.67-.08a9,9,0,0,0-3.63.25,12.79,12.79,0,0,0-4.58,2.61,5.89,5.89,0,0,0-1.66,2.91Z"/><path class="cls-32" d="M158.19,287a6.9,6.9,0,0,0-1.09,3.09A2.43,2.43,0,0,0,159,290a9.32,9.32,0,0,0,3.21-1.72c.93-.84,1.5-1.95,2.63-2.37s2.83-.14,4.53.13l-.71-1.11c-.27-.42-.61-.92-1-1.47-.52,0-1,.05-2,.15a14.31,14.31,0,0,0-3.92.87,8.23,8.23,0,0,0-3.44,2.54Z"/><path class="cls-3" d="M83.88,165c-.4,0-.81-.07-1.2-.06a4.79,4.79,0,0,0-1,.15.91.91,0,0,0-.54.37,1.53,1.53,0,0,0-.23.7A2.15,2.15,0,0,0,81,167a7.23,7.23,0,0,0,.43,1c.19.37.42.77.61,1.09s.34.56.52.81a3.59,3.59,0,0,0,.6.7,3.88,3.88,0,0,0,.8.44"/><path class="cls-12" d="M83.88,165c-.4,0-.81-.07-1.2-.06a4.79,4.79,0,0,0-1,.15.91.91,0,0,0-.54.37,1.53,1.53,0,0,0-.23.7A2.15,2.15,0,0,0,81,167a7.23,7.23,0,0,0,.43,1c.19.37.42.77.61,1.09s.34.56.52.81a3.59,3.59,0,0,0,.6.7,3.88,3.88,0,0,0,.8.44l-.09-6Z"/><path class="cls-3" d="M80.75,287.6c4.74-.94,9.47-1.88,15.15-4.92a74.19,74.19,0,0,0,18.67-15.15,102,102,0,0,0,16.42-24c3.94-8.31,5.73-16.2,7.57-22s3.74-9.62,6.13-12,5.27-3.46,9.11-3.93,8.64-.38,11.72,1.51,4.44,5.57,5.44,9.68,1.63,8.62,2.32,13.2a76.31,76.31,0,0,0,2.85,13.38,67.85,67.85,0,0,0,5.69,11.64"/><path class="cls-3" d="M79.91,276.57c5.79-2.66,11.57-5.32,17.55-9.5A63.11,63.11,0,0,0,114,250.44c4.42-6.78,7.08-14.64,9.07-21.54s3.33-12.82,5.45-17.78a38.58,38.58,0,0,1,7.68-11.68,16.67,16.67,0,0,1,8.11-5,52.59,52.59,0,0,1,10-1.09c3.32-.18,6.35-.42,9.62,1a25.7,25.7,0,0,1,9.37,7.8,29.39,29.39,0,0,1,5.39,12c1.09,4.9,1.57,11,2.36,15.61a51.07,51.07,0,0,0,3.14,11.12c1.26,3.2,2.71,6.34,4.15,9.47"/><path class="cls-3" d="M140.64,66.94a3.24,3.24,0,0,0,1.31.89.89.89,0,0,0,.94-.67,1.86,1.86,0,0,0-.12-1.45,1.64,1.64,0,0,0-1.11-.58"/><path class="cls-3" d="M142.17,67.83a4.74,4.74,0,0,0,1.31-.23,1.38,1.38,0,0,0,.69-.68,2.33,2.33,0,0,0,.27-1,1.52,1.52,0,0,0-.25-1,1.75,1.75,0,0,0-.87-.56,2.75,2.75,0,0,0-.73-.09,3.35,3.35,0,0,1-.38,0c-.06,0-.06,0-.13.13s-.25.44-.42.73"/><path class="cls-33" d="M143,66.93a4,4,0,0,0,1.48-.86.41.41,0,0,0,0-.11,1.52,1.52,0,0,0-.25-1,1.75,1.75,0,0,0-.87-.56,2.75,2.75,0,0,0-.73-.09,3.35,3.35,0,0,1-.38,0c-.06,0-.06,0-.13.13s-.25.44-.42.73a1.64,1.64,0,0,1,1.11.58,1.78,1.78,0,0,1,.18,1.22Z"/><path class="cls-33" d="M144.43,66.07a4,4,0,0,1-1.48.86l-.06.23a1,1,0,0,1-.72.67,4.74,4.74,0,0,0,1.31-.23,1.38,1.38,0,0,0,.69-.68,2.35,2.35,0,0,0,.26-.85Z"/><ellipse class="cls-34" cx="215.58" cy="276.88" rx="1.51" ry="1.02"/><path class="cls-3" d="M217.42,273.21a6.49,6.49,0,0,0-1.88,1.73,3.71,3.71,0,0,0-.26,2.12"/><ellipse class="cls-34" cx="211.79" cy="276.61" rx="1.51" ry="1.02"/><path class="cls-3" d="M213.79,271.79a5.16,5.16,0,0,0-1.56,2,6.61,6.61,0,0,0,0,2.77"/><path class="cls-3" d="M213.64,271.71c.43-3.51,1.68-9.91,1.85-13.72s-.73-5.05-2-4.86-2.78,1.8-2.91,5.66,1.18,10,1.78,13,.51,2.92-3,1.43-10.56-4.39-13.75-7.56-2.55-6.6-1.21-8.29,3.37-1.61,5-.72,3,2.59,5.35,6,5.75,8.63,7.26,10.91,1.14,1.66,1.58-1.86Z"/><ellipse class="cls-35" cx="213.96" cy="247.94" rx="0.92" ry="0.49"/><path class="cls-3" d="M216.41,246.81a5,5,0,0,0-1.7.28,1.62,1.62,0,0,0-.75.87"/><ellipse class="cls-35" cx="216.14" cy="249.05" rx="0.72" ry="0.39"/><path class="cls-3" d="M218.17,248.07a2.46,2.46,0,0,0-1.24,0,3.08,3.08,0,0,0-1,.82"/><ellipse class="cls-36" cx="215.28" cy="277.06" rx="0.27" ry="0.09"/><ellipse class="cls-36" cx="212.23" cy="276.57" rx="0.29" ry="0.09"/><path class="cls-37" d="M215.08,247c1.2-.95,3.61-2.56,4.43-3.85a1.67,1.67,0,0,0-.73-2.61c-.8-.36-1.67-.12-2.49,1.2a27.49,27.49,0,0,0-2,4.86c-.39,1.16-.41,1.11-.87,0a35.89,35.89,0,0,1-1.86-4.88c-.47-1.74-.48-3.15.25-3.58a2.52,2.52,0,0,1,2.76.9c.54.79.16,1.85-.11,3.47s-.42,3.8-.5,4.74-.09.66,1.12-.3Z"/><path class="cls-24" d="M149.79,152.78c-3.48,3.15-10.14,8.64-18,14.42.12.93.25,2.64.37,3.57a48.89,48.89,0,0,1,10.38-2.67c3.25-.62,5.75-.9,6.85-1a8,8,0,0,1,2.9.17,28.58,28.58,0,0,1,8.81,3.06,44.86,44.86,0,0,1,5.69,3.61,65.19,65.19,0,0,1,5.41-5.89c.86-.8,1.78-1.58,2.74-2.38a57.35,57.35,0,0,1-6.48-1.41,29.47,29.47,0,0,1-6.67-2.83,17.21,17.21,0,0,1-5.2-4.75,40.86,40.86,0,0,1-3.54-6.08c-.68-1.42.22-1-3.26,2.18Z"/><path class="cls-38" d="M116.39,179.81c0-1-.13-1.35-.13-2.37-2.75,1.56-5.63,4-8.37,5.56-1.34,2.12-1,2.22-1.9,4.84,1-1,1.32-1.17,2.34-2.15a84.94,84.94,0,0,1,8.06-5.89Z"/><path class="cls-39" d="M116.8,177c0,1,.06,1.36.06,2.39a87.24,87.24,0,0,1,7.53-4.75c-.14-.72-.23-1.32-.37-2C121.45,174.05,119.36,175.52,116.8,177Z"/><path class="cls-38" d="M124.5,172.31c.14.72.22,1.28.36,2,.93-.54,1.29-.72,2.5-1.34s2.77-1.45,4.19-2c-.11-.93-.4-2.27-.51-3.2-.76.43-1.4,1-2.06,1.46C127.52,170.24,126.14,171.21,124.5,172.31Z"/><path class="cls-3" d="M255.7,322.16c.69-2.38,1.39-4.76,2.08-7.14"/><path class="cls-3" d="M262.37,321.28,267,308.53"/></g></svg>