<svg width="249" height="194" viewBox="0 0 249 194" fill="none" xmlns="http://www.w3.org/2000/svg">
<path d="M72.1562 77.1688C72.2109 71.0722 72.2659 64.9754 71.8418 57.306C71.4175 49.6365 70.5144 40.3939 70.0782 35.1517C69.6418 29.9091 69.6725 28.6666 69.4883 26.0382C69.3041 23.4098 68.9054 19.3954 68.8901 16.5918C68.8746 13.7882 69.2431 12.1951 70.4953 10.9208C71.7474 9.64655 73.8833 8.69058 75.8477 8.75658C77.8122 8.82233 79.6047 9.91005 80.7316 11.2787C81.8584 12.6472 82.3191 14.297 82.78 15.9467" stroke="#2B2A29" stroke-width="0.755906" stroke-miterlimit="22.9256"/>
<path d="M104.646 156.439C106.912 160.826 109.178 165.213 115.087 169.915C120.995 174.616 130.546 179.632 141.87 182.878C153.195 186.124 166.293 187.599 178.618 186.911C190.943 186.222 202.494 183.37 212.363 179.879C222.232 176.387 230.419 172.256 235.603 168.862C240.788 165.469 242.971 162.814 244.927 159.568C246.882 156.322 248.611 152.486 247.792 148.945C246.973 145.404 243.608 142.158 240.606 139.995C237.605 137.831 234.967 136.749 231.692 136.011C228.418 135.274 224.506 134.88 220.459 135.224C216.411 135.569 212.227 136.651 208.134 138.077C204.041 139.503 200.038 141.273 195.036 142.65C190.033 144.027 184.03 145.011 179.345 144.568C174.661 144.126 171.296 142.257 168.203 139.454C165.11 136.651 162.291 132.913 160.108 128.929C157.924 124.946 156.378 120.717 155.783 115.609C155.187 110.501 155.542 104.514 156.379 99.3169C157.216 94.119 158.535 89.7099 160.094 85.3658C161.653 81.0215 163.452 76.742 165.937 71.8251C168.423 66.9082 171.595 61.3536 172.584 57.0744C173.573 52.7948 172.38 49.7908 169.655 48.5481C166.929 47.3053 162.672 47.8241 159.314 50.0934C155.956 52.3627 153.498 56.3829 151.828 59.5582C150.158 62.7333 149.275 65.0637 148.076 67.8578C146.877 70.6517 145.361 73.9091 144.296 77.4194C143.232 80.9296 142.619 84.6928 142.222 87.312C141.825 89.9312 141.643 91.4064 141.461 92.8818" stroke="#FECC00" stroke-width="1.33342" stroke-miterlimit="22.9256"/>
<path d="M115.399 25.6512C116.063 21.197 116.726 16.7428 118.213 14.11C119.699 11.4769 122.009 10.6653 124.343 10.6755C126.677 10.6852 129.036 11.5172 130.598 12.5176C132.16 13.5177 132.926 14.6862 133.458 16.586C133.991 18.4858 134.289 21.1169 134.212 24.0348C134.135 26.9522 133.682 30.1564 132.832 35.3399C131.983 40.5233 130.738 47.6857 129.493 54.8482" stroke="#FECC00" stroke-width="1.33342" stroke-miterlimit="22.9256"/>
<path d="M141.356 91.74C142.106 85.8499 142.855 79.96 143.763 74.3987C144.672 68.8373 145.739 63.605 146.713 58.6456C147.688 53.686 148.571 48.9991 149.752 44.7278C150.934 40.4563 152.414 36.5997 153.107 33.2162C153.8 29.8325 153.707 26.9214 152.217 24.8377C150.728 22.7542 147.842 21.4981 145.181 21.8225C142.52 22.1464 140.084 24.0511 137.503 29.6561C134.92 35.2608 132.192 44.5662 129.464 53.8714" stroke="#FECC00" stroke-width="1.33342" stroke-miterlimit="22.9256"/>
<path fill-rule="evenodd" clip-rule="evenodd" d="M120.757 122.834C124.157 112.67 125.757 102.867 127.023 93.497C128.29 84.1263 129.223 75.1886 129.49 66.1785C129.603 62.3466 129.596 58.5016 129.494 54.8488C129.485 54.5213 129.475 54.1954 129.464 53.8713C129.314 49.3081 129.017 45.08 128.623 41.599C127.89 35.1118 126.823 31.2192 125.09 28.5522C123.357 25.8852 120.957 24.4438 118.891 24.8043C117.709 25.0106 116.635 25.8064 115.746 27.1246C115.631 26.633 115.516 26.1417 115.4 25.6518C114.408 21.4703 113.335 17.4157 111.496 14.5735C109.442 11.3985 106.431 9.73646 104.126 9.56322C101.82 9.38998 100.219 10.706 99.087 13.0377C99.0399 13.135 98.9935 13.2338 98.9479 13.3344C98.6915 9.49481 98.1168 5.69908 96.7144 3.67724C93.9009 -0.379548 85.6691 0.248377 84.0683 5.05635C83.1268 7.88397 83.3111 8.22876 83.0535 10.2906C82.7959 12.3525 82.8058 13.5414 82.7802 15.9471C82.3193 14.2974 81.8586 12.6476 80.7318 11.2791C79.605 9.91044 77.8124 8.82272 75.8479 8.75697C73.8835 8.69097 71.7476 9.64694 70.4956 10.9212C69.2433 12.1955 68.8749 13.7886 68.8903 16.5922C68.9056 19.3958 69.3043 23.4102 69.4885 26.0386C69.6728 28.667 69.642 29.9095 70.0784 35.152C70.5146 40.3943 71.4178 49.6369 71.8421 57.3064C72.2661 64.9757 72.2112 71.0726 72.1564 77.1691C71.9132 72.1809 70.9143 66.0418 69.5805 60.4623C68.2466 54.8825 66.5779 49.8623 64.5912 47.0958C62.6045 44.3291 60.2997 43.8161 58.5217 44.1165C56.7437 44.4167 55.4926 45.5306 54.6543 46.7602C53.8158 47.9899 53.3906 49.3355 53.7022 51.3379C54.0139 53.3404 55.0624 55.9994 56.1973 59.2851C57.3323 62.5705 58.5531 66.4827 59.6954 71.4241C60.8375 76.3655 61.9007 82.3362 62.099 88.3491C62.2974 94.362 61.631 100.417 60.0978 106.327C58.5646 112.238 56.1648 118.004 50.5656 123.627C44.9662 129.249 36.1671 134.727 29.0347 136.313C21.9021 137.899 16.4362 135.592 12.3033 135.736C8.17046 135.88 5.37063 138.475 3.43759 142.8C1.50456 147.125 0.438078 153.18 1.30464 159.234C2.17119 165.289 4.97102 171.344 9.77052 177.038C14.5698 182.733 21.369 188.067 30.0346 190.878C38.7001 193.689 49.2323 193.977 57.4981 192.608C65.7636 191.238 71.7631 188.211 77.0291 185.256C82.2951 182.3 86.828 179.417 91.6942 174.227C95.838 169.808 100.224 163.715 104.645 156.439C105.416 155.171 106.187 153.868 106.959 152.531C112.158 143.521 117.358 132.997 120.757 122.834Z" stroke="#FECC00" stroke-miterlimit="22.9256"/>
<path d="M82.7793 15.947C83.5081 22.6713 84.2369 29.3958 85.0327 36.2336C85.8286 43.0715 86.6918 50.0231 86.8787 57.2156C87.0654 64.4082 86.5758 71.8421 86.1477 76.3856C85.7196 80.9291 85.3525 82.5822 84.9856 84.2355" stroke="#FECC00" stroke-width="1.33342" stroke-miterlimit="22.9256"/>
<path d="M98.9482 13.3338C99.7066 20.0364 100.465 26.7391 100.947 32.785C101.429 38.8309 101.636 44.2202 101.825 50.7057C102.014 57.1912 102.186 64.7732 101.928 70.9428C101.67 77.1124 100.983 81.8697 100.295 86.627" stroke="#FECC00" stroke-width="1.33342" stroke-miterlimit="22.9256"/>
<path d="M115.574 26.3876C115.998 36.6298 116.421 46.8722 116.233 56.3443C116.046 65.8161 115.246 74.5178 114.447 83.2195" stroke="#FECC00" stroke-width="1.33342" stroke-miterlimit="22.9256"/>
</svg>
