<svg width="249" height="200" viewBox="0 0 249 200" fill="none" xmlns="http://www.w3.org/2000/svg">
<path d="M104.646 162.44C106.912 166.827 109.178 171.213 115.087 175.915C120.995 180.616 130.546 185.633 141.87 188.878C153.195 192.124 166.293 193.599 178.618 192.911C190.943 192.222 202.494 189.37 212.363 185.879C222.232 182.387 230.419 178.256 235.603 174.862C240.788 171.469 242.971 168.814 244.927 165.568C246.882 162.322 248.611 158.486 247.792 154.945C246.973 151.404 243.608 148.159 240.606 145.995C237.605 143.831 234.967 142.749 231.692 142.011C228.418 141.274 224.506 140.88 220.459 141.224C216.411 141.569 212.227 142.651 208.134 144.077C204.041 145.503 200.038 147.273 195.036 148.65C190.033 150.028 184.03 151.011 179.345 150.568C174.661 150.126 171.296 148.257 168.203 145.454C165.11 142.651 162.291 138.913 160.108 134.93C157.924 130.946 156.378 126.717 155.783 121.609C155.187 116.501 155.542 110.515 156.379 105.317C157.216 100.119 158.535 95.71 160.094 91.3659C161.653 87.0216 163.452 82.7421 165.937 77.8252C168.423 72.9083 171.595 67.3538 172.584 63.0745C173.573 58.795 172.38 55.791 169.655 54.5482C166.929 53.3054 162.672 53.8242 159.314 56.0935C155.956 58.3628 153.498 62.383 151.828 65.5583C150.158 68.7334 149.275 71.0638 148.076 73.858C146.877 76.6519 145.361 79.9092 144.296 83.4196C143.232 86.9297 142.619 90.6929 142.222 93.3121C141.825 95.9313 141.643 97.4065 141.461 98.8819" stroke="#FECC00" stroke-width="1.33342" stroke-miterlimit="22.9256"/>
<path d="M115.399 31.6513C116.063 27.1971 116.726 22.7429 118.213 20.1101C119.699 17.477 122.009 16.6654 124.343 16.6756C126.677 16.6853 129.036 17.5173 130.598 18.5177C132.16 19.5178 132.926 20.6863 133.458 22.5861C133.991 24.4859 134.289 27.117 134.212 30.0349C134.135 32.9523 133.682 36.1565 132.832 41.34C131.983 46.5234 130.738 53.6858 129.493 60.8483" stroke="#FECC00" stroke-width="1.33342" stroke-miterlimit="22.9256"/>
<path d="M141.356 97.74C142.106 91.8499 142.855 85.96 143.763 80.3987C144.672 74.8373 145.739 69.605 146.713 64.6456C147.688 59.686 148.571 54.9991 149.752 50.7278C150.934 46.4563 152.414 42.5997 153.107 39.2162C153.8 35.8325 153.707 32.9214 152.217 30.8377C150.728 28.7542 147.842 27.4981 145.181 27.8225C142.52 28.1464 140.084 30.0511 137.503 35.6561C134.92 41.2608 132.192 50.5662 129.464 59.8714" stroke="#FECC00" stroke-width="1.33342" stroke-miterlimit="22.9256"/>
<path fill-rule="evenodd" clip-rule="evenodd" d="M120.757 128.834C124.157 118.67 125.757 108.867 127.023 99.497C128.29 90.1263 129.223 81.1886 129.49 72.1785C129.603 68.3466 129.596 64.5016 129.494 60.8488C129.485 60.5213 129.475 60.1954 129.464 59.8713C129.314 55.3081 129.017 51.08 128.623 47.599C127.89 41.1118 126.823 37.2192 125.09 34.5522C123.357 31.8852 120.957 30.4438 118.891 30.8043C117.709 31.0106 116.635 31.8064 115.746 33.1246C115.631 32.633 115.516 32.1417 115.4 31.6518C114.408 27.4703 113.335 23.4157 111.496 20.5735C109.442 17.3985 106.431 15.7365 104.126 15.5632C101.82 15.39 100.219 16.706 99.087 19.0377C99.0399 19.135 98.9935 19.2338 98.9479 19.3344C98.6915 15.4948 98.1168 11.6991 96.7144 9.67724C93.9009 5.62045 85.6691 6.24838 84.0683 11.0563C83.1268 13.884 83.3111 14.2288 83.0535 16.2906C82.7959 18.3525 82.8058 19.5414 82.7802 21.9471C82.3193 20.2974 81.8586 18.6476 80.7318 17.2791C79.605 15.9104 77.8124 14.8227 75.8479 14.757C73.8835 14.691 71.7476 15.6469 70.4956 16.9212C69.2433 18.1955 68.8749 19.7886 68.8903 22.5922C68.9056 25.3958 69.3043 29.4102 69.4885 32.0386C69.6728 34.667 69.642 35.9095 70.0784 41.152C70.5146 46.3943 71.4178 55.6369 71.8421 63.3064C72.2661 70.9757 72.2112 77.0726 72.1564 83.1691C71.9132 78.1809 70.9143 72.0418 69.5805 66.4623C68.2466 60.8825 66.5779 55.8623 64.5912 53.0958C62.6045 50.3291 60.2997 49.8161 58.5217 50.1165C56.7437 50.4167 55.4926 51.5306 54.6543 52.7602C53.8158 53.9899 53.3906 55.3355 53.7022 57.3379C54.0139 59.3404 55.0624 61.9994 56.1973 65.2851C57.3323 68.5705 58.5531 72.4827 59.6954 77.4241C60.8375 82.3655 61.9007 88.3362 62.099 94.3491C62.2974 100.362 61.631 106.417 60.0978 112.327C58.5646 118.238 56.1648 124.004 50.5656 129.627C44.9662 135.249 36.1671 140.727 29.0347 142.313C21.9021 143.899 16.4362 141.592 12.3033 141.736C8.17046 141.88 5.37063 144.475 3.43759 148.8C1.50456 153.125 0.438078 159.18 1.30464 165.234C2.17119 171.289 4.97102 177.344 9.77052 183.038C14.5698 188.733 21.369 194.067 30.0346 196.878C38.7001 199.689 49.2323 199.977 57.4981 198.608C65.7636 197.238 71.7631 194.211 77.0291 191.256C82.2951 188.3 86.828 185.417 91.6942 180.227C95.838 175.808 100.224 169.715 104.645 162.439C105.416 161.171 106.187 159.868 106.959 158.531C112.158 149.521 117.358 138.997 120.757 128.834Z" stroke="#FECC00" stroke-miterlimit="22.9256"/>
<path d="M98.9482 19.3337C99.7066 26.0364 100.465 32.7391 100.947 38.785C101.429 44.8308 101.636 50.2201 101.825 56.7057C102.014 63.1912 102.186 70.7732 101.928 76.9428C101.67 83.1124 100.983 87.8697 100.295 92.6269" stroke="#FECC00" stroke-width="1.33342" stroke-miterlimit="22.9256"/>
<path d="M115.574 32.3877C115.998 42.6299 116.421 52.8723 116.233 62.3443C116.046 71.8162 115.246 80.5179 114.447 89.2196" stroke="#FECC00" stroke-width="1.33342" stroke-miterlimit="22.9256"/>
<path d="M103 1L108.759 13.2598" stroke="#FFC300" stroke-linecap="round"/>
<path d="M115 1V14" stroke="#FFC300" stroke-linecap="round"/>
<path d="M127.787 1L121 13.8623" stroke="#FFC300" stroke-linecap="round"/>
</svg>
