<svg width="632" height="162" viewBox="0 0 632 162" fill="none" xmlns="http://www.w3.org/2000/svg">
<path d="M570.759 79.6668C570.759 79.6668 569.214 115.196 607.222 113.63" stroke="#6F7BFF" stroke-miterlimit="22.9256"/>
<path d="M570.758 79.6656C570.758 79.6656 575.446 115.011 537.668 113.446" stroke="#6F7BFF" stroke-miterlimit="22.9256"/>
<path d="M571.362 146.049C571.362 146.049 568.644 112.132 606.651 113.679" stroke="#6F7BFF" stroke-miterlimit="22.9256"/>
<path d="M571.36 146.049C570.705 142.96 575.867 111.709 538.132 113.467" stroke="#6F7BFF" stroke-miterlimit="22.9256"/>
<path d="M524.757 114.603C524.757 114.603 523.677 139.436 550.242 138.342" stroke="#6F7BFF" stroke-miterlimit="22.9256"/>
<path d="M524.757 114.603C524.757 114.603 528.034 139.308 501.629 138.214" stroke="#6F7BFF" stroke-miterlimit="22.9256"/>
<path d="M525.178 161C525.178 161 523.279 137.294 549.844 138.375" stroke="#6F7BFF" stroke-miterlimit="22.9256"/>
<path d="M525.179 161C524.721 158.841 528.329 136.999 501.954 138.227" stroke="#6F7BFF" stroke-miterlimit="22.9256"/>
<path d="M592.996 102.844C709.978 55.3777 520.211 18.773 513.18 17.6497" stroke="#2B2A29" stroke-miterlimit="22.9256"/>
<path d="M516.237 18.2434C461.623 7.49852 390.446 0.999557 312.601 0.999557C140.508 0.999557 0.999582 32.7621 0.999582 71.9431C0.999582 111.124 140.508 142.887 312.601 142.887C376.288 142.887 446.102 139.966 495.444 132.5" stroke="#2B2A29" stroke-miterlimit="22.9256"/>
</svg>
