<svg width="632" height="183" viewBox="0 0 632 183" fill="none" xmlns="http://www.w3.org/2000/svg">
<path d="M38.9907 66C-77.9494 120.044 111.749 161.721 118.778 163" stroke="#2B2A29" stroke-miterlimit="22.9256"/>
<path d="M115.444 162.312C170.092 174.58 241.314 182 319.206 182C491.405 182 631 145.735 631 101C631 56.265 491.405 20 319.206 20C255.48 20 185.623 23.3346 136.25 31.8591" stroke="#2B2A29" stroke-miterlimit="22.9256"/>
<path d="M60.7136 88.4344C60.7136 88.4344 62.2445 50.2403 24.5723 51.9235" stroke="#6F7BFF" stroke-miterlimit="22.9256"/>
<path d="M60.714 88.4356C60.714 88.4356 56.0674 50.4389 93.512 52.1221" stroke="#6F7BFF" stroke-miterlimit="22.9256"/>
<path d="M60.1153 17.0732C60.1153 17.0732 62.809 53.5337 25.1367 51.8704" stroke="#6F7BFF" stroke-miterlimit="22.9256"/>
<path d="M60.1152 17.0732C60.765 20.3938 55.6479 53.988 93.0503 52.0983" stroke="#6F7BFF" stroke-miterlimit="22.9256"/>
<path d="M106.308 50.8774C106.308 50.8774 107.378 24.1818 81.0469 25.3583" stroke="#6F7BFF" stroke-miterlimit="22.9256"/>
<path d="M106.306 50.8773C106.306 50.8773 103.059 24.3198 129.23 25.4961" stroke="#6F7BFF" stroke-miterlimit="22.9256"/>
<path d="M105.888 1C105.888 1 107.77 26.4837 81.4395 25.3213" stroke="#6F7BFF" stroke-miterlimit="22.9256"/>
<path d="M105.888 1C106.342 3.32089 102.765 26.8015 128.907 25.4805" stroke="#6F7BFF" stroke-miterlimit="22.9256"/>
</svg>
