<svg width="91" height="99" viewBox="0 0 91 99" fill="none" xmlns="http://www.w3.org/2000/svg">
<path fill-rule="evenodd" clip-rule="evenodd" d="M45.3125 56.7991C45.092 57.9454 44.4649 59.6342 44.0938 60.7101C48.5136 60.3133 52.3568 59.6443 56.9455 57.6337C61.5342 55.623 66.2917 51.9985 69.6791 48.0244C73.0666 44.0504 75.0842 39.7268 75.8145 35.199C76.545 30.6713 75.9885 25.9391 75.3853 23.1523C74.7823 20.3653 74.1327 19.5234 73.483 18.6816C74.7299 21.727 75.4117 25.0249 75.4117 28.4684C75.4117 55.1359 45.5684 55.4686 45.3125 56.7991Z" fill="#6F7BFF"/>
<path fill-rule="evenodd" clip-rule="evenodd" d="M72.1719 28.8997C72.1719 43.2261 60.2847 54.8399 45.6211 54.8399C30.9575 54.8399 19.0703 43.2261 19.0703 28.8997C19.0703 14.5733 30.9575 2.95955 45.6211 2.95955C60.2847 2.95955 72.1719 14.5733 72.1719 28.8997ZM75.4697 28.8997C75.4697 25.5779 74.8486 22.3918 73.7091 19.4371C73.6673 19.3288 73.6248 19.2207 73.5817 19.113C69.3406 8.53188 58.4218 1 45.6211 1C29.1362 1 15.7725 13.4911 15.7725 28.8997C15.7725 30.245 15.8743 31.5682 16.0712 32.8626C16.1818 33.455 16.2924 34.0475 16.4043 34.6373C16.4898 35.0199 16.5837 35.3995 16.6858 35.776C18.8187 43.6411 24.5255 50.1745 32.096 53.7775C32.0991 53.779 32.1021 53.7803 32.1052 53.7818C32.1611 53.8084 32.2173 53.835 32.2737 53.8614C36.2039 55.701 40.6293 56.7537 45.313 56.7979C45.347 56.7983 45.381 56.7985 45.415 56.7987C45.4836 56.7992 45.5523 56.7994 45.6211 56.7994C62.106 56.7994 75.4697 44.3083 75.4697 28.8997Z" fill="#969FFF" stroke="#969FFF" stroke-width="0.755906" stroke-miterlimit="22.9256"/>
<path fill-rule="evenodd" clip-rule="evenodd" d="M31.9643 96.624C36.0076 84.6524 40.051 72.6807 44.0943 60.7091C44.5525 59.3525 45.0108 57.9959 45.469 56.6393C40.6713 56.6393 36.1379 55.5812 32.1216 53.7012C31.7532 54.8076 31.3847 55.914 31.0164 57.0204C27.0386 68.9674 23.0608 80.9143 19.083 92.8612C19.5582 91.6156 22.6961 91.4055 26.1903 92.4037C29.7543 93.4217 32.3394 95.3111 31.9643 96.624Z" fill="#969FFF"/>
<path d="M24.7724 97.0583C28.3364 98.0764 31.5298 97.8375 31.905 96.5247C32.2801 95.212 29.695 93.3224 26.131 92.3043C22.567 91.2863 19.3736 91.5251 18.9984 92.8379C18.6233 94.1507 21.2084 96.0402 24.7724 97.0583Z" fill="#6F7BFF"/>
<path fill-rule="evenodd" clip-rule="evenodd" d="M19.2351 45.4213C20.7291 48.8803 22.8379 51.0889 24.9145 52.7874C26.991 54.4857 29.0354 55.6737 31.0796 56.8617C31.448 55.7552 31.8165 54.6488 32.1848 53.5424C24.1621 49.7871 18.2015 42.7522 16.3154 34.3184C17.0926 38.4179 17.929 42.3974 19.2351 45.4213Z" fill="#6F7BFF"/>
<path fill-rule="evenodd" clip-rule="evenodd" d="M32.2737 53.8614C36.29 55.7414 40.8234 56.7994 45.6211 56.7994C62.106 56.7994 75.4697 44.3083 75.4697 28.8997C75.4697 25.4562 74.8022 22.1583 73.5817 19.113C69.3406 8.53188 58.4218 1 45.6211 1C29.1362 1 15.7725 13.4911 15.7725 28.8997C15.7725 30.245 15.8743 31.5682 16.0712 32.8626C16.1818 33.455 16.2924 34.0475 16.4043 34.6373C18.2905 43.0711 24.251 50.1061 32.2737 53.8614Z" fill="#EBECEC"/>
<path fill-rule="evenodd" clip-rule="evenodd" d="M10.6423 47.1426C10.3954 46.6437 5.02111 47.0769 2.58059 47.7923C0.139851 48.5076 0.63353 49.505 3.3206 49.2885C6.00778 49.0718 10.8889 47.6413 10.6423 47.1426Z" fill="#EBECEC" stroke="#EBECEC" stroke-width="0.755906" stroke-miterlimit="22.9256"/>
<path fill-rule="evenodd" clip-rule="evenodd" d="M39.5303 20.84C40.5495 11.585 52.9478 13.7565 53.7758 18.4354C56.5213 33.949 44.3279 25.7076 40.3957 39.6239C40.2142 40.2659 40.2302 39.8656 40.0675 40.5698C39.9381 39.9098 40.0697 40.2047 40.151 39.8117C43.2276 24.9098 55.6266 33.5091 52.6715 18.6232C52.0059 15.271 41.6516 13.407 40.9602 20.84C40.9602 21.2348 40.6401 21.5548 40.2452 21.5548C39.8504 21.5548 39.5303 21.2348 39.5303 20.84Z" fill="#6F7BFF" stroke="#6F7BFF" stroke-width="0.755906" stroke-miterlimit="22.9256"/>
<path fill-rule="evenodd" clip-rule="evenodd" d="M9.23649 52.3274C9.00636 51.8673 6.42988 52.8793 5.37171 53.8453C4.31343 54.8113 4.77356 55.7312 6.06175 55.2253C7.35005 54.7193 9.4665 52.7874 9.23649 52.3274Z" fill="#EBECEC" stroke="#EBECEC" stroke-width="0.755906" stroke-miterlimit="22.9256"/>
<path fill-rule="evenodd" clip-rule="evenodd" d="M81.796 24.6418C81.9585 25.1299 84.6526 24.4937 85.8372 23.6877C87.0219 22.8817 86.697 21.9058 85.35 22.2238C84.003 22.5419 81.6336 24.1537 81.796 24.6418Z" fill="#EBECEC" stroke="#EBECEC" stroke-width="0.755906" stroke-miterlimit="22.9256"/>
<path fill-rule="evenodd" clip-rule="evenodd" d="M8.21182 43.3845C8.26292 42.8726 5.54413 42.3528 4.13346 42.6046C2.72267 42.8563 2.62047 43.8798 3.97981 44.1398C5.33927 44.3997 8.1606 43.8962 8.21182 43.3845Z" fill="#EBECEC" stroke="#EBECEC" stroke-width="0.755906" stroke-miterlimit="22.9256"/>
<path d="M38.6452 48.7464C39.9217 48.7464 40.9564 47.7915 40.9564 46.6135C40.9564 45.4354 39.9217 44.4805 38.6452 44.4805C37.3688 44.4805 36.334 45.4354 36.334 46.6135C36.334 47.7915 37.3688 48.7464 38.6452 48.7464Z" fill="#6F7BFF" stroke="#6F7BFF" stroke-width="0.755906" stroke-miterlimit="22.9256"/>
<path fill-rule="evenodd" clip-rule="evenodd" d="M79.596 34.8896C79.1888 35.2039 80.6782 37.5366 81.8302 38.3887C82.982 39.241 83.7964 38.6124 83.0517 37.446C82.3069 36.2797 80.0031 34.5752 79.596 34.8896Z" fill="#EBECEC" stroke="#EBECEC" stroke-width="0.755906" stroke-miterlimit="22.9256"/>
<path fill-rule="evenodd" clip-rule="evenodd" d="M81.1487 30.3578C80.8356 30.8402 85.2173 32.0292 87.7215 32.1414C90.2258 32.2538 90.8522 31.2893 88.6613 30.6947C86.4704 30.1003 81.462 29.8755 81.1487 30.3578Z" fill="#EBECEC" stroke="#EBECEC" stroke-width="0.755906" stroke-miterlimit="22.9256"/>
</svg>
