<svg width="269" height="52" viewBox="0 0 269 52" fill="none" xmlns="http://www.w3.org/2000/svg">
<path d="M1 4.09734C8.24459 4.09734 22.834 3.31886 30.0693 4.09737C66.4767 4.09734 102.249 4.09735 140.577 4.09737C171.878 4.0973 208.929 -0.0715855 245.659 1.2638C245.659 1.2638 276.96 1.26381 265.462 4.09737C257.527 6.05271 219.361 13.6697 212.123 15.2453C186.89 20.738 175.864 21.9218 150.499 26.1181C140.917 27.7033 131.256 28.7708 121.837 32.0959C119.349 32.9742 114.573 33.4533 112.556 36.4898C109.053 41.7641 133.531 44.9158 134.452 45.0222C149.504 46.7603 166.151 51 180.663 51" stroke="white" stroke-width="2" stroke-linecap="round"/>
</svg>
