<svg width="420" height="53" viewBox="0 0 420 53" fill="none" xmlns="http://www.w3.org/2000/svg">
<path d="M1 4.10146C12.341 4.10146 35.1799 3.32195 46.5063 4.10149C103.5 4.10146 159.5 4.10147 219.5 4.10149C268.5 4.10142 326.5 -0.0730112 384 1.26415C384 1.26415 433 1.26416 415 4.10149C402.579 6.05943 342.831 13.6865 331.5 15.2643C292 20.7643 274.739 21.9496 235.031 26.1515C220.031 27.7388 204.909 28.8078 190.164 32.1373C186.269 33.0167 178.792 33.4965 175.634 36.537C170.15 41.8183 208.469 44.9742 209.912 45.0808C233.474 46.8212 259.534 51.0665 282.252 51.0665" stroke="white" stroke-width="2" stroke-linecap="round"/>
</svg>
