<svg width="98" height="111" viewBox="0 0 98 111" fill="none" xmlns="http://www.w3.org/2000/svg">
<path fill-rule="evenodd" clip-rule="evenodd" d="M57.7794 101.257C61.2192 97.5741 64.4731 91.648 69.3796 82.5514C74.2858 73.4548 80.8448 61.1875 85.571 51.9399C90.2972 42.6921 94.1226 36.9909 93.1226 31.4909C91.1223 28.9925 92.2414 26.5387 91.1228 24.4895C91.1878 24.4435 88.6228 21.9893 86.6228 20.4893C82.609 17.9879 77.1344 17.5122 70.6228 15.4893C64.1112 13.4663 58.299 11.5203 53.1229 10.4898C47.1228 10.0805 46.6225 7.98911 43.6226 8.99063C41.1634 10.6449 38.2376 13.402 34.4119 20.1978C30.5862 26.9933 25.0737 37.2362 20.6135 45.9434C16.1531 54.6503 12.7448 61.8215 9.93721 67.3581C7.12941 72.8945 4.9222 76.7963 4.02465 80.2945C3.12694 83.7925 4.64648 86.7139 6.62285 89.4908C8.59905 92.2675 12.6527 94.0416 17.1226 96.4909C21.5924 98.9403 25.7039 101.246 31.1232 102.99C36.5424 104.733 41.0906 106.186 45.6232 105.99C50.1557 105.794 54.3396 104.94 57.7794 101.257Z" fill="#D9DADA"/>
<path fill-rule="evenodd" clip-rule="evenodd" d="M37.3644 14.9252C55.8702 22.0755 74.3757 29.2258 92.8815 36.3761C93.1624 35.2255 93.3488 34.1409 93.4353 33.1073C93.8697 27.9267 91.8004 24.03 88.0121 21.0344C84.2237 18.0388 78.7162 15.9439 72.1359 13.8518C65.5556 11.7594 57.9024 9.6697 52.6706 8.60579C47.4388 7.54167 44.6284 7.50357 42.1385 9.22253C40.5866 10.2938 39.1594 12.0478 37.3644 14.9252Z" fill="#6F7BFF"/>
<path d="M65.6983 22.6808C67.245 22.7802 68.6396 21.7279 68.8132 20.3306C68.9867 18.9332 67.8736 17.7198 66.3269 17.6204C64.7802 17.5211 63.3856 18.5733 63.2121 19.9707C63.0385 21.368 64.1516 22.5814 65.6983 22.6808Z" fill="#2B2A29"/>
<path d="M4.4707 76.6717C22.7244 84.6576 40.978 92.6433 59.2318 100.629" stroke="#2B2A29" stroke-width="0.755906" stroke-miterlimit="22.9256"/>
<path fill-rule="evenodd" clip-rule="evenodd" d="M59.074 100.573C40.9381 92.5723 22.8025 84.5719 4.66667 76.5713C4.42568 77.2279 4.22124 77.8655 4.05728 78.4909C3.1102 82.1026 3.51024 85.3064 5.51825 88.1935C7.52609 91.0804 11.1417 93.6503 15.7113 96.217C20.2809 98.7837 25.8045 101.347 31.3537 103.191C36.9028 105.034 42.4774 106.158 47.1309 105.989C51.7842 105.82 55.5164 104.357 59.074 100.573Z" fill="#6F7BFF"/>
<path d="M31.9247 56.4464C37.1032 59.5508 44.7577 56.6642 49.0216 49.999C53.2855 43.3339 52.5441 35.414 47.3657 32.3096C42.1872 29.2052 34.5327 32.0917 30.2688 38.7569C26.0049 45.4221 26.7463 53.3419 31.9247 56.4464Z" fill="#C5C6C6" stroke="#C5C6C6" stroke-width="0.755906" stroke-miterlimit="22.9256"/>
<path d="M14.6504 55.6403C33.7327 63.7887 52.8153 71.9373 71.8976 80.0858" stroke="#2B2A29" stroke-width="0.755906" stroke-miterlimit="22.9256"/>
<path d="M35.9319 48.4918C37.9929 50.2778 41.3262 49.8841 43.377 47.6124C45.4278 45.3408 45.4196 42.0514 43.3587 40.2654C41.2977 38.4794 37.9644 38.8731 35.9136 41.1447C33.8628 43.4164 33.871 46.7058 35.9319 48.4918Z" stroke="#2B2A29" stroke-width="0.755906" stroke-miterlimit="22.9256"/>
<path d="M41.2051 49.2794C40.8817 51.9294 40.5582 54.5795 40.2349 57.2296" stroke="#2B2A29" stroke-width="0.755906" stroke-miterlimit="22.9256"/>
<path d="M27.8332 50.1517C30.1505 48.914 32.4677 47.6765 34.785 46.4388" stroke="#2B2A29" stroke-width="0.755906" stroke-miterlimit="22.9256"/>
<path d="M54.3398 46.762C61.3728 49.6692 68.4058 52.5763 75.4388 55.4835" stroke="#2B2A29" stroke-width="0.755906" stroke-miterlimit="22.9256"/>
<path d="M51.6729 53.1415C58.4789 56.0854 65.285 59.0292 72.0911 61.9731" stroke="#2B2A29" stroke-width="0.755906" stroke-miterlimit="22.9256"/>
<path fill-rule="evenodd" clip-rule="evenodd" d="M39.8508 57.2082C40.2749 54.4717 40.6992 51.7353 41.1233 48.9988C39.4185 49.674 37.5275 49.4451 36.1876 48.22C35.6422 47.7215 35.2443 47.1091 34.9937 46.4346C32.6944 47.6596 30.3952 48.8845 28.096 50.1096C28.6424 52.7728 30.0228 55.0212 32.1946 56.3763C34.4388 57.7766 37.1544 57.9895 39.8508 57.2082Z" fill="#898989" stroke="#898989" stroke-width="0.755906" stroke-miterlimit="22.9256"/>
<path fill-rule="evenodd" clip-rule="evenodd" d="M36.046 48.588C37.3769 49.806 39.2552 50.0336 40.9485 49.3623C41.7966 49.0262 42.5986 48.4643 43.2619 47.6884C45.2497 45.3636 45.242 41.997 43.2445 40.1689C41.247 38.3408 38.0164 38.7436 36.0286 41.0685C34.5799 42.7629 34.1911 45.0107 34.8602 46.8129C35.1091 47.4835 35.5043 48.0923 36.046 48.588Z" fill="#898989" stroke="#898989" stroke-width="0.755906" stroke-miterlimit="22.9256"/>
<path fill-rule="evenodd" clip-rule="evenodd" d="M16.9354 64.1677C23.8069 68.3208 21.987 62.3899 27.5981 68.1568C32.1578 72.8431 35.0239 68.3439 38.5833 71.8442C46.3885 79.5205 46.129 72.9389 51.8098 77.6616C53.6697 79.2079 54.681 79.8087 56.8009 79.0399C50.8118 78.7113 53.4482 74.8991 46.9267 74.6609C39.1946 74.3782 41.4523 69.0287 35.5437 68.7766C27.2785 68.4239 31.5558 67.4359 26.5751 64.626C20.3226 61.0985 23.0963 65.4314 18.4733 62.4515C17.8272 62.0029 16.9591 62.0232 16.5343 62.4972C16.1097 62.971 16.2892 63.7189 16.9354 64.1677Z" fill="#5B5B5B"/>
<path fill-rule="evenodd" clip-rule="evenodd" d="M13.5564 71.1131C21.1636 75.5921 18.964 69.493 25.2668 75.5664C30.3885 80.5017 33.3231 76.0328 37.3152 79.7249C46.0693 87.8216 45.5363 81.1187 51.8747 86.1328C53.9498 87.7746 55.069 88.4231 57.3375 87.7202C50.833 87.1632 53.5449 83.3844 46.4668 82.8996C38.0748 82.3246 40.3174 76.9683 33.9031 76.4922C24.9306 75.8261 29.5291 74.9805 24.0228 71.9377C17.1104 68.1178 20.2828 72.6274 15.1577 69.4249C14.4402 68.9447 13.5 68.9331 13.0577 69.3993C12.6156 69.8654 12.8388 70.6326 13.5564 71.1131Z" fill="#5B5B5B"/>
</svg>
