<svg id="Слой_1" data-name="Слой 1" xmlns="http://www.w3.org/2000/svg" viewBox="0 0 270 342"><defs><style>.cls-1,.cls-13,.cls-17{fill:none;}.cls-1,.cls-10,.cls-12,.cls-13,.cls-16,.cls-2,.cls-3,.cls-4,.cls-5{stroke:#2b2a29;}.cls-1,.cls-10,.cls-12,.cls-13,.cls-14,.cls-15,.cls-16,.cls-17,.cls-18,.cls-2,.cls-3,.cls-4,.cls-5,.cls-6,.cls-7,.cls-8,.cls-9{stroke-miterlimit:10;}.cls-1,.cls-10,.cls-12,.cls-14,.cls-15,.cls-16,.cls-17,.cls-18,.cls-2,.cls-3,.cls-4,.cls-5,.cls-6,.cls-7,.cls-8,.cls-9{stroke-width:0.57px;}.cls-12,.cls-2{fill:#2b2a29;}.cls-3{fill:#434242;}.cls-10,.cls-11,.cls-12,.cls-14,.cls-16,.cls-3,.cls-4,.cls-5,.cls-6,.cls-7,.cls-8,.cls-9{fill-rule:evenodd;}.cls-4{fill:#6f7bff;}.cls-5{fill:#fdefe5;}.cls-6{fill:#652123;stroke:#652123;}.cls-7{fill:#311d1a;stroke:#311d1a;}.cls-18,.cls-8{fill:#43221a;}.cls-17,.cls-18,.cls-8{stroke:#43221a;}.cls-9{fill:#613425;stroke:#613425;}.cls-10{fill:#d9dada;}.cls-11,.cls-16{fill:#323231;}.cls-14{fill:#96a7b1;stroke:#96a7b1;}.cls-15{fill:#fff7b2;stroke:#fff7b2;}</style></defs><g id="Слой_1-2" data-name="Слой_1"><g id="_2379008598240" data-name=" 2379008598240"><path class="cls-1" d="M261.45,224.77c-2.26-7.9-4.52-15.81-7.91-22.58s-7.9-12.42-13.79-16.13-13.14-5.48-18.87-6.45S211,178.48,205,177.19a87.29,87.29,0,0,1-18.95-6.37c-5.24-2.66-8-5.56-9.68-9.67a34.42,34.42,0,0,1-2.18-13.39c.17-3.95,1.13-6.53.25-9.44s-3.63-6.12-6.7-6.77-6.45,1.29-10,3.47-7.25,4.6-11.93,5.64-10.32.73-13.39.49a15.39,15.39,0,0,1-4-.57"/><path class="cls-1" d="M171.91,134.1A23.35,23.35,0,0,0,176,127c.81-2.71.81-5.93-.31-8a6.92,6.92,0,0,0-5.49-3.3,8.23,8.23,0,0,0-4.76.72c-.72.48-.24,1-1.61,2a28.29,28.29,0,0,1-9.35,3.87,81.85,81.85,0,0,1-16.61,2.17c-5.57.17-10.41-.32-13.87-1.85s-5.57-4.11-8.23-6a22.07,22.07,0,0,0-8.79-3.46c-2.9-.49-5.48-.33-7.34,1.21a10,10,0,0,0-3.06,7.17c-.08,2.74.89,5.32,2.82,8.39s4.84,6.61,6.13,9.76,1,5.88.48,9a46.28,46.28,0,0,1-2.42,9.75,26.25,26.25,0,0,1-5.64,8.95,24.59,24.59,0,0,1-7.34,4.92,13.85,13.85,0,0,1-4.27,1.21"/><path class="cls-1" d="M28.38,209c4.43-7.76,8.85-15.52,12.61-20.32a29.68,29.68,0,0,1,10.06-8.44A50.69,50.69,0,0,1,61,175.62a39.59,39.59,0,0,1,9.88-1.25"/><path class="cls-1" d="M211.77,269.86c3.75-17.23,7.51-34.46,9.45-43.08s2.09-8.61-11.73-10.79L154,207.3c-13.89-2.18-13.89-2.18-15.45,6.36s-4.69,25.59-7.82,42.66"/><path class="cls-1" d="M109.43,248c2.52-13,5-26.09,6.31-32.61s1.26-6.52,4.91-6l18.22,2.67"/><path class="cls-1" d="M103.09,319.32c3.38.36,1.41-.46,1.4-6s1.92-15.82,3.47-24.24,2.71-15,4.25-20.25,3.45-9.17,5.36-11A6.51,6.51,0,0,1,122,256c.59-.14-.15-.61-5.3-2.52s-14.7-5.24-19.48-6.9-4.78-1.67-5.73.18a93.63,93.63,0,0,0-4.56,10.13,83.89,83.89,0,0,0-4.19,16.44,144,144,0,0,0-1.56,20.94c0,6.94.47,13.29.74,16.79s.3,4.15,4.69,5.24,13.11,2.65,16.49,3Z"/><path class="cls-1" d="M104.6,318.18c9.32,2.73,18.64,5.46,27.34,7.58s16.79,3.64,25.44,5a224.87,224.87,0,0,0,26.44,2.88,79.43,79.43,0,0,0,24.42-2.48A57.77,57.77,0,0,0,230,320c6.27-5.31,11.12-12.18,16.52-25.25a284.38,284.38,0,0,0,13.93-45c2.58-12.69,1.77-18.81,1-24.94"/><path class="cls-1" d="M117.53,256.44c6.23-.11,12.45-.21,20.38,0A225,225,0,0,1,166,258.71a280.74,280.74,0,0,1,32.3,7.15c10.34,2.89,19.58,6,24.65,7.56s6,1.69,6.86,1.79"/><path class="cls-1" d="M64.57,219c2.76-3.71,5.52-7.43,7.35-12.77a49.6,49.6,0,0,0,2.39-17.91c-.36-5.6-2-9.81-3.64-14"/><path class="cls-1" d="M86.61,173.44a36.73,36.73,0,0,1,3.52,10.06,49.89,49.89,0,0,1-.23,12.9c-.54,4.69-1.34,9.64-2.25,14.36a94,94,0,0,1-3.08,12.46,33.19,33.19,0,0,1-3.68,7.31"/><path class="cls-1" d="M43.87,185.43a239.81,239.81,0,0,1,7-23.07,134.63,134.63,0,0,1,8.88-18.51c2.78-4.85,5-8.08,6.08-9.69s1.1-1.62,3.29-2.07,6.59-1.36,10.6-1.94,7.62-.84,10.66-1.1,5.49-.53,8-.8"/><path class="cls-1" d="M176,127c2.83,1.59,5.65,3.18,7.9,5.72s3.93,6,5.75,13.15,3.77,17.91,5.73,28.68"/><path class="cls-1" d="M119.3,109.23a35,35,0,0,0,.85,4.86,18.13,18.13,0,0,0,1.92,4.52,51.16,51.16,0,0,0,3.05,4.45"/><path class="cls-1" d="M157.91,121.24a33.25,33.25,0,0,0,3.88-4.83,20.26,20.26,0,0,0,2.38-6,57,57,0,0,1,1.84-7.2,6.34,6.34,0,0,1,3.12-3.4A29.75,29.75,0,0,1,173.44,98c1.67-.6,3.61-1.27,5.79-2.24a25.38,25.38,0,0,0,6.42-3.89,12.58,12.58,0,0,0,3.59-5.28,3.35,3.35,0,0,0-.49-3.47,3,3,0,0,0-2.78-.61,10.38,10.38,0,0,0-3.3,1.65,33.11,33.11,0,0,1-4.12,2.49,17.37,17.37,0,0,1-6,1.65,20.65,20.65,0,0,1-7.47-.61,9.84,9.84,0,0,1-4.88-3.28,19.73,19.73,0,0,1-2.83-5.13c-.87-2.07-1.8-4.56-3.23-7.5s-3.35-6.3-5.71-8.11-5.16-2.05-7.95-2.29"/><path class="cls-1" d="M135.91,66.64c-.51-1.5-1-3-.2-3.86s3-1.12,5.09-1.38"/><path class="cls-1" d="M108.05,87.63a15.31,15.31,0,0,1-1.1-4,28,28,0,0,1,.14-5"/><path class="cls-1" d="M92,64.2a12.67,12.67,0,0,0,.14,6.48,8.11,8.11,0,0,0,4,4.83c1.68.73,3.41.26,4.39.7s1.21,1.8,2.15,2.39,2.58.41,4.35,0a11.65,11.65,0,0,0,5.28-2.42c1.61-1.41,2.91-3.6,4.43-5.38a45.84,45.84,0,0,1,5-4.68c1.8-1.57,3.66-3.34,4.1-5.51s-.53-4.74-2.12-7a17.38,17.38,0,0,0-6.39-5.39,17.88,17.88,0,0,0-8.49-1.94,23.49,23.49,0,0,0-7.89,2.08c-2.38,1-4.48,2-5.46,3.27s-.84,2.93-1,4.38A13.17,13.17,0,0,1,93.54,60,20.69,20.69,0,0,0,92,64.2Z"/><path class="cls-1" d="M126,58.68c1.91-.15,3.81-.3,5.34-.27a17.31,17.31,0,0,1,4.13.6c1.45.36,3.22.87,4.62,1.35s2.43.92,3.47,1.36"/><path class="cls-1" d="M127.16,91.82a24,24,0,0,0-3.13-4,8.28,8.28,0,0,0-3.64-1.87,16.7,16.7,0,0,0-5.08-.66,14.19,14.19,0,0,0-5.7,1.31,7.31,7.31,0,0,0-3.27,3.31,11.86,11.86,0,0,0-1.29,4.6,12.16,12.16,0,0,0,.56,4.92,9.6,9.6,0,0,0,2.09,3.2,16,16,0,0,0,2.2,2.16,23.92,23.92,0,0,0,3,2,27.38,27.38,0,0,0,3.34,1.61,11.59,11.59,0,0,0,3.33.76,25.32,25.32,0,0,0,4.17,0,12.41,12.41,0,0,0,3.51-.74,13.7,13.7,0,0,0,2.69-1.56"/><path class="cls-1" d="M82.12,312.11l-43-11.24c-8.6-2.25-8.6-2.25-13.33-7.76S11.56,276.56,6.72,271s-5-5.82-5.52-7.51S0,258.57.43,256.13,2.49,252,4.28,252s3.76,1.69,4.81,2.51,1.18.74,3.35,3.41S18.8,266,23,271.42"/><path class="cls-1" d="M9.09,254.51c-2-3.43-4-6.86-5-8.71a17.91,17.91,0,0,1-1.34-3.3,17.64,17.64,0,0,1-1.45-5.21,5.27,5.27,0,0,1,1.93-4.5c1.18-.82,2.74-.68,4-.58s2.09.17,2.6.24.64.13,2.23,2.3,4.64,6.43,7.45,10.28,5.38,7.31,6.73,9,1.49,1.52,2.1,2.4,1.69,2.77,2.2,3.72.43.95,3.31,2.23,8.69,3.86,14.51,6.43"/><path class="cls-1" d="M11.08,233.44c-1.38-3.51-2.75-7-3.07-9.83s.43-4.9,1.82-6.18a8.8,8.8,0,0,1,5-1.93,4.09,4.09,0,0,1,3.82,1.08c1.08,1.12,2.1,3.22,5.31,7.92s8.63,12,11.34,15.66,2.7,3.66,6.36,5l14.61,5.41c3.65,1.35,3.65,1.35-2.06-3.42s-17.16-14.31-23-19.21-6.12-5.18-6.87-6.43A17,17,0,0,1,22.08,216a5.52,5.52,0,0,1,1.68-5,7.56,7.56,0,0,1,5.5-2A10.16,10.16,0,0,1,33.85,211c.85.59.78.59,4.91,3.7S51.21,224,55.27,227.07s3.85,3,5.54,4.19,5.28,3.62,7.07,4.84l1.8,1.22"/><path class="cls-1" d="M49.55,222.76c5.06-1.22,10.13-2.45,12.72-3.16s2.73-.89,4.54.08a59.35,59.35,0,0,1,8.71,5.95c3.43,2.83,6.81,6.34,8.5,8s1.69,1.55,2.54,3.66,2.52,6.48,4.21,10.84"/><path class="cls-1" d="M22.42,217.46l-1.07,3"/><path class="cls-1" d="M166,103.17c-1.68.22-3.36.44-5.53.81s-4.85.89-6.67,1.33a27.37,27.37,0,0,0-3.75,1.19"/><circle class="cls-2" cx="151.95" cy="87.57" r="2.83"/><path class="cls-1" d="M141.83,61a19,19,0,0,1-4.94-4.24A10.35,10.35,0,0,1,135.22,51c-.05-2.08.28-4.24-1.38-6.31s-5.3-4-7-5-1.61-1-.51-.13a23,23,0,0,1,4.27,4.17,5.22,5.22,0,0,1,1,4.4c-.34,1.3-1.2,2.42-1.42,3.67a5.86,5.86,0,0,0,.85,3.78,15,15,0,0,0,2.46,3"/><path class="cls-1" d="M144.66,61.94a6.42,6.42,0,0,1-1.5-3.58,6.28,6.28,0,0,1,1.9-4.33c1.21-1.15,2.92-1.71,4-2.77a5.17,5.17,0,0,0,1.36-3.75,3.74,3.74,0,0,0-.78-2.12c-.24-.34-.24-.34-.24-.41s0-.22-.22.52a9.51,9.51,0,0,1-1.7,3.56,13.4,13.4,0,0,1-4,2.59,6.8,6.8,0,0,0-3.15,2.65,14.23,14.23,0,0,0-1.13,4.79"/><path class="cls-1" d="M107,83.83a17.15,17.15,0,0,0-3.32,6.7,26.31,26.31,0,0,0,.17,8.83c.45,2.51,1.06,4,.28,5.57A6.6,6.6,0,0,1,99,108.41c-2.18.09-4.35-1.53-5.43-2.34s-1.09-.8-.48,0a14.15,14.15,0,0,0,3.37,3.17,7.77,7.77,0,0,0,5,1,7.35,7.35,0,0,0,4.19-2.17,10.74,10.74,0,0,0,2.46-3.71,1.46,1.46,0,0,0-.39-1.73"/><path class="cls-1" d="M104.79,79a12.94,12.94,0,0,0-1.5,4.6,13.74,13.74,0,0,0,1,4.84"/><path class="cls-1" d="M112.43,106.05a10.11,10.11,0,0,1-2.6,2.91,5.75,5.75,0,0,1-3.26.78,7.39,7.39,0,0,1-2.4-.53"/><path class="cls-1" d="M101.58,107.57a4.25,4.25,0,0,1-2.25-1.19,11.52,11.52,0,0,1-1.9-3.32,13.63,13.63,0,0,1-.78-2.68c-.06-.43.06-.26.48.3a19.21,19.21,0,0,0,1.81,2.18A3.59,3.59,0,0,0,101,104a2.62,2.62,0,0,0,2-.71,5.71,5.71,0,0,0,1.17-2"/><path class="cls-1" d="M112.24,106.33c.13,1.09.26,2.17.47,3.1a24.67,24.67,0,0,0,.87,2.78c.38,1.09.85,2.49,1.33,3.88"/><path class="cls-1" d="M135.74,66.48c2.3,2.18,4.6,4.35,5.58,6.79s.63,5.15-.35,7.81-2.61,5.28-4.14,8.35a42.94,42.94,0,0,0-3.6,9.76,17.81,17.81,0,0,0,0,7.88,9.19,9.19,0,0,0,2.31,4.33,7.8,7.8,0,0,0,2.32,1.58c.47.22.47.22-.22.12a9,9,0,0,1-3.38-1,9.84,9.84,0,0,1-3.39-3.65,12,12,0,0,1-1.46-5.39,25.83,25.83,0,0,1,.72-6.73,29.77,29.77,0,0,1,2.14-6.35,28.56,28.56,0,0,1,2.78-4.51,6.33,6.33,0,0,0,1.63-3.35,7.14,7.14,0,0,0-1.59-4.43,11.52,11.52,0,0,0-4.72-3.53,14.33,14.33,0,0,0-5.17-1c-1.17,0-1.42.37-1.67.7"/><path class="cls-1" d="M122.33,86.64a19.23,19.23,0,0,1-1.53-5,10,10,0,0,1,.67-4.72,11.37,11.37,0,0,1,2.09-3.15"/><path class="cls-3" d="M166,258.71a225,225,0,0,0-28.11-2.29c-2.54-.06-4.9-.09-7.15-.1-4.77,0-9,0-13.23.12a53.1,53.1,0,0,0-5.19,12.14c-1.54,5.25-2.71,11.82-4,18.77s-2.65,14.26-3.28,20.38a93.45,93.45,0,0,0-.48,10.45c9.32,2.73,18.64,5.46,27.34,7.58s16.79,3.64,25.44,5a224.87,224.87,0,0,0,26.44,2.88,79.43,79.43,0,0,0,24.42-2.48A57.77,57.77,0,0,0,230,320c6.27-5.31,11.12-12.18,16.52-25.25a284.38,284.38,0,0,0,13.93-45c2.58-12.69,1.77-18.81,1-24.94-2.26-7.9-4.52-15.81-7.91-22.58s-7.9-12.42-13.79-16.13-13.14-5.48-18.87-6.45S211,178.48,205,177.19a97.75,97.75,0,0,1-9.66-2.64,68.77,68.77,0,0,1-9.29-3.73c-5.24-2.66-8-5.56-9.68-9.67a34.42,34.42,0,0,1-2.18-13.39c.17-3.95,1.13-6.53.25-9.44a11.27,11.27,0,0,0-2.53-4.22A23.35,23.35,0,0,0,176,127c.81-2.71.81-5.93-.31-8a6.92,6.92,0,0,0-5.49-3.3c-5.23-.61-7.87-.14-9.45,2.31a13.86,13.86,0,0,1-1.46,1.76,6.08,6.08,0,0,1-1.34,1.5c-1,.36-2.2.72-3.47,1a81.85,81.85,0,0,1-16.61,2.17c-5,.15-9.36-.22-12.71-1.39-.4-.14-.79-.29-1.16-.46-3.47-1.53-5.57-4.11-8.23-6l-.82-.54a22.55,22.55,0,0,0-8-2.92c-2.9-.49-5.48-.33-7.34,1.21a10,10,0,0,0-3.06,7.17,13,13,0,0,0,1.83,6.7c.29.55.62,1.11,1,1.69,1.94,3.06,4.84,6.61,6.13,9.76s1,5.88.48,9a46.28,46.28,0,0,1-2.42,9.75,26.25,26.25,0,0,1-5.64,8.95,24.94,24.94,0,0,1-7.34,4.92,13.15,13.15,0,0,1-4,1.17,36.73,36.73,0,0,1,3.52,10.06,49.89,49.89,0,0,1-.23,12.9c-.54,4.69-1.34,9.64-2.25,14.36a94,94,0,0,1-3.08,12.46,33.19,33.19,0,0,1-3.68,7.31c1.28,1.26,2.37,2.38,3.13,3.14,1.69,1.69,1.69,1.55,2.54,3.66s2.52,6.48,4.21,10.84c.32-.65.61-1.2.84-1.65,1-2.06,1.88-1.22,4.21-.42,3.87,1.34,9.87,4.1,13.19,4.63,2.49-12.82,5.48-28.83,6.73-35.3s1.26-6.52,4.91-6l18.22,2.67c1.33-7,2.17-6.85,15.16-4.81L209.49,216c13.82,2.18,13.68,2.18,11.73,10.79s-5.7,25.85-9.45,43.08c-4-1.26-8.62-2.65-13.45-4a280.74,280.74,0,0,0-32.3-7.15Z"/><path class="cls-3" d="M74.31,188.35c-.36-5.58-2-9.78-3.62-14A39.76,39.76,0,0,0,61,175.62a50.69,50.69,0,0,0-9.92,4.63,30.77,30.77,0,0,0-7.18,5.18A34,34,0,0,0,41,188.69c-3.76,4.8-8.18,12.56-12.61,20.32a8.58,8.58,0,0,1,.88,0A10.16,10.16,0,0,1,33.85,211c.85.59.78.59,4.91,3.7,2.62,2,7,5.22,10.79,8.11,5.06-1.22,10.13-2.45,12.72-3.16a19.28,19.28,0,0,1,2.3-.57c2.76-3.71,5.52-7.43,7.35-12.77a49.6,49.6,0,0,0,2.39-17.91Z"/><path class="cls-3" d="M54.22,247.16c-5.72-4.77-17.16-14.31-23-19.21s-6.12-5.18-6.87-6.43a20.93,20.93,0,0,1-1.92-4.06l-1.07,3c.68,1.07,1.52,2.38,2.62,4,3.22,4.7,8.63,12,11.34,15.66s2.7,3.66,6.36,5l14.61,5.41C59.93,251.93,59.93,251.93,54.22,247.16Z"/><path class="cls-4" d="M70.69,174.37c1.63,4.2,3.26,8.4,3.62,14a49.6,49.6,0,0,1-2.39,17.91c-1.83,5.34-4.59,9.06-7.35,12.77a3.47,3.47,0,0,1,2.24.65,59.35,59.35,0,0,1,8.71,5.95c1.89,1.56,3.78,3.34,5.37,4.9a33.19,33.19,0,0,0,3.68-7.31,94,94,0,0,0,3.08-12.46c.91-4.72,1.71-9.67,2.25-14.36a49.89,49.89,0,0,0,.23-12.9,36.73,36.73,0,0,0-3.52-10.06h0a13.72,13.72,0,0,0,3.91-1.15h0a24.69,24.69,0,0,0,7.32-4.91,26.25,26.25,0,0,0,5.64-8.95,46.28,46.28,0,0,0,2.42-9.75c.49-3.07.81-5.81-.48-9s-4.19-6.7-6.13-9.76c-.37-.58-.7-1.14-1-1.69-2.46.27-4.91.53-8,.8s-6.65.52-10.66,1.1-8.4,1.49-10.6,1.94-2.19.45-3.29,2.07-3.3,4.84-6.08,9.69a134.63,134.63,0,0,0-8.88,18.51c-2.75,7.19-4.9,15.13-7,23.07a30.77,30.77,0,0,1,7.18-5.18A50.69,50.69,0,0,1,61,175.62a39.76,39.76,0,0,1,9.72-1.25Z"/><path class="cls-4" d="M174.19,147.76a34.42,34.42,0,0,0,2.18,13.39c1.69,4.11,4.44,7,9.68,9.67a68.77,68.77,0,0,0,9.29,3.73c-2-10.77-3.91-21.54-5.73-28.68s-3.5-10.61-5.75-13.15-5.07-4.13-7.9-5.72a23.35,23.35,0,0,1-4.05,7.1,11.27,11.27,0,0,1,2.53,4.22c.88,2.91-.08,5.49-.25,9.44Z"/><path class="cls-5" d="M90.77,248.17c-1.69-4.36-3.37-8.72-4.21-10.84s-.85-2-2.54-3.66c-.76-.76-1.85-1.88-3.13-3.14-1.59-1.56-3.48-3.34-5.37-4.9a59.35,59.35,0,0,0-8.71-5.95,3.47,3.47,0,0,0-2.24-.65,19.28,19.28,0,0,0-2.3.57c-2.59.71-7.66,1.94-12.72,3.16-3.84-2.89-8.17-6.13-10.79-8.11-4.13-3.11-4.06-3.11-4.91-3.7A10.16,10.16,0,0,0,29.26,209a8.58,8.58,0,0,0-.88,0,7.64,7.64,0,0,0-4.62,2,5.52,5.52,0,0,0-1.68,5,9.43,9.43,0,0,0,.34,1.42,20.93,20.93,0,0,0,1.92,4.06c.75,1.25,1,1.52,6.87,6.43s17.29,14.44,23,19.21,5.71,4.77,2.06,3.42l-14.61-5.41c-3.66-1.35-3.66-1.35-6.36-5S27.19,229.2,24,224.5c-1.1-1.61-1.94-2.92-2.62-4a29.11,29.11,0,0,0-2.69-3.93,4.09,4.09,0,0,0-3.82-1.08,8.8,8.8,0,0,0-5,1.93c-1.39,1.28-2.13,3.38-1.82,6.18s1.69,6.32,3.07,9.83c-.7-.89-.88-.94-1.25-1s-1.39-.14-2.6-.24-2.78-.24-4,.58a5.27,5.27,0,0,0-1.93,4.5,17.64,17.64,0,0,0,1.45,5.21,17.91,17.91,0,0,0,1.34,3.3c1,1.85,3,5.28,5,8.71C8,253.69,6.08,252,4.28,252S.87,253.69.43,256.13s.3,5.62.77,7.31.68,1.89,5.52,7.51S21,287.59,25.77,293.11s4.73,5.51,13.33,7.76l43,11.24c-.27-3.5-.8-10.5-.8-17.76a142.43,142.43,0,0,1,1.54-21.27,80.19,80.19,0,0,1,7.91-24.91Z"/><path class="cls-6" d="M103.83,99.36c.13.76.28,1.42.41,2a5.25,5.25,0,0,1-.13,3.56,6.75,6.75,0,0,1-2.53,2.64,5.4,5.4,0,0,1-2.59.84c-2.18.09-4.35-1.53-5.43-2.34s-1.09-.8-.48,0a14.15,14.15,0,0,0,3.37,3.17,7.77,7.77,0,0,0,5,1,6.59,6.59,0,0,0,2.73-1,8.36,8.36,0,0,0,1.46-1.16,10.74,10.74,0,0,0,2.46-3.71,1.44,1.44,0,0,0-.2-1.52l-.19-.21a9.6,9.6,0,0,1-2.09-3.2,12.16,12.16,0,0,1-.56-4.92,11.86,11.86,0,0,1,1.29-4.6,7.8,7.8,0,0,1,1.71-2.26A16.69,16.69,0,0,1,107,83.88a21.36,21.36,0,0,0-2.67,4.53,11.94,11.94,0,0,0-.63,2.12,26.31,26.31,0,0,0,.17,8.83Z"/><path class="cls-7" d="M104.29,88.41A21.36,21.36,0,0,1,107,83.88l0,0,0-.19a28,28,0,0,1,.14-5,14.8,14.8,0,0,1-2.3.35,12.94,12.94,0,0,0-1.5,4.6,13.74,13.74,0,0,0,1,4.84Z"/><path class="cls-8" d="M107,83.85a15.22,15.22,0,0,0,1,3.6l.07.18a7.46,7.46,0,0,1,1.56-1,14.19,14.19,0,0,1,5.7-1.31,16.7,16.7,0,0,1,5.08.66,11.33,11.33,0,0,1,1.94.71,19.23,19.23,0,0,1-1.53-5,10,10,0,0,1,.67-4.72,11.37,11.37,0,0,1,2.09-3.15c.25-.33.5-.67,1.67-.7a14.33,14.33,0,0,1,5.17,1,11.52,11.52,0,0,1,4.72,3.53,7.14,7.14,0,0,1,1.59,4.43,6.33,6.33,0,0,1-1.63,3.35,28.56,28.56,0,0,0-2.78,4.51,29.77,29.77,0,0,0-2.14,6.35,25.83,25.83,0,0,0-.72,6.73,12,12,0,0,0,1.46,5.39,9.84,9.84,0,0,0,3.39,3.65,9,9,0,0,0,3.38,1c.69.1.69.1.22-.12a7.8,7.8,0,0,1-2.32-1.58,9.19,9.19,0,0,1-2.31-4.33,17.81,17.81,0,0,1,0-7.88,42.94,42.94,0,0,1,3.6-9.76c1.53-3.07,3.15-5.69,4.14-8.35s1.33-5.36.35-7.81-3.17-4.51-5.41-6.63c-.51-1.5-1-3-.2-3.86s3-1.12,5.09-1.38c.93.09,1.85.17,2.75.32L141.83,61c-.53-.21-1.1-.42-1.75-.64-1.4-.48-3.17-1-4.62-1.35-.73-.18-1.39-.32-2.05-.43a14.84,14.84,0,0,0-2.08-.17c-1.53,0-3.43.12-5.34.27a5.77,5.77,0,0,1,0,2c-.44,2.17-2.3,3.94-4.1,5.51a45.84,45.84,0,0,0-5,4.68c-1.52,1.78-2.82,4-4.43,5.38a11.65,11.65,0,0,1-5.28,2.42,28,28,0,0,0-.14,5l0,.19Z"/><path class="cls-6" d="M131,55.56a15,15,0,0,0,2.46,3c.66.11,1.32.25,2.05.43,1.45.36,3.22.87,4.62,1.35.65.22,1.22.43,1.75.64-.91-.62-1.82-1.25-2.65-1.91a11.46,11.46,0,0,1-2.29-2.33A10.35,10.35,0,0,1,135.22,51c-.05-2.08.28-4.24-1.38-6.31s-5.3-4-7-5-1.61-1-.51-.13a23,23,0,0,1,4.27,4.17,5.22,5.22,0,0,1,1,4.4c-.34,1.3-1.2,2.42-1.42,3.67a5.86,5.86,0,0,0,.85,3.78Z"/><path class="cls-9" d="M140.31,54.3a14.23,14.23,0,0,0-1.13,4.79c.83.66,1.74,1.29,2.65,1.91l1.72.72c.37.06.74.14,1.11.22a6.42,6.42,0,0,1-1.5-3.58,6.28,6.28,0,0,1,1.9-4.33c1.21-1.15,2.92-1.71,4-2.77a5.17,5.17,0,0,0,1.36-3.75,3.74,3.74,0,0,0-.78-2.12c-.24-.34-.24-.34-.24-.41s0-.22-.22.52a9.51,9.51,0,0,1-1.7,3.56,13.4,13.4,0,0,1-4,2.59A6.8,6.8,0,0,0,140.31,54.3Z"/><path class="cls-9" d="M126,58.68a11.45,11.45,0,0,0-2.17-5,17.38,17.38,0,0,0-6.39-5.39,17.88,17.88,0,0,0-8.49-1.94,23.49,23.49,0,0,0-7.89,2.08c-2.38,1-4.48,2-5.46,3.27s-.84,2.93-1,4.38A13.17,13.17,0,0,1,93.54,60,20.69,20.69,0,0,0,92,64.2a12.67,12.67,0,0,0,.14,6.48,8.11,8.11,0,0,0,4,4.83c1.68.73,3.41.26,4.39.7s1.21,1.8,2.15,2.39a3.57,3.57,0,0,0,2.05.37,14.8,14.8,0,0,0,2.3-.35,11.65,11.65,0,0,0,5.28-2.42c1.61-1.41,2.91-3.6,4.43-5.38a45.84,45.84,0,0,1,5-4.68c1.8-1.57,3.66-3.34,4.1-5.51A5.77,5.77,0,0,0,126,58.68Z"/><path class="cls-5" d="M112.24,106.33c.13,1.09.26,2.17.47,3.1a24.67,24.67,0,0,0,.87,2.78c.38,1.09.85,2.49,1.33,3.88l.82.54c2.66,1.86,4.76,4.44,8.23,6,.37.17.76.32,1.16.46,3.35,1.17,7.74,1.54,12.71,1.39a81.85,81.85,0,0,0,16.61-2.17c1.27-.32,2.42-.68,3.47-1a33.25,33.25,0,0,0,3.88-4.83,20.26,20.26,0,0,0,2.38-6,57,57,0,0,1,1.84-7.2,6.34,6.34,0,0,1,3.12-3.4A29.75,29.75,0,0,1,173.44,98c1.67-.6,3.61-1.27,5.79-2.24a25.38,25.38,0,0,0,6.42-3.89,12.58,12.58,0,0,0,3.59-5.28,3.35,3.35,0,0,0-.49-3.47,3,3,0,0,0-2.78-.61,10.38,10.38,0,0,0-3.3,1.65,33.11,33.11,0,0,1-4.12,2.49,17.37,17.37,0,0,1-6,1.65,20.65,20.65,0,0,1-7.47-.61,9.84,9.84,0,0,1-4.88-3.28,19.73,19.73,0,0,1-2.83-5.13c-.87-2.07-1.8-4.56-3.23-7.5s-3.35-6.3-5.71-8.11a9.91,9.91,0,0,0-3.79-1.73c-.37-.08-.74-.16-1.11-.22-.9-.15-1.82-.23-2.75-.32-2.13.26-4.27.51-5.09,1.38s-.31,2.36.2,3.86c2.24,2.12,4.46,4.25,5.41,6.63s.63,5.15-.35,7.81-2.61,5.28-4.14,8.35a42.94,42.94,0,0,0-3.6,9.76,17.81,17.81,0,0,0,0,7.88,9.19,9.19,0,0,0,2.31,4.33,7.8,7.8,0,0,0,2.32,1.58c.47.22.47.22-.22.12a9,9,0,0,1-3.38-1,9.84,9.84,0,0,1-3.39-3.65,12,12,0,0,1-1.46-5.39,25.83,25.83,0,0,1,.72-6.73,29.77,29.77,0,0,1,2.14-6.35,28.56,28.56,0,0,1,2.78-4.51,6.33,6.33,0,0,0,1.63-3.35,7.14,7.14,0,0,0-1.59-4.43,11.52,11.52,0,0,0-4.72-3.53,14.33,14.33,0,0,0-5.17-1c-1.17,0-1.42.37-1.67.7a11.37,11.37,0,0,0-2.09,3.15,10,10,0,0,0-.67,4.72,19.23,19.23,0,0,0,1.53,5,11.33,11.33,0,0,0-1.94-.71,16.7,16.7,0,0,0-5.08-.66,14.19,14.19,0,0,0-5.7,1.31,7.46,7.46,0,0,0-1.56,1,7.8,7.8,0,0,0-1.71,2.26,11.86,11.86,0,0,0-1.29,4.6,12.16,12.16,0,0,0,.56,4.92,9.6,9.6,0,0,0,2.09,3.2l.19.21a15.44,15.44,0,0,0,2,2,20.22,20.22,0,0,0,2.34,1.56Zm39.7-15.93a2.84,2.84,0,1,1,2.84-2.83A2.83,2.83,0,0,1,151.94,90.4Z"/><path class="cls-7" d="M109.83,109a9.32,9.32,0,0,0,2.41-2.63,20.22,20.22,0,0,1-2.34-1.56,15.44,15.44,0,0,1-2-2,1.44,1.44,0,0,1,.2,1.52,10.74,10.74,0,0,1-2.46,3.71,8.36,8.36,0,0,1-1.46,1.16,7.39,7.39,0,0,0,2.4.53A5.75,5.75,0,0,0,109.83,109Z"/><path class="cls-7" d="M101.58,107.57a6.75,6.75,0,0,0,2.53-2.64,5.25,5.25,0,0,0,.13-3.56,5.71,5.71,0,0,1-1.17,2,2.62,2.62,0,0,1-2,.71,3.59,3.59,0,0,1-2.1-1.18,19.21,19.21,0,0,1-1.81-2.18c-.42-.56-.54-.73-.48-.3a13.63,13.63,0,0,0,.78,2.68,11.52,11.52,0,0,0,1.9,3.32,4.25,4.25,0,0,0,2.25,1.19Z"/><path class="cls-10" d="M154,207.3c-13-2-13.83-2.17-15.16,4.81-.1.48-.19,1-.29,1.55-1.57,8.53-4.69,25.59-7.82,42.66,2.25,0,4.61,0,7.15.1A225,225,0,0,1,166,258.71a280.74,280.74,0,0,1,32.3,7.15c4.83,1.35,9.42,2.74,13.45,4,3.75-17.23,7.51-34.46,9.45-43.08s2.09-8.61-11.73-10.79Z"/><path class="cls-1" d="M105.49,139.7a19,19,0,0,0,7.73,4.51c3.75,1.1,9.27,1.59,14.95,1.77a114.54,114.54,0,0,0,16.41-.51,87.56,87.56,0,0,0,10.88-2.08c2.06-.49,2.27-.45,1.3,1.22a46.21,46.21,0,0,1-6.21,8.32A53.91,53.91,0,0,1,138,162.64a69.67,69.67,0,0,1-17.9,7.19,63.24,63.24,0,0,1-16.47,1.57,44.53,44.53,0,0,1-9.19-1.25"/><path class="cls-11" d="M113.22,144.21a19,19,0,0,1-7.73-4.51c1.29,3.14,1,5.88.48,9a46.28,46.28,0,0,1-2.42,9.75,26.25,26.25,0,0,1-5.64,8.95,22.06,22.06,0,0,1-3.45,2.8,44.53,44.53,0,0,0,9.19,1.25,63.24,63.24,0,0,0,16.47-1.57,69.67,69.67,0,0,0,17.9-7.19,53.91,53.91,0,0,0,12.53-9.71,46.21,46.21,0,0,0,6.21-8.32c1-1.67.76-1.71-1.3-1.22a87.56,87.56,0,0,1-10.88,2.08,114.54,114.54,0,0,1-16.41.51c-5.68-.18-11.2-.67-14.95-1.77Z"/><path class="cls-1" d="M32.05,235.76l4.89-3"/><path class="cls-12" d="M36.94,232.74l-4.89,3c1.25,1.7,2.39,3.24,3.26,4.4,2.7,3.66,2.7,3.66,6.36,5l14.61,5.41c3.65,1.35,3.65,1.35-2.06-3.42-4.18-3.48-11.41-9.51-17.28-14.42Z"/><path class="cls-3" d="M87.05,256.65a83.26,83.26,0,0,0-4.19,16.43,142.43,142.43,0,0,0-1.54,21.27c0,7.26.53,14.26.8,17.76l-.13,0c.24,2.63.68,3.25,4.61,4.23,4.38,1.1,13.11,2.65,16.49,3,1.83.2,2.09.05,2-1l-.44-.13c0-.84,0-1.69,0-2.56a21.64,21.64,0,0,1-.12-2.3c0-5.55,1.92-15.82,3.47-24.24s2.71-15,4.25-20.25a50.44,50.44,0,0,1,1.76-5,49.7,49.7,0,0,1,3.56-7.35l2.27,0A10.52,10.52,0,0,1,122,256c.59-.14-.15-.61-5.3-2.52-2-.76-4.8-1.74-7.68-2.76-3.32-.53-9.32-3.29-13.19-4.63h0c-2.23-.76-3-.95-3.56-.51a2.74,2.74,0,0,0-.45.59c-.1.17-.2.37-.32.59l-.71,1.4-.09.18a85,85,0,0,0-3.63,8.3Z"/><path class="cls-1" d="M105.81,301.14a191.32,191.32,0,0,1,10.56-19.65c4.09-6.36,9-12.44,13.91-16.53s9.72-6.19,14.55-8.29"/><path class="cls-11" d="M106,300.74a185.64,185.64,0,0,1,10.36-19.25c4.09-6.36,9-12.44,13.91-16.53s9.72-6.19,14.55-8.29c-2.43-.12-4.74-.19-6.92-.25-2.54-.06-4.9-.09-7.15-.1-3.91,0-7.47,0-11,.08l-2.27,0a49.7,49.7,0,0,0-3.56,7.35h0c-.57,1.46-1.12,3-1.63,4.79-1.54,5.25-2.71,11.82-4,18.77-.81,4.45-1.67,9-2.35,13.39ZM119.8,256.4l-2.27,0Z"/><path class="cls-1" d="M81.75,308.91a30.48,30.48,0,0,0,6.46,2c3.07.6,7.5,1.12,10.48,1.44s4.49.47,6,.62"/><path class="cls-1" d="M81.37,302.68a33.2,33.2,0,0,0,5.88,2.78,26.47,26.47,0,0,0,6.59,1c2.3.13,4.69.13,6.61,0s3.36-.25,4.81-.42"/><path class="cls-1" d="M81.33,296.39a53.93,53.93,0,0,0,8.13,2.95,25.63,25.63,0,0,0,9.07.69,29.94,29.94,0,0,0,8-2.52"/><path class="cls-1" d="M81.45,287.94a57.16,57.16,0,0,0,11.23,3.8,37.65,37.65,0,0,0,10.51.35,10.79,10.79,0,0,0,4.45-1.27"/><path class="cls-1" d="M89,251.77a52.32,52.32,0,0,1,7.51-.06,32.61,32.61,0,0,1,7.27,1.6,33,33,0,0,1,6.37,2.85A50.47,50.47,0,0,1,115.6,260"/><path class="cls-1" d="M81.69,283.69a63.21,63.21,0,0,0,9.84,3.08,62.05,62.05,0,0,0,10.84,1.12,27.24,27.24,0,0,0,6-.54"/><path class="cls-1" d="M82.16,278.41a98,98,0,0,0,10.65,3.09,41.88,41.88,0,0,0,8.77.76c2.67,0,5.18-.15,7.69-.28"/><path class="cls-1" d="M83.39,269.59c3.37.75,6.74,1.49,10,2.24s6.42,1.53,9.26,2.21,5.37,1.27,6.65,1.44,1.31-.08,1.34-.33"/><path class="cls-1" d="M85,262.88c3.25.51,6.5,1,9.4,1.56a40.46,40.46,0,0,1,7.64,2.05,29.76,29.76,0,0,1,5.44,3.09l3.81,2.6"/><path class="cls-1" d="M87.05,256.65c3.26.19,6.51.39,9.47.83a47.06,47.06,0,0,1,7.88,1.88,17.51,17.51,0,0,1,5.6,2.73,14.15,14.15,0,0,1,3.1,4.08"/><path class="cls-1" d="M105.08,307.73A105.17,105.17,0,0,0,123.29,314a186.69,186.69,0,0,0,34,5,159.48,159.48,0,0,0,38.23-2.48c11.56-2.3,21-6.05,27.77-11.77S234,291.4,237.38,281.71a167.11,167.11,0,0,0,7.55-32.8c1.45-11.43,1.62-22.61-.05-31s-5.16-13.91-9.29-18a33.76,33.76,0,0,0-13.92-8.24c-5-1.56-10.24-2.05-15.47-2.55"/><path class="cls-1" d="M107.66,297.37a64.85,64.85,0,0,0,17.43,6,191,191,0,0,0,34,3.31c12.41.08,24.27-1.2,33.44-3.93s15.66-6.91,21.33-13.48,10.54-15.52,13.7-24.48a79.12,79.12,0,0,0,4.6-25.9,59.2,59.2,0,0,0-3.41-20.26,27.59,27.59,0,0,0-7.63-11.69,37,37,0,0,0-10.37-6.16,47,47,0,0,0-8.35-2.4"/><path class="cls-1" d="M199.44,214.41c.57-4.28,1.15-8.57,2.11-12.67a52.85,52.85,0,0,1,4-11.27,26.27,26.27,0,0,1,5.44-7.6,25,25,0,0,1,6-3.85"/><path class="cls-1" d="M30.91,234.2,33.67,230"/><path class="cls-1" d="M49.55,222.76c1.86-4.09,3.72-8.19,6.47-11.65a35,35,0,0,1,9.46-8.05,33.32,33.32,0,0,1,8.08-3.24"/><path class="cls-1" d="M55.92,221.21c1.3-2.61,2.59-5.23,3.91-7.31a13.46,13.46,0,0,1,4.67-4.83,29.53,29.53,0,0,1,6.07-2.41l1.35-.4"/><path class="cls-1" d="M38.76,214.65c1.52-3.47,3.05-6.94,4.86-10.76s3.9-8,6.57-11.13a33.7,33.7,0,0,1,9.14-7c3.22-1.88,6.41-3.59,8.58-4.69s3.31-1.62,4.46-2.13"/><path class="cls-1" d="M34.57,211.48a102.77,102.77,0,0,1,4.16-10.71,64.87,64.87,0,0,1,6.13-10.4,27.64,27.64,0,0,1,6.75-6.75A34,34,0,0,1,60,179.74c3.35-1.14,7.37-2.29,11.39-3.45"/><path class="cls-1" d="M108,289.08a182,182,0,0,0,21.87,5.73,142.36,142.36,0,0,0,23.66,1.91,106,106,0,0,0,22.95-2,70.28,70.28,0,0,0,19.28-7.29,66.91,66.91,0,0,0,12-8.83A26.52,26.52,0,0,0,214.7,270a92.88,92.88,0,0,0,5.85-15.91,100.59,100.59,0,0,0,2.9-14.85,50.33,50.33,0,0,0,.39-10.61,16.26,16.26,0,0,0-1.8-5.81"/><path class="cls-1" d="M110.64,275.15c3.13,2.6,6.27,5.2,11.44,7.17s12.35,3.3,20.26,3.92a118.17,118.17,0,0,0,23.86-.44,76.67,76.67,0,0,0,17.92-4.65,51.23,51.23,0,0,0,10.74-5.71c3.23-2.21,6.72-4.92,10.2-7.63"/><path class="cls-1" d="M218.74,217.73a64.12,64.12,0,0,0-6.46-6.22,28,28,0,0,0-6.2-3.65c-1.92-.86-3.64-1.46-5.36-2.05"/><path class="cls-1" d="M113.1,266.17A143.86,143.86,0,0,0,127.83,270a94.3,94.3,0,0,0,18.92,1.63,160.6,160.6,0,0,0,22.39-2A101.89,101.89,0,0,0,184.56,266c3.1-1.07,3.82-1.82,4.54-2.58"/><path class="cls-1" d="M116.14,259.57a78,78,0,0,0,12.93,2.83,92.36,92.36,0,0,0,14.82-.11c5.67-.34,12.33-.77,16.18-1.38s4.9-1.41,6-2.2"/><path class="cls-1" d="M43.59,218.29a92.48,92.48,0,0,1,5.5-10.11,50.05,50.05,0,0,1,6.52-7.74,53.93,53.93,0,0,1,6.83-5.93,43,43,0,0,1,6.49-3.64c2-1,3.68-1.74,5.38-2.52"/><path class="cls-1" d="M49.55,222.76c4.93,3.65,9.86,7.29,13.22,9.72s5.13,3.63,7.19,5.3,4.4,3.78,6.75,5.9"/><path class="cls-1" d="M11.08,233.44c2.81,3.86,5.62,7.73,8.14,11.15S24,251,26.39,253.9a58.79,58.79,0,0,0,8.14,8.3,118.41,118.41,0,0,0,11,7.61"/><path class="cls-1" d="M9.09,254.51l8.6,11.94a13.81,13.81,0,0,0,3.46,3.84l8.71,7.26"/><path class="cls-1" d="M27.33,229.27l1.83-3"/><path class="cls-13" d="M165,106.74l-12.68,1.83"/><path class="cls-1" d="M119.79,93.22a5.45,5.45,0,0,0-2.6-.85A4.22,4.22,0,0,0,114,93.53a4.41,4.41,0,0,0-.6,3.14,4,4,0,0,0,.85,2.43,5.46,5.46,0,0,0,2.76,1.69c1.19.31,2.58.26,3.52.46a2.62,2.62,0,0,1,1.68,1,1.33,1.33,0,0,1,.25.88"/><path class="cls-14" d="M138.87,212.11l-18.22-2.67c-3.65-.53-3.66-.47-4.91,6h0c-1.26,6.47-4.25,22.47-6.73,35.29,2.88,1,5.63,2,7.68,2.76,5.15,1.91,5.89,2.38,5.3,2.52a10.52,10.52,0,0,0-2.19.39c3.49-.06,7-.1,11-.08,3.13-17.07,6.25-34.13,7.82-42.66.1-.55.19-1.07.29-1.55Z"/><path class="cls-1" d="M156.65,237.28l35.63,5.58"/><path class="cls-1" d="M156,242.55l33.46,5.26"/><ellipse class="cls-15" cx="151.07" cy="223.95" rx="6.82" ry="6.51"/><ellipse class="cls-15" cx="161.91" cy="219" rx="3.41" ry="3.25"/><path class="cls-1" d="M16.24,282c-1.41,6.3-2.82,12.59-3.76,17.65a134.63,134.63,0,0,0-1.86,13.64c-.44,4.74-.83,10.39-1.21,16"/><path class="cls-1" d="M252.35,279c1.62,11.9,3.24,23.79,3.41,33.27s-1.12,16.53-2.4,23.58"/><path class="cls-16" d="M86.6,316.31c-3.93-1-4.37-1.6-4.61-4.23L39.1,300.87c-8.6-2.25-8.6-2.25-13.33-7.76L16.24,282c-1.41,6.3-2.82,12.59-3.76,17.65a134.63,134.63,0,0,0-1.86,13.64c-.44,4.74-.83,10.39-1.21,16a40.48,40.48,0,0,0,29.47,12.75H231.77a40.3,40.3,0,0,0,21.59-6.26c1.28-7.05,2.56-14.11,2.4-23.58S254,290.88,252.35,279c-1.88,5.64-3.87,11.08-5.8,15.72C241.15,307.77,236.3,314.64,230,320a57.77,57.77,0,0,1-21.79,11.22,79.43,79.43,0,0,1-24.42,2.48,224.87,224.87,0,0,1-26.44-2.88c-8.65-1.37-16.74-2.88-25.44-5S114.21,321,105,318.31c.14,1.06-.12,1.21-2,1-3.38-.36-12.11-1.91-16.49-3Z"/><path class="cls-1" d="M19.45,337.11c.82-8.19,1.64-16.38,3-23.36a147.42,147.42,0,0,1,5.16-18.52"/><path class="cls-1" d="M33.73,341.76a114.65,114.65,0,0,1-.13-14.25,54.92,54.92,0,0,1,2.85-14.08,70.89,70.89,0,0,1,5.81-11.74"/><path class="cls-1" d="M51.22,342.09c.38-4.35.76-8.7,1.42-13.25s1.61-9.29,2.28-13.23,1-7.09,1.43-10.23"/><path class="cls-1" d="M69.71,342.09c.66-3.4,1.33-6.81,1.85-10.4s.9-7.39,1.32-11,.89-7.12,1.36-10.61"/><path class="cls-1" d="M92.18,342.09c.57-3.59,1.14-7.18,1.43-10.17s.28-5.35.43-7.56.46-4.28.77-6.34"/><path class="cls-1" d="M107.26,342.09a82.77,82.77,0,0,0,2.37-9.64,50,50,0,0,0,.49-7.84c0-2.06,0-3.43.06-4.8"/><path class="cls-1" d="M126,342.09c0-2.83,0-5.67,0-8.64s0-6.07,0-9.17"/><path class="cls-1" d="M143.39,342.09c-.09-2.55-.19-5.1-.4-7.44s-.54-4.48-.87-6.61"/><path class="cls-1" d="M158.47,342.09c.29-2.08.57-4.15.65-6A39.64,39.64,0,0,0,159,331"/><path class="cls-1" d="M176.68,342.09c.17-2.95.33-5.89.5-8.83"/><path class="cls-1" d="M201.71,342.09q-.6-4.63-1.21-9.27"/><path class="cls-1" d="M188.91,342.09c0-2.79,0-5.58,0-7s-.14-1.39-.23-1.39"/><path class="cls-1" d="M216.79,342.09c.29-2.64.57-5.29.63-7.64a57.86,57.86,0,0,0-.28-6.48"/><path class="cls-1" d="M225,342.09a72.68,72.68,0,0,0,1.9-7.56,20.22,20.22,0,0,0,.15-6A44.7,44.7,0,0,0,226,323"/><path class="cls-1" d="M241.92,340.79a108.84,108.84,0,0,0,1.16-11.64,49.37,49.37,0,0,0-.93-10.25c-.62-3.39-1.48-7-2.34-10.54"/><path class="cls-1" d="M88.74,178.34c3.75-1.14,7.49-2.29,11.51-5.13a40.48,40.48,0,0,0,10.8-11.69,30.27,30.27,0,0,0,3.69-11.19,49,49,0,0,0,.54-5.61"/><path class="cls-1" d="M90.43,190c6.13-3.4,12.27-6.8,17.09-10.69A52.56,52.56,0,0,0,118.45,167a45.37,45.37,0,0,0,5.37-11,72.93,72.93,0,0,0,2.26-10.16"/><path class="cls-1" d="M147.77,145c-.3,3.81-.6,7.62-1,10.8s-.94,5.72-1.16,8.37a67.92,67.92,0,0,0,0,8.45c.12,3,.29,6.29.42,9.52a69.71,69.71,0,0,0,.94,10.51c.74,4.09,2.14,9.08,3.54,14.08"/><path class="cls-1" d="M156.76,144.61c-.38,5.07-.77,10.13-.92,15.09a134,134,0,0,0,.31,14.74,113.25,113.25,0,0,0,1.93,14.1,50.14,50.14,0,0,0,3.52,11.11,83.88,83.88,0,0,0,5.56,9.7"/><path class="cls-1" d="M164.91,139.42c0,3.6,0,7.21-.12,11.49a136.61,136.61,0,0,0,0,14.47,67.58,67.58,0,0,0,2.85,15.35c1.47,4.58,3.4,8.18,6.25,10.91a27.19,27.19,0,0,0,10,5.71,30.66,30.66,0,0,0,9.45,1.6,77,77,0,0,0,9.09-.58"/><path class="cls-1" d="M169.7,136.14c.08,4.2.16,8.39.62,14.52s1.3,14.18,3.53,19.84a18.62,18.62,0,0,0,10.23,10.86c4.41,1.93,9.61,2.52,14.09,2.68a105.52,105.52,0,0,0,12-.4"/><path class="cls-1" d="M120.65,209.44a91,91,0,0,0,6.41-12.35,100.84,100.84,0,0,0,5.84-19.87c1.49-7.88,2.26-16.82,2.72-22.2s.62-7.19.77-9"/><path class="cls-1" d="M88.11,208.31c7-4.65,14-9.29,19.1-14.16s8.43-10,11.73-16.16a156.81,156.81,0,0,0,8.57-19A68.91,68.91,0,0,0,130.77,146"/><path class="cls-1" d="M107.77,141.55a57.19,57.19,0,0,1-1.07-9.69c0-3.63.43-7.88,1.64-10.74s3.14-4.36,5.08-5.86"/><path class="cls-1" d="M123.08,145.72c.68-3.22,1.35-6.44,1.79-9.38a65.16,65.16,0,0,0,.7-7.74c.06-2.14,0-3.78-.08-5.42"/><path class="cls-1" d="M117.44,145.11c.1-2.62.2-5.24.39-7.75a51.93,51.93,0,0,1,.94-7.17,28.08,28.08,0,0,1,1.9-5.85,10.38,10.38,0,0,1,1.49-2.23c.23-.32.06-.42-.1-.52"/><path class="cls-1" d="M128.17,146c.77-2.71,1.54-5.42,2.12-8.14a42.24,42.24,0,0,0,1-7.7,26.09,26.09,0,0,0-.4-5l-.15-.91"/><path class="cls-1" d="M113.22,144.21c-.15-2.12-.3-4.24-.24-6.76a40.55,40.55,0,0,1,.92-8,20.12,20.12,0,0,1,2.54-6.29,13.88,13.88,0,0,1,3.24-3.32"/><path class="cls-1" d="M101.82,133.55a44.32,44.32,0,0,1,.07-7.83,25,25,0,0,1,2-6.78c.92-2,2-3.91,3.25-4.64s2.81-.3,4.34.12"/><path class="cls-1" d="M135.06,146.05c.79-2.94,1.59-5.87,2.09-8.69a56.66,56.66,0,0,0,.76-7.68c.06-2.13,0-3.68-.08-5.23"/><path class="cls-1" d="M140.44,145.84a59.34,59.34,0,0,0,1.52-6.63,49.9,49.9,0,0,0,.42-6.6,54.53,54.53,0,0,0-.09-5.49,10.88,10.88,0,0,0-.63-2.87"/><path class="cls-1" d="M146,145.3a70.48,70.48,0,0,0,1.69-7.44,31.83,31.83,0,0,0,.24-6.35,27.61,27.61,0,0,0-.6-4.79,13.68,13.68,0,0,0-1.1-2.93"/><path class="cls-1" d="M151.63,144.28c.53-2.19,1.06-4.37,1.38-6.51a24.24,24.24,0,0,0,.23-6.15,37.78,37.78,0,0,0-1.09-5.14c-.35-1.43-.52-2.48-.7-3.53"/><path class="cls-1" d="M159.73,142c.54-3,1.08-6.05,1.32-8.5a18.53,18.53,0,0,0-.19-5.81,9.78,9.78,0,0,0-1.6-3.5,34,34,0,0,0-2.17-2.69"/><path class="cls-1" d="M164.91,139.42A48,48,0,0,0,166.2,132a11,11,0,0,0-.9-5,20.83,20.83,0,0,0-2.19-4,12.6,12.6,0,0,0-2.23-2.5,4.16,4.16,0,0,0-1.59-.79"/><path class="cls-1" d="M169.7,136.14a38.4,38.4,0,0,0,1.34-8,11.17,11.17,0,0,0-1.73-6.4,9.56,9.56,0,0,0-4.42-3.58,8.24,8.24,0,0,0-4.18-.22"/><path class="cls-1" d="M173.56,131.81c1-2.95,2-5.91,2-7.92a4.52,4.52,0,0,0-2.09-4,16.71,16.71,0,0,0-3.84-2.08,15.28,15.28,0,0,0-4.15-1.15,15.63,15.63,0,0,0-3.88.21"/><path class="cls-17" d="M112.2,77.91a57.38,57.38,0,0,1-6.68-4.5A12.44,12.44,0,0,1,100.94,67c-.68-2.75-.23-6.24.22-9.73"/><path class="cls-17" d="M114.55,74.92a26.25,26.25,0,0,0-1.33-7,17.84,17.84,0,0,0-4.71-7.18c-2.13-1.82-4.74-2.65-7.35-3.47"/><path class="cls-17" d="M119.47,69.89c0-2.85.09-5.7-.66-8a10.08,10.08,0,0,0-4.51-5.58,13.4,13.4,0,0,0-7.42-2.11,9,9,0,0,0-4.93,2c-.86.69-.82.86-.79,1"/><path class="cls-17" d="M124.56,66.24c-1.17-4.35-2.34-8.69-4.21-11.33a10.19,10.19,0,0,0-7-4,17.17,17.17,0,0,0-7.06,0,7,7,0,0,0-4,2.59,5.4,5.4,0,0,0-.8,3.12"/><path class="cls-17" d="M94.77,53.08a8.25,8.25,0,0,1,4.07.47,7.87,7.87,0,0,1,2.6,3.09"/><path class="cls-17" d="M102.2,47.69a16.8,16.8,0,0,0-.93,3.58,36.58,36.58,0,0,0-.17,4.81"/><path class="cls-17" d="M107.62,79.14c-3.64-2-7.29-4.06-9.5-7.39s-3-8-2.22-10.6,3-3.29,5.26-3.93"/><ellipse class="cls-18" cx="101.45" cy="56.8" rx="1.67" ry="1.05"/></g></g></svg>