<svg id="Слой_1" data-name="Слой 1" xmlns="http://www.w3.org/2000/svg" xmlns:xlink="http://www.w3.org/1999/xlink" viewBox="0 0 252 299"><defs><style>.cls-1{fill:url(#Безымянный_градиент_2);}.cls-2,.cls-25,.cls-26,.cls-27,.cls-3{fill:none;}.cls-10,.cls-11,.cls-19,.cls-25,.cls-3,.cls-5,.cls-6,.cls-7,.cls-8,.cls-9{stroke:#2c2b2a;}.cls-10,.cls-11,.cls-15,.cls-18,.cls-19,.cls-24,.cls-25,.cls-26,.cls-27,.cls-3,.cls-4,.cls-5,.cls-6,.cls-7,.cls-8,.cls-9{stroke-miterlimit:10;}.cls-10,.cls-11,.cls-15,.cls-18,.cls-19,.cls-24,.cls-26,.cls-3,.cls-4,.cls-5,.cls-6,.cls-7,.cls-8,.cls-9{stroke-width:0.57px;}.cls-15,.cls-4,.cls-6{fill:#444243;}.cls-15,.cls-4{stroke:#444243;}.cls-5{fill:#2e2e2e;}.cls-10,.cls-11,.cls-12,.cls-13,.cls-15,.cls-16,.cls-17,.cls-18,.cls-20,.cls-22,.cls-23,.cls-5,.cls-6,.cls-7,.cls-8,.cls-9{fill-rule:evenodd;}.cls-7{fill:#9e9e9e;}.cls-12,.cls-8{fill:#ebd7c3;}.cls-13,.cls-9{fill:#6673b6;}.cls-10,.cls-19{fill:#2c2b2a;}.cls-11{fill:#fdefe5;}.cls-14{clip-path:url(#clip-path);}.cls-16{fill:#44231a;}.cls-17{fill:#613526;}.cls-18,.cls-22{fill:#fecc04;}.cls-18{stroke:#fecc04;}.cls-20{fill:#fef6b4;}.cls-21{mask:url(#mask);}.cls-23,.cls-24{fill:#fdf082;}.cls-24{stroke:#fdf082;}.cls-25{stroke-width:0.5px;}.cls-26,.cls-27{stroke:#44231a;}.cls-27{stroke-width:0.99px;}</style><linearGradient id="Безымянный_градиент_2" x1="1244.03" y1="-2017.3" x2="1267.19" y2="221.97" gradientTransform="matrix(0.03, 0, 0, -0.03, 93.28, 125.1)" gradientUnits="userSpaceOnUse"><stop offset="0" stop-color="#fff"/><stop offset="1" stop-color="#fff" stop-opacity="0"/></linearGradient><clipPath id="clip-path"><path class="cls-2" d="M160.25,169.66c.22-5.46.22-5.46-9-4.69L114.56,168c-9.18.76-9.18.76-8.32,4.67s2,11.26,3.7,19a3.76,3.76,0,0,1,3.23,3.68c0,1.23-1.06,1.74,1.41-.2s8.51-6.32,11.6-8.51,3.24-2.19,4.19-2.46a10.37,10.37,0,0,1,4.2-.55A5,5,0,0,1,138,186c.63,1.09-.19,3.31-.23,3.82s.21-.25-1.87,1.76-6.43,6.48-7.76,7.84c-.35.36-.68.65-1,.9a127.09,127.09,0,0,0,10.23-7.86l.5-.46a71.45,71.45,0,0,0,5.53-6.1,3.44,3.44,0,0,1,2.67-1.55,19.27,19.27,0,0,1,5.61-.58,5,5,0,0,1,4,2.38,3.09,3.09,0,0,1,.32,1.06,5.18,5.18,0,0,1-.64,2.89,11.31,11.31,0,0,1-.88,1.46,30,30,0,0,1-2.92,3.5,4.07,4.07,0,0,1,1.78-1.12,6.17,6.17,0,0,1,3.64.4,4.82,4.82,0,0,1,2.22,1.59c0-10.91.84-20.84,1.07-26.29Z"/></clipPath><mask id="mask" x="87.85" y="88.51" width="82.5" height="80.59" maskUnits="userSpaceOnUse"><g id="id1"><rect class="cls-1" x="87.85" y="88.51" width="82.5" height="80.59"/></g></mask></defs><g id="Слой_1-2" data-name="Слой_1"><path class="cls-3" d="M100.41,84.21a13.23,13.23,0,0,1-2.65.53,6.85,6.85,0,0,1-3.37-.54,9.7,9.7,0,0,1-4-3.31,17.26,17.26,0,0,1-2.69-6.52,13.62,13.62,0,0,1,.19-6.68,6.35,6.35,0,0,1,3-3.71,6.52,6.52,0,0,1,3.2-.62,2.62,2.62,0,0,1,1.55.31,5.25,5.25,0,0,1,1.65,1.48,7.42,7.42,0,0,1,1,2.3c.21.76.33,1.44.4,1.78a4.23,4.23,0,0,1,.08.59A7.28,7.28,0,0,0,99,71.15a4.85,4.85,0,0,0,.71,1.54,3.22,3.22,0,0,0,1,.83"/><path class="cls-3" d="M144,85.4a19,19,0,0,0,3.25.72,7.82,7.82,0,0,0,3.78-.51,10.52,10.52,0,0,0,4.41-3.3,16.46,16.46,0,0,0,3-6.52,12.42,12.42,0,0,0-.2-6.68,6.61,6.61,0,0,0-3.33-3.72,7.94,7.94,0,0,0-3.53-.61,3.28,3.28,0,0,0-1.71.3,5.65,5.65,0,0,0-1.81,1.48,7,7,0,0,0-1.1,2.3c-.23.76-.37,1.44-.44,1.78l-.06.34"/><path class="cls-3" d="M9.46,199.73A59.79,59.79,0,0,0,5,208.81a27.59,27.59,0,0,0-1.22,9c-.09,3.67-.09,8.51.21,13.43a76,76,0,0,0,2.25,15,96.51,96.51,0,0,0,5.27,14.3A38.48,38.48,0,0,0,18,271.22a56.42,56.42,0,0,0,11.45,9.54,110.62,110.62,0,0,0,12.35,6.39c4.23,2,8.72,4.36,12.61,5.92A21.31,21.31,0,0,0,66,294.8a69.28,69.28,0,0,0,13.08-3.67c2.89-1.08,3-1.26,5.31-4.5s6.91-9.54,10.89-14.51,7.34-8.59,10.71-12.22"/><path class="cls-3" d="M68.45,223.11c-4.32,1.81-8.64,3.63-10.71,4.45s-1.9.65-4.28,1.55a73,73,0,0,1-11.57,3.72,38.6,38.6,0,0,1-11.53.13"/><path class="cls-3" d="M173.38,231.4c5.88.87,11.75,1.73,14.86,2.12s3.45.3,9.24,0,17-.69,22.71-1,5.88-.48,6.05-.65"/><path class="cls-3" d="M68.45,223.11a102.73,102.73,0,0,0,3.1,10,47.64,47.64,0,0,0,4.28,8.24,39.92,39.92,0,0,0,5.53,7,34.37,34.37,0,0,0,7.21,5.57,32.94,32.94,0,0,0,7.17,2.68c2.85.87,6.56,2.07,10.28,3.28"/><path class="cls-3" d="M158.87,279.6a88.35,88.35,0,0,0,9.07-12.05,55.44,55.44,0,0,0,5.36-13,75.75,75.75,0,0,0,2.07-10.8,75.57,75.57,0,0,0,.78-8.37,8.42,8.42,0,0,0-.66-3.67"/><path class="cls-3" d="M183.19,288.84a103.75,103.75,0,0,0,7.08-14.06,73.54,73.54,0,0,0,4.18-17.14,87.57,87.57,0,0,0,.53-16.83,14.37,14.37,0,0,0-2.12-7.05"/><path class="cls-3" d="M68.45,223.11l11-9.77,2.21-2h0"/><path class="cls-3" d="M126.73,200.85a125.31,125.31,0,0,0,10.64-8.37,66.19,66.19,0,0,0,6-6.56,3.44,3.44,0,0,1,2.67-1.55,19.27,19.27,0,0,1,5.61-.58,5,5,0,0,1,4,2.38,4.34,4.34,0,0,1-.32,4,17.93,17.93,0,0,1-2.35,3.33c-.56.65-.56.65-1.51,1.67s-2.83,3.06-5.67,5.81-6.59,6.21-10.36,9.66"/><path class="cls-3" d="M150.82,195.83a5.53,5.53,0,0,1,2.5-1.87,6.17,6.17,0,0,1,3.64.4,4.26,4.26,0,0,1,2.62,2.35,8.08,8.08,0,0,1,.18,3.35c-.07.65-12.77,15.69-15.37,19.06"/><path class="cls-3" d="M144.39,219.12c1.75-.47,3.14-1.1,5.87-3.51a27.09,27.09,0,0,0,4.76-5.77c1.16-1.89,4.41-3.94,6.77-3.12,1.81.63,1.84,2.94,2.11,4.06s-.71,2.23-1.57,3.87-3,5.36-4.6,8.61"/><path class="cls-3" d="M172.39,222.44a48.33,48.33,0,0,0-.22,6.78,2.43,2.43,0,0,0,1.21,2.18"/><path class="cls-3" d="M159.13,201l-.27,5.87"/><path class="cls-3" d="M106,259.9l3.18-2"/><ellipse class="cls-4" cx="123.67" cy="93.81" rx="2.04" ry="3.52"/><path class="cls-3" d="M6.22,246.21Q5.13,263.6,4.05,281"/><path class="cls-3" d="M246.09,245q.12,19.59.26,39.18"/><path class="cls-5" d="M163.66,273.76c-17.22-4.57-34.44-9.13-43.13-11.42-7.37-1.93-8.61-2.23-11.33-4.45l-3.18,2c-3.37,3.63-6.74,7.26-10.71,12.22s-8.55,11.28-10.89,14.51-2.42,3.42-5.31,4.5A69.28,69.28,0,0,1,66,294.8a21.31,21.31,0,0,1-11.66-1.73c-3.89-1.56-8.38-3.89-12.61-5.92a110.62,110.62,0,0,1-12.35-6.39A56.42,56.42,0,0,1,18,271.22a38.48,38.48,0,0,1-6.47-10.71,96.51,96.51,0,0,1-5.27-14.3Q5.13,263.6,4.05,281a38.46,38.46,0,0,0,31,15.82H217.91a38.39,38.39,0,0,0,28.44-12.63q-.14-19.59-.26-39.18a60.07,60.07,0,0,1-2.58,6.12,65.9,65.9,0,0,1-19.08,23.32c-7.78,5.79-16.33,8.73-23.54,10.89s-13.08,3.54-17.7,3.54-8-1.38-11.84-3.16-8.16-3.93-12.48-6.08c1.63-1.93,3.26-3.86,4.79-5.84Z"/><path class="cls-6" d="M250,215.16c-2.54-11.09-5.07-22.17-11.17-33.1a78.17,78.17,0,0,0-24.74-26.73q-2-1.34-4.14-2.58c-13.12-7.6-29.69-12-37.83-14.26l-.46-.12c-7.67-2.09-7.43-2.11-9.52-2.73A61.25,61.25,0,0,1,152,132a16.87,16.87,0,0,1-6.85-6,12.38,12.38,0,0,1-1.69-6,35.29,35.29,0,0,1,.07-6.26,13,13,0,0,1,1.69-5.46c1-1.74,2.66-3.49,3.69-5.78s1.47-5.15.07-6.66-4.64-1.66-6.55-1.11a4.35,4.35,0,0,0-2.4,1.7,26,26,0,0,1-1.87,2.82,20.6,20.6,0,0,1-4.94,5.15,19.57,19.57,0,0,1-15.16,3.18,16.65,16.65,0,0,1-5.67-2,17.31,17.31,0,0,1-2.7-2,24.93,24.93,0,0,1-5.45-6.12c-1.49-1.7-2.67-2.65-4.08-2.58a4.92,4.92,0,0,0-4.12,3.72c-.59,2.22.15,5.23,1.84,8.16s4.34,5.78,5.89,9a15.63,15.63,0,0,1,1.47,9.43c-.51,2.77-2,4.83-11.93,7.84-2.52.76-5.59,1.59-9,2.47-9.91,2.6-22.45,5.71-31.46,9.25a50,50,0,0,0-13.75,7.71,52.48,52.48,0,0,0-10.33,11.93c-6.25,9.35-13,22.5-19.8,35.65A59.83,59.83,0,0,0,4.53,209a28.18,28.18,0,0,0-1.22,9c-.09,3.67-.09,8.51.21,13.43a76.81,76.81,0,0,0,2.25,15A96.37,96.37,0,0,0,11,260.73a38.6,38.6,0,0,0,6.48,10.71A56.35,56.35,0,0,0,29,281a111.6,111.6,0,0,0,12.35,6.4c4.23,2,8.72,4.36,12.61,5.91A21.23,21.23,0,0,0,65.58,295a69.61,69.61,0,0,0,13.09-3.67c2.89-1.08,3-1.25,5.31-4.49s6.91-9.55,10.88-14.51A46.37,46.37,0,0,1,84.24,270a61.26,61.26,0,0,1-11.13-6.25,126.32,126.32,0,0,1-11.65-8.51,39.31,39.31,0,0,1-9.14-10.39c-2.28-4-3.65-8.68-5-13.36,2.32-.78,4.41-1.6,5.71-2.1,2.38-.91,2.21-.74,4.28-1.56s6.39-2.63,10.71-4.45l11.06-9.76,1.6-1.42h0c7.42-6.46,14.84-12.92,18.46-16.24s3.46-3.49,4.69-3.87,4.64-.7,5.77-.29.1-.07.4.13c-1.73-7.81-2.87-15.27-3.74-19.18s-.86-3.91,8.32-4.67L151.29,165c9.18-.77,9.18-.77,9,4.69S159.2,185,159.18,196c0,2.16.73,3.64-.5,5.27-.09,2-.18,3.91-.26,5.87a4.37,4.37,0,0,1,2.93-.14c1.8.63,1.83,2.93,2.11,4.05s-.71,2.23-1.58,3.88-3,5.35-4.59,8.6c1.18-.75,2.35-1.49,3.21-2,1.87-1.1,2.23-1.1,2.88-2.78s1.56-5,3-7a5.05,5.05,0,0,1,5-2.27,5.9,5.9,0,0,1,3.1,2.27c.52.64.52.64,0,2.59s-1.6,5.85-2.66,9.75a36.07,36.07,0,0,0-.12,5.44,2.4,2.4,0,0,0,1.21,2.18l2.1.31c5.14.76,10,1.47,12.75,1.81a24.52,24.52,0,0,0,4.62.25,14.32,14.32,0,0,1,2.12,7,86.75,86.75,0,0,1-.53,16.83A72.31,72.31,0,0,1,189.82,275a101.49,101.49,0,0,1-7.08,14.06c4.62,0,10.49-1.38,17.71-3.54s15.76-5.1,23.53-10.88a66.21,66.21,0,0,0,19.09-23.32,62.46,62.46,0,0,0,2.57-6.13,81.15,81.15,0,0,0,4.09-18,53.61,53.61,0,0,0,.23-12Z"/><path class="cls-7" d="M81.27,248.62a39.92,39.92,0,0,1-5.53-7,47.39,47.39,0,0,1-4.28-8.25,99.81,99.81,0,0,1-3.11-10c-4.31,1.81-8.63,3.63-10.71,4.45s-1.9.64-4.27,1.55c-1.31.5-3.39,1.33-5.71,2.11,1.37,4.68,2.74,9.36,5,13.36h0a38,38,0,0,0,7.64,9.09c.49.44,1,.86,1.49,1.29a125.81,125.81,0,0,0,11.6,8.48l0,0A61.81,61.81,0,0,0,84.59,270a46.57,46.57,0,0,0,10.62,2.39c4-5,7.35-8.59,10.71-12.22-3.71-1.21-7.42-2.42-10.27-3.28a32.94,32.94,0,0,1-7.17-2.68,34.71,34.71,0,0,1-7.21-5.57Z"/><path class="cls-7" d="M194.45,257.64a87.57,87.57,0,0,0,.53-16.83,14.37,14.37,0,0,0-2.12-7.05,24.44,24.44,0,0,1-4.62-.24c-2.74-.34-7.62-1.05-12.75-1.81a8.42,8.42,0,0,1,.66,3.67,75.57,75.57,0,0,1-.78,8.37,75.75,75.75,0,0,1-2.07,10.8,55.44,55.44,0,0,1-5.36,13,57.15,57.15,0,0,1-4.28,6.21c-1.53,2-3.16,3.91-4.79,5.84,4.32,2.15,8.64,4.31,12.48,6.08s7.22,3.16,11.84,3.16a103.75,103.75,0,0,0,7.08-14.06,73.54,73.54,0,0,0,4.18-17.14Z"/><path class="cls-8" d="M159.58,196.71a4.26,4.26,0,0,0-2.62-2.35,6.17,6.17,0,0,0-3.64-.4,4.26,4.26,0,0,0-1.91,1.24l-.59.63c-1.06,1.13-2.73,2.89-5,5.1-2.83,2.75-6.59,6.21-10.36,9.66,3.12,2.95,6.31,6,8.94,8.53,2.26-2.93,12.14-14.66,14.74-18.12a5.17,5.17,0,0,0,.63-.94,8.08,8.08,0,0,0-.18-3.35Z"/><path class="cls-8" d="M162.33,214.65c.86-1.64,1.85-2.76,1.57-3.87s-.3-3.43-2.11-4.06a4.44,4.44,0,0,0-2.93.15,7.88,7.88,0,0,0-3.84,3,27.09,27.09,0,0,1-4.76,5.77c-2.73,2.41-4.12,3-5.87,3.51l3.15,3c4.8,4.62,4.8,4.62,6.49,3.52.91-.6,2.31-1.52,3.7-2.41,1.61-3.25,3.73-7,4.6-8.61Z"/><path class="cls-8" d="M96.81,231c-2.75-2.87-5.51-5.75-7.32-7.61s-2.68-2.69-3.27-4a5.5,5.5,0,0,1-.14-4.58,8.51,8.51,0,0,1,3.86-3.69c1.36-.61,2.28-.33,3.68.42s3.26,2,4.18,2.5.87.36,3.19,2.91,7,7.81,9.41,10.44,2.58,2.63,5.66,4.28c2.51,1.34,6.94,3.76,11.73,6.39-4.19-6-8.38-12-10.66-14.69s-2.67-2.08-5.33-3.79-7.6-5.75-10.07-7.77L98.27,209A13.71,13.71,0,0,1,94.51,205a4.73,4.73,0,0,1,.49-4.68,5.41,5.41,0,0,1,3.71-2.22,9.84,9.84,0,0,1,4.92.5,12.85,12.85,0,0,1,3.29,2c.62.48.71.48,3.77,2.71l1.6,1.16c-.16-2.28-.32-4.56.48-6.13a4.4,4.4,0,0,1,4.48-2.21c1.73.19,3.55,1.27,8.23,5.41.47.42.09.07,1.51,1.35s5.19,4.79,8.14,7.58c3.12,2.95,6.31,6,8.94,8.53l3.15,3c2.84,2.73,4,3.85,4.82,4.08-.81-.4-2-1.56-4.5-3.95l-3.15-3c-2.63-2.52-5.91-5.49-9-8.44,3.77-3.45,7.9-7.27,10.45-9.75s3.61-3.6,4.67-4.73c.72-.79,1.81-1.93,2.51-2.75a17.93,17.93,0,0,0,2.35-3.33,4.34,4.34,0,0,0,.32-4,5,5,0,0,0-4-2.38,19.27,19.27,0,0,0-5.61.58,3.44,3.44,0,0,0-2.67,1.55,66.32,66.32,0,0,1-6,6.56c-2.92,2.7-8,6.24-11.89,9.06a18.21,18.21,0,0,0,2.63-2.1c1.33-1.36,5.67-5.82,7.76-7.84s1.82-1.25,1.87-1.76.86-2.73.23-3.82a5,5,0,0,0-3.4-2.35,10.37,10.37,0,0,0-4.2.55c-1,.27-1.09.27-4.19,2.46s-9.13,6.57-11.6,8.51-1.37,1.43-1.41.2c-.16-4.6-6.29-4.3-9.36-3.35l-.4.14c-.6.38-1.26,1.15-3.84,3.51-3.62,3.31-11,9.77-18.46,16.23h0l-1.6,1.41-11,9.77a102.73,102.73,0,0,0,3.1,10,47.64,47.64,0,0,0,4.28,8.24,39.92,39.92,0,0,0,5.53,7,34.37,34.37,0,0,0,7.21,5.57,32.94,32.94,0,0,0,7.17,2.68c2.85.87,6.56,2.07,10.28,3.28L109.1,258l-.22-.18c-.49-.4-1-.86-1.65-1.4C103.1,252.81,95,245.69,90.88,242s-4.29-3.8-4.94-5.5-1.78-4.94-1.18-7,3-2.84,5.15-2.51a12.78,12.78,0,0,1,5.26,2.55A11.23,11.23,0,0,1,96.81,231Z"/><path class="cls-9" d="M158.42,207l.24-5.43c-3.14,4-12.13,14.73-14.27,17.51,1.75-.47,3.14-1.1,5.87-3.51a27.09,27.09,0,0,0,4.76-5.77A7.88,7.88,0,0,1,158.42,207Z"/><path class="cls-3" d="M192.86,233.76c5.53-.93,11.07-1.85,15.76-3.91s8.56-5.23,9.71-8.39-.43-6.3-2-9.44"/><path class="cls-3" d="M47.3,231.44A123.65,123.65,0,0,1,33,236.63a42.74,42.74,0,0,1-10.61,1.21"/><path class="cls-3" d="M104.2,127.63a37.52,37.52,0,0,0,11.3,4.87A74.6,74.6,0,0,0,131.27,134c4.39,0,6.68-.51,2.06,1.69s-16.17,7.06-27.17,9-21.43.92-28.47-.16a83.5,83.5,0,0,1-14.32-3.34"/><path class="cls-10" d="M115.5,132.5a37.35,37.35,0,0,1-11.13-4.77l-.17-.1a9.45,9.45,0,0,1-3.25,2.45A46.44,46.44,0,0,1,93.32,133c-2.52.76-5.59,1.59-9,2.47-6.45,1.69-14,3.6-21,5.7a83.5,83.5,0,0,0,14.32,3.34c7,1.08,17.48,2.08,28.47.16s22.54-6.78,27.17-9,2.33-1.74-2.06-1.69a74.6,74.6,0,0,1-15.77-1.45Z"/><path class="cls-11" d="M144.3,81c0-14.93-9.94-27-22.21-27S99.87,66,99.87,81a32.68,32.68,0,0,0,.19,3.59,30.29,30.29,0,0,0,4.45,13l.7.83a47.35,47.35,0,0,0,4.75,5.29,20,20,0,0,0,8.36,4,21.72,21.72,0,0,0,5.45.22,18.4,18.4,0,0,0,11.81-5.39A29.83,29.83,0,0,0,138,99.5a27.56,27.56,0,0,0,1.87-2.82,3.69,3.69,0,0,1,.8-.87A31.17,31.17,0,0,0,144.3,81Zm-20.82,9.63c1.12,0,2,1.58,2,3.52s-.91,3.51-2,3.51-2-1.57-2-3.51S122.35,90.59,123.48,90.59Z"/><path class="cls-3" d="M96,230.27c3.07,3.23,6.14,6.46,8.77,8.88s4.82,4,5.91,4.87,1.1.9,1.1,1"/><path class="cls-3" d="M112.29,204.47c5.25,4,10.5,8.06,13.13,10s2.63,1.82,4.4,4,5.32,6.7,8.86,11.21"/><path class="cls-12" d="M100.8,73.86a5,5,0,0,1-1.55-1.58,6.56,6.56,0,0,1-.49-2.39c-.06-.32-.19-1-.4-1.68s-.56-1.48-.83-2.24-1-1.62-1.33-1.64-.74-.82-1.67-.9a7.28,7.28,0,0,0-3.62.55c-1.21.58-2.34,2.73-3,4.46a12.15,12.15,0,0,0-.19,6.3,15.94,15.94,0,0,0,2.69,6.15,9.64,9.64,0,0,0,4,3.12,7.28,7.28,0,0,0,3.37.51,14,14,0,0,0,2.28-.4A30,30,0,0,1,99.93,81a29,29,0,0,1,.87-7.1Z"/><path class="cls-13" d="M160.25,169.66c.22-5.46.22-5.46-9-4.69L114.56,168c-9.18.76-9.18.76-8.32,4.67s2,11.26,3.7,19a3.76,3.76,0,0,1,3.23,3.68c0,1.23-1.06,1.74,1.41-.2s8.51-6.32,11.6-8.51,3.24-2.19,4.19-2.46a10.37,10.37,0,0,1,4.2-.55A5,5,0,0,1,138,186c.63,1.09-.19,3.31-.23,3.82s.21-.25-1.87,1.76-6.43,6.48-7.76,7.84c-.35.36-.68.65-1,.9a127.09,127.09,0,0,0,10.23-7.86l.5-.46a71.45,71.45,0,0,0,5.53-6.1,3.44,3.44,0,0,1,2.67-1.55,19.27,19.27,0,0,1,5.61-.58,5,5,0,0,1,4,2.38,3.09,3.09,0,0,1,.32,1.06,5.18,5.18,0,0,1-.64,2.89,11.31,11.31,0,0,1-.88,1.46,30,30,0,0,1-2.92,3.5,4.07,4.07,0,0,1,1.78-1.12,6.17,6.17,0,0,1,3.64.4,4.82,4.82,0,0,1,2.22,1.59c0-10.91.84-20.84,1.07-26.29Z"/><g class="cls-14"><g id="_1352967108848" data-name=" 1352967108848"><path id="_1" data-name=" 1" class="cls-15" d="M129.23,181.11a6.52,6.52,0,0,0-2,2.52,6.7,6.7,0,0,0-.48,3.4,9.28,9.28,0,0,0,1.13,3.13,23.71,23.71,0,0,0,1.71,2.89,6.59,6.59,0,0,0,1.9,1.81,4.17,4.17,0,0,0,2.31.67c.76,0,1.44-.42,2.05-.39a7.2,7.2,0,0,1,1.74.61,2.74,2.74,0,0,0,2.23-.46,12.49,12.49,0,0,0,3.63-2.94,8.7,8.7,0,0,0,1.74-4,5.76,5.76,0,0,0-.09-2.32c-.09-.4-.09-.45-.48-.18a5.82,5.82,0,0,1-2.1,1,3.07,3.07,0,0,1-2.69-.7,2.66,2.66,0,0,1-.51-2.67,3.5,3.5,0,0,1,1.94-1.83,3.08,3.08,0,0,1,1.67-.16c.32,0,.34.05.15-.13a11.15,11.15,0,0,0-1.08-.9,5.75,5.75,0,0,0-1.76-.9,12.2,12.2,0,0,0-3.28-.52,16.64,16.64,0,0,0-4.39.41A8.78,8.78,0,0,0,129.23,181.11Z"/><path class="cls-15" d="M134.29,177.26A1.6,1.6,0,0,1,134,176a1.63,1.63,0,0,1,.74-1,3.1,3.1,0,0,1,1.49-.49,4.39,4.39,0,0,1,1.41.18c.29.08.3.11.16.31s-.43.57-.7,1a10.81,10.81,0,0,1-.78,1.06,1.73,1.73,0,0,1-.92.58,1.2,1.2,0,0,1-1.13-.25Z"/></g></g><path class="cls-2" d="M160.25,169.66c.22-5.46.22-5.46-9-4.69L114.56,168c-9.18.76-9.18.76-8.32,4.67s2,11.26,3.7,19a3.76,3.76,0,0,1,3.23,3.68c0,1.23-1.06,1.74,1.41-.2s8.51-6.32,11.6-8.51,3.24-2.19,4.19-2.46a10.37,10.37,0,0,1,4.2-.55A5,5,0,0,1,138,186c.63,1.09-.19,3.31-.23,3.82s.21-.25-1.87,1.76-6.43,6.48-7.76,7.84c-.35.36-.68.65-1,.9a127.09,127.09,0,0,0,10.23-7.86l.5-.46a71.45,71.45,0,0,0,5.53-6.1,3.44,3.44,0,0,1,2.67-1.55,19.27,19.27,0,0,1,5.61-.58,5,5,0,0,1,4,2.38,3.09,3.09,0,0,1,.32,1.06,5.18,5.18,0,0,1-.64,2.89,11.31,11.31,0,0,1-.88,1.46,30,30,0,0,1-2.92,3.5,4.07,4.07,0,0,1,1.78-1.12,6.17,6.17,0,0,1,3.64.4,4.82,4.82,0,0,1,2.22,1.59c0-10.91.84-20.84,1.07-26.29Z"/><path class="cls-3" d="M160.25,169.66c.22-5.46.22-5.46-9-4.69L114.56,168c-9.18.76-9.18.76-8.32,4.67s2,11.26,3.7,19a3.76,3.76,0,0,1,3.23,3.68c0,1.23-1.06,1.74,1.41-.2s8.51-6.32,11.6-8.51,3.24-2.19,4.19-2.46a10.37,10.37,0,0,1,4.2-.55A5,5,0,0,1,138,186c.63,1.09-.19,3.31-.23,3.82s.21-.25-1.87,1.76-6.43,6.48-7.76,7.84c-.35.36-.68.65-1,.9a127.09,127.09,0,0,0,10.23-7.86l.5-.46a71.45,71.45,0,0,0,5.53-6.1,3.44,3.44,0,0,1,2.67-1.55,19.27,19.27,0,0,1,5.61-.58,5,5,0,0,1,4,2.38,3.09,3.09,0,0,1,.32,1.06,5.18,5.18,0,0,1-.64,2.89,11.31,11.31,0,0,1-.88,1.46,30,30,0,0,1-2.92,3.5,4.07,4.07,0,0,1,1.78-1.12,6.17,6.17,0,0,1,3.64.4,4.82,4.82,0,0,1,2.22,1.59c0-10.91.84-20.84,1.07-26.29Z"/><path class="cls-11" d="M171.85,229.09a37.46,37.46,0,0,1,.12-5.44c1.07-3.9,2.13-7.8,2.66-9.75s.53-2,0-2.59a5.85,5.85,0,0,0-3.09-2.26,5,5,0,0,0-5,2.26c-1.47,2-2.39,5.36-3,7s-1,1.68-2.88,2.78c-.85.51-2,1.25-3.21,2-1.39.89-2.79,1.81-3.7,2.4-1.69,1.1-1.69,1.1-6.49-3.52l-3.15-3c-2.63-2.53-5.82-5.58-8.94-8.53-2.95-2.79-5.84-5.5-8.14-7.58l-1.51-1.35c-4.68-4.14-6.5-5.22-8.23-5.41a4.4,4.4,0,0,0-4.48,2.21c-.8,1.57-.64,3.85-.48,6.13l-1.6-1.16c-3.06-2.23-3.15-2.23-3.77-2.71a12.85,12.85,0,0,0-3.29-2,9.84,9.84,0,0,0-4.92-.5A5.41,5.41,0,0,0,95,200.28a4.73,4.73,0,0,0-.49,4.68A13.83,13.83,0,0,0,98.27,209l3.46,2.82c2.47,2,7.41,6.05,10.07,7.77s3,1.1,5.33,3.79,6.47,8.69,10.66,14.69c-4.79-2.63-9.22-5-11.73-6.39-3.08-1.65-3.25-1.65-5.66-4.28s-7.09-7.9-9.41-10.44-2.28-2.39-3.19-2.91-2.78-1.75-4.18-2.5-2.32-1-3.68-.42a8.51,8.51,0,0,0-3.86,3.69,5.5,5.5,0,0,0,.14,4.58c.59,1.27,1.46,2.11,3.27,4s4.57,4.74,7.32,7.61a11.23,11.23,0,0,0-1.64-1.38,12.78,12.78,0,0,0-5.26-2.55c-2.19-.33-4.54.48-5.15,2.51s.53,5.26,1.18,7,.81,1.86,4.94,5.5,12.22,10.77,16.35,14.33c.62.54,1.16,1,1.65,1.4,2.72,2.22,4,2.51,11.33,4.45,8.69,2.28,25.91,6.85,43.13,11.42a58.26,58.26,0,0,0,4.28-6.22,55.26,55.26,0,0,0,5.36-13,75.64,75.64,0,0,0,2.07-10.79,75.78,75.78,0,0,0,.78-8.37,8.44,8.44,0,0,0-.66-3.68l-2.11-.3a2.45,2.45,0,0,1-1.21-2.19Z"/><path class="cls-3" d="M96.81,231l10.3,9.87c2,2,2,1.93,3.57,2.69l7.94,3.89"/><path class="cls-3" d="M112.29,204.47l11.77,8.95a17.74,17.74,0,0,1,4.19,3.94l9.18,10.74"/><path class="cls-12" d="M158.41,75.79a12.42,12.42,0,0,0-.2-6.68,6.61,6.61,0,0,0-3.33-3.72,7.94,7.94,0,0,0-3.53-.61,3.28,3.28,0,0,0-1.71.3,5.7,5.7,0,0,0-1,.65,5,5,0,0,0-.83.83,7,7,0,0,0-1.1,2.3c-.23.76-.37,1.44-.44,1.78l-.06.34a10,10,0,0,1-.92,2.41,5.6,5.6,0,0,1-1.57,1.47,32.87,32.87,0,0,1,.56,6.1A34.14,34.14,0,0,1,144,85.4a19,19,0,0,0,3.25.72,7.82,7.82,0,0,0,3.78-.51,10.52,10.52,0,0,0,4.41-3.3,16.46,16.46,0,0,0,3-6.52Z"/><path class="cls-3" d="M143.56,74.72a2.84,2.84,0,0,0,.9-.55,4.69,4.69,0,0,0,.91-1.3,20.49,20.49,0,0,0,.89-2.06"/><path class="cls-16" d="M100.92,73.67c2.65-11.32,11.21-19.6,21.36-19.6,10.49,0,19.28,8.84,21.61,20.74a2.71,2.71,0,0,0,.76-.49,4.63,4.63,0,0,0,.92-1.3c.3-.59.6-1.33.89-2.06l0-.17a16.87,16.87,0,0,1,.44-1.78,7,7,0,0,1,1.09-2.3,5.5,5.5,0,0,1,.83-.84c-.88-1.85-1.76-3.71-2.72-5.34a30.5,30.5,0,0,0-3.44-4.68,43.11,43.11,0,0,0-4.82-4.76,12.76,12.76,0,0,0-4-2.24c-1.27-.48-2.62-.88-4-1.29a3.24,3.24,0,0,1-1.49,1.87,9.88,9.88,0,0,1-3.68.35,23,23,0,0,0-5,.31c-1.66.37-3.21,1.14-5.1,1.68a32.22,32.22,0,0,1-5.65,1,6.42,6.42,0,0,1-2.93-.16c-1.09,1.35-2.19,2.7-3.39,4.23a52.16,52.16,0,0,0-3.4,4.69,21.79,21.79,0,0,0-1.81,3.77,7.42,7.42,0,0,1,1,2.3c.21.76.33,1.44.39,1.78s.06.34.09.6a6.42,6.42,0,0,0,.22,1.32,4.79,4.79,0,0,0,.71,1.55,3.24,3.24,0,0,0,1,.83Z"/><path class="cls-17" d="M133,36.68a12,12,0,0,0-1.88-5.05,10.63,10.63,0,0,0-3.67-3.72,17.62,17.62,0,0,0-5.1-1.74,15.74,15.74,0,0,0-4.21-.43,35,35,0,0,0-5.08.68,17.47,17.47,0,0,0-4.76,1.45,9.14,9.14,0,0,0-2.64,2.39,5.77,5.77,0,0,0-1.49,2.3,15.09,15.09,0,0,0,0,2.77,5,5,0,0,1-.7,2.33c-.4.78-.94,1.63-1.39,2.42a7.43,7.43,0,0,0-.93,2.32,8.21,8.21,0,0,0,.08,2.51,16.21,16.21,0,0,0,.68,2.78,11.65,11.65,0,0,0,1.55,3.12,6.51,6.51,0,0,0,2.47,2,2.18,2.18,0,0,0,.23.09,6.54,6.54,0,0,0,2.93.17,33.52,33.52,0,0,0,5.65-1c1.89-.54,3.44-1.32,5.1-1.68a21.8,21.8,0,0,1,5-.31,9.7,9.7,0,0,0,3.69-.36c.7-.32,1-.91,1.49-1.87.08-.16.16-.34.24-.53a41,41,0,0,0,2-5,14.48,14.48,0,0,0,.75-5.69Z"/><path class="cls-3" d="M108.06,201.42q2.46-2.47,4.9-5"/><path class="cls-3" d="M95.72,212.81l3.66-2.87"/><path class="cls-18" d="M86.31,68A77.8,77.8,0,0,1,88,53.78a140.49,140.49,0,0,1,4.13-13.54c.94-2.83.82-3-.42-3a39.13,39.13,0,0,1-7.83-.59,62.86,62.86,0,0,1-14.54-4.18c-4.18-1.94-6.42-4.29-7.95-5.24s-2.35-.47-3.94,1.77a52.42,52.42,0,0,0-6,11.78A71,71,0,0,0,47.18,60.9c-.46,7.48.41,15.37,1.27,23.27a46.1,46.1,0,0,0,15.78.58,22.18,22.18,0,0,0,9.48-3.83c1.47-1,1.47-1,.82,1.23-.52,1.79-1.45,5-2.13,8.44,4.93-.73,9.86-1.46,12.32-1.71s2.47,0,2.29-1.49-.53-4.65-.7-8.06S86.13,72.26,86.31,68Z"/><path class="cls-18" d="M206.24,63.56a74.8,74.8,0,0,0-4-20.08,54.25,54.25,0,0,0-5.64-11.77c-1.5-2.24-2.27-2.71-3.71-1.77s-3.55,3.3-7.48,5.24a56.37,56.37,0,0,1-13.67,4.18,34.58,34.58,0,0,1-7.36.59c-1.16,0-1.27.12-.39,2.95s2.77,8.36,3.88,13.54a82.57,82.57,0,0,1,1.6,14.24c.17,4.24.17,7.89,0,11.31s-.5,6.59-.66,8.06-.17,1.24,2.15,1.49,6.95,1,11.59,1.71c-.65-3.44-1.52-6.65-2-8.44-.61-2.23-.61-2.23.78-1.23a20.08,20.08,0,0,0,8.91,3.82A40.75,40.75,0,0,0,205,86.83c.81-7.9,1.63-15.79,1.2-23.27Z"/><path class="cls-3" d="M122,67.43a32.78,32.78,0,0,1,.83,6.32c0,2.25-.36,4.71.24,5.63s2.17.31,4-.27,4-1.14,6-1.56,3.65-.72,4.5-.12.85,2.09.18,3.18a4.55,4.55,0,0,1-3.69,1.89c-1.69.11-3.72-.34-5.09-.37a3.76,3.76,0,0,0-2.72.86,5.13,5.13,0,0,0-1.41,1.73,5.54,5.54,0,0,0-.43,1.84"/><path class="cls-3" d="M192,269.52c5.9-4.75,11.8-9.49,15.46-14.3a30.64,30.64,0,0,0,5.82-14.5,103.56,103.56,0,0,0,.94-14.2"/><path class="cls-10" d="M214.08,232.86c.1-2.12.14-4.23.18-6.34a25.59,25.59,0,0,1-5.64,3.33c-4.69,2.06-10.23,3-15.76,3.91a14.37,14.37,0,0,1,2.12,7.05,87.57,87.57,0,0,1-.53,16.83A78.52,78.52,0,0,1,192,269.52c5.9-4.75,11.8-9.49,15.46-14.3a30.64,30.64,0,0,0,5.82-14.5,73,73,0,0,0,.76-7.86Z"/><path class="cls-3" d="M27.72,237.57A70.26,70.26,0,0,0,40,242a43.78,43.78,0,0,0,11.16.58"/><path class="cls-10" d="M51.19,242.6a76.44,76.44,0,0,1-3.89-11.16A123.65,123.65,0,0,1,33,236.63a33.84,33.84,0,0,1-5.27.94A70.26,70.26,0,0,0,40,242,43.78,43.78,0,0,0,51.19,242.6Z"/></g><g id="Слой_1_0" data-name="Слой_1 0"><ellipse class="cls-19" cx="118.29" cy="79.41" rx="2.05" ry="1.94"/><path class="cls-3" d="M127.79,79.23a4.56,4.56,0,0,1,.09-1.58,1.67,1.67,0,0,1,.88-1,1.85,1.85,0,0,1,1.29,0,2,2,0,0,1,1,.62,2.16,2.16,0,0,1,.36,1"/><path class="cls-10" d="M127.88,77.65a4.56,4.56,0,0,0-.09,1.58l.8-.25c.9-.28,1.87-.55,2.85-.81a2.16,2.16,0,0,0-.36-1,2,2,0,0,0-1-.62,1.85,1.85,0,0,0-1.29,0,1.67,1.67,0,0,0-.88,1Z"/><path class="cls-20" d="M65.56,84.42a45.79,45.79,0,0,1-15.77-.58l-.67-.15c-.44-.1-.86-.21-1.28-.33A41.21,41.21,0,0,1,36.71,78c-1.88-1.12-1.88-.65-2.53.94s-1.94,4.3-3.47,8.66a65.3,65.3,0,0,0-3.77,17.9,69.79,69.79,0,0,0,2.89,24.55c2.54,7.94,6.8,14.77,11.06,21.6a50.1,50.1,0,0,1,13.37-7.4C57.4,143,61,141.83,64.72,140.7c7-2.1,14.54-4,21-5.7l.85-.22a68.78,68.78,0,0,1-8-8.07A24.86,24.86,0,0,1,74,117.27a56,56,0,0,1-1.24-11.66,73,73,0,0,1,.53-12.71c.11-.71.23-1.41.36-2.11,0-.18.07-.35.1-.52.69-3.44,1.62-6.65,2.13-8.44L76,81.3c.21-.9.12-.86-.35-.65s-1.51.71-2.62,1.2a22.38,22.38,0,0,1-7.49,2.57Z"/><path class="cls-20" d="M192.16,86.82a45.36,45.36,0,0,0,15.71-.1l.67-.13,1.28-.29a41.22,41.22,0,0,0,11.23-5c1.91-1.06,1.89-.59,2.49,1s1.8,4.35,3.19,8.75a65.59,65.59,0,0,1,3.21,18,70.29,70.29,0,0,1-3.62,24.46c-2.77,7.86-6.93,14.13-11.37,20.82-2.52-1.92-6.15-3.59-13.27-6.87-3.06-1.4-7.8-3.05-11.49-4.29a204.46,204.46,0,0,0-19.64-5.83l-1.13-.3a74.59,74.59,0,0,0,8.49-8.34,24.91,24.91,0,0,0,4.88-9.29,55.64,55.64,0,0,0,1.58-11.62,71.37,71.37,0,0,0-.14-12.72c-.08-.71-.18-1.42-.29-2.13l-.09-.52c-.57-3.45-1.4-6.69-1.86-8.5-.05-.19-.09-.37-.14-.53-.18-.91-.09-.86.37-.63L184.79,84A22.11,22.11,0,0,0,192.16,86.82Z"/><path class="cls-3" d="M140.44,98a8.06,8.06,0,0,1,3.25,1.5,3.12,3.12,0,0,1,.48,3,41,41,0,0,1-1.5,4.46,29.49,29.49,0,0,0-1.42,5.61,31.56,31.56,0,0,0,0,7.18c.28,3,.83,7,2.21,9.9a14.13,14.13,0,0,0,6.55,6.43,87.73,87.73,0,0,0,11.57,4.74c4.89,1.78,11,4,20,7.62s21,8.68,30,15.47,14.88,15.31,19.14,23.75a82,82,0,0,1,8.17,25.93c1.3,9.11,1.3,19-.47,26.48s-5.33,12.62-9.36,17.56a85.4,85.4,0,0,1-12.31,12.62,19.68,19.68,0,0,1-10.91,4.59,89.42,89.42,0,0,1-14.08-.17"/><path class="cls-3" d="M195,263.5c7.06-1.48,14.13-3,19.65-6.49s9.5-9.09,11.75-16.32,2.78-16.11,2-24.26a62.43,62.43,0,0,0-6-21.68,40.66,40.66,0,0,0-12.79-15.12c-5.77-4.24-13.33-7.95-20.89-11.47s-15.11-6.82-22.47-10.87a141,141,0,0,1-18.56-12.06c-4-3.25-5-5-6.17-7.36a64.22,64.22,0,0,1-4-9.62,60.76,60.76,0,0,1-2.71-12.92c-.2-3.45.59-5,.74-6.58a11,11,0,0,0-.84-4.52"/><path class="cls-3" d="M183.53,232.54a137.38,137.38,0,0,0,3.12-17.75,51.09,51.09,0,0,0-1-15.6,29.38,29.38,0,0,0-5.37-11.34,37.45,37.45,0,0,0-9.32-8.94,27.19,27.19,0,0,0-9.55-3.38"/><path class="cls-3" d="M199,233.44A145,145,0,0,0,202.08,219a47.94,47.94,0,0,0,.15-13.83,31.73,31.73,0,0,0-5-13.13,55.37,55.37,0,0,0-12.4-13,75.3,75.3,0,0,0-14.89-8.8,23.78,23.78,0,0,0-8.12-2.12"/><path class="cls-3" d="M152.77,164.84a47.86,47.86,0,0,1-8.24-6.74A39.33,39.33,0,0,1,138,147.76a126.21,126.21,0,0,1-5.24-14.36c-1.66-5.3-3.29-11-4.22-15.42a33.41,33.41,0,0,1-1-9.08c.17-1.61.73-1.78,1.28-2"/><path class="cls-3" d="M133,166.49A108.57,108.57,0,0,1,129,154a76.67,76.67,0,0,1-1.71-12.53c-.27-4-.33-7.78-.86-12.29s-1.52-9.79-2.12-13.47-.81-5.77-1-7.86"/><path class="cls-3" d="M116.62,106.67a113.92,113.92,0,0,1,2.59,12.13,77.32,77.32,0,0,1,.36,9.73c0,3.07.23,6.17.36,10.16s.2,8.86.17,13.83-.17,10-.3,15.07"/><path class="cls-3" d="M88.13,206.81c2.71-5.54,5.42-11.07,7.74-16.87s4.22-11.87,6.13-18.23,3.83-13,5.08-18a133,133,0,0,0,2.63-13.12,142.84,142.84,0,0,0,2-17.17,68.21,68.21,0,0,0-1.08-13.63c-.59-3.57-1.1-6.23-1.61-8.89"/><path class="cls-3" d="M104,95.56c.47,3.46.94,6.93,1.48,10a91.39,91.39,0,0,1,1.35,9,99,99,0,0,1,0,10.32"/><path class="cls-3" d="M59.22,227.43c4.3-7.13,8.61-14.27,12.71-22s8-15.93,11.61-23.9,7-15.69,10.19-22.48,6.23-12.66,8.17-17a51.19,51.19,0,0,0,3.43-9.68c.62-2.6,1-5,1.41-7.45"/><path class="cls-3" d="M36.33,234.52A267.51,267.51,0,0,0,55,208.14c6.39-10.55,13-23.74,18.23-34.45s8.86-18.95,10.84-25a50,50,0,0,0,2.5-13.88"/><path class="cls-3" d="M80.88,136.59c-6.61,7.46-13.21,14.91-20.14,21.11s-14.18,11.15-20.05,18.76-10.35,17.9-13.87,26.76-6.1,16.32-7.48,23.17-1.59,13.12.26,17.38a11.27,11.27,0,0,0,10,6.75c4.22.27,8.77-1.45,12.68-3.12s7.17-3.3,10.44-4.92"/><path class="cls-3" d="M65.88,141.32c-8.46,8-16.92,16-24.71,25.48a137.43,137.43,0,0,0-19.66,31.45,94.57,94.57,0,0,0-7.71,31.21c-.59,9.39.59,17.3,3.56,24S25.07,265.75,31,268.62a25,25,0,0,0,19.17.83c6.11-2.23,11.22-6.88,16.33-11.54"/><path class="cls-3" d="M42.79,287.25c8.05-2.28,16.1-4.56,22.68-7.75s11.71-7.29,16.84-11.39"/><g class="cls-21"><polygon class="cls-22" points="87.92 88.59 170.27 89.93 159.3 164.51 133.04 166.49 108.17 169.03 87.92 88.59"/></g><g id="_2896213175744" data-name=" 2896213175744"><path class="cls-23" d="M34.83,100c11.84-1,6.81-1.29,14.08.11,5.52,1.06,3.53-3.76,14.18.27,0,0,9.78-1.1,7.4.32a.92.92,0,0,1-.61-.3c-1.31-.29-5.64,2-7.44,1.19-8.52-3.78-10.92,3.64-15.9-.06-5.34.21-1.54,0-11.37,1.26a1.41,1.41,0,1,1-.34-2.79Z"/></g><path class="cls-2" d="M35,101.41c18.42-2.25,8.07-.31,15.92,0,.06,0,7.07-3.78,11.66-.51,1.47,1,7.29-1.9,7.8-.36-.36-.38-.46,0-.58-.49"/><g id="_2896213173488" data-name=" 2896213173488"><path class="cls-23" d="M35.43,112.29c9.48.4,9.72,1.5,17.84-1.82,2.8-1.15,5.15,3,12.81,1.29.94-.21,4.57.51,5,1l-.07.27a.63.63,0,0,1-.5,0c-1.08-.14-3.57-.49-4.23-.19h0c-4.66,2.87-10.82-1.24-12.28-.55h0c-6.38,3.81-11.15,2.84-18.58,2.81a1.41,1.41,0,0,1,0-2.81Zm35.39.41h.05S70.84,112.69,70.82,112.7Z"/></g><path class="cls-2" d="M35.45,113.7c5.83-.12,13,1.33,18-2.22,1.67-1.19,8.8,3.55,12.51.91.89-.64,7.2.94,4,.4"/><g id="_2896213175120" data-name=" 2896213175120"><path class="cls-23" d="M39.25,129.83c11.9-2.4,4.22-1.37,15.23-1.74,1.45-.05-.2-2.91,10.41-1.71,4.35.5,7.18-1.39,9.57-.41.77,0,.69.07.1.24a.08.08,0,0,0,0,0l0,0a76.7,76.7,0,0,1-9.84,1.67c-10.89-.45-6.54,2-10,2.36-12.35,1.42-1.06-1-14.84,2.34a1.41,1.41,0,1,1-.59-2.75Zm35.32-3.58s0,0,0,0h0Z"/></g><path class="cls-2" d="M39.55,131.21c7.63-1.64,9.08-2.5,14.55-2.05,2.87.24.18-3.32,10.69-2,6.57.81,4.81-1.9,9.8-.91.32.07,0-.17-.24-.24"/><g id="_2896213173056" data-name=" 2896213173056"><path class="cls-23" d="M190.85,94.12c5.39,1.18,10,2.86,15.15,2,6.15-1,3.95,2.22,11.91.62,2.37-.47,4.66.86,6.54,2.12-1.75-.37-4.48-1.44-6.15-1-8.33,2.48-6.18-1-11.87.24-5.53,1.18-10.44-.32-16.15-1.32a1.41,1.41,0,0,1,.57-2.76Z"/></g><path class="cls-2" d="M190.56,95.5c21,4.34,10.78.75,19.34,1.8,4.82.59,2.41,2,8.2.08,1.78-.58,4.73.86,6.35,1.53"/><g id="_2896213173152" data-name=" 2896213173152"><path class="cls-23" d="M193,104.56c6.92.92,14.39,2.86,21.27,2.86,2.72,0,5.2,1.93,10.65,2.64-5.19,2.1-5.75-1.37-10.59-1-6.9.52-14.66-1.09-21.63-1.69a1.41,1.41,0,1,1,.3-2.8Z"/></g><path class="cls-2" d="M192.84,106c14.62,1.59,9.59,1,17.27,2.52,2.06.42,5.74-1.58,10.08,1.52.53.38,4.23.23,4.72.06"/><g id="_2896213173536" data-name=" 2896213173536"><path class="cls-23" d="M189.07,115.13c4.48,1.62,2.36-1.35,9,2.63.5.31,1.64-.86,3.87.83,3,2.25,10.38,3.16,11.87,5.39,2.22-.13,3,1,4.78,2.4,0,0,0,0,0,0h0c.05,0,.15-.33.21-.43.48.78-.11,1-1,.52-2.24-1.21-4.86-1.36-5-1.8v0c-2.06-1.73-8.95-2.35-11.24-3.63-4.59-2.57-2,0-4.58-1.22-7-3.35-3.12-.34-9-2.17a1.41,1.41,0,1,1,1.1-2.59Z"/></g><path class="cls-2" d="M188.52,116.42c3.8,1.62,4-1.12,8.7,2.22,1.69,1.21,2-1.32,5.09,1.73.4.4,10.93,2.55,11.12,4.26,3.16-.86,5.51,3.5,5.34,1.35"/><g id="_2896213174208" data-name=" 2896213174208"><path class="cls-23" d="M187.09,126.76c4.18,2.14,8.17,4.26,12.43,6.18,5.59-4.51,11.9,6.66,17.43,6.68-1.27,3.3-12.19-7.7-15.87-5.32-3,1.92-12.72-3.86-15.23-5a1.41,1.41,0,0,1,1.24-2.53Z"/></g><path class="cls-2" d="M186.47,128c21.68,10.58,7.71,3.44,19.11,5.52,0,0,9.36,7.75,11.37,6.08"/><ellipse class="cls-24" cx="45.32" cy="137.11" rx="4.81" ry="3.67"/><ellipse class="cls-24" cx="54.16" cy="138.68" rx="1.93" ry="2.3"/><path class="cls-25" d="M95.69,69.65a3,3,0,0,0-1.81.25,3.09,3.09,0,0,0-1.32,1.89,6.92,6.92,0,0,0,.11,3A11.17,11.17,0,0,0,94,78.36a4.2,4.2,0,0,0,2.47,2,5.88,5.88,0,0,0,3-.4"/><path class="cls-25" d="M148,82a4.67,4.67,0,0,0,2.58.2,14.79,14.79,0,0,0,3.59-1.59,5.85,5.85,0,0,0,2.49-2.3,8.5,8.5,0,0,0,1-4,3.21,3.21,0,0,0-1.34-2.89A3.56,3.56,0,0,0,151.39,73"/><path class="cls-26" d="M113.34,53.69a44.86,44.86,0,0,1-4.17-7.09,12.57,12.57,0,0,1-1-6.29,11,11,0,0,1,2.13-5.25,55,55,0,0,1,4.64-5.38"/><path class="cls-26" d="M114.76,53c0-2.22.1-4.45.19-6.35s.22-3.5.34-5.39.25-4.06.42-6,.39-3.65.6-5.36"/><path class="cls-26" d="M118.76,51.87a47.79,47.79,0,0,0,2.31-6,19.92,19.92,0,0,0,.78-6.62,22.15,22.15,0,0,0-3.16-9.7"/><path class="cls-26" d="M123.68,50.82a54.76,54.76,0,0,0,3.48-7.5,14,14,0,0,0,.76-6.21,11.94,11.94,0,0,0-1.63-4.51,10.77,10.77,0,0,0-2.37-3,7.81,7.81,0,0,0-2.63-1.22"/><path class="cls-26" d="M128.41,50.46c.91-2.8,1.81-5.59,2.41-7.89a17.73,17.73,0,0,0,.75-6,13.85,13.85,0,0,0-1.51-5.17,6.13,6.13,0,0,0-3.17-3,18.64,18.64,0,0,0-5.21-.87"/><path class="cls-26" d="M108.2,53.19a63.5,63.5,0,0,1-2.82-7.3,10.74,10.74,0,0,1-.22-5.79,22.93,22.93,0,0,1,2.51-5.86,15.07,15.07,0,0,1,3.24-4.15,8.25,8.25,0,0,1,3.35-1.48"/><path class="cls-26" d="M113.88,26.42a1,1,0,0,0,.34.43c.25.21.69.51,1.13.8"/><path class="cls-26" d="M121.88,25.86l-3.17.94"/><ellipse class="cls-27" cx="117.93" cy="28.3" rx="3.82" ry="1.46" transform="translate(-3.25 23.31) rotate(-11.14)"/><path class="cls-3" d="M17.67,269.71a64.37,64.37,0,0,0-2.45,9.63,75.43,75.43,0,0,0-.59,10.4"/><path class="cls-3" d="M27.54,278.88l-2.73,15.93"/><path class="cls-3" d="M37,284,34.52,296.6"/><path class="cls-3" d="M122,262.22q-.3,17.22-.61,34.44"/><path class="cls-3" d="M139.62,266.83l-3.21,29.83"/><path class="cls-3" d="M155.14,271l-4.26,25.68"/><path class="cls-3" d="M171,284.72q-.69,6-1.39,11.94"/><path class="cls-3" d="M223.7,275.84a56.86,56.86,0,0,1-.85,10.5,62.89,62.89,0,0,1-3.46,10.32"/><path class="cls-3" d="M236.35,264c.72,4.7,1.44,9.41,1.06,14.37s-1.86,10.18-3.33,15.4"/><path class="cls-3" d="M210.26,282.62q-.48,7-1,14"/><path class="cls-3" d="M193.63,287.52l.12,9.14"/><path class="cls-3" d="M112,258.83c-1.77,5.26-3.54,10.51-4.11,16.81a104.84,104.84,0,0,0,.37,17.34l.31,3.68"/><path class="cls-3" d="M98.63,269.88c-1.39,5.18-2.77,10.37-3.13,14.83a44.27,44.27,0,0,0,1,12"/><path class="cls-3" d="M85.91,286.51l-1.23,10.15"/><path class="cls-3" d="M73.69,293.39c.2,1.09.39,2.18.59,3.27"/><path class="cls-3" d="M47.36,289.48l.33,7.18"/></g></svg>