<svg id="Слой_1" data-name="Слой 1" xmlns="http://www.w3.org/2000/svg" xmlns:xlink="http://www.w3.org/1999/xlink" viewBox="0 0 334 318"><defs><style>.cls-1,.cls-14,.cls-2,.cls-5,.cls-6{fill:none;}.cls-12,.cls-13,.cls-2,.cls-3,.cls-7,.cls-8{stroke:#2c2b2a;}.cls-11,.cls-12,.cls-13,.cls-14,.cls-2,.cls-3,.cls-4,.cls-5,.cls-6,.cls-7,.cls-8{stroke-miterlimit:10;}.cls-11,.cls-12,.cls-13,.cls-14,.cls-2,.cls-3,.cls-4,.cls-5,.cls-7,.cls-8{stroke-width:0.57px;}.cls-3{fill:#fdefe5;}.cls-11,.cls-12,.cls-13,.cls-15,.cls-3,.cls-4,.cls-7,.cls-8,.cls-9{fill-rule:evenodd;}.cls-4{fill:#613526;stroke:#613526;}.cls-5,.cls-6{stroke:#44231a;}.cls-6{stroke-width:0.7px;}.cls-11,.cls-15,.cls-7{fill:#444243;}.cls-8{fill:#b3b4b4;}.cls-9{fill:#6673b6;}.cls-10{clip-path:url(#clip-path);}.cls-11,.cls-14{stroke:#444243;}.cls-12{fill:#44231a;}.cls-13{fill:#2c2b2a;}</style><clipPath id="clip-path"><path class="cls-1" d="M173.28,189.83l46.5,14.63c9.3,2.92,9.3,2.92,12.82,0l17.58-14.79c.34-4.9.68-9.8,1-14.25.42-5.91.77-11,1-14.26.4-5.7.4-5.7-.1-5.6s-1.5.3-14.5.55-38,.54-50.58.79-12.79.45-13,5.94c-.18,4.35-.36,12-.55,20.36-.05,2.19-.1,4.43-.15,6.67Z"/></clipPath></defs><g id="Слой_1_0" data-name="Слой_1 0"><g id="_2378115186032" data-name=" 2378115186032"><path class="cls-2" d="M111.38,51.84a42.62,42.62,0,0,1-1.25-6.72,18.4,18.4,0,0,1,.6-6.07A25.74,25.74,0,0,1,113,33.43a18.18,18.18,0,0,1,3.83-5.17,21.49,21.49,0,0,1,5.89-3.56A31.3,31.3,0,0,1,129,22.75a28.56,28.56,0,0,1,7.33-.64,45.16,45.16,0,0,1,8.46,1.41,22.34,22.34,0,0,1,6.84,2.67,14.36,14.36,0,0,1,3.86,4.27c1,1.52,1.91,3,2.61,4.35s1.18,2.49,1.66,3.65"/><path class="cls-2" d="M130.28,65.92a22.08,22.08,0,0,0,7.3,0,31.58,31.58,0,0,0,9.35-3.52,18,18,0,0,0,5.27-4.82,37.55,37.55,0,0,0,2.45-3.65"/><path class="cls-3" d="M159.49,43a32,32,0,0,1,3,11.69,3.88,3.88,0,0,0,1.45-.16,5,5,0,0,0,1.66-1.08,14.19,14.19,0,0,0,1.78-2,11.47,11.47,0,0,0,1.52-2.58,11.65,11.65,0,0,0,.79-3.15,10.26,10.26,0,0,0-.1-3.14,11.5,11.5,0,0,0-1-2.84,4.87,4.87,0,0,0-1.74-2.16,6.3,6.3,0,0,0-3-.74,5.31,5.31,0,0,0-2.56.55,5.43,5.43,0,0,0-1.89,1.5,7.5,7.5,0,0,0-1,1.94c.38.7.75,1.42,1.09,2.16Z"/><path class="cls-3" d="M120.24,64.38c.57.92,1.18,1.8,1.81,2.63C121.42,66.18,120.81,65.3,120.24,64.38ZM116.1,54.22a32.57,32.57,0,0,0,4.14,10.16A32.57,32.57,0,0,1,116.1,54.22Zm46.22-2A31.91,31.91,0,0,0,158,41q-.65-1-1.35-2c-8.15-11.25-22-15.48-31.82-9.38-7.74,4.8-10.86,14.64-8.7,24.61a19.93,19.93,0,0,0-4.72-2.38,7.63,7.63,0,0,0-4.36.06,6.11,6.11,0,0,0-2.6,1.72,5.65,5.65,0,0,0-1.14,1.91,8.15,8.15,0,0,0-.65,2.87,10.22,10.22,0,0,0,.67,3.54A13.6,13.6,0,0,0,105,65.37a8.73,8.73,0,0,0,2.27,2.08,14.27,14.27,0,0,0,2.52,1.36,17.33,17.33,0,0,0,3.29,1,8.92,8.92,0,0,0,3.15.1,9.12,9.12,0,0,0,2.35-.84,18.26,18.26,0,0,0,1.93-1A14.22,14.22,0,0,0,122.05,67a32.44,32.44,0,0,0,4.1,4.46c8.14,7.31,19.07,9.37,27.26,4.3a19.86,19.86,0,0,0,8.76-12.85,27.09,27.09,0,0,0,.15-10.67Zm-13.76-4.18a2.44,2.44,0,1,1,2.25-2.73A2.52,2.52,0,0,1,148.56,48.07Zm-19.33,4.11a2.56,2.56,0,1,1-2.83-2.11,2.49,2.49,0,0,1,2.83,2.11Z"/><path class="cls-4" d="M110.88,23.91c1.56,1.55,4.25,2.61,7.21,3.32a15.93,15.93,0,0,1,2.62-1.6,25.87,25.87,0,0,1,6.46-2.47,42.29,42.29,0,0,1,6.14-1c1.27,0,.93-.06,1.24-.06.38-.55.76-1.12,1.1-1.71a12.24,12.24,0,0,0,1.51-3.6A8.77,8.77,0,0,0,136,10.36a10,10,0,0,0-6.68-4.82c-3-.53-6.82.5-9.88,1.52s-5.41,2-7,3.77a12.65,12.65,0,0,0-2.89,6.64C109.18,19.92,109.32,22.36,110.88,23.91Z"/><path class="cls-5" d="M119.6,26.25A22.53,22.53,0,0,1,114,22a7.33,7.33,0,0,1-1.58-4.94,7.46,7.46,0,0,1,1.33-4,13.31,13.31,0,0,1,2.65-2.65"/><path class="cls-5" d="M121.69,25.14a25.9,25.9,0,0,1-2.24-4.34,17.62,17.62,0,0,1-.93-4.44,20.28,20.28,0,0,1-.06-3.61,13.8,13.8,0,0,1,.47-2.43"/><path class="cls-5" d="M125.78,23.56c0-1.58,0-3.16,0-4.75a17.63,17.63,0,0,0-.34-4.74,21.3,21.3,0,0,0-2.14-4.7"/><path class="cls-5" d="M130.91,22.4a32.15,32.15,0,0,0,1.08-4,9.31,9.31,0,0,0-.1-4.19A10.49,10.49,0,0,0,129.62,10a12.07,12.07,0,0,0-3.47-2.36"/><ellipse class="cls-6" cx="121.22" cy="8.93" rx="5.09" ry="0.89" transform="translate(1.57 30.34) rotate(-14.36)"/><path class="cls-5" d="M115.72,8.52l1.38.93"/><path class="cls-5" d="M126.12,5.47c-.35.65-.71,1.29-1.07,1.93"/><path class="cls-7" d="M92.49,266c30.75,2.64,64.19,3.95,97.64,5.26A87.64,87.64,0,0,0,207,291.11c10,8.52,24.32,16.57,36.55,20.09s22,1.34,31.25-.75c26.45-6,45.31-29.16,50.87-55.52a167.74,167.74,0,0,0,3.12-22.22c.63-9.39.31-19.65-3.45-30.69s-11-22.85-18.2-34.66c-10.42-14.8-20.84-29.57-33.22-38s-26.81-10.53-38.08-11.6-19.42-1.13-27.06-2.23a64.05,64.05,0,0,1-20.57-6.32A53.51,53.51,0,0,1,174.14,98c-3.87-4.14-7.18-8.43-8.35-12.49s-.19-7.92.78-11.76c1.07-2,2-3.91,1.51-5.32s-2.87-2.42-4.44-2.35-2.39,1.11-3.22,2.15a18.91,18.91,0,0,1-7,7.77c-8.19,5.08-19.12,3-27.26-4.3-.38-.34-1-1.18-1.39-1.55-2.26-2.54-9.81,1.78-6,8.29,7.41,12.67,17.39,21.06-31.64,47.65-5.29,2.87-11.06,2.61-17.91,4.43s-15.3,4.54-24,11.22-17.68,17.33-24.33,37S10,226.84,5.63,255.4c27.06,3.83,51.79,7.45,81.27,10.09l5.59.5Z"/><path class="cls-8" d="M246.61,241.57a165.66,165.66,0,0,1-34.37,11.07c-11,2.21-6.91,2.5-11.72,2.15S192,252,187.79,248.35c-1.07,11.62-.8,8.82-1.07,15.68-.19,4.72-.47,8.94.4,9.09,2.13.36,2,.72,3.09.89a110.8,110.8,0,0,0,15.12,1.46,85.08,85.08,0,0,0,21.61-2.54A92.48,92.48,0,0,0,245.46,266a75.36,75.36,0,0,0,14.86-9.25,31.78,31.78,0,0,0,8.45-10.3,21.24,21.24,0,0,0,1.91-7.66c.12-1.47.28-1.54-.8-3.59a58.5,58.5,0,0,0-5.87-9.54c-.45-.54-1.87-2.74-2.22-3-2.56-1.92-3,4.84-4.14,8.65-1.85,6.09-1.26,3.9-7.13,8.27a22.72,22.72,0,0,1-3.91,2Z"/><path class="cls-3" d="M257.61,175.68,180.69,184c-5.94,2-11.87,4-14.45,6.75s-1.81,6.24-1.41,8c.35,1.62.41,1.87.43,2a7.26,7.26,0,0,0-3.69,1.56,5,5,0,0,0-1.2,4.09,9.75,9.75,0,0,0,1.76,3.88c-1.66,1.65-3.28,3.31-3.34,5.1s1.52,3.83,3.11,5.82a3.81,3.81,0,0,0-.88.55,3.76,3.76,0,0,0-1.21,1.91,7.19,7.19,0,0,0,.2,4.4c.63,2,2,4.5,6.5,8.84s11.93,10.39,19.44,16.5c3.46,1.44,6.92,2.88,15.05,2.87A130.65,130.65,0,0,0,232,252a76.77,76.77,0,0,0,21.4-9.65c4.17-2.72,5.31-4.05,6.44-5.38,1.69-9.88,3.37-19.73,4.45-25.82s1.58-8.46,1.88-11.85.4-7.83-1.05-11.93S260.62,179.45,257.61,175.68Z"/><path class="cls-9" d="M173.28,189.83l46.5,14.63c9.3,2.92,9.3,2.92,12.82,0l17.58-14.79c.34-4.9.68-9.8,1-14.25.42-5.91.77-11,1-14.26.4-5.7.4-5.7-.1-5.6s-1.5.3-14.5.55-38,.54-50.58.79-12.79.45-13,5.94c-.18,4.35-.36,12-.55,20.36-.05,2.19-.1,4.43-.15,6.67Z"/><g class="cls-10"><path id="_1_0" data-name=" 1 0" class="cls-11" d="M204.65,187.83a12.21,12.21,0,0,0-4.27,4.33,12.5,12.5,0,0,0-1.49,6.26,17.8,17.8,0,0,0,1.56,6,44.8,44.8,0,0,0,2.69,5.68,11.86,11.86,0,0,0,3.23,3.71,7.8,7.8,0,0,0,4.18,1.65c1.42.05,2.76-.52,3.9-.37s2.09,1,3.13,1.45,2.15.4,4.24-.47a23.51,23.51,0,0,0,7.29-4.86,16.27,16.27,0,0,0,3.93-7.07,11.17,11.17,0,0,0,.24-4.33c-.1-.78-.09-.86-.86-.43a10.67,10.67,0,0,1-4.11,1.56,5.67,5.67,0,0,1-4.88-1.77,4.91,4.91,0,0,1-.5-5.05,6.48,6.48,0,0,1,3.94-3.08,6,6,0,0,1,3.14,0c.59.14.64.16.3-.22a23.64,23.64,0,0,0-1.84-1.85,11.05,11.05,0,0,0-3.14-2,23.27,23.27,0,0,0-6-1.55,31.72,31.72,0,0,0-8.26,0,16.25,16.25,0,0,0-6.4,2.39Z"/><path class="cls-11" d="M214.74,181.53a3,3,0,0,1-.27-2.49,3,3,0,0,1,1.57-1.78,5.72,5.72,0,0,1,2.85-.67,8.49,8.49,0,0,1,2.61.59c.53.2.54.25.24.6s-.9,1-1.47,1.65a22.08,22.08,0,0,1-1.63,1.84,3.23,3.23,0,0,1-1.83.91,2.28,2.28,0,0,1-2.07-.65Z"/></g><path class="cls-2" d="M173.28,189.83l46.5,14.63c9.3,2.92,9.3,2.92,12.82,0l17.58-14.79c.34-4.9.68-9.8,1-14.25.42-5.91.77-11,1-14.26.4-5.7.4-5.7-.1-5.6s-1.5.3-14.5.55-38,.54-50.58.79-12.79.45-13,5.94c-.18,4.35-.36,12-.55,20.36-.05,2.19-.1,4.43-.15,6.67Z"/><path class="cls-12" d="M116.1,54.22c-2.16-10,1-19.81,8.7-24.61,9.85-6.1,23.67-1.87,31.82,9.38q.7,1,1.35,2a32.67,32.67,0,0,1,3.91,9.17,33.06,33.06,0,0,0-2.39-7.2c-.34-.74-.71-1.46-1.09-2.16a7.5,7.5,0,0,1,1-1.94c.11-.14.23-.27.36-.41-.48-1.16-1-2.33-1.66-3.65s-1.6-2.83-2.61-4.35a14.36,14.36,0,0,0-3.86-4.27,22.34,22.34,0,0,0-6.84-2.67,45.16,45.16,0,0,0-8.46-1.41c-.6,0-1.18,0-1.75,0h-.12a8.88,8.88,0,0,1-1.12.05c-.44,0-.88.06-1.3.11-1.38.19-3.22.56-4.83.91h0a30.84,30.84,0,0,0-4.48,1.54q-1,.42-2,.93c-.55.33-1,.55-1.32.74s-.88.55-1.3.86a13.23,13.23,0,0,0-1.29,1A18.18,18.18,0,0,0,113,33.43a25.74,25.74,0,0,0-2.24,5.62,18.4,18.4,0,0,0-.6,6.07,42.62,42.62,0,0,0,1.25,6.72A19.93,19.93,0,0,1,116.1,54.22Z"/><path class="cls-2" d="M161.9,221.18c9.26,5.46,18.53,10.92,23.2,13.73s4.75,3,10.83,2.65,18.17-1.11,30.26-1.91"/><path class="cls-2" d="M162.13,210.26c9.51,3.69,19,7.39,23.84,9.23s5,1.85,11,2.45,17.73,1.79,29.5,3"/><path class="cls-2" d="M165.26,200.73l28.72,9.4"/><path class="cls-2" d="M92.49,266q3.23-32.76,6.46-65.52"/><path class="cls-11" d="M100.94,118.86c1-.66,5.59-1.83,6.57-2.18,13.72-5,32.06-12,37.71-15.43,8.19-5,10.5-5,1.1-3.91-13,1.55-20.64-5-20.74-4.18-.63,4.72-1.07,6.53-7.61,13.16C114.66,109.67,104.77,116.2,100.94,118.86Z"/><path class="cls-13" d="M124.15,52.8a2.56,2.56,0,1,0,2.25-2.73,2.5,2.5,0,0,0-2.25,2.73Z"/><path class="cls-13" d="M145.72,46A2.57,2.57,0,1,0,148,43.23,2.52,2.52,0,0,0,145.72,46Z"/><path class="cls-2" d="M135.49,45.35a19.16,19.16,0,0,0,1.7,5.81,4.38,4.38,0,0,0,3.86,2.5c1.56-.07,3.29-1.2,4.71-2.17s2.56-1.78,3.52-1.78,1.77.81,1.5,1.58-1.59,1.5-2.85,2.17a27.19,27.19,0,0,0-3.46,2,4.69,4.69,0,0,0-2,2.7,9,9,0,0,0,.43,3.75"/><path class="cls-14" d="M8.73,255.84c3.47-15,6.94-30,10.6-44.47S26.84,183,31,173.58s8.7-14.47,14.23-19.08a67.7,67.7,0,0,1,21.08-12c9-3.27,20.58-5.61,33.21-11.64s26.34-15.76,30.9-24.56,0-16.68-2.7-21.23-3.41-5.76-3.68-7.06a8.51,8.51,0,0,1,.24-3.87,20.94,20.94,0,0,1,1.17-3.17"/><path class="cls-14" d="M18.93,257.28c2.45-11.16,4.9-22.33,8.38-35.27s8-27.67,13.52-38.46,12.05-17.65,19-21.92,14.31-5.94,22.42-8.45a120.12,120.12,0,0,0,25.52-10.87c8.53-5,16.73-11.72,21.82-19.07s7.06-15.38,8.06-20.16,1-6.32.85-8.09a36.39,36.39,0,0,0-1-5.52c-.46-1.75-1-3.23-1.39-4.73a15.54,15.54,0,0,1-.56-4.2,8.64,8.64,0,0,1,.7-2.92"/><path class="cls-14" d="M153.43,76c.47,10.93.93,21.87.72,32.58a292.82,292.82,0,0,1-2.42,31.59c-1.33,10.38-3.1,20.63-5.19,34.23s-4.49,30.55-5.42,46.91-.39,32.1.16,47.86"/><path class="cls-14" d="M157.47,72.61c.55,8.54,1.09,17.08,1.8,26.51s1.56,19.75,2.09,27.78.72,13.78,1.34,20.75,1.69,15.19,3,22.12,2.88,12.59,4.44,18.25"/><path class="cls-14" d="M108.86,267.26c.52-9.3,1-18.6,2.12-32.42s2.73-32.17,4.94-45.32a117.36,117.36,0,0,1,7.91-28,133.46,133.46,0,0,1,8.92-17.58c3-4.87,5.88-8.8,8.29-12.91a49.29,49.29,0,0,0,5.69-14.36,138.28,138.28,0,0,0,2.76-20.31c.47-6.78.54-12.74.61-18.7"/><path class="cls-14" d="M55.31,262.14c2.17-17.57,4.33-35.14,7.57-49.93s7.53-26.81,12.85-34.59,11.64-11.33,18.6-15.88a206.86,206.86,0,0,0,21-15.69,143.12,143.12,0,0,0,15.5-15.56,51,51,0,0,0,7.92-12.06,52.08,52.08,0,0,0,4.71-16.52c.76-6.78.36-15,0-23.11"/><path class="cls-2" d="M128.6,64.28a29.62,29.62,0,0,0,8,1.33c3.51.08,8.27-.39,11.61-2.67s5.26-6.34,7.18-10.42"/><path class="cls-15" d="M113.11,214.31c-.7,7.05-1.29,14.06-1.77,20.17-1.08,13.82-1.6,23.12-2.12,32.42,10.59.74,20.53,1.3,31.51,1.84-.49-14.37-.77-28.77-.15-43.6-3.12-.39-3.38-.43-7.08-.86s-5.57-.48-10.46-3.57c-2.38-1.5-5.87-3.75-9.93-6.4Z"/><path class="cls-15" d="M111,234.84c.78-10,.74-13.56,1.44-20.61-4.33-2.81-8.61-5.39-13.59-8.64-1.06,15.85-4.85,49-6,60.43,0,0-.49.08,16,1.24C109.38,258,110.2,244.81,111,234.84Z"/><path class="cls-15" d="M141.23,225.35c-.62,14.83.13,29.1.63,43.48,14.9.74,29.49,1.69,44.68,2.28-.07-1.7.07-4.3.18-7.08.22-5.44.09-4.8.56-10.11l-1.33-.54c-7.51-6.11-15-12.2-19.44-16.5S160.64,230,160,228c-6.82-.88-13.32-2-18.78-2.69Z"/><path class="cls-14" d="M212.36,275.26c10.28,7,20.56,14.05,31.36,17.82s22.14,4.31,31.66.92,17.26-10.69,23.51-19.06a84,84,0,0,0,13.76-27.74A81.66,81.66,0,0,0,315.09,217c-1.06-9.8-3.92-18.9-8.63-29a171.47,171.47,0,0,0-17.52-29.44,80.08,80.08,0,0,0-18.37-17.83,66.94,66.94,0,0,0-22.77-10.43c-10.11-2.7-23.87-4.72-33.93-6.78s-16.41-4.18-21.7-6.83a41.06,41.06,0,0,1-12.27-8.92,29.5,29.5,0,0,1-5.2-9.14"/><path class="cls-14" d="M168.32,90.78c2.41,9.76,4.82,19.51,8.83,26.19s9.62,10.28,16.76,13,15.83,4.5,25.36,6.25,19.9,3.44,28.27,6.72a56.72,56.72,0,0,1,20.33,13.92,95.92,95.92,0,0,1,14.61,19.75,113,113,0,0,1,9.79,22.87A86.41,86.41,0,0,1,295.92,223c.22,8.63-.53,18.58-2.8,26.47a47.79,47.79,0,0,1-10,18.26,37.67,37.67,0,0,1-12.81,10.12,40.62,40.62,0,0,1-15.83,3.65c-5.24.1-10-.95-13.34-2.93s-5.26-4.85-7.18-7.73"/><path class="cls-14" d="M163.64,66.08c-.51,10.18-1,20.36,1,32.44s6.58,26,11.33,34.72,9.71,12.11,14.78,14.88a68.75,68.75,0,0,0,15.06,6.14,80.43,80.43,0,0,0,13.51,2.1"/><path class="cls-14" d="M254.92,260.71c3.88,1.08,7.76,2.17,12.25,1.41a18.27,18.27,0,0,0,12.5-8.15c2.92-4.79,3.65-11.76,3.28-19.93a145.86,145.86,0,0,0-3.59-25.14,75.77,75.77,0,0,0-6.71-18.83,58.81,58.81,0,0,0-10.13-14,52.16,52.16,0,0,0-10.85-7.84"/><path class="cls-2" d="M111.58,56.51c-1-.68-2.07-1.36-2.89-1s-1.41,1.75-1.63,3.07a4.77,4.77,0,0,0,.68,3.62,6.33,6.33,0,0,0,3.34,2.35,8.88,8.88,0,0,0,3.84,0"/><path class="cls-2" d="M163.52,51.49a8.5,8.5,0,0,0,2.55-2.37A9.19,9.19,0,0,0,167.43,45a5.08,5.08,0,0,0-.9-3.64,3.33,3.33,0,0,0-2.87-1.23,2.84,2.84,0,0,0-1.95,1.53,3.17,3.17,0,0,0-.34,1.67"/></g></g></svg>