<svg width="183" height="162" viewBox="0 0 183 162" fill="none" xmlns="http://www.w3.org/2000/svg">
<path d="M123.958 160.62C123.958 160.62 126.667 75.1878 60 78.9527" stroke="#FFC300" stroke-miterlimit="10"/>
<path d="M123.958 160.62C123.958 160.62 115.735 75.6301 182 79.3949" stroke="#FFC300" stroke-miterlimit="10"/>
<path d="M122.002 1C122.002 1 126.606 82.1733 62.2168 78.4703" stroke="#FFC300" stroke-miterlimit="10"/>
<path d="M122.074 1C123.255 8.54956 113.955 84.9323 181.932 80.6357" stroke="#FFC300" stroke-miterlimit="10"/>
<path d="M37.6974 161C37.6974 161 39.2519 110.154 1 112.395" stroke="#FFC300" stroke-miterlimit="10"/>
<path d="M37.6973 161.001C37.6973 161.001 32.9792 110.418 71 112.658" stroke="#FFC300" stroke-miterlimit="10"/>
<path d="M36.5757 66C36.5757 66 39.2172 114.311 2.27246 112.107" stroke="#FFC300" stroke-miterlimit="10"/>
<path d="M36.6172 66C37.2948 70.4932 31.9587 115.953 70.9618 113.396" stroke="#FFC300" stroke-miterlimit="10"/>
</svg>
